<?xml version="1.0" encoding="UTF-8"?>
<svg width="600px" height="600px" viewBox="0 0 600 600" version="1.1" xmlns="http://www.w3.org/2000/svg" xmlns:xlink="http://www.w3.org/1999/xlink">
    <title>02</title>
    <g id="02" stroke="none" stroke-width="1" fill="none" fill-rule="evenodd">
        <g id="streamlinehq-beta-testing-development-600" transform="translate(15.000000, 59.000000)" fill="#303030" fill-rule="nonzero">
            <path d="M162.725849,259.029894 C161.541149,255.234894 160.063649,251.535894 158.306849,247.968894 C155.121449,240.872394 150.619949,234.443994 145.040849,229.023894 C142.171349,226.123494 138.601049,224.014194 134.675849,222.900894 C130.750949,221.787594 126.604649,221.708094 122.639849,222.669894 C117.457949,223.714194 112.729349,226.345194 109.110149,230.197794 C105.490649,234.050394 103.159949,238.933794 102.440849,244.170894 C101.555249,251.337894 102.483749,258.609894 105.140849,265.323894 C105.224849,265.530894 105.376649,265.701894 105.571349,265.809894 C105.765749,265.920894 105.991649,265.959894 106.211849,265.923894 C110.747849,264.882894 115.322849,263.997894 119.897849,263.121894 C117.539849,261.417894 115.747949,259.047894 114.753749,256.314894 C113.759849,253.581894 113.609549,250.611894 114.322649,247.791894 C115.035749,244.974894 116.579249,242.433894 118.753049,240.501294 C120.926849,238.569294 123.631049,237.335094 126.514949,236.957994 C129.398549,236.581194 132.329249,237.078894 134.926649,238.387194 C137.524049,239.695494 139.668749,241.752894 141.082649,244.293894 C142.496549,246.837894 143.114249,249.744894 142.856249,252.639894 C142.597949,255.537894 141.475649,258.288894 139.634849,260.541894 C146.039849,260.226894 157.076849,260.151894 161.882849,260.124894 C162.015749,260.124894 162.146849,260.091894 162.265949,260.031894 C162.385049,259.971894 162.489149,259.887894 162.570149,259.782894 C162.651449,259.677894 162.707549,259.554894 162.734549,259.422894 C162.761549,259.293894 162.758549,259.158894 162.725849,259.029894 L162.725849,259.029894 Z" id="Path"></path>
            <path d="M382.949849,94.8938941 C378.626849,85.5668941 368.819849,81.7778941 361.901849,84.4328941 C370.265849,66.9068941 363.233849,44.9948941 344.045849,40.1258941 C341.705849,39.4127941 339.239849,39.2087941 336.812849,39.5282941 C334.388849,39.8474941 332.057849,40.6823941 329.981849,41.9768941 C327.089849,36.3251941 323.183849,31.2512941 318.461849,27.0068941 C316.061849,24.8627941 313.217849,23.2748941 310.133849,22.3559941 C307.049849,21.4370941 303.803849,21.2099941 300.620849,21.6908941 C289.520849,22.9658941 277.091849,29.8328941 274.652849,41.6228941 C274.057949,44.3882941 274.128449,47.2550941 274.858649,49.9877941 C275.588849,52.7201941 276.957749,55.2401941 278.852849,57.3398941 C274.196849,61.4612941 271.297949,67.2107941 270.752849,73.4048941 C291.188849,70.5470941 311.990849,74.7209941 329.744849,85.2416941 C347.498849,95.7626941 361.148849,112.005294 368.453849,131.304894 C382.388849,124.284894 389.366849,108.735894 382.949849,94.8938941 Z M306.536849,64.3508941 C303.605849,64.9457941 300.560849,64.6193941 297.821849,63.4163941 C295.082849,62.2133941 292.784849,60.1925941 291.239849,57.6314941 C289.694849,55.0700941 288.977849,52.0937941 289.190849,49.1099941 C289.403849,46.1264941 290.534849,43.2815941 292.427849,40.9655941 C294.320849,38.6495941 296.882849,36.9755941 299.765849,36.1736941 C302.648849,35.3714941 305.705849,35.4800941 308.522849,36.4850941 C311.342849,37.4897941 313.778849,39.3413941 315.503849,41.7860941 C317.225849,44.2307941 318.152855,47.1485941 318.152855,50.1398941 C318.155849,53.4860941 317.000849,56.7305941 314.885849,59.3213941 C312.767849,61.9121941 309.815849,63.6893941 306.536849,64.3508941 L306.536849,64.3508941 Z" id="Shape"></path>
            <path d="M423.428849,242.235894 C423.413849,242.154894 423.395849,242.076894 423.371849,241.998894 C422.204849,239.467194 420.332849,237.325794 417.977849,235.832394 C415.625849,234.338694 412.889849,233.555994 410.102849,233.578494 C407.315849,233.600994 404.594849,234.427494 402.263849,235.958994 C399.935849,237.490494 398.096849,239.661594 396.971849,242.211894 C396.905849,242.346894 396.875849,242.493894 396.881849,242.643894 C396.884849,242.790894 396.926849,242.937894 397.001849,243.066894 C397.076849,243.195894 397.181849,243.303894 397.307849,243.384894 C397.433849,243.462894 397.574849,243.510894 397.724849,243.522894 C404.777849,243.333894 422.240849,243.438894 422.756849,243.276894 C422.873849,243.258894 422.981849,243.216894 423.080849,243.153894 C423.179849,243.087894 423.260849,243.003894 423.326849,242.907894 C423.389849,242.808894 423.431849,242.697894 423.449849,242.580894 C423.467849,242.466894 423.459084,242.349894 423.428849,242.235894 L423.428849,242.235894 Z" id="Path"></path>
            <path d="M150.290849,65.2628941 C168.794849,59.3558941 216.830849,43.0928941 222.434849,41.1308941 C224.303849,40.4768941 223.499849,37.4828941 221.609849,38.1308941 C203.276849,44.5418941 155.123849,60.4568941 149.468849,62.2598941 C147.572849,62.8808941 148.382849,65.8718941 150.290849,65.2628941 Z" id="Path"></path>
            <path d="M231.530849,38.4098941 L262.490849,28.9478941 C264.392849,28.3658941 263.582849,25.3748941 261.668849,25.9478941 L230.705849,35.4218941 C228.806849,36.0038941 229.616849,38.9948941 231.530849,38.4098941 Z" id="Path"></path>
            <path d="M290.177849,19.4498941 C306.167849,13.5608941 322.067849,8.13089409 338.081849,3.07889409 C339.974849,2.47889409 339.164849,-0.521105912 337.256849,0.0788940882 C320.906849,5.24189409 305.012849,10.6808941 289.352849,16.4498941 C287.498849,17.1458941 288.290849,20.1398941 290.177849,19.4498941 Z" id="Path"></path>
            <path d="M260.288849,136.320594 C282.788849,130.386594 339.968849,113.361594 346.244849,111.468594 C346.442849,111.414594 346.625849,111.322494 346.787849,111.197394 C346.949849,111.071994 347.084849,110.916294 347.183849,110.738694 C347.285849,110.561394 347.351849,110.365794 347.375849,110.162994 C347.402849,109.960494 347.387849,109.754694 347.333849,109.557594 C347.279849,109.360794 347.186849,109.176294 347.063849,109.014894 C346.937849,108.853494 346.781849,108.718494 346.604849,108.617394 C346.427849,108.516294 346.229849,108.451194 346.028849,108.425694 C345.824849,108.400194 345.620849,108.414594 345.422849,108.468594 C322.922849,114.399594 265.742849,131.427594 259.466849,133.317594 C259.269749,133.371594 259.085549,133.463994 258.924149,133.589094 C258.762749,133.714494 258.627749,133.870194 258.526649,134.047794 C258.425549,134.225094 258.360149,134.420694 258.334649,134.623494 C258.309149,134.825994 258.323849,135.031794 258.377849,135.228594 C258.431849,135.425694 258.524249,135.610194 258.649349,135.771594 C258.774749,135.932694 258.930449,136.067994 259.107749,136.169094 C259.285349,136.270194 259.480949,136.335294 259.683449,136.360794 C259.886249,136.386294 260.091749,136.371594 260.288849,136.317594 L260.288849,136.320594 Z" id="Path"></path>
            <path d="M481.307849,247.860894 C479.261849,247.446894 477.179849,247.218894 475.091849,247.182894 C474.680849,247.182894 474.287849,247.344894 473.996849,247.635894 C473.705849,247.926894 473.543849,248.319894 473.543849,248.730894 C473.543849,249.141894 473.705849,249.534894 473.996849,249.825894 C474.287849,250.116894 474.680849,250.278894 475.091849,250.278894 C476.903849,250.314894 478.712849,250.503894 480.491849,250.848894 C482.432849,251.235894 483.263849,248.253894 481.307849,247.860894 Z" id="Path"></path>
            <path d="M485.666849,266.250894 L479.867849,265.464894 C479.471849,265.365894 479.054849,265.422894 478.700849,265.623894 C478.343849,265.824894 478.082849,266.154894 477.962849,266.544894 C477.908849,266.739894 477.893849,266.946894 477.917849,267.147894 C477.941849,267.348894 478.007849,267.543894 478.106849,267.720894 C478.208849,267.897894 478.340849,268.053894 478.502849,268.179894 C478.661849,268.302894 478.847849,268.395894 479.042849,268.449894 L484.844849,269.238894 C485.240849,269.334894 485.657849,269.277894 486.011849,269.076894 C486.365849,268.875894 486.629849,268.545894 486.749849,268.155894 C486.803849,267.960894 486.818849,267.753894 486.794849,267.552894 C486.767849,267.351894 486.704849,267.156894 486.602849,266.979894 C486.503849,266.802894 486.368849,266.646894 486.206849,266.520894 C486.047849,266.397894 485.861849,266.304894 485.666849,266.250894 L485.666849,266.250894 Z" id="Path"></path>
            <path d="M438.791849,240.528894 L426.929849,240.528894 C426.530849,240.546294 426.152849,240.717294 425.876849,241.005894 C425.600849,241.293894 425.447849,241.677894 425.447849,242.076894 C425.447849,242.478894 425.600849,242.862894 425.876849,243.150894 C426.152849,243.438894 426.530849,243.609894 426.929849,243.627894 L438.791849,243.627894 C439.190849,243.609894 439.568849,243.438894 439.844849,243.150894 C440.120849,242.862894 440.273849,242.478894 440.273849,242.076894 C440.273849,241.677894 440.120849,241.293894 439.844849,241.005894 C439.568849,240.717294 439.190849,240.546294 438.791849,240.528894 L438.791849,240.528894 Z" id="Path"></path>
            <path d="M358.904849,420.225894 L346.244849,416.091894 C344.345849,415.470894 343.544849,418.461894 345.422849,419.076894 L358.079849,423.213894 C359.990849,423.831894 360.794849,420.843894 358.904849,420.225894 Z" id="Path"></path>
            <path d="M139.820849,387.903894 C145.157849,383.361894 161.120849,376.974894 167.747849,374.775894 C165.678149,370.365894 164.874149,365.466894 165.425849,360.624894 C162.689549,360.270894 159.908849,360.690894 157.399949,361.839894 C154.891049,362.985894 152.754149,364.815894 151.232849,367.116894 C150.494849,368.235894 120.032849,415.215894 118.730849,417.198894 C117.606449,418.869894 116.793149,420.729894 116.330849,422.688894 C115.793849,424.956894 115.943849,424.707894 115.130849,442.065894 C115.004249,442.977894 115.159949,443.904894 115.577249,444.726894 C115.994549,445.545894 116.653349,446.217894 117.464849,446.652894 C118.221449,446.967894 119.044049,447.090894 119.859449,447.009894 C120.675149,446.928894 121.458149,446.649894 122.138849,446.193894 C142.187849,436.233894 139.478849,438.675894 145.694849,429.093894 C139.274849,426.675894 140.102849,417.294894 146.747849,413.991894 C144.764549,413.667894 142.953449,412.671894 141.618749,411.168894 C140.283749,409.668894 139.507049,407.751894 139.418849,405.744894 C139.552349,404.391894 140.050049,403.101894 140.858849,402.009894 C141.667349,400.914894 142.757249,400.062894 144.011849,399.540894 C137.795849,399.009894 134.285849,392.601894 139.820849,387.903894 Z" id="Path"></path>
            <path d="M34.0798487,456.738894 C33.4798487,462.120894 32.8798487,467.505894 32.2798487,472.890894 C32.2807487,473.301894 32.4439487,473.694894 32.7340487,473.985894 C33.0241487,474.273894 33.4174487,474.438894 33.8278487,474.438894 C34.2364487,474.432894 34.6264487,474.267894 34.9159487,473.976894 C35.2051487,473.688894 35.3710487,473.298894 35.3788487,472.890894 L37.1788487,456.738894 C37.1788487,456.327894 37.0159487,455.934894 36.7255487,455.643894 C36.4354487,455.352894 36.0415487,455.187894 35.6308487,455.187894 C35.2213487,455.193894 34.8304487,455.358894 34.5409487,455.649894 C34.2514487,455.937894 34.0861487,456.327894 34.0798487,456.738894 L34.0798487,456.738894 Z" id="Path"></path>
            <path d="M125.558849,463.239894 C125.038949,469.038894 124.520849,474.840894 124.004849,480.639894 C124.006349,481.050894 124.170449,481.443894 124.460849,481.734894 C124.751249,482.025894 125.144849,482.190894 125.555849,482.190894 C125.964749,482.184894 126.354749,482.016894 126.643649,481.728894 C126.932549,481.437894 127.097549,481.047894 127.103849,480.639894 L128.657849,463.239894 C128.640149,462.840894 128.469449,462.462894 128.180549,462.186894 C127.891949,461.910894 127.507949,461.757894 127.108349,461.757894 C126.708749,461.757894 126.324749,461.910894 126.035849,462.186894 C125.747249,462.462894 125.576549,462.840894 125.558849,463.239894 L125.558849,463.239894 Z" id="Path"></path>
            <path d="M458.186849,201.597594 C461.450849,202.182894 464.414849,203.869794 466.586849,206.376894 C468.755849,208.883994 470.000849,212.059494 470.111849,215.373594 C470.129849,215.772894 470.300849,216.149994 470.588849,216.425994 C470.876849,216.702294 471.260849,216.856494 471.659849,216.856494 C472.061849,216.856494 472.445849,216.702294 472.733849,216.425994 C473.021849,216.149994 473.192849,215.772894 473.210849,215.373594 C473.063849,211.392594 471.581849,207.576594 469.007849,204.536694 C466.433849,201.497094 462.911849,199.409994 459.008849,198.609594 C458.612849,198.513594 458.195849,198.572394 457.841849,198.773694 C457.487849,198.974994 457.223849,199.303494 457.103849,199.692594 C456.995849,200.088894 457.046849,200.512194 457.250849,200.869194 C457.454849,201.226494 457.790849,201.488394 458.186849,201.597594 L458.186849,201.597594 Z" id="Path"></path>
            <path d="M462.209849,188.676594 C467.027849,190.078194 471.326849,192.865494 474.572849,196.691694 C477.815849,200.517894 479.864849,205.214094 480.461849,210.195594 C480.470849,210.603894 480.635849,210.992994 480.923849,211.281894 C481.211849,211.570494 481.601849,211.736094 482.009849,211.743594 C482.420849,211.743594 482.813849,211.580694 483.104849,211.290594 C483.395849,211.000194 483.560849,210.606594 483.560849,210.195594 C483.023849,204.511794 480.773849,199.124694 477.107849,194.748294 C473.441849,190.371894 468.533849,187.212594 463.031849,185.688594 C462.632849,185.579694 462.209849,185.633354 461.849849,185.837394 C461.492849,186.041694 461.228849,186.379794 461.120849,186.777594 C461.012849,187.175394 461.063849,187.600494 461.270849,187.958694 C461.474849,188.317194 461.810849,188.579694 462.209849,188.688594 L462.209849,188.676594 Z" id="Path"></path>
            <g id="Group" transform="translate(0.000000, 0.000000)">
                <path d="M106.364849,266.601894 C110.792849,265.581894 115.319849,264.702894 119.711849,263.850894 C122.782949,266.061894 126.579449,267.027894 130.334249,266.547894 C134.089049,266.070894 137.522249,264.186894 139.940849,261.273894 C146.840849,260.973894 153.710849,260.868894 161.888849,260.820894 C162.126749,260.817894 162.361049,260.760894 162.573749,260.655894 C162.786449,260.547894 162.971549,260.394894 163.114949,260.202894 C163.258349,260.013894 163.356449,259.794894 163.401149,259.560894 C163.446149,259.326894 163.436849,259.083894 163.373849,258.855894 C162.179549,255.024894 160.689149,251.292894 158.915849,247.692894 C155.692349,240.515394 151.136849,234.014394 145.490849,228.534894 C142.548449,225.542994 138.877949,223.368594 134.840249,222.225594 C130.802549,221.082594 126.536849,221.010294 122.462849,222.015894 C117.141449,223.075794 112.284749,225.773694 108.573149,229.731294 C104.861249,233.688894 102.479849,238.708494 101.762849,244.086894 C100.870349,251.358894 101.812049,258.738894 104.501849,265.554894 C104.625749,265.929894 104.885549,266.244894 105.230249,266.439894 C105.574949,266.634894 105.979649,266.691894 106.364849,266.601894 L106.364849,266.601894 Z M117.764849,245.814894 C118.821149,243.858894 120.395249,242.229894 122.314949,241.110894 C124.234649,239.988294 126.426149,239.417094 128.648849,239.458194 C130.871549,239.499294 133.040249,240.151494 134.917049,241.341894 C136.794149,242.535894 138.306749,244.218894 139.289849,246.213894 C140.383649,248.595894 140.694149,251.262894 140.177249,253.830894 C139.660349,256.398894 138.342449,258.738894 136.412849,260.511894 C134.293049,262.374894 131.587049,263.436894 128.765549,263.514894 C125.943749,263.589894 123.184649,262.674894 120.967949,260.925894 C118.751249,259.179894 117.217049,256.710894 116.631749,253.947894 C116.046449,251.187894 116.447549,248.307894 117.764849,245.811894 L117.764849,245.814894 Z M141.524849,243.873894 C140.471549,242.052894 139.050149,240.469794 137.351249,239.227794 C135.652649,237.986094 133.713449,237.111894 131.657849,236.660994 C129.602549,236.210394 127.475549,236.192994 125.413049,236.609994 C123.350249,237.026994 121.397249,237.869394 119.678249,239.083194 C117.959549,240.297294 116.512349,241.854894 115.429349,243.660894 C114.346349,245.463894 113.651549,247.473894 113.388749,249.561894 C113.125949,251.649894 113.301149,253.770894 113.903249,255.786894 C114.505649,257.802894 115.521149,259.671894 116.885849,261.273894 C113.585849,261.927894 110.285849,262.605894 106.985849,263.310894 C105.256649,258.450894 104.421149,253.314894 104.519849,248.157894 C104.561849,243.570894 105.835349,239.081394 108.206849,235.155894 C110.863349,231.361794 114.522749,228.381594 118.776149,226.547994 C123.029249,224.714394 127.708349,224.099694 132.290849,224.772894 C135.850349,225.541194 139.164749,227.177694 141.938849,229.536894 C147.571349,234.441294 152.114849,240.470694 155.276849,247.236894 C156.977849,250.647894 158.480549,254.151894 159.776849,257.736894 C153.503849,257.754894 147.671849,257.874894 142.022849,258.099894 C143.116349,255.867894 143.641649,253.398894 143.551949,250.917894 C143.462549,248.433894 142.761149,246.009894 141.509849,243.861894 L141.524849,243.873894 Z" id="Shape"></path>
                <path d="M318.527849,47.1278941 C318.050849,44.7965941 317.030849,42.6107941 315.551849,40.7471941 C314.069849,38.8838941 312.173849,37.3955941 310.010849,36.4031941 C307.847849,35.4104941 305.480849,34.9415941 303.104849,35.0342941 C300.725849,35.1272941 298.403849,35.7791941 296.324849,36.9371941 C294.245849,38.0954941 292.469849,39.7271941 291.140849,41.7002941 C289.808849,43.6730941 288.962849,45.9320941 288.668849,48.2933941 C288.374849,50.6546941 288.641849,53.0519941 289.448849,55.2908941 C290.252849,57.5297941 291.575849,59.5472941 293.306849,61.1798941 C295.637849,63.4154941 298.625849,64.8443941 301.829849,65.2568941 C305.033849,65.6690941 308.285849,65.0432941 311.108849,63.4709941 C313.931849,61.8986941 316.172849,59.4626941 317.510849,56.5211941 C318.845849,53.5793941 319.202849,50.2871941 318.527849,47.1278941 L318.527849,47.1278941 Z M315.335849,53.0558941 C314.843849,55.0322941 313.859849,56.8514941 312.470849,58.3430941 C311.084849,59.8349941 309.341849,60.9503941 307.406849,61.5851941 C305.471849,62.2199941 303.407849,62.3531941 301.406849,61.9721941 C299.405849,61.5914941 297.533849,60.7091941 295.967849,59.4080941 C294.398849,58.1069941 293.189849,56.4293941 292.445849,54.5324941 C291.704849,52.6355941 291.455849,50.5814941 291.725849,48.5624941 C291.992849,46.5434941 292.769849,44.6255941 293.981849,42.9884941 C295.193849,41.3513941 296.801849,40.0484941 298.652849,39.2018941 C300.713849,38.2676941 302.993849,37.9322941 305.237849,38.2337941 C307.478849,38.5352941 309.590849,39.4616941 311.330849,40.9067941 C313.070849,42.3521941 314.369849,44.2577941 315.077849,46.4060941 C315.785849,48.5546941 315.875849,50.8589941 315.335849,53.0558941 L315.335849,53.0558941 Z" id="Shape"></path>
                <path d="M459.791849,390.900894 C462.185849,384.108894 463.778849,377.061894 464.540849,369.900894 C477.008849,369.954894 489.335849,367.275894 500.654849,362.052894 C510.842849,357.411894 519.458849,349.905894 525.455849,340.452894 C532.898849,328.518894 537.188849,308.700894 531.206849,282.135894 C524.906849,254.112894 498.602849,235.593894 469.760849,234.906894 C465.239849,234.788394 460.721849,235.157694 456.281849,236.007894 C456.206849,235.707894 455.981849,235.329894 435.722849,186.207894 C435.659849,186.015294 435.557849,185.837094 435.425849,185.683794 C435.293849,185.530494 435.131849,185.404794 434.948849,185.314194 C434.768849,185.223594 434.570849,185.169894 434.366849,185.155794 C434.165849,185.141994 433.961849,185.168094 433.769849,185.232894 L401.669849,198.495894 C401.477849,198.559794 401.300849,198.661194 401.147849,198.794094 C400.991849,198.926994 400.868849,199.088694 400.775849,199.270194 C400.685849,199.451694 400.631849,199.649094 400.619849,199.851294 C400.604849,200.053494 400.631849,200.256594 400.694849,200.448894 C402.407849,204.588894 411.953849,227.691894 414.386849,233.583894 C412.157849,233.015994 409.829849,232.950594 407.573849,233.392494 C405.317849,233.834394 403.184849,234.772494 401.336849,236.138694 C399.485849,237.505194 397.961849,239.265594 396.875849,241.293894 C395.789849,243.318894 395.168849,245.562894 395.054849,247.860894 C394.997849,251.235894 396.071849,254.535894 398.102849,257.232894 C400.133849,259.929894 403.007849,261.870894 406.268849,262.749894 C409.529849,263.625894 412.988849,263.391894 416.099849,262.080894 C419.210849,260.766894 421.796849,258.453894 423.443849,255.507894 L437.477849,289.479894 C437.540849,289.671894 437.642849,289.851894 437.774849,290.004894 C437.906849,290.160894 438.068849,290.283894 438.251849,290.376894 C438.434849,290.466894 438.632849,290.520894 438.833849,290.532894 C439.037849,290.547894 439.241849,290.520894 439.433849,290.454894 C457.289849,283.050894 456.503849,283.500894 456.716849,283.200894 C463.229849,287.517894 471.803849,281.766894 477.011849,286.176894 C482.009849,291.174894 477.821849,301.074894 465.848849,302.694894 C459.374849,303.492894 452.816849,302.223894 447.104849,299.073894 C431.114849,290.484894 428.720849,286.221894 417.890849,280.233894 C409.274849,275.367894 399.890849,272.004894 390.146849,270.282894 C390.107849,270.282894 390.077849,270.282894 390.038849,270.282894 C390.002849,270.264894 389.966849,270.249894 389.927849,270.237894 C375.086849,267.543894 359.807849,268.557894 345.452849,273.186894 C331.094849,277.815894 318.104849,285.915894 307.628849,296.769894 C297.155849,307.623894 289.520849,320.895894 285.407849,335.406894 C281.292449,349.920894 280.823849,365.223894 284.042849,379.959894 C298.823849,447.924894 382.049849,475.515894 434.642849,428.442894 C435.161849,432.780894 433.895849,437.535894 435.488849,441.702894 C435.821849,443.043894 436.610849,444.225894 437.717849,445.044894 C438.827849,445.866894 440.189849,446.274894 441.566849,446.202894 C442.766849,445.875894 443.879849,445.284894 444.827849,444.474894 C445.772849,443.664894 446.525849,442.656894 447.035849,441.519894 C448.394849,438.504894 449.537849,435.396894 450.455849,432.219894 C450.569849,435.105894 451.187849,437.949894 452.285849,440.619894 C452.969849,442.167894 454.199849,443.409894 455.738849,444.111894 C457.280849,444.810894 459.023849,444.921894 460.640849,444.420894 C464.648849,442.806894 465.140849,437.502894 465.104849,433.809894 C465.104849,433.020894 465.074849,434.229894 466.262849,437.676894 C466.583849,438.831894 467.174849,439.893894 467.990849,440.775894 C468.806849,441.654894 469.820849,442.323894 470.948849,442.731894 C471.956849,442.974894 473.012849,442.947894 474.005849,442.653894 C475.001849,442.359894 475.898849,441.807894 476.612849,441.054894 C478.304849,439.017894 479.351849,436.521894 479.612849,433.884894 C482.606849,418.179894 475.277849,401.217894 459.791849,390.900894 Z M450.044849,251.454894 C450.089849,251.502894 450.140849,251.550894 450.191849,251.598894 C451.823849,252.672894 453.758849,253.200894 455.711849,253.098894 C453.440849,254.838894 451.691849,257.169894 450.659849,259.839894 C450.278849,260.871894 450.116849,261.972894 450.179849,263.070894 C450.245849,264.168894 450.539849,265.239894 451.040849,266.220894 C451.541849,267.198894 452.240849,268.062894 453.092849,268.758894 C453.944849,269.454894 454.931849,269.967894 455.990849,270.261894 C454.532849,271.581894 453.581849,273.363894 453.293849,275.310894 C453.005849,277.254894 453.404849,279.237894 454.418849,280.920894 L439.790849,286.971894 C433.490849,271.755894 425.213849,251.871894 425.042849,251.367894 C425.708849,248.358894 425.435849,245.217894 424.265849,242.367894 C423.095849,239.516694 421.079849,237.092394 418.490849,235.419894 L404.183849,200.784894 L433.436849,188.697894 L453.392849,236.997894 C446.588849,240.201894 445.790849,248.601894 450.044849,251.454894 Z M400.448849,241.053894 C401.558849,239.521494 403.010849,238.271694 404.693849,237.405594 C406.376849,236.539494 408.236849,236.081394 410.129849,236.068794 C412.019849,236.055894 413.888849,236.488494 415.583849,237.331494 C417.275849,238.174794 418.745849,239.404794 419.876849,240.921894 C417.119849,240.954894 404.183849,240.987894 400.448849,241.053894 Z M419.804849,255.453894 C418.073849,257.715894 415.601849,259.293894 412.820849,259.908894 C410.036849,260.520894 407.129849,260.130894 404.609849,258.804894 C402.086849,257.478894 400.118849,255.303894 399.047849,252.663894 C397.976849,250.023894 397.874849,247.089894 398.759849,244.383894 C403.148849,244.281894 418.400849,244.239894 421.637849,244.191894 C422.282849,246.072894 422.450849,248.085894 422.132849,250.050894 C421.811849,252.012894 421.013849,253.866894 419.804849,255.447894 L419.804849,255.453894 Z M478.940849,283.746894 C472.625849,278.004894 461.840849,285.078894 457.229849,279.675894 C456.758849,278.877894 456.476849,277.983894 456.401849,277.062894 C456.329849,276.138894 456.467849,275.211894 456.806849,274.350894 C457.145849,273.489894 457.676849,272.715894 458.357849,272.091894 C459.041849,271.464894 459.857849,271.002894 460.745849,270.741894 C462.224849,270.087894 461.378849,267.885894 459.962849,267.858894 C458.924849,267.891894 457.889849,267.711894 456.923849,267.327894 C455.957849,266.946894 455.081849,266.367894 454.349849,265.629894 C453.713849,264.831894 453.335849,263.856894 453.269849,262.836894 C453.203849,261.819894 453.449849,260.802894 453.977849,259.929894 C456.695849,255.582894 461.009849,252.474894 465.995849,251.277894 C466.394849,251.169894 466.730849,250.905894 466.934849,250.545894 C467.138849,250.188894 467.192849,249.762894 467.081849,249.366894 C466.973849,248.967894 466.709849,248.628894 466.352849,248.424894 C465.992849,248.220894 465.569849,248.169894 465.170849,248.277894 C462.770849,249.036894 460.301849,249.573894 457.802849,249.876894 C455.819849,250.296894 453.755849,250.002894 451.967849,249.051894 C448.985849,246.327894 451.043849,241.287894 454.667849,239.769894 C457.184849,238.742394 459.875849,238.209594 462.593849,238.200894 C494.786849,235.869894 520.652849,255.237894 527.549849,280.260894 C531.089849,292.368894 531.944849,305.103894 530.054849,317.577894 C514.310849,311.817894 493.424849,304.185894 478.886849,299.484894 C482.720849,295.062894 483.377849,287.772894 478.940849,283.740894 L478.940849,283.746894 Z M414.812849,282.111894 C412.607849,285.126894 409.319849,287.169894 405.638849,287.811894 C397.457849,288.711894 393.251849,280.770894 391.679849,273.762894 C399.737849,275.463894 407.522849,278.268894 414.812849,282.105894 L414.812849,282.111894 Z M285.323849,353.001894 C286.334849,340.800894 289.868849,328.944894 295.700849,318.177894 C301.532849,307.413894 309.533849,297.978894 319.199849,290.463894 C328.868849,282.951894 339.989849,277.527894 351.860849,274.536894 C363.731849,271.542894 376.094849,271.047894 388.166849,273.078894 C389.303849,279.936894 392.555849,287.358894 399.332849,290.178894 C406.232849,293.046894 413.417849,289.221894 417.689849,283.704894 C432.461849,292.266894 446.711849,307.974894 465.449849,305.844894 C469.271849,305.427894 472.937849,304.089894 476.126849,301.944894 C485.765849,305.028894 521.402849,317.928894 529.526849,320.895894 C528.533849,326.643894 526.577849,332.184894 523.739849,337.281894 C516.041849,350.934894 500.939849,360.576894 485.504849,364.245894 C478.184849,365.937894 470.696849,366.807894 463.184849,366.840894 C462.776849,366.849894 462.386849,367.014894 462.098849,367.302894 C461.807849,367.590894 461.642849,367.980894 461.633849,368.388894 C460.961849,375.483894 459.440849,382.470894 457.106849,389.202894 C445.388849,382.542894 432.332849,378.579894 418.889849,377.604894 C397.115849,375.225894 384.140849,376.587894 376.853849,375.504894 C373.355849,375.075894 369.998849,373.863894 367.031849,371.961894 C366.995849,371.931894 366.980849,371.895894 366.941849,371.868894 C360.599849,367.413894 357.158849,359.646894 354.602849,352.599894 C353.927849,350.736894 350.933849,351.540894 351.602849,353.421894 C354.302849,360.864894 357.902849,368.598894 364.226849,373.626894 C359.702849,380.094894 330.989849,420.096894 328.559849,423.555894 C318.713849,419.385894 309.980849,412.971894 303.053849,404.826894 C296.123849,396.681894 291.197849,387.030894 288.659849,376.644894 C286.691849,368.907894 285.572849,360.981894 285.323849,353.001894 L285.323849,353.001894 Z M290.162849,390.042894 C303.143849,418.989894 330.911849,432.528894 362.789849,434.538894 C386.705849,436.038894 408.965849,430.788894 420.410849,424.659894 C425.240849,422.076894 431.393849,418.932894 433.730849,425.091894 C423.002849,435.069894 409.964849,442.230894 395.786849,445.923894 C381.611849,449.619894 366.737849,449.733894 352.502849,446.259894 C338.270849,442.788894 325.121849,435.831894 314.240849,426.021894 C303.359849,416.211894 295.085849,403.851894 290.162849,390.051894 L290.162849,390.042894 Z M477.089849,429.414894 C476.993849,432.069894 476.474849,434.688894 475.547849,437.178894 C474.728849,439.278894 472.517849,440.613894 470.924849,439.344894 C468.452849,437.370894 469.088849,434.487894 465.047849,421.167894 C464.936849,420.816894 464.708849,420.516894 464.396849,420.318894 C464.087849,420.120894 463.715849,420.039894 463.352849,420.090894 C462.986849,420.138894 462.653849,420.315894 462.404849,420.588894 C462.158849,420.861894 462.017849,421.212894 462.005849,421.581894 C461.804849,434.922894 462.764849,437.961894 460.403849,440.823894 C459.335849,442.122894 457.781849,441.747894 456.503849,440.943894 C455.759849,440.481894 455.201849,439.773894 454.928849,438.939894 C452.951849,432.873894 453.608849,427.935894 452.552849,421.410894 C452.450849,421.053894 452.222849,420.741894 451.910849,420.540894 C451.598849,420.336894 451.223849,420.249894 450.854849,420.300894 C450.485849,420.351894 450.146849,420.531894 449.897849,420.810894 C449.651849,421.089894 449.513849,421.449894 449.510849,421.821894 C448.787849,427.140894 447.431849,432.351894 445.475849,437.349894 C444.947849,439.515894 443.708849,441.438894 441.959849,442.818894 C439.616849,444.228894 438.359849,440.862894 437.981849,439.116894 C437.171849,431.736894 438.839849,427.992894 436.127849,422.916894 C435.194849,421.095894 433.628849,419.676894 431.720849,418.935894 C429.812849,418.191894 427.700849,418.173894 425.780849,418.884894 C421.853849,420.375894 418.025849,422.115894 414.323849,424.101894 C392.423849,433.038894 357.815849,435.087894 331.484849,424.752894 C335.171849,419.502894 348.059849,402.156894 366.758849,375.399894 C375.677849,380.553894 386.858849,378.807894 396.941849,379.170894 C412.085849,379.713894 428.312849,380.670894 442.574849,385.704894 C462.803849,392.856894 478.190849,407.931894 477.089849,429.423894 L477.089849,429.414894 Z" id="Shape"></path>
                <path d="M363.098849,83.4248941 C370.523849,66.1448941 363.626849,45.2348941 345.554849,39.8378941 C343.058849,38.9567941 340.409849,38.6048941 337.769849,38.8040941 C335.132849,39.0035941 332.564849,39.7499941 330.230849,40.9958941 C327.341849,35.5352941 323.507849,30.6284941 318.908849,26.5028941 C316.466849,24.2861941 313.550849,22.6523941 310.385849,21.7238941 C301.982849,19.8536941 293.183849,21.3680941 285.890849,25.9388941 C272.258849,34.2008941 270.476849,48.5168941 277.925849,57.2978941 C273.605849,61.3424941 270.854549,66.7838941 270.158849,72.6608941 C270.151349,72.7184941 270.151349,72.7769941 270.158849,72.8348941 C255.000749,74.8142941 240.638549,80.7779941 228.536849,90.1178941 L138.086849,67.5248941 C137.687549,67.4240941 137.264549,67.4849941 136.909949,67.6937941 C136.555049,67.9025941 136.296749,68.2427941 136.190849,68.6408941 C136.097849,69.0068941 136.163849,83.7368941 136.103849,86.3108941 C135.276149,87.4064941 134.616749,88.6199941 134.147849,89.9108941 C134.011049,87.8573941 133.429649,85.8584941 132.443849,84.0518941 C131.938049,83.2559941 131.264549,82.5803941 130.469849,82.0724941 C129.675449,81.5645941 128.779349,81.2366941 127.844849,81.1118941 C123.944849,80.6228941 121.316849,84.3818941 120.110849,87.5708941 C118.750649,91.4252941 118.190249,95.5166941 118.463849,99.5948941 C119.363849,119.499894 118.670849,146.442894 124.292849,165.078894 C128.041949,177.956694 135.439949,189.473394 145.592849,198.237894 C161.057849,211.320894 185.192849,214.689894 205.019849,210.561894 C216.728849,230.159094 235.340549,244.671894 257.200949,251.250894 C279.061349,257.826894 302.591849,255.996894 323.171849,246.117894 C343.748849,236.235594 359.891849,219.018894 368.429849,197.846394 C376.964849,176.673594 377.279849,153.074694 369.308849,131.682894 L369.398849,131.643894 C373.601849,129.488694 377.255849,126.399294 380.081849,122.612394 C382.904849,118.825494 384.824849,114.441894 385.691849,109.797894 C388.151849,93.4838941 375.665849,80.4098941 363.098849,83.4248941 Z M239.456849,138.771894 C239.930849,138.054894 240.125849,133.176894 241.556849,125.418894 C241.718849,124.551894 241.583849,125.148894 241.841849,123.972894 C242.486849,119.595894 246.212849,116.037894 249.317849,120.312894 C250.979849,122.604894 250.907849,127.176894 251.084849,129.747894 C251.498849,135.789894 251.558849,138.834894 251.765849,140.667894 C251.814449,141.536394 252.062249,142.382394 252.490349,143.139594 C252.918449,143.897094 253.515149,144.545694 254.234249,145.035594 C254.953649,145.525194 255.775649,145.842594 256.637249,145.963494 C257.498849,146.084094 258.376649,146.004894 259.202849,145.731894 C260.366849,145.446894 263.909849,144.180894 264.539849,143.931894 C266.398949,143.070294 268.334549,142.383294 270.320849,141.879894 C271.063349,141.675294 271.850549,141.701394 272.577449,141.955194 C273.304649,142.208994 273.937349,142.677894 274.391549,143.300094 C274.845449,143.921994 275.099249,144.667794 275.119049,145.437594 C275.139149,146.207394 274.924049,146.965194 274.502849,147.609894 C272.183849,152.493894 265.097849,153.420894 259.130849,157.113894 C257.525549,158.113494 256.321949,159.644694 255.729749,161.440794 C255.137849,163.236594 255.194849,165.183594 255.890849,166.941894 C249.239849,172.539894 219.914849,197.841894 217.526849,199.827894 C214.416149,191.927094 212.440649,183.625794 211.658849,175.170894 C209.735849,158.019894 209.909849,133.734894 209.558849,131.853894 C209.453849,129.519894 209.366849,127.185894 209.483849,124.854894 C209.422049,121.280394 210.495449,117.778494 212.549849,114.852894 C212.952749,114.180894 213.600749,113.691294 214.357349,113.487594 C215.113949,113.283894 215.920049,113.381994 216.605849,113.760894 C217.297649,114.355494 217.854149,115.091694 218.236949,115.919694 C218.620049,116.747994 218.820749,117.648594 218.825849,118.560894 C219.604949,123.254994 220.027349,128.001594 220.088849,132.759894 C220.088849,133.170294 220.252049,133.564194 220.542149,133.854594 C220.832549,134.144694 221.226149,134.307894 221.636849,134.307894 C222.047249,134.307894 222.441149,134.144694 222.731249,133.854594 C223.021649,133.564194 223.184849,133.170294 223.184849,132.759894 C223.283549,129.437094 223.640549,126.127194 224.252849,122.859894 C224.352149,121.538094 224.714549,120.249294 225.318749,119.069694 C225.923249,117.889794 226.757249,116.842794 227.771849,115.989894 C231.071849,113.889894 233.108849,116.061894 234.236849,119.139894 C235.280849,122.474694 235.994249,125.904294 236.366849,129.378894 C236.621849,132.170994 236.707049,134.976294 236.621849,137.778894 C236.631149,138.104394 236.738849,138.419394 236.930849,138.682194 C237.122849,138.944994 237.390449,139.143294 237.697649,139.250994 C238.004849,139.358394 238.337549,139.370394 238.651649,139.284894 C238.965749,139.199394 239.246549,139.020294 239.456849,138.771894 L239.456849,138.771894 Z M139.235849,71.0018941 C145.409849,72.5408941 212.165849,89.1758941 232.469849,94.2398941 L232.469849,112.539894 C228.008849,110.799894 223.337849,114.513894 222.038849,119.073894 L222.038849,119.037894 C221.901449,117.030594 221.347949,115.074294 220.412849,113.292894 C219.928949,112.496694 219.279149,111.814194 218.507849,111.291894 C217.736549,110.769594 216.861749,110.419494 215.942849,110.265894 C211.934849,109.623894 209.216849,113.460894 207.983849,116.739894 C206.551649,120.963894 206.010149,125.438994 206.393849,129.882894 C201.956849,128.760894 182.189849,123.723894 167.501849,119.982894 C165.800849,94.6718941 166.451849,94.5158941 164.519849,90.2048941 C163.975949,89.1545941 163.198649,88.2425941 162.247349,87.5396941 C161.296349,86.8364941 160.196549,86.3606941 159.032849,86.1488941 C157.788149,86.0225941 156.533849,86.2619941 155.423249,86.8379941 C154.312649,87.4139941 153.394349,88.3016941 152.780849,89.3918941 C151.763849,91.1123941 151.085849,93.0113941 150.782849,94.9868941 C150.347249,92.0159941 149.448449,89.1317941 148.118849,86.4398941 C147.288149,84.9146941 145.891349,83.7770941 144.229949,83.2718941 C142.568249,82.7669941 140.774849,82.9349941 139.235849,83.7398941 L139.235849,71.0018941 Z M197.861849,130.929894 C195.599849,136.854894 195.650849,138.363894 193.895849,140.829894 C192.182249,143.134794 189.732749,144.785394 186.952949,145.507794 C184.172849,146.230194 181.229849,145.980894 178.610849,144.801894 C175.087349,142.838994 172.274549,139.812894 170.573849,136.155894 C168.591149,132.150294 167.607149,127.724394 167.705849,123.255894 C173.690849,124.764894 192.620849,129.603894 197.861849,130.929894 Z M121.841849,106.860894 C121.592849,97.3358941 120.494849,91.6418941 124.664849,85.7108941 C125.068049,85.0391941 125.716349,84.5504941 126.472949,84.3473941 C127.229549,84.1442941 128.035349,84.2426941 128.720849,84.6218941 C129.396449,85.1894941 129.941849,85.8965941 130.319249,86.6945941 C130.696649,87.4922941 130.897349,88.3622941 130.907849,89.2448941 C131.707949,94.0043941 132.140249,98.8187941 132.200849,103.644894 C132.218249,104.043894 132.389249,104.420994 132.677849,104.697294 C132.966749,104.973594 133.350749,105.127794 133.750349,105.127794 C134.149949,105.127794 134.533949,104.973594 134.822549,104.697294 C135.111449,104.420994 135.282149,104.043894 135.299849,103.644894 C135.396749,100.270794 135.763949,96.9101941 136.397849,93.5948941 C136.501949,92.2736941 136.878449,90.9884941 137.503949,89.8202941 C138.129149,88.6517941 138.989549,87.6254941 140.030849,86.8058941 C146.030849,83.1458941 147.482849,93.6758941 148.079849,97.3058941 C148.687349,101.067294 148.906349,104.881494 148.733849,108.687894 C148.661849,110.394894 151.520849,110.847894 151.775849,109.098894 C152.198849,106.251894 152.675849,103.413894 153.038849,100.554894 C153.542849,96.5048941 154.433849,88.7318941 158.468849,89.2178941 C159.433949,89.4404941 160.315949,89.9333941 161.011349,90.6389941 C161.706749,91.3445941 162.187049,92.2334941 162.395849,93.2018941 C162.947549,95.7572941 163.229849,98.3633941 163.238849,100.977894 C165.149849,128.577894 164.273849,129.999894 167.297849,136.440894 C154.004849,146.250894 140.159849,156.183894 127.934849,166.125894 C122.447849,150.339894 122.354849,126.435894 121.841849,106.860894 L121.841849,106.860894 Z M324.836849,241.605894 C304.673849,252.279894 281.166749,254.748894 259.226849,248.496894 C237.287249,242.241894 218.614049,227.749194 207.110849,208.047894 C206.932949,207.758694 206.667149,207.533994 206.352749,207.405894 C206.038049,207.278094 205.690949,207.253794 205.361849,207.336894 C192.179849,210.355794 178.425149,209.733594 165.569849,205.536894 C148.247849,200.001894 135.950849,186.885894 129.137849,169.401894 C142.013849,158.901894 155.492849,149.205894 168.851849,139.350894 C170.216549,141.978894 172.204349,144.232794 174.641549,145.915194 C177.078449,147.597594 179.890649,148.657494 182.831849,149.001894 C185.596349,149.183094 188.359049,148.621494 190.833449,147.375594 C193.307849,146.129694 195.403949,144.244494 196.904849,141.915894 C198.641849,139.170894 198.491849,137.928894 200.873849,131.697894 L206.483849,133.116894 C207.512849,170.208894 206.258849,207.294894 236.375849,229.620894 C252.005849,241.212894 275.741849,243.702894 294.620849,239.358894 C296.564849,238.911894 295.742849,235.926894 293.798849,236.358894 C281.328449,239.179494 268.352849,238.862994 256.034849,235.437894 C244.943849,232.612794 235.068749,226.266294 227.891849,217.350894 C224.269949,212.888994 221.224949,207.988494 218.828849,202.764894 C219.992849,201.804894 251.411849,174.741894 257.528849,169.605894 C263.579849,177.891894 273.620849,183.252894 289.928849,181.941894 C291.902849,181.785894 291.920849,178.692894 289.928849,178.845894 C280.298849,179.583894 269.699849,178.224894 262.628849,171.045894 C261.326549,169.712394 260.173649,168.240594 259.190849,166.656894 C258.816749,166.016094 258.583349,165.302994 258.506549,164.564994 C258.429749,163.826994 258.511349,163.081194 258.745349,162.377094 C258.979649,161.672994 259.361249,161.027094 259.864949,160.481994 C260.368349,159.937194 260.982449,159.505794 261.665849,159.216894 C267.665849,156.069894 273.386849,154.848894 276.446849,150.447894 C277.143449,149.617194 277.645649,148.640994 277.916549,147.591294 C278.187449,146.541294 278.220149,145.444194 278.012249,144.380094 C277.804349,143.315994 277.360949,142.311894 276.714749,141.440994 C276.068549,140.570394 275.236049,139.855194 274.277849,139.347894 C269.972849,137.499894 266.324849,140.355894 259.205849,142.500894 C255.449849,143.634894 254.876849,141.861894 254.735849,138.474894 C254.735849,138.417894 254.165849,129.558894 254.015849,127.113894 C254.081549,123.898494 253.186349,120.736494 251.444849,118.032894 C247.682849,113.274894 240.617849,114.069894 238.667849,124.032894 C238.204349,121.052694 237.274049,118.164294 235.910849,115.473894 C235.406849,114.660894 235.709849,117.753894 235.559849,93.0368941 C235.558349,92.6972941 235.446749,92.3675941 235.241849,92.0969941 C235.036649,91.8263941 234.749249,91.6298941 234.422849,91.5368941 L232.556849,91.0718941 C247.447349,80.5304941 265.246649,74.8796941 283.490849,74.9018289 C284.657849,90.5948941 283.088849,107.301894 283.961849,109.101894 C284.588849,110.088894 285.707849,110.322894 287.288849,108.462894 C295.718849,98.5118941 303.077849,89.6198941 310.508849,79.1738941 C332.438849,86.3603941 350.756849,101.726094 361.646849,122.073894 C367.091849,132.336594 370.457849,143.572494 371.552849,155.138094 C372.650849,166.703694 371.453849,178.372194 368.033849,189.474894 C364.616849,200.577894 359.039849,210.897594 351.626849,219.842994 C344.216849,228.788094 335.111849,236.183694 324.836849,241.605894 L324.836849,241.605894 Z M286.790849,74.9498941 C293.696849,75.1835941 300.545849,76.2617941 307.190849,78.1598941 C302.408849,84.8138941 296.990849,91.8968941 287.030849,103.695894 C287.132849,94.1018941 287.486849,84.5018941 286.790849,74.9498941 Z M368.165849,128.730894 C360.725849,110.240694 347.411849,94.7093941 330.278849,84.5288941 C313.142849,74.3483941 293.135849,70.0832941 273.338849,72.3908941 C274.133849,66.9323941 276.945749,61.9700941 281.219849,58.4828941 C281.363549,58.3391941 281.477849,58.1684941 281.555549,57.9803941 C281.633549,57.7925941 281.673449,57.5912941 281.673449,57.3878941 C281.673449,57.1844941 281.633549,56.9831941 281.555549,56.7950941 C281.477849,56.6072941 281.363549,56.4365941 281.219849,56.2928941 C271.919849,47.1638941 276.623849,28.5488941 298.997849,24.3458941 C301.916849,23.7605941 304.925849,23.7839941 307.835849,24.4142941 C310.745849,25.0445941 313.493849,26.2682941 315.908849,28.0088941 C321.152849,32.4152941 325.397849,37.8863941 328.364849,44.0588941 C328.484849,44.2574941 328.649849,44.4266941 328.841849,44.5538941 C329.036849,44.6810941 329.258849,44.7632941 329.486849,44.7938941 C329.717849,44.8247941 329.951849,44.8034941 330.173849,44.7317941 C330.395849,44.6600941 330.596849,44.5397941 330.764849,44.3798941 C334.481849,40.9388941 340.490849,41.8058941 342.902849,42.3398941 C359.150849,45.9398941 369.200849,66.0728941 358.628849,85.6508941 C358.463849,85.9487941 358.403849,86.2919941 358.454849,86.6282941 C358.505849,86.9642941 358.664849,87.2741941 358.907849,87.5108941 C359.153849,87.7472941 359.468849,87.8972941 359.804849,87.9371941 C360.143849,87.9773941 360.482849,87.9056941 360.776849,87.7328941 C369.140849,82.3928941 382.481849,90.1658941 382.892868,104.793894 C382.898849,109.757694 381.524849,114.625794 378.923849,118.853394 C376.322849,123.080694 372.593849,126.500694 368.159849,128.730894 L368.165849,128.730894 Z" id="Shape"></path>
                <path d="M152.585849,50.3318941 C154.597649,49.6988941 156.416549,48.5669941 157.873049,47.0414941 C159.329549,45.5159941 160.376249,43.6469941 160.915649,41.6078941 C161.454749,39.5687941 161.469149,37.4264941 160.957349,35.3804941 C160.445549,33.3344941 159.424349,31.4513941 157.988549,29.9063941 C156.552449,28.3616941 154.749149,27.2051941 152.746049,26.5451941 C150.742649,25.8854941 148.605149,25.7432941 146.532149,26.1320941 C144.459149,26.5208941 142.518449,27.4280941 140.890649,28.7690941 C139.262849,30.1103941 138.001049,31.8416941 137.222849,33.8018941 C136.351049,35.9972941 136.119749,38.3948941 136.555049,40.7165941 C136.990649,43.0382941 138.075449,45.1889941 139.683449,46.9190941 C141.291449,48.6494941 143.357249,49.8884941 145.640849,50.4923941 C147.924449,51.0962941 150.332549,51.0407941 152.585849,50.3318941 L152.585849,50.3318941 Z M140.945849,33.2918941 C142.033949,31.6202941 143.625749,30.3380941 145.490549,29.6309941 C147.355649,28.9238941 149.397149,28.8284941 151.320149,29.3585941 C153.242849,29.8883941 154.947449,31.0163941 156.186749,32.5790941 C157.426349,34.1417941 158.136449,36.0581941 158.214749,38.0510941 C158.292749,40.0439941 157.735049,42.0101941 156.621749,43.6652941 C155.508749,45.3203941 153.897749,46.5782941 152.022449,47.2571941 C150.146849,47.9363941 148.104149,48.0008941 146.189549,47.4422941 C144.274949,46.8833941 142.587749,45.7298941 141.371849,44.1488941 C140.184149,42.6065941 139.505249,40.7333941 139.429049,38.7881941 C139.352849,36.8432941 139.882649,34.9223941 140.945849,33.2918941 L140.945849,33.2918941 Z" id="Shape"></path>
                <path d="M186.014849,39.0099917 C188.284049,39.0158941 190.511549,38.3975941 192.452849,37.2221941 C194.394149,36.0470941 195.974849,34.3604941 197.021849,32.3468941 C198.299249,29.9291941 198.748649,27.1589941 198.301649,24.4613941 C197.854349,21.7637941 196.535249,19.2869941 194.545949,17.4104941 C192.556949,15.5339941 190.007549,14.3612941 187.288349,14.0720941 C184.569149,13.7828941 181.829849,14.3930941 179.490749,15.8093941 C177.151349,17.2253941 175.340849,19.3691941 174.336149,21.9125941 C173.331449,24.4559941 173.188349,27.2585941 173.928749,29.8910941 C174.668849,32.5232941 176.251649,34.8404941 178.434749,36.4874941 C180.617549,38.1347941 183.280349,39.0206941 186.014849,39.0099917 Z M178.037849,21.4388941 C178.912649,20.0846941 180.121049,18.9782941 181.547249,18.2261941 C182.973149,17.4737941 184.568549,17.1008941 186.180449,17.1434941 C187.792049,17.1860941 189.365549,17.6423941 190.750049,18.4685941 C192.134549,19.2950941 193.282949,20.4635941 194.085149,21.8621941 C194.887649,23.2604941 195.316649,24.8417941 195.331349,26.4539941 C195.345749,28.0661941 194.945549,29.6549941 194.168849,31.0676941 C193.391849,32.4803941 192.264749,33.6695941 190.895549,34.5209941 C189.526649,35.3723941 187.961549,35.8571941 186.350849,35.9288941 C184.626149,36.0089941 182.912849,35.6120941 181.399049,34.7813941 C179.885249,33.9509941 178.630049,32.7194941 177.770849,31.2218941 C176.911649,29.7242941 176.482049,28.0187941 176.529149,26.2928941 C176.576249,24.5669941 177.098249,22.8872941 178.037849,21.4388941 L178.037849,21.4388941 Z" id="Shape"></path>
                <path d="M226.805849,26.5838941 C228.816449,25.9502941 230.634149,24.8180941 232.089749,23.2928941 C233.545349,21.7679941 234.591149,19.8992941 235.130249,17.8610941 C235.669049,15.8228941 235.683749,13.6814941 235.172549,11.6363941 C234.661049,9.59099409 233.640749,7.70849409 232.205849,6.16349409 C230.771249,4.61879409 228.969149,3.46229409 226.967249,2.80139409 C224.965349,2.14049409 222.828449,1.99679409 220.756349,2.38409409 C218.683949,2.77109409 216.743249,3.67619409 215.114849,5.01509409 C213.486149,6.35429409 212.223149,8.08349409 211.442849,10.0418941 C210.567749,12.2378941 210.333749,14.6369941 210.767849,16.9607941 C211.201949,19.2845941 212.286149,21.4373941 213.894749,23.1695941 C215.503649,24.9017941 217.570649,26.1419941 219.856049,26.7461941 C222.141149,27.3506941 224.551349,27.2942941 226.805849,26.5838941 L226.805849,26.5838941 Z M215.165849,9.54089409 C216.254249,7.86959409 217.846049,6.58799409 219.710849,5.88119409 C221.575949,5.17439409 223.617449,5.07929409 225.539849,5.60939409 C227.462549,6.13949409 229.166849,7.26749409 230.406149,8.83019409 C231.645449,10.3925941 232.355249,12.3089941 232.433549,14.3018941 C232.511549,16.2947941 231.953849,18.2606941 230.840849,19.9157941 C229.727849,21.5705941 228.117149,22.8284941 226.242149,23.5076941 C224.366849,24.1868941 222.324149,24.2516941 220.409549,23.6933941 C218.494949,23.1347941 216.807749,21.9815941 215.591849,20.4008941 C214.404449,18.8579941 213.725549,16.9841941 213.649349,15.0386941 C213.572849,13.0931941 214.102949,11.1719941 215.165849,9.54089409 Z" id="Shape"></path>
                <path d="M19.7218487,286.008894 C19.4287487,285.723894 19.0357487,285.564894 18.6268487,285.564894 C18.2176487,285.564894 17.8246487,285.723894 17.5318487,286.008894 C12.8097887,290.670894 1.48778874,302.103894 1.48778874,302.103894 C1.20230874,302.397894 1.04252874,302.790894 1.04252874,303.198894 C1.04252874,303.606894 1.20230874,303.999894 1.48778874,304.293894 C4.93778874,307.788894 17.2798487,320.043894 17.5798487,320.337894 C17.8726487,320.622894 18.2656487,320.781894 18.6748487,320.781894 C19.0837487,320.781894 19.4767487,320.622894 19.7698487,320.337894 C19.7698487,320.337894 35.1478487,304.908894 35.8168487,304.245894 C36.0988487,303.951894 36.2563487,303.558894 36.2563487,303.150894 C36.2563487,302.742894 36.0988487,302.349894 35.8168487,302.055894 C31.0798487,297.411894 20.3908487,286.671894 19.7218487,286.008894 Z M18.6718487,317.052894 L4.77278874,303.201894 L18.6298487,289.302894 L32.5288487,303.159894 L18.6718487,317.052894 Z" id="Shape"></path>
                <path d="M17.5798487,275.490894 C17.8723487,275.775894 18.2653487,275.937894 18.6748487,275.937894 C19.0840487,275.937894 19.4770487,275.775894 19.7698487,275.490894 C19.7698487,275.490894 35.1478487,260.061894 35.8168487,259.398894 C36.0988487,259.104894 36.2563487,258.711894 36.2563487,258.303894 C36.2563487,257.895894 36.0988487,257.502894 35.8168487,257.208894 C31.0798487,252.564894 20.3938487,241.824894 19.7218487,241.164894 C19.4299487,240.877194 19.0366487,240.715794 18.6268487,240.715794 C18.2170487,240.715794 17.8237487,240.877194 17.5318487,241.164894 C12.8098187,245.823894 2.14781874,256.584894 1.48781874,257.256894 C1.20089874,257.547894 1.04012874,257.940894 1.04012874,258.351894 C1.04012874,258.759894 1.20089874,259.155894 1.48781874,259.446894 C4.93781874,262.941894 17.2798487,275.193894 17.5798487,275.490894 Z M18.6298487,244.449894 L32.5288487,258.306894 L18.6718487,272.205894 L4.77281874,258.348894 L18.6298487,244.449894 Z" id="Shape"></path>
                <path d="M17.5858487,229.659594 C17.8777487,229.943994 18.2689487,230.102994 18.6763487,230.102994 C19.0837487,230.102994 19.4749487,229.943994 19.7668487,229.659594 C36.4738487,213.159594 36.4738487,213.159594 36.2668487,212.388594 C36.2590487,212.005794 36.1006487,211.641594 35.8258487,211.374594 C35.8258487,211.374594 20.3998487,195.987594 19.7278487,195.327594 C19.4368487,195.042894 19.0459487,194.883594 18.6388487,194.883594 C18.2317487,194.883594 17.8408487,195.042894 17.5498487,195.327594 C12.9358187,199.866594 2.33081874,210.567594 1.49081874,211.425594 C1.20590874,211.717194 1.04636874,212.108694 1.04636874,212.516094 C1.04636874,212.923794 1.20590874,213.315294 1.49081874,213.606594 C4.90181874,217.068594 17.1568487,229.236594 17.5858487,229.659594 Z M4.76981874,212.514594 L18.6298487,198.609594 L32.5348487,212.472594 L18.6718487,226.374594 L4.76981874,212.514594 Z" id="Shape"></path>
                <path d="M195.155849,282.384894 C176.369849,271.029894 157.781849,267.624894 135.974849,269.160894 C101.504849,271.587894 58.2748487,288.402894 26.2198487,320.859894 C16.8796487,330.285894 9.40994874,341.394894 4.20581874,353.601894 C-0.19134126,363.957894 -1.17078126,375.447894 1.40981874,386.400894 C2.20880874,389.907894 3.89864874,393.147894 6.31604874,395.808894 C8.73347874,398.472894 11.7967487,400.467894 15.2098487,401.598894 C24.0718487,405.099894 33.7258487,403.998894 66.4438487,403.998894 C69.0217487,408.801894 72.0439487,413.349894 75.4708487,417.588894 C58.1728487,416.442894 57.9148487,415.947894 56.8708487,417.444894 L33.7948487,448.380894 C33.6421487,448.611894 33.5536487,448.875894 33.5386487,449.151894 C33.5236487,449.427894 33.5827487,449.703894 33.7099487,449.946894 C33.8368487,450.192894 34.0273487,450.399894 34.2613487,450.546894 C34.4950487,450.693894 34.7638487,450.774894 35.0398487,450.780894 L132.947849,457.488894 C133.787849,457.437894 133.826849,457.377894 136.025849,454.392894 C137.930849,451.806894 138.023849,451.785894 138.056849,451.485894 C150.700349,452.670894 163.452449,451.227894 175.513049,447.252894 C187.573949,443.277894 198.683549,436.854894 208.145849,428.385894 L208.217849,428.385894 C218.199149,427.512894 228.082949,425.751894 237.752849,423.129894 C241.333049,422.166894 244.777349,420.756894 248.003849,418.929894 C250.381649,417.384894 252.537449,415.524894 254.411849,413.397894 C270.962849,394.869894 263.141849,366.477894 251.561849,344.610894 C239.471849,321.780894 218.537849,296.514894 195.155849,282.384894 Z M159.755849,272.847894 C158.610449,276.216894 157.241549,279.507894 155.657849,282.693894 C153.825449,286.245894 151.305749,289.398894 148.244849,291.969894 C135.530849,302.859894 117.944849,291.369894 110.030849,276.609894 C126.202349,272.115894 143.098349,270.837894 159.761849,272.847894 L159.755849,272.847894 Z M38.7898487,401.001894 C48.8608487,386.871894 59.3938487,374.799894 72.2428487,358.362894 C80.6347487,359.601894 88.8286487,361.932894 96.6178487,365.292894 C108.701849,370.248894 115.328849,376.782894 117.317849,390.825894 C118.028849,396.279894 118.175549,401.793894 117.755849,407.277894 C117.601949,407.901894 117.254549,408.462894 116.763149,408.876894 C116.271749,409.293894 115.661549,409.542894 115.019849,409.590894 C107.771849,410.538894 109.109849,402.528894 106.475849,393.828894 C106.412549,393.564894 106.277849,393.324894 106.086449,393.135894 C105.895049,392.943894 105.654449,392.811894 105.391349,392.748894 C105.128249,392.685894 104.853149,392.697894 104.596649,392.781894 C104.340149,392.868894 104.111849,393.021894 103.937849,393.228894 C103.755449,393.411894 103.619549,393.639894 103.541249,393.885894 C103.462949,394.131894 103.444649,394.395894 103.487849,394.650894 C104.670749,399.363894 105.263549,404.205894 105.251849,409.065894 C105.132449,409.791894 104.814449,410.469894 104.333249,411.024894 C103.852049,411.579894 103.226549,411.990894 102.526049,412.212894 C101.825249,412.434894 101.077049,412.455894 100.364249,412.278894 C99.6511487,412.101894 99.0013487,411.729894 98.4868487,411.204894 C96.4003487,409.089894 94.8295487,406.524894 93.8968487,403.704894 C91.4188487,397.479894 91.0198487,393.921894 88.5718487,393.321894 C88.1659487,393.219894 87.7369487,393.285894 87.3781487,393.498894 C87.0196487,393.714894 86.7604487,394.062894 86.6578487,394.467894 C86.1748487,396.390894 88.2328487,405.807894 86.4898487,411.213894 C86.1508487,412.263894 85.5688487,413.436894 84.5068487,413.721894 C76.7668487,415.776894 79.7068487,404.421894 74.0818487,401.121894 C72.5908487,400.602894 73.9828487,401.082894 38.7898487,401.001894 Z M145.106849,414.201894 C143.920649,414.906894 142.910249,415.869894 142.151549,417.024894 C141.393149,418.176894 140.906549,419.484894 140.728649,420.852894 C140.550449,422.220894 140.685749,423.612894 141.124049,424.920894 C141.562649,426.228894 142.292549,427.419894 143.258849,428.403894 C138.278849,436.146894 138.797849,435.198894 128.363849,440.403894 C125.555249,442.065894 122.602349,443.472894 119.540849,444.603894 C118.457849,444.720894 117.467849,443.955894 117.533849,442.359894 C118.310849,422.385894 118.859849,423.429894 118.490849,422.907894 C119.914649,419.748894 121.663049,416.745894 123.707849,413.949894 L136.472849,394.278894 C136.817549,395.649894 137.533649,396.897894 138.542549,397.890894 C139.551449,398.880894 140.813849,399.573894 142.190849,399.891894 C136.631849,403.458894 138.038849,411.660894 145.106849,414.201894 L145.106849,414.201894 Z M114.425849,442.671894 C114.393749,443.550894 114.598049,444.423894 115.017149,445.197894 C115.436249,445.968894 116.055149,446.616894 116.809049,447.069894 C117.563249,447.522894 118.425149,447.765894 119.304749,447.774894 C120.184649,447.780894 121.050449,447.552894 121.811849,447.111894 C122.978849,446.541894 137.078849,439.524894 137.078849,439.524894 C140.932049,437.358894 144.015449,434.046894 145.901849,430.047894 C145.921949,430.014894 145.938149,429.981894 145.949849,429.945894 C147.204449,430.341894 148.507949,430.560894 149.822849,430.596894 L132.209849,454.332894 C126.146849,453.912894 48.7738487,448.551894 38.0668487,447.798894 L59.1088487,419.598894 C78.8848487,420.897894 77.7418487,420.963894 78.0628487,420.564894 C78.8158487,421.035894 75.6088487,420.681894 115.502849,423.303894 C114.760649,429.732894 114.401249,436.200894 114.425849,442.671894 Z M140.342849,448.536894 C144.332849,443.166894 153.155849,431.274894 153.578849,430.701894 C158.933849,430.779894 154.325849,431.037894 167.615849,430.806894 C168.302849,430.806894 190.184849,429.906894 191.744849,429.804894 C192.464849,429.756894 201.644849,429.018894 202.709849,428.922894 C185.229149,443.259894 162.883649,450.288894 140.342849,448.536894 L140.342849,448.536894 Z M206.474849,425.457894 C190.386449,427.059894 174.225449,427.824894 158.057849,427.743894 C154.053749,427.920894 150.043949,427.566894 146.132849,426.690894 C145.071749,426.036894 144.285149,425.016894 143.920349,423.825894 C143.555249,422.634894 143.636849,421.350894 144.149849,420.213894 C144.728849,418.875894 145.628249,417.702894 146.768849,416.793894 C147.909449,415.884894 149.256149,415.272894 150.689849,415.008894 C151.040549,414.897894 151.341149,414.669894 151.538549,414.357894 C151.735649,414.048894 151.816949,413.679894 151.767749,413.313894 C151.718549,412.950894 151.542149,412.614894 151.269749,412.368894 C150.997049,412.122894 150.646049,411.978894 150.278849,411.966894 C146.228849,412.209894 141.677849,409.818894 141.851849,405.549894 C142.301849,402.000894 146.951849,400.749894 149.801849,399.963894 C151.430849,399.522894 151.169849,396.711894 149.390849,396.921894 C146.985449,397.482894 144.472649,397.380894 142.121849,396.621894 C141.297449,396.342894 140.590649,395.793894 140.113949,395.064894 C139.636949,394.335894 139.417649,393.468894 139.490849,392.601894 C140.492849,390.243894 142.383149,388.371894 144.752849,387.396894 C152.641649,383.148894 160.885949,379.593894 169.391849,376.776894 C169.618649,376.710894 169.827749,376.593894 170.003249,376.434894 C170.178749,376.278894 170.316149,376.080894 170.405549,375.861894 C170.494649,375.642894 170.533049,375.405894 170.518049,375.171894 C170.503049,374.934894 170.434949,374.706894 170.318849,374.499894 C168.202049,370.557894 167.312849,366.075894 167.765849,361.623894 C167.773649,357.822894 168.820349,354.099894 170.792849,350.850894 C171.119849,350.304894 171.618449,349.884894 172.210649,349.650894 C172.802849,349.419894 173.455349,349.389894 174.065849,349.569894 C179.840849,351.708894 178.160849,365.952894 183.326849,370.218894 C186.419849,372.774894 188.945849,371.154894 206.462849,366.618894 L206.474849,425.457894 Z M166.790849,374.382894 C158.358449,377.289894 150.190649,380.913894 142.376849,385.215894 C145.457849,380.469894 152.738849,369.228894 153.311849,368.364894 C154.537349,366.522894 156.240149,365.046894 158.238149,364.095894 C160.236149,363.144894 162.454949,362.754894 164.657849,362.964894 C164.535149,366.879894 165.262949,370.776894 166.790849,374.382894 L166.790849,374.382894 Z M242.390849,418.257894 C231.806849,422.007894 220.767149,424.317894 209.567849,425.124894 L209.567849,364.611894 C209.564849,364.374894 209.507849,364.140894 209.401349,363.927894 C209.294849,363.714894 209.141549,363.531894 208.952849,363.384894 C208.764149,363.240894 208.545149,363.141894 208.312349,363.093894 C208.079549,363.045894 207.838949,363.051894 207.608849,363.111894 C203.006849,364.272894 191.336849,367.569894 187.568849,368.334894 C181.679849,369.534894 183.422849,355.281894 178.298849,348.954894 C177.712349,348.207894 176.979149,347.586894 176.143649,347.130894 C175.308449,346.677894 174.388949,346.398894 173.441849,346.314894 L173.408849,346.314894 L173.390849,346.314894 C167.777849,346.050894 165.341849,354.099894 164.828849,359.883894 C162.627449,359.667894 160.405649,359.940894 158.321549,360.681894 C156.237149,361.422894 154.342349,362.613894 152.771849,364.170894 C151.130849,365.832894 153.104849,363.012894 122.042849,410.877894 C119.855549,413.823894 117.947249,416.970894 116.342849,420.270894 L79.7098487,417.870894 C76.0495487,413.568894 72.8032487,408.930894 70.0138487,404.016894 C70.0138487,404.016894 71.9698487,404.016894 72.8278487,404.016894 C74.2678487,405.873894 75.2125487,408.063894 75.5728487,410.385894 C76.1188487,412.779894 77.5522487,414.876894 79.5838487,416.253894 C80.6608487,416.766894 81.8383487,417.036894 83.0314487,417.039894 C84.2245487,417.042894 85.4035487,416.781894 86.4838487,416.274894 C87.2686487,415.839894 87.9247487,415.206894 88.3858487,414.435894 C90.1534487,410.931894 90.8065487,406.968894 90.2578487,403.080894 C90.2278487,402.348894 90.0418487,402.543894 91.5028487,405.978894 C92.5708487,408.870894 94.2961487,411.477894 96.5428487,413.589894 C97.4326487,414.417894 98.5195487,414.999894 99.7000487,415.287894 C100.880249,415.572894 102.114449,415.551894 103.283849,415.224894 C104.453549,414.897894 105.519749,414.276894 106.380149,413.418894 C107.240249,412.560894 107.866349,411.498894 108.197849,410.328894 C109.000049,411.204894 109.997849,411.879894 111.109649,412.296894 C112.221749,412.713894 113.416649,412.860894 114.596849,412.728894 C115.984049,412.806894 117.355049,412.401894 118.476149,411.579894 C119.597249,410.757894 120.398549,409.575894 120.743849,408.228894 C121.082249,406.485894 121.206149,404.706894 121.112849,402.930894 C121.247849,388.974894 119.132849,375.567894 107.672849,367.611894 C98.5690487,362.256894 88.6546487,358.416894 78.3178487,356.244894 C75.9679487,355.725894 73.5802487,355.392894 71.1778487,355.248894 C71.1358487,355.248894 71.1028487,355.296894 71.0608487,355.311894 L70.9918487,355.311894 C70.1068487,355.827894 69.8488487,356.460894 69.2278487,357.261894 C68.6068487,358.062894 35.7418487,399.897894 34.9588487,401.001894 C25.3948487,400.845894 17.5948487,401.082894 10.2358187,395.187894 C7.62497874,393.090894 5.73140874,390.234894 4.81781874,387.012894 C1.97999874,376.845894 2.56934874,366.027894 6.49481874,356.229894 C11.0979887,344.676894 17.8732487,334.113894 26.4538487,325.113894 C48.3970487,302.229894 76.1584487,285.756894 106.757849,277.458894 C111.248549,286.710894 118.978049,293.994894 128.480849,297.927894 C133.594349,300.021894 139.316849,300.069894 144.464849,298.062894 C149.135849,295.995894 153.130349,292.656894 155.990849,288.423894 C159.032249,283.761894 161.413949,278.697894 163.067849,273.381894 C185.249849,277.512894 204.254849,290.034894 219.797849,306.366894 C229.672649,316.737894 238.368749,328.173894 245.726849,340.458894 C252.654449,351.726894 257.487149,364.155894 259.991849,377.145894 C263.888849,398.739894 254.138849,413.616894 242.390849,418.257894 Z" id="Shape"></path>
                <path d="M497.864849,398.934894 C497.645849,398.586894 497.297849,398.340894 496.898849,398.247894 C496.496849,398.151894 496.076849,398.217894 495.725849,398.430894 C494.825849,398.985894 484.025849,417.348894 483.902849,417.561894 C483.779849,417.798894 483.719849,418.062894 483.725849,418.329894 C483.734849,418.593894 483.809849,418.854894 483.944849,419.085894 C484.079849,419.313894 484.271849,419.505894 484.499849,419.640894 C484.730849,419.775894 484.988849,419.850894 485.255849,419.859894 C485.255849,419.859894 507.614849,419.823894 508.586849,419.817894 C508.790849,419.814894 508.994849,419.772894 509.180849,419.691894 C509.369849,419.610894 509.540849,419.493894 509.681849,419.346894 C509.825849,419.199894 509.936849,419.028894 510.011849,418.836894 C510.089849,418.647894 510.125849,418.443894 510.122849,418.239894 C510.128849,417.540894 511.004849,419.751894 497.864849,398.934894 Z M487.964849,416.763894 C490.520849,412.416894 493.472849,407.463894 496.562849,402.606894 C499.079849,406.485894 505.736849,416.763894 505.736849,416.763894 L487.964849,416.763894 Z" id="Shape"></path>
                <path d="M527.426849,369.372894 C527.207849,369.024894 526.862849,368.775894 526.463849,368.682894 C526.061849,368.586894 525.641849,368.652894 525.290849,368.865894 C524.390849,369.420894 513.590849,387.780894 513.464849,387.999894 C513.341849,388.236894 513.284849,388.500894 513.290849,388.764894 C513.299849,389.031894 513.374849,389.292894 513.509849,389.520894 C513.644849,389.751894 513.833849,389.940894 514.064849,390.078894 C514.292849,390.213894 514.550849,390.288894 514.817849,390.297894 C514.817849,390.297894 537.179849,390.261894 538.151849,390.252894 C538.355849,390.249894 538.556849,390.207894 538.745849,390.129894 C538.931849,390.048894 539.102849,389.931894 539.243849,389.784894 C539.387849,389.640894 539.498849,389.466894 539.576849,389.277894 C539.651849,389.088894 539.687849,388.884894 539.685022,388.680894 C539.690849,387.912894 529.367849,372.441894 527.426849,369.372894 Z M517.526849,387.198894 C520.082849,382.854894 523.034849,377.898894 526.124849,373.044894 C528.896849,377.310894 533.567849,384.522894 535.301849,387.198894 L517.526849,387.198894 Z" id="Shape"></path>
                <path d="M569.774849,357.630894 C557.498849,338.730894 557.978849,339.345894 557.684849,339.045894 C557.549849,338.862894 557.375849,338.712894 557.174849,338.601894 C556.976849,338.490894 556.754849,338.424894 556.526849,338.406894 C556.301849,338.388894 556.070849,338.421894 555.857849,338.496894 C555.644849,338.574894 555.446849,338.697894 555.284849,338.856894 C554.180849,339.930894 545.762849,354.195894 543.761849,357.672894 C543.629849,357.909894 543.557849,358.176894 543.560759,358.446894 C543.560759,358.716894 543.632849,358.983894 543.767849,359.217894 C543.902849,359.454894 544.094849,359.649894 544.328849,359.787894 C544.562849,359.925894 544.829849,360.000894 545.099849,360.003894 C545.099849,360.003894 567.455849,359.970894 568.424849,359.964894 C568.697849,359.961894 568.964849,359.889894 569.201849,359.751894 C569.435849,359.616894 569.630849,359.418894 569.768849,359.184894 C569.903849,358.947894 569.975849,358.680894 569.978849,358.407894 C569.978849,358.134894 569.909849,357.867894 569.774849,357.630894 Z M547.832849,356.901894 C550.628849,352.149894 553.469849,347.418894 556.427849,342.762894 L565.589849,356.862894 L547.832849,356.901894 Z" id="Shape"></path>
                <path d="M221.606849,38.1458941 C203.273849,44.5568941 155.120849,60.4718941 149.462849,62.2748941 C147.569849,62.8748941 148.379849,65.8748941 150.287849,65.2748941 C168.788849,59.3678941 216.824849,43.1048941 222.428849,41.1428941 C224.300849,40.4768941 223.490899,37.4858941 221.606849,38.1458941 Z" id="Path"></path>
                <path d="M231.527849,38.4098941 L262.490849,28.9478941 C264.392849,28.3658941 263.579849,25.3748941 261.665849,25.9478941 L230.705849,35.4218941 C228.803849,36.0038941 229.616849,38.9948941 231.527849,38.4098941 Z" id="Path"></path>
                <path d="M290.174849,19.4498941 C306.167849,13.5608941 322.067849,8.13089409 338.078849,3.07889409 C339.974849,2.47889409 339.164849,-0.521105912 337.256849,0.0788940882 C320.903849,5.23889409 305.012849,10.6808941 289.352849,16.4498941 C287.495849,17.1458941 288.290849,20.1398941 290.174849,19.4498941 Z" id="Path"></path>
                <path d="M260.288849,136.320894 C282.788849,130.389894 339.965849,113.361894 346.244849,111.471894 C346.442849,111.417894 346.625849,111.325494 346.787849,111.200094 C346.949849,111.074694 347.084849,110.918694 347.183849,110.741094 C347.285849,110.563494 347.351849,110.367594 347.375849,110.165094 C347.399849,109.962294 347.387535,109.756494 347.330849,109.559394 C347.276849,109.362594 347.186849,109.178094 347.060849,109.016994 C346.934849,108.855594 346.778849,108.720594 346.601849,108.619794 C346.424849,108.518694 346.226849,108.453594 346.025849,108.428394 C345.821849,108.402894 345.617849,108.417894 345.419849,108.471894 C322.919849,114.402894 265.742849,131.427894 259.463849,133.320894 C259.266749,133.375194 259.082549,133.467594 258.921149,133.592994 C258.760049,133.718394 258.625049,133.874394 258.523949,134.051994 C258.422849,134.229594 258.358049,134.425494 258.332549,134.627994 C258.307349,134.830794 258.322049,135.036594 258.376349,135.233394 C258.430349,135.430494 258.523049,135.614994 258.648449,135.776094 C258.773849,135.937494 258.929849,136.072494 259.107449,136.173294 C259.285049,136.274394 259.480649,136.339494 259.683449,136.364694 C259.885949,136.389894 260.091749,136.375194 260.288849,136.320894 Z" id="Path"></path>
                <path d="M481.307849,247.860894 C479.258849,247.446894 477.176849,247.218894 475.088849,247.179894 C474.689849,247.197894 474.311849,247.368894 474.035849,247.656894 C473.759849,247.944894 473.606849,248.328894 473.606849,248.730894 C473.606849,249.129894 473.759849,249.513894 474.035849,249.801894 C474.311849,250.089894 474.689849,250.260894 475.088849,250.278894 C476.900849,250.311894 478.709849,250.503894 480.488849,250.848894 C482.432849,251.235894 483.263849,248.253894 481.307849,247.860894 Z" id="Path"></path>
                <path d="M485.666849,266.250894 L479.864849,265.464894 C479.468849,265.365894 479.051849,265.422894 478.697849,265.623894 C478.340849,265.824894 478.079849,266.154894 477.959849,266.544894 C477.905849,266.739894 477.890849,266.946894 477.914849,267.147894 C477.941849,267.348894 478.004849,267.543894 478.106849,267.720894 C478.205849,267.897894 478.340849,268.053894 478.502849,268.179894 C478.661849,268.302894 478.847849,268.395894 479.042849,268.449894 L484.841849,269.235894 C485.237849,269.334894 485.654849,269.277894 486.008849,269.076894 C486.365849,268.875894 486.626849,268.545894 486.746849,268.155894 C486.800849,267.960894 486.815849,267.753894 486.791849,267.552894 C486.767849,267.351894 486.701849,267.156894 486.602849,266.979894 C486.500849,266.802894 486.368849,266.646894 486.206849,266.520894 C486.047849,266.397894 485.861849,266.304894 485.666849,266.250894 L485.666849,266.250894 Z" id="Path"></path>
                <path d="M514.439849,342.900894 C516.398849,340.425894 518.165849,337.803894 519.722849,335.058894 C519.929849,334.704894 519.986849,334.281894 519.884849,333.885894 C519.779849,333.486894 519.521849,333.147894 519.167849,332.940894 C518.813849,332.733894 518.390849,332.676894 517.994849,332.778894 C517.595849,332.883894 517.256849,333.141894 517.049849,333.495894 C515.588849,335.991894 513.986849,338.400894 512.249849,340.710894 C511.967849,341.004894 511.811849,341.397894 511.811849,341.805894 C511.811849,342.213894 511.967849,342.606894 512.249849,342.900894 C512.393849,343.044894 512.564849,343.158894 512.750849,343.236894 C512.939849,343.314894 513.140849,343.356894 513.344849,343.356894 C513.548849,343.356894 513.749849,343.314894 513.938849,343.236894 C514.124849,343.158894 514.295849,343.044894 514.439849,342.900894 Z" id="Path"></path>
                <path d="M438.788849,240.528894 L426.929849,240.528894 C426.518849,240.528894 426.125849,240.691794 425.834849,240.982194 C425.543849,241.272894 425.381849,241.665894 425.381849,242.076894 C425.381849,242.487894 425.543849,242.880894 425.834849,243.171894 C426.125849,243.462894 426.518849,243.624894 426.929849,243.624894 L438.788849,243.624894 C439.199849,243.624894 439.592849,243.462894 439.883849,243.171894 C440.174849,242.880894 440.336849,242.487894 440.336849,242.076894 C440.336849,241.665894 440.174849,241.272894 439.883849,240.982194 C439.592849,240.691794 439.199849,240.528894 438.788849,240.528894 Z" id="Path"></path>
                <path d="M240.032849,408.021894 C238.280849,408.972894 239.843849,411.654894 241.595849,410.694894 C246.339449,408.099894 249.889349,403.764894 251.495849,398.601894 C252.095849,396.693894 249.095849,395.877894 248.495849,397.779894 C247.111649,402.162894 244.076849,405.834894 240.032849,408.021894 Z" id="Path"></path>
                <path d="M23.8798487,389.274894 C21.7300487,388.971894 19.7377487,387.975894 18.2044487,386.439894 C16.6714487,384.903894 15.6811487,382.908894 15.3838487,380.757894 C15.3745487,380.349894 15.2086487,379.962894 14.9202887,379.674894 C14.6319287,379.383894 14.2434887,379.218894 13.8358187,379.209894 C13.4249987,379.209894 13.0309487,379.371894 12.7401587,379.662894 C12.4493687,379.953894 12.2856287,380.346894 12.2848187,380.757894 C12.5792987,383.589894 13.7915087,386.244894 15.7366487,388.320894 C17.6815487,390.399894 20.2528487,391.782894 23.0578487,392.262894 C23.4535487,392.361894 23.8717487,392.301894 24.2260487,392.100894 C24.5803487,391.899894 24.8440487,391.569894 24.9628487,391.179894 C25.0171487,390.984894 25.0318487,390.777894 25.0069487,390.576894 C24.9817487,390.375894 24.9169487,390.180894 24.8164487,390.003894 C24.7159487,389.826894 24.5812487,389.670894 24.4207487,389.544894 C24.2599487,389.421894 24.0760487,389.328894 23.8798487,389.274894 L23.8798487,389.274894 Z" id="Path"></path>
                <path d="M358.901849,420.225894 L346.244849,416.091894 C344.342849,415.470894 343.529849,418.461894 345.419849,419.076894 L358.079849,423.213894 C359.990849,423.831894 360.791849,420.843894 358.901849,420.225894 Z" id="Path"></path>
                <path d="M156.659849,189.264894 C154.913849,188.301894 153.359849,190.983894 155.096849,191.940894 C157.783049,193.403094 160.351049,195.073194 162.776849,196.935894 C163.072649,197.215794 163.464449,197.371794 163.871849,197.371794 C164.279249,197.371794 164.671049,197.215794 164.966849,196.935894 C165.256949,196.644594 165.419549,196.250394 165.419549,195.839394 C165.419549,195.428394 165.256949,195.033894 164.966849,194.742594 C162.347549,192.698994 159.569849,190.867194 156.659849,189.264894 Z" id="Path"></path>
                <path d="M262.277849,228.483894 C259.070849,226.512894 255.860849,224.544894 252.590849,222.681894 C252.235949,222.482094 251.816849,222.430194 251.424149,222.536694 C251.031149,222.643494 250.696049,222.900294 250.490849,223.251894 C250.285649,223.603794 250.226849,224.021994 250.327349,224.416494 C250.427849,224.810994 250.679549,225.149994 251.027849,225.360894 L260.714849,231.159894 C261.068249,231.345894 261.480149,231.388494 261.864449,231.278694 C262.248449,231.168894 262.575449,230.914794 262.777049,230.569794 C262.978349,230.224794 263.038949,229.815294 262.946249,229.426494 C262.853249,229.037994 262.613849,228.700194 262.277849,228.483894 L262.277849,228.483894 Z" id="Path"></path>
                <path d="M35.6248487,455.187894 C35.2165487,455.196894 34.8274487,455.361894 34.5388487,455.649894 C34.2499487,455.937894 34.0846487,456.327894 34.0768487,456.735894 C33.4768487,462.120894 32.8768487,467.505894 32.2768487,472.890894 C32.2777487,473.301894 32.4412487,473.694894 32.7322487,473.985894 C33.0229487,474.276894 33.4168487,474.438894 33.8278487,474.438894 C34.2361487,474.432894 34.6258487,474.267894 34.9147487,473.976894 C35.2036487,473.688894 35.3689487,473.298894 35.3758487,472.890894 C35.9758487,467.505894 36.5758487,462.120894 37.1758487,456.735894 C37.1749487,456.324894 37.0111487,455.931894 36.7204487,455.640894 C36.4297487,455.349894 36.0355487,455.187894 35.6248487,455.187894 L35.6248487,455.187894 Z" id="Path"></path>
                <path d="M127.106849,461.691894 C126.697649,461.697894 126.306749,461.862894 126.017249,462.150894 C125.727449,462.438894 125.562149,462.831894 125.555849,463.239894 C125.039849,469.038894 124.522949,474.840894 124.004849,480.639894 C124.005749,481.050894 124.168949,481.443894 124.459049,481.734894 C124.749149,482.022894 125.142449,482.187894 125.552849,482.187894 C125.961749,482.181894 126.352349,482.016894 126.641549,481.728894 C126.930449,481.440894 127.095449,481.047894 127.100849,480.639894 L128.654849,463.239894 C128.653949,462.828894 128.490749,462.435894 128.200649,462.144894 C127.910549,461.856894 127.517249,461.691894 127.106849,461.691894 Z" id="Path"></path>
                <path d="M458.183849,201.597594 C461.447849,202.183194 464.411849,203.869794 466.580849,206.375994 C468.752849,208.882494 469.997849,212.057094 470.111849,215.370594 C470.111849,215.781294 470.273849,216.174894 470.564849,216.465294 C470.855849,216.755694 471.248849,216.918594 471.659849,216.918594 C472.070849,216.918594 472.463849,216.755694 472.754849,216.465294 C473.045849,216.174894 473.207849,215.781294 473.207849,215.370594 C473.060849,211.390494 471.578849,207.575394 469.004849,204.536394 C466.430849,201.497394 462.911849,199.410294 459.008849,198.609594 C458.612849,198.513594 458.195849,198.572394 457.841849,198.773694 C457.487849,198.974994 457.223849,199.303494 457.103849,199.692594 C456.995849,200.088594 457.046849,200.511294 457.250849,200.868294 C457.451849,201.225594 457.787849,201.487794 458.183849,201.597594 L458.183849,201.597594 Z" id="Path"></path>
                <path d="M462.209849,188.676594 C467.027849,190.079094 471.323849,192.866694 474.569849,196.692894 C477.815849,200.518794 479.864849,205.214394 480.461849,210.195594 C480.470849,210.603894 480.635849,210.992994 480.923849,211.281894 C481.211849,211.570494 481.601849,211.736094 482.009849,211.743594 C482.420849,211.742994 482.813849,211.579494 483.104849,211.289394 C483.392849,210.999294 483.557849,210.605994 483.557849,210.195594 C483.020849,204.512094 480.773849,199.125594 477.107849,194.749194 C473.441849,190.372494 468.533849,187.212894 463.031849,185.688594 C462.632849,185.579694 462.209849,185.633354 461.849849,185.837394 C461.492849,186.041694 461.228849,186.379794 461.120849,186.777594 C461.012849,187.175394 461.063849,187.600494 461.270849,187.958694 C461.474849,188.317194 461.810849,188.579694 462.209849,188.688594 L462.209849,188.676594 Z" id="Path"></path>
                <path d="M170.003849,392.133894 C169.893749,391.737894 169.631549,391.401894 169.274549,391.200894 C168.917249,390.996894 168.494549,390.945894 168.098849,391.053894 L163.898849,392.634894 C163.507649,392.751894 163.176449,393.015894 162.974849,393.369894 C162.772949,393.723894 162.715949,394.143894 162.815849,394.539894 C162.925949,394.935894 163.188449,395.271894 163.546049,395.475894 C163.903649,395.679894 164.327249,395.730894 164.723849,395.622894 L168.923849,394.041894 C169.314749,393.924894 169.645049,393.660894 169.846349,393.303894 C170.047349,392.949894 170.103749,392.529894 170.003849,392.133894 L170.003849,392.133894 Z" id="Path"></path>
                <path d="M170.690849,411.102894 C169.490849,411.402894 168.311849,411.702894 167.123849,412.002894 C166.926749,412.056894 166.742549,412.149894 166.581149,412.275894 C166.420049,412.398894 166.285049,412.554894 166.183949,412.734894 C166.082849,412.911894 166.018049,413.106894 165.992549,413.310894 C165.967349,413.511894 165.982049,413.718894 166.036349,413.916894 C166.090349,414.111894 166.183049,414.297894 166.308449,414.456894 C166.433849,414.618894 166.589849,414.753894 166.767449,414.855894 C166.945049,414.954894 167.140649,415.020894 167.343449,415.047894 C167.546249,415.071894 167.751749,415.056894 167.948849,415.002894 C169.148849,414.702894 170.327849,414.402894 171.515849,414.102894 C171.913649,413.994894 172.251749,413.730894 172.455749,413.370894 C172.659449,413.013894 172.712849,412.587894 172.603349,412.188894 C172.493849,411.792894 172.231049,411.453894 171.872249,411.249894 C171.513749,411.045894 171.088649,410.994894 170.690849,411.102894 L170.690849,411.102894 Z" id="Path"></path>
                <path d="M84.5488487,390.747894 C84.7561487,391.101894 85.0957487,391.359894 85.4929487,391.464894 C85.8901487,391.566894 86.3122487,391.509894 86.6668487,391.302894 C87.0211487,391.095894 87.2788487,390.756894 87.3829487,390.357894 C87.4870487,389.961894 87.4291487,389.538894 87.2218487,389.184894 C86.5357487,387.996894 86.0587487,386.700894 85.8118487,385.350894 C85.7023487,384.954894 85.4404487,384.618894 85.0831487,384.414894 C84.7261487,384.210894 84.3031487,384.159894 83.9068487,384.267894 C83.5144487,384.381894 83.1820487,384.645894 82.9804487,385.002894 C82.7788487,385.356894 82.7236487,385.776894 82.8268487,386.172894 C83.1112487,387.792894 83.6953487,389.343894 84.5488487,390.747894 L84.5488487,390.747894 Z" id="Path"></path>
                <path d="M101.669849,386.235894 C102.350849,388.092894 105.344849,387.291894 104.669849,385.413894 C103.851449,383.172894 103.163549,380.886894 102.608849,378.567894 C102.149849,376.629894 99.1618487,377.448894 99.6238487,379.392894 C100.171649,381.711894 100.854749,383.997894 101.669849,386.235894 L101.669849,386.235894 Z" id="Path"></path>
                <path d="M226.190849,356.880894 C221.007149,358.113894 215.998349,359.988894 211.280849,362.466894 C209.513849,363.390894 211.076849,366.066894 212.843849,365.139894 C217.329449,362.796894 222.090449,361.026894 227.015849,359.868894 C228.959849,359.412894 228.137849,356.421894 226.190849,356.880894 Z" id="Path"></path>
                <path d="M63.0898487,353.517894 L46.2898487,350.112894 C44.3428487,349.719894 43.5088487,352.704894 45.4648487,353.112894 L62.2648487,356.517894 C64.2118487,356.901894 65.0428487,353.901894 63.0898487,353.517894 Z" id="Path"></path>
                <path d="M73.1458487,334.857894 C74.1457487,339.279894 74.6488487,343.797894 74.6458487,348.330894 C74.6632487,348.729894 74.8342487,349.107894 75.1228487,349.383894 C75.4117487,349.659894 75.7957487,349.812894 76.1953487,349.812894 C76.5949487,349.812894 76.9789487,349.659894 77.2675487,349.383894 C77.5564487,349.107894 77.7271487,348.729894 77.7448487,348.330894 C77.8225487,343.515894 77.2789487,338.709894 76.1278487,334.032894 C75.6658487,332.094894 72.6808487,332.901894 73.1458487,334.857894 Z" id="Path"></path>
                <path d="M193.277849,338.649894 C193.277849,338.238894 193.114649,337.845894 192.824549,337.554894 C192.534149,337.263894 192.140549,337.101894 191.729849,337.101894 C191.319449,337.101894 190.925549,337.263894 190.635149,337.554894 C190.345049,337.845894 190.181849,338.238894 190.181849,338.649894 C190.209749,344.481894 190.649849,350.304894 191.498849,356.076894 C191.510249,356.484894 191.677349,356.871894 191.965949,357.159894 C192.254549,357.447894 192.642449,357.612894 193.049849,357.624894 C193.460249,357.624894 193.854149,357.462894 194.144549,357.171894 C194.434649,356.880894 194.597849,356.487894 194.597849,356.076894 C193.847549,350.295894 193.406849,344.478894 193.277849,338.649894 L193.277849,338.649894 Z" id="Path"></path>
            </g>
        </g>
    </g>
</svg>