<?xml version="1.0" encoding="UTF-8"?>
<svg width="600px" height="600px" viewBox="0 0 600 600" version="1.1" xmlns="http://www.w3.org/2000/svg" xmlns:xlink="http://www.w3.org/1999/xlink">
    <title>04</title>
    <g id="04" stroke="none" stroke-width="1" fill="none" fill-rule="evenodd">
        <g id="streamlinehq-databases-development-600" transform="translate(106.000000, 40.000000)" fill="#303030" fill-rule="nonzero">
            <path d="M189.746797,12.2425686 C188.854662,8.60255563 187.304144,5.15973393 185.172796,2.08706904 C184.206111,0.710612074 181.860399,-1.01271205 180.407642,0.746399955 C180.014961,1.33948773 179.773016,2.02077887 179.703109,2.73028738 C179.632929,3.43979589 179.737244,4.15577375 180.006222,4.81520675 C177.128015,3.84067522 173.064663,3.05334183 172.734242,6.21093412 C172.693008,7.30761244 173.016056,8.38678223 173.651774,9.27768024 C173.251992,9.22677886 172.850026,9.19646928 172.447514,9.18683408 C171.499399,9.15049562 170.565483,9.42823711 169.788859,9.97758108 C169.011961,10.5269526 168.435227,11.3176721 168.146587,12.228804 C167.463901,14.4558838 169.28804,15.8708816 171.090333,16.6692266 C172.581321,17.329926 174.124193,17.905285 175.667065,18.4393503 C178.947238,19.8763714 182.567663,20.334181 186.098519,19.7579961 C186.832817,19.5672191 187.518234,19.2198014 188.107803,18.7391426 C188.697644,18.2584838 189.178256,17.655871 189.517414,16.9720472 C190.070118,15.4560175 190.150129,13.8059208 189.746797,12.2425686 L189.746797,12.2425686 Z" id="Path"></path>
            <path d="M280.192493,394.921652 L304.337117,385.008019 C305.510293,384.527697 304.995986,382.589651 303.80891,383.078352 L279.661506,392.989192 C278.49111,393.472307 279.002637,395.410352 280.192493,394.921652 Z" id="Path"></path>
            <path d="M320.55463,496.197564 C313.245285,491.73028 305.897571,487.320409 298.43749,483.110117 C298.212756,482.995291 297.952393,482.967951 297.711215,483.039034 C297.470036,483.107383 297.261746,483.268687 297.135676,483.484669 C297.006865,483.703386 296.968495,483.960377 297.026049,484.206433 C297.083603,484.449756 297.234339,484.665738 297.44537,484.802436 L319.56251,497.889883 C319.787244,498.004709 320.047607,498.032049 320.288785,497.960966 C320.532704,497.892617 320.738254,497.731313 320.864324,497.515331 C320.993135,497.296614 321.031505,497.039623 320.973951,496.793567 C320.916397,496.550244 320.765661,496.334262 320.55463,496.197564 L320.55463,496.197564 Z" id="Path"></path>
            <path d="M205.4245,498.934416 L205.4245,519.065584 C205.4395,519.318426 205.5595,519.554778 205.7605,519.730668 C205.9585,519.90381 206.2255,520 206.5015,520 C206.7775,520 207.0415,519.90381 207.2425,519.730668 C207.4405,519.554778 207.5605,519.318426 207.5755,519.065584 L207.5755,498.934416 C207.5605,498.681574 207.4405,498.445222 207.2425,498.27208 C207.0415,498.09619 206.7775,498 206.5015,498 C206.2255,498 205.9585,498.09619 205.7605,498.27208 C205.5595,498.445222 205.4395,498.681574 205.4245,498.934416 Z" id="Path"></path>
            <path d="M110.530554,480.107194 L87.4910098,491.2594 C86.3768024,491.800002 87.3561179,493.432354 88.4703254,492.891752 L111.507172,481.731634 C112.624077,481.204218 111.644762,479.56923 110.530554,480.107194 Z" id="Path"></path>
            <path d="M328.479235,115.807877 C330.681934,117.135826 361.032376,134.89884 374.507389,141.87804 C375.633519,142.461903 376.632993,140.791783 375.50411,140.197057 C357.970624,131.102372 336.326351,117.958665 329.475956,114.126894 C329.25018,114.000345 328.983102,113.966943 328.729792,114.033476 C328.479235,114.100281 328.264472,114.261862 328.135063,114.483458 C328.002901,114.704783 327.967107,114.968472 328.030435,115.216681 C328.096516,115.465163 328.256212,115.678612 328.479235,115.810592 L328.479235,115.807877 Z" id="Path"></path>
            <path d="M381.544847,135.215815 C373.885934,130.584916 334.850797,107.904552 333.459505,107.126 C333.236245,107.000462 332.972145,106.967057 332.72438,107.033329 C332.473893,107.0996 332.264247,107.25989 332.133558,107.479447 C332.002869,107.699273 331.967474,107.960586 332.030096,108.207082 C332.09544,108.453579 332.253356,108.665323 332.473893,108.796249 C336.356442,111.14268 376.390804,134.555798 380.556512,136.88337 C380.779773,137.002712 381.04115,137.031807 381.286192,136.964458 C381.528511,136.89711 381.738158,136.738436 381.866124,136.522112 C381.99409,136.305788 382.032208,136.048515 381.972309,135.804982 C381.91241,135.56118 381.759939,135.349974 381.544847,135.215815 Z" id="Path"></path>
            <path d="M82.5320591,140.021437 C82.5320591,140.280933 82.6454591,140.529799 82.8473591,140.713245 C83.0495591,140.896692 83.3234591,141 83.6090591,141 C83.8946591,141 84.1685591,140.896692 84.3704591,140.713245 C84.5726591,140.529799 84.6860591,140.280933 84.6860591,140.021437 L84.6860591,91.9437171 C84.6758591,91.6844932 84.5528591,91.4397161 84.3443591,91.2628114 C84.1355591,91.0859068 83.8580591,90.991594 83.5730591,91.0005891 C83.2997591,91.0065859 83.0396591,91.1079858 82.8464591,91.2835275 C82.6532591,91.4590693 82.5419591,91.6953964 82.5350591,91.9437171 C82.2200591,108.249473 82.2620591,125.939936 82.5320591,140.021437 Z" id="Path"></path>
            <path d="M68.423,77.0007227 L68.423,101.999277 C68.423,102.26465 68.5364,102.519151 68.7383,102.706752 C68.9405,102.894353 69.2144,103 69.5,103 C69.7856,103 70.0595,102.894353 70.2617,102.706752 C70.4636,102.519151 70.577,102.26465 70.577,101.999277 L70.577,77.0007227 C70.577,76.7350712 70.4636,76.4805699 70.2617,76.2929692 C70.0595,76.1053686 69.7856,76 69.5,76 C69.2144,76 68.9405,76.1053686 68.7383,76.2929692 C68.5364,76.4805699 68.423,76.7350712 68.423,77.0007227 L68.423,77.0007227 Z" id="Path"></path>
            <path d="M96.4245,78.9175997 L96.4245,99.0826701 C96.4389,99.3303491 96.5586,99.5634589 96.7587,99.7342441 C96.9588,99.9047596 97.224,100 97.5,100 C97.7757,100 98.0409,99.9047596 98.241,99.7342441 C98.4411,99.5634589 98.5608,99.3303491 98.5755,99.0826701 L98.5755,78.9175997 C98.5608,78.6696509 98.4411,78.4365411 98.241,78.2657559 C98.0409,78.0952404 97.7757,78 97.5,78 C97.224,78 96.9588,78.0952404 96.7587,78.2657559 C96.5586,78.4365411 96.4389,78.6696509 96.4245,78.9175997 L96.4245,78.9175997 Z" id="Path"></path>
            <path d="M217.797618,296.317081 C217.751227,296.259149 217.557473,296.07956 217.557473,296.07956 C206.671807,288.982912 193.027474,288.777254 180.602697,292.004057 C176.891364,292.965725 173.270085,294.266294 169.651536,295.56976 C169.438134,295.650865 169.258026,295.807281 169.140955,296.015835 C169.024157,296.221493 168.977765,296.46191 169.009967,296.702327 C169.041895,296.939848 169.150506,297.159989 169.31697,297.322198 C169.483707,297.484407 169.698201,297.582891 169.924428,297.597374 C175.243095,297.710341 217.074454,298 217.074454,298 C217.254563,297.988414 217.426485,297.924689 217.573847,297.817515 C217.721209,297.710341 217.838552,297.562615 217.912233,297.388819 C217.985914,297.215024 218.013203,297.023849 217.994101,296.83557 C217.974998,296.647292 217.906775,296.467703 217.797618,296.317081 L217.797618,296.317081 Z" id="Path"></path>
            <g id="Group">
                <path d="M212.773951,284.91441 C199.805798,120.285526 201.202969,147.208675 201.523497,127.029314 C201.917992,113.694186 201.460487,100.347288 200.153721,87.0701829 C199.622248,81.2345076 198.397669,75.4825822 196.5019,69.9370212 C195.27732,65.8286204 192.545714,62.3332912 188.853074,60.149771 C186.964427,59.1899307 184.864561,58.719453 182.746341,58.7815813 C180.628394,58.8437095 178.559759,59.4365278 176.730561,60.5055714 C171.958263,63.3218691 147.787205,88.7917098 84.4761834,122.981399 L84.4761834,91.5368474 C84.4761834,91.276292 84.3726284,91.0264106 84.1882566,90.8422154 C84.0038849,90.6577465 83.7534899,90.5542907 83.4926847,90.5542907 C83.2318794,90.5542907 82.9817584,90.6577465 82.7973866,90.8422154 C82.6130149,91.0264106 82.5091859,91.276292 82.5091859,91.5368474 L82.5091859,124.048801 C79.3715782,125.73119 76.2230123,127.391683 73.0632143,129.030008 C54.9309486,129.053271 36.8252566,130.425567 18.8968135,133.135398 C14.6584542,133.766259 10.4806391,134.751279 6.40720082,136.080331 C4.48951517,136.750878 0.0377449238,138.445036 0.065140433,140.672894 C0.065140433,140.672894 -0.0690975621,170.231704 0.065140433,172.161237 C0.188420225,173.880027 1.81023437,174.991219 3.20192624,175.719242 C5.64396193,176.906794 8.2191398,177.799032 10.8726688,178.376798 C19.8342878,180.416082 28.9402811,181.759365 38.1092841,182.394606 C44.5499683,182.972098 51.0070898,183.382637 57.4696904,183.667277 C57.9669189,185.887746 59.1320499,187.902945 60.809203,189.442193 C64.6144393,192.874299 70.2305186,191.746685 74.4001151,189.600934 C76.0819255,188.707328 77.6878502,187.678517 79.2025479,186.524629 C79.1869325,187.783341 79.5337596,189.020159 80.2016621,190.08756 C80.8692907,191.154961 81.8300512,192.008335 82.9694304,192.545868 C84.9934107,193.337661 87.2143646,193.47916 89.322449,192.950933 C93.4153381,192.084148 97.3331699,190.537237 100.913489,188.374791 C100.938967,189.176437 101.160049,189.959472 101.557283,190.656293 C101.954518,191.353115 102.515852,191.942649 103.192795,192.373441 C109.721145,196.64031 124.909215,187.934146 131.322504,183.374426 C132.084099,182.827041 132.807341,182.246812 133.54702,181.683005 C134.620924,181.56258 135.689348,181.409313 136.757773,181.27794 C134.796255,187.701507 123.443556,225.914479 122.512108,229.14679 C83.3118743,226.119749 27.7236465,227.871382 6.40720082,234.834124 C4.48951517,235.507408 0.0377449238,237.217987 0.065140433,239.426687 C0.065140433,239.426687 -0.0690975621,268.985496 0.065140433,270.901345 C0.273346303,273.840804 5.42096249,275.699177 9.57412168,276.799422 C8.50295727,277.09501 7.44275107,277.417968 6.40172172,277.781979 C4.38267269,278.488106 0.0350053729,280.228791 0.0596613312,282.374542 C0.0596613312,282.374542 -0.074576664,311.933351 0.0596613312,313.8492 C1.17739811,329.468841 147.581739,329.592003 163.19444,315.885474 C163.623727,315.346299 163.93494,314.72228 164.107532,314.05447 C164.280398,313.386659 164.310807,312.69148 164.197115,312.009985 L164.197115,282.828872 C164.164241,280.661226 161.731519,279.399503 160.030258,278.641374 C158.292287,277.888719 156.498977,277.270173 154.666218,276.791211 C155.701768,276.517519 156.731839,276.205509 157.742733,275.855182 C159.770275,275.318745 161.645771,274.322503 163.221835,272.940355 C163.648657,272.398444 163.957131,271.774424 164.126983,271.106614 C164.296835,270.438804 164.324504,269.740888 164.208073,269.06213 L164.208073,240.945681 C168.188367,256.080613 173.175445,270.934188 179.135886,285.40432 C179.221086,285.554851 179.34464,285.678013 179.49422,285.762857 C179.643525,285.847702 179.813103,285.891493 179.985147,285.888756 L211.799552,285.888756 C211.931051,285.896967 212.059809,285.877808 212.183089,285.83128 C212.303629,285.784753 212.415951,285.713593 212.506356,285.623274 C212.599501,285.530219 212.670729,285.418005 212.717302,285.29758 C212.761134,285.174418 212.780311,285.045782 212.773951,284.91441 L212.773951,284.91441 Z M199.348293,139.394749 L167.210621,139.394749 C172.963678,128.994428 184.034203,106.943008 184.171181,106.663842 C189.502347,95.7872947 195.370465,84.4947348 195.356767,72.4987846 C200.964628,91.1071499 199.482531,122.850027 199.337335,139.389275 L199.348293,139.394749 Z M176.826445,62.801853 C182.678126,58.2339222 192.104921,61.5976052 193.134992,68.7574057 C194.441757,79.1358321 190.34065,88.9586624 186.012159,98.3600059 C186.012159,98.3600059 181.354923,108.39358 170.44877,129.227066 C157.171811,125.80016 144.64768,119.938758 133.514145,111.940637 C145.239423,98.8033881 166.964062,70.5008281 176.826445,62.801853 Z M162.64105,74.5980075 C157.364675,80.6192464 136.015355,106.223197 129.232227,113.807221 C125.55575,111.132422 121.903106,108.434633 118.274023,105.714128 C133.642904,96.1929073 148.45593,85.8038069 162.64105,74.5980075 L162.64105,74.5980075 Z M84.4761834,125.206521 C95.3768566,119.344024 105.825504,113.410366 116.413868,106.869111 C120.209242,109.717431 124.026258,112.533729 127.865191,115.318004 C123.481909,120.206156 119.098628,125.080622 114.63042,129.889403 C104.80913,129.325596 95.2234417,128.988954 84.4761834,128.953374 L84.4761834,125.206521 Z M82.5091859,126.273922 L82.5091859,128.969795 C80.7832688,128.969795 79.0573517,128.986217 77.3314346,129.002638 C79.0655704,128.088505 80.794227,127.19353 82.514665,126.273922 L82.5091859,126.273922 Z M13.4725026,136.181597 C25.1947671,133.828388 37.0833223,132.396154 49.0291341,131.898307 C60.1736272,131.211338 71.3427763,130.926698 82.5091859,130.943119 L82.5091859,139.810762 C82.5091859,140.071318 82.6130149,140.321199 82.7973866,140.505668 C82.9817584,140.689863 83.2318794,140.793319 83.4926847,140.793319 C83.7534899,140.793319 84.0038849,140.689863 84.1882566,140.505668 C84.3726284,140.321199 84.4761834,140.071318 84.4761834,139.810762 L84.4761834,130.934909 C93.9495505,130.978699 102.762686,131.208601 112.934638,131.739565 C106.444368,139.038675 99.1473005,145.57993 91.1826041,151.237432 C69.4278302,151.585021 28.4030552,150.862473 7.73862257,144.553856 C6.27022327,144.115948 2.08966856,142.599691 2.02939844,141.072485 C2.40471692,138.858312 11.1575821,136.59761 13.4779817,136.181597 L13.4725026,136.181597 Z M58.4942825,181.73227 C44.5951709,181.354574 30.7396182,180.006638 17.0284397,177.69804 C13.9930173,177.17255 3.60464022,175.045958 2.11706407,172.339137 C1.99926338,171.906703 2.0376171,174.660051 2.03487755,144.107737 C5.11495465,145.913014 8.49583444,147.148189 12.0150616,147.753324 C35.3615145,152.493681 64.3788379,153.50087 88.084172,153.25181 C75.3315625,161.038366 66.7156748,160.994576 56.075259,164.815325 C54.0414164,165.3701 52.128662,166.298192 50.4345237,167.552252 C49.7315549,168.165871 49.1757,168.930021 48.8086002,169.7875 C48.4415004,170.645253 48.2724701,171.57444 48.3141113,172.50609 C48.8127095,179.622099 61.1680842,179.039134 68.1210644,177.104127 C67.1024994,178.188497 66.0033916,179.194865 64.8336033,180.114746 C62.9550933,181.3335 60.7278384,181.901959 58.4942825,181.73227 Z M118.745226,188.410371 C115.230382,190.228238 111.367341,191.275386 107.414443,191.481203 C106.683531,191.535942 105.949331,191.431117 105.263074,191.173846 C104.576543,190.916849 103.95439,190.5137 103.439355,189.992315 C103.086227,189.506784 102.873912,188.933672 102.825422,188.335379 C102.777205,187.737087 102.894732,187.137153 103.1654,186.601263 C103.276352,186.395172 103.310048,186.156238 103.261284,185.927431 C103.212246,185.698624 103.083487,185.494723 102.89802,185.351582 C102.712552,185.208714 102.48243,185.136186 102.248472,185.147133 C102.014514,185.157807 101.791789,185.25141 101.620293,185.4107 C98.4210455,187.82549 94.7749772,189.583692 90.8922117,190.583491 C87.736249,191.456571 83.4954242,192.165435 81.62979,188.684064 C81.239404,187.997095 81.0744831,187.204755 81.1585873,186.419257 C81.2426915,185.633485 81.5711636,184.893968 82.0982532,184.304981 C82.2741324,184.11887 82.3700167,183.871726 82.3661813,183.616097 C82.3623459,183.360194 82.2587909,183.11606 82.0777066,182.935423 C81.8963483,182.754786 81.6517064,182.651604 81.3958324,182.648319 C81.1396844,182.645035 80.8925769,182.741648 80.7065614,182.917359 C77.0793959,185.83766 72.8248734,189.121972 68.0388779,189.628304 C66.0559909,189.863953 64.0552969,189.363095 62.4173194,188.221523 C61.0297369,187.029318 60.0229519,185.456132 59.5216141,183.697383 C61.6713397,183.68972 63.7764106,183.084038 65.6006776,181.948487 C67.9881962,180.04687 70.2044929,177.940532 72.2249117,175.653555 C72.8084361,174.988482 72.2632654,173.62823 71.2688084,174.011399 C66.9545637,175.691872 62.3480088,176.494887 57.7189896,176.373367 C55.2369564,176.302207 50.9468197,175.897142 50.3222021,172.839995 C50.2030316,171.997842 50.3345301,171.139268 50.7002601,170.371287 C51.0662641,169.603305 51.6503364,168.959854 52.3796048,168.521124 C62.072136,163.121168 76.2904053,164.464999 93.9659878,151.705446 C107.403485,141.773139 115.227643,132.28695 132.144369,113.500685 C143.415156,121.579545 156.072977,127.525519 169.489928,131.044386 C157.142772,154.404056 142.773827,177.353187 118.745226,188.410371 Z M136.434506,179.378513 C146.738505,170.448468 155.460413,159.845614 162.232857,148.016069 C162.232857,162.22893 162.076703,170.984358 162.232857,172.101025 C161.995612,172.675779 161.569612,173.152552 161.024715,173.453066 C156.214064,176.625165 141.951962,178.746283 136.434506,179.378513 Z M2.23212521,239.350053 C2.96358531,238.071908 8.18790892,235.871419 13.4779817,234.924442 C25.2005201,232.573969 37.0890753,231.141736 49.0346132,230.641152 C65.4116486,229.628489 81.8462146,229.436904 98.2451664,229.902181 C110.192348,230.121136 151.291091,232.061617 161.369899,238.68498 C162.331481,239.618272 162.739674,240.132814 161.2384,241.172846 C156.935388,243.373335 152.292945,244.83677 147.505031,245.502664 C121.303966,250.051437 87.0047889,250.702825 60.2804697,249.671004 C49.9414045,249.397311 11.0781351,247.14482 2.89509654,241.074317 C2.24582297,240.576196 1.83215078,240.053443 2.23212521,239.350053 Z M162.221899,313.816357 C161.630156,315.942949 154.411439,317.88343 152.252673,318.33776 C104.636539,328.850296 4.34705852,322.922112 2.02665889,313.802672 L2.02665889,285.809385 C15.9435776,295.870328 113.745545,298.886421 155.397678,288.647578 C157.809578,288.081034 160.114636,287.134058 162.224639,285.836754 C162.232857,306.09275 162.079442,312.702428 162.232857,313.816357 L162.221899,313.816357 Z M158.742669,280.215107 C159.690554,280.611961 162.049307,281.720416 162.214446,282.738553 C162.218886,282.869926 162.197517,283.001298 162.150397,283.12446 C162.103276,283.247622 162.0315,283.359836 161.939725,283.452891 C159.854927,285.932547 150.680171,287.925029 147.485855,288.450519 C84.1720933,299.444754 -35.7024364,288.52989 13.8204256,277.809348 C47.7086705,284.651665 116.531669,284.684508 150.430872,277.809348 C153.267403,278.378629 156.051335,279.183285 158.753628,280.215107 L158.742669,280.215107 Z M162.221899,270.759025 C162.171765,271.09293 162.003557,271.396729 161.747957,271.615683 C158.872798,273.504162 155.641498,274.785044 152.252673,275.378957 C123.638064,281.695784 76.2164374,281.805261 47.0922716,279.875728 C36.1779007,279.284552 17.8311282,277.412494 7.38248095,274.078917 C5.96065402,273.632798 2.37184231,272.291704 2.02665889,270.843869 C1.96638877,268.547588 2.02665889,278.841169 2.02665889,242.850582 C16.0613783,252.949842 113.572954,255.963198 155.397678,245.688775 C157.809578,245.1236 160.114636,244.174434 162.224639,242.877951 C162.232857,265.512336 162.076703,265.632761 162.232857,270.759025 L162.221899,270.759025 Z M180.604286,283.926379 C174.193189,268.090521 168.875994,251.832628 164.690234,235.269295 C164.628868,235.066489 164.503671,234.888588 164.332997,234.762142 C164.162597,234.63597 163.956035,234.567821 163.74372,234.567821 C163.531678,234.567821 163.324842,234.63597 163.154442,234.762142 C162.984042,234.888588 162.858845,235.066489 162.797205,235.269295 C162.621873,235.81668 162.424626,236.34217 162.249295,236.878608 C156.929087,233.320603 142.614933,230.791683 124.51746,229.297321 C124.920174,227.898751 138.508346,182.285129 138.900102,180.998774 C144.286881,180.333974 149.626266,179.328427 154.885382,177.988154 C155.323162,195.067946 156.951551,212.096283 159.759043,228.949731 C159.967249,230.195033 161.863018,229.666806 161.654812,228.429715 C158.917179,211.542055 157.327417,194.488538 156.896212,177.38603 C159.223187,176.844392 161.384692,175.749622 163.197179,174.194774 C163.623727,173.653683 163.931927,173.029116 164.101779,172.36158 C164.271631,171.694043 164.299301,170.998317 164.183418,170.319285 L164.183418,144.679755 C164.827212,143.584984 165.473746,142.468318 166.101103,141.351652 L199.389386,141.351652 C199.466094,142.31505 210.574973,282.303382 210.71195,283.926379 L180.604286,283.926379 Z" id="Shape"></path>
                <path d="M386.950001,226.502918 C386.936303,226.341713 386.886991,226.185435 386.807544,226.043936 C386.730837,225.90271 386.621255,225.779275 386.492496,225.68184 L379.312133,220.673264 C383.361189,217.958233 385.295312,216.841567 386.207582,216.088912 C387.243133,215.232254 386.966438,214.835399 386.966438,213.078292 L386.966438,171.961441 C386.963698,171.81611 386.928084,171.673243 386.862335,171.543513 C386.796586,171.413782 386.700702,171.3002 386.58564,171.211523 C386.508933,171.132152 307.470149,116.054238 307.382484,115.999499 C307.234548,115.90617 307.061956,115.856632 306.886625,115.856632 C306.711294,115.856632 306.538702,115.90617 306.390766,115.999499 L226.009603,172.752413 C225.858927,172.835342 225.732908,172.958504 225.647982,173.108214 C225.563056,173.257923 225.519223,173.428434 225.524702,173.60086 L225.524702,216.217547 C225.486348,216.456481 225.511004,216.70171 225.595931,216.928327 C225.680857,217.154671 225.826053,217.354467 226.015082,217.50664 C226.373963,217.780333 224.385049,216.431028 233.176268,222.23605 C232.316049,222.838173 226.190413,227.162518 225.9055,227.386946 C225.78222,227.473159 225.680857,227.587836 225.612368,227.721398 C225.543879,227.854687 225.508265,228.003028 225.508265,228.153285 L225.508265,270.759025 C225.469911,270.997137 225.494567,271.243461 225.579493,271.470626 C225.664419,271.695054 225.809615,271.894849 225.998645,272.048117 C226.201371,272.204122 289.454863,314.19679 305.119615,324.29605 C305.26755,324.391842 305.440142,324.441107 305.615473,324.441107 C305.790805,324.441107 305.963396,324.391842 306.111332,324.29605 C307.593429,323.357284 384.900817,271.629367 386.443184,270.419646 C387.207519,269.822996 386.950001,268.503797 386.950001,267.62798 L386.950001,226.502918 Z M306.927718,118.060405 C309.393314,119.773721 383.583093,171.496164 384.240585,171.958704 C384.240585,171.958704 306.48939,223.976735 305.615473,224.65823 C303.149878,223.035232 228.968318,173.98403 228.302607,173.537911 C293.646375,127.396062 306.746908,118.197251 306.927718,118.060405 Z M227.480742,216.091649 L227.480742,175.437338 C229.62307,176.852329 305.081261,226.686292 305.127833,226.713662 C305.275769,226.806991 305.448361,226.856529 305.623692,226.856529 C305.799023,226.856529 305.971615,226.806991 306.119551,226.713662 C308.845404,224.975713 382.227015,175.711031 385.00492,173.811604 L385.00492,214.485073 C302.048578,270.121321 305.771628,267.581453 305.607255,267.701877 C223.875493,213.72147 227.661552,216.190178 227.480742,216.091649 Z M234.926841,223.388296 L305.127833,269.746362 C305.278509,269.83668 305.448361,269.885945 305.623692,269.885945 C305.799023,269.885945 305.971615,269.83668 306.119551,269.746362 C307.598908,268.804859 375.011038,223.538827 377.55882,221.830984 C379.123104,222.925755 383.563916,226.034904 384.221408,226.48376 C384.221408,226.48376 306.470213,278.504527 305.596297,279.183285 C303.130701,277.560288 228.949141,228.509086 228.28343,228.065704 L234.926841,223.388296 Z M384.985743,269.040235 C302.473208,324.397316 305.749711,322.136614 305.588078,322.257039 C303.122482,320.634042 228.423147,271.194196 227.472523,270.646811 L227.472523,229.954183 L305.136052,281.241454 C305.283988,281.33451 305.456579,281.383774 305.631911,281.383774 C305.807242,281.383774 305.979834,281.33451 306.127769,281.241454 C327.770222,267.526714 375.271295,235.069499 384.985743,228.385924 L384.985743,269.040235 Z" id="Shape"></path>
                <path d="M257.615802,425.195593 C257.582927,423.665651 256.043299,422.759728 254.810502,422.204132 C252.484623,421.23526 250.054641,420.534606 247.569868,420.110383 C229.943598,416.899968 206.635499,416.503113 188.965669,417.211977 C179.829267,417.463775 162.85227,418.733709 154.156935,421.623903 C152.561421,421.987915 151.146443,422.904785 150.16267,424.210299 C149.924329,424.634523 149.836389,425.12717 149.913371,425.608869 C149.913371,425.608869 121.695996,478.073018 121.249449,478.883149 C113.43899,490.471297 215.541779,500.258547 272.617583,487.290988 C276.611848,486.341274 284.907208,484.485638 286.54272,480.634782 C286.633125,480.330983 286.655041,480.008026 286.60299,479.693279 C286.550939,479.378533 286.430398,479.080208 286.246848,478.820199 C255.503608,421.68959 257.574708,425.792243 257.615802,425.195593 Z M153.115906,424.188404 C172.114691,415.430238 254.007813,418.71455 255.651544,425.195593 C255.046103,426.758378 247.931489,428.266425 246.172697,428.553802 C214.045984,434.087868 153.88298,431.038932 151.877629,425.179171 C151.976253,424.842529 152.674838,424.415569 153.107687,424.188404 L153.115906,424.188404 Z M278.450086,483.615295 C273.253158,485.268399 267.930211,486.500016 262.536035,487.296462 C227.108163,492.389883 191.168268,492.888003 155.611637,488.777139 C148.981923,488.032695 142.431657,486.776446 135.88687,485.479142 C131.908768,484.740172 128.059425,483.426447 124.460203,481.579022 C123.832846,481.247854 123.298634,480.763417 122.906878,480.172241 C122.797296,479.898549 121.515186,482.525998 151.181783,427.385134 C153.216995,428.567487 155.441511,429.385828 157.756705,429.810051 C182.870168,435.141585 231.324332,434.462827 251.786037,429.262666 C253.385935,428.874022 254.909125,428.211686 256.28164,427.303026 L284.64969,480.032658 C283.838783,481.699446 279.847257,483.180124 278.450086,483.615295 Z" id="Shape"></path>
                <path d="M20.0257824,437.793667 L167.358831,360.174423 C168.476568,359.583247 167.48485,357.889089 166.364374,358.477528 L19.034065,436.099509 C17.90537,436.687948 18.9080456,438.384843 20.0257824,437.793667 Z" id="Path"></path>
                <path d="M224.417924,328.431546 L262.574389,304.915871 C263.651032,304.253535 262.664794,302.553903 261.585411,303.218976 L223.426206,326.734651 C222.349563,327.405198 223.338541,329.10483 224.417924,328.431546 Z" id="Path"></path>
                <path d="M82.1009928,332.637715 C81.8511457,332.646413 81.6133527,332.74768 81.4363777,332.922843 C81.2596767,333.100743 81.1572175,333.338856 81.1503686,333.587916 C80.9914747,343.090526 81.1750246,353.567482 74.7507777,361.250035 C71.5178336,364.750565 67.6145215,367.566862 63.2720593,369.531976 C50.585199,376.1006 35.3971287,384.377067 22.285638,390.203984 C21.132287,390.718526 22.1294836,392.409947 23.2773554,391.900878 C36.7504668,385.907009 49.700324,378.807421 62.773461,372.000684 C67.4575452,369.917882 71.7380935,367.027688 75.4192281,363.461472 C78.299318,360.242846 80.3460365,356.370095 81.3804909,352.17986 C82.7447873,346.081987 83.3283116,339.833583 83.1173662,333.587916 C83.1080517,333.327908 82.9960041,333.081585 82.8053313,332.903684 C82.6149325,332.725784 82.361798,332.629992 82.1009928,332.637715 L82.1009928,332.637715 Z" id="Path"></path>
                <path d="M124.988936,442.963722 C125.873811,444.1406 127.498365,443.056777 126.766905,442.071483 C121.783662,434.930841 112.639315,434.24661 105.086373,438.592849 C103.020752,439.75878 19.0973486,487.121298 19.0343389,487.162352 C18.9222913,487.230776 18.8253112,487.321094 18.7488777,487.427834 C18.6727182,487.531837 18.6184751,487.654999 18.5899838,487.780898 C18.5612185,487.909533 18.5587529,488.040906 18.582313,488.169541 C18.6058732,488.298177 18.6551851,488.421339 18.7275092,488.530816 C18.8609254,488.741559 19.0691312,488.89209 19.3099377,488.955039 C19.5507443,489.017989 19.8066183,488.987883 20.0260564,488.870195 C112.189755,436.912376 106.948994,439.605512 108.883117,438.976019 C115.87719,436.474468 121.586414,438.42316 124.988936,442.963722 Z" id="Path"></path>
                <path d="M181.820646,22.05175 C180.137466,22.156848 178.540582,22.8334163 177.294908,23.9692409 C176.049508,25.1050655 175.229835,26.6322707 174.971769,28.2974169 C174.7737,29.8363909 174.982727,31.4005445 175.577758,32.8338731 C176.172788,34.2672017 177.133275,35.519893 178.363333,36.4671434 C179.753381,37.673307 181.559841,38.2891156 183.397806,38.1831965 C185.235497,38.0775511 186.959222,37.2583889 188.20106,35.9005996 C193.26923,30.5198015 188.724315,22.1694378 181.820646,22.05175 Z M186.804163,34.5129777 C183.009885,38.5663663 176.985339,34.7675119 176.837403,29.5865095 C176.814665,28.3324496 177.218749,27.1076749 177.983905,26.1133494 C178.748788,25.1187502 179.829267,24.4134441 181.048093,24.1126559 C182.324998,23.9325661 183.626558,24.1441305 184.780457,24.7191588 C185.934356,25.2941872 186.886076,26.2058575 187.510146,27.3331976 C188.133941,28.4605378 188.4005,29.7507251 188.27448,31.0327016 C188.148461,32.3149518 187.635617,33.5285051 186.804163,34.5129777 L186.804163,34.5129777 Z" id="Shape"></path>
                <path d="M171.007913,16.5724226 C172.503708,17.229285 174.051554,17.8013027 175.5994,18.3322665 C178.882478,19.7894063 182.523067,20.2453783 186.064485,19.6432544 C186.803616,19.4587855 187.493434,19.1155749 188.085999,18.6371601 C188.67829,18.1587453 189.159081,17.5568951 189.494402,16.8734845 C190.056832,15.3679011 190.137375,13.7246502 189.724525,12.1714716 C188.845677,8.54715107 187.28879,5.12147665 185.135777,2.0749487 C184.163236,0.706485299 181.812702,-1.00683087 180.355261,0.742065347 C179.961587,1.33170886 179.718863,2.0090435 179.648456,2.71443164 C179.578324,3.41981978 179.682701,4.1316397 179.952547,4.78724315 C177.06506,3.81837106 172.988608,3.03561 172.657122,6.17486503 C172.616029,7.26517456 172.939844,8.33807723 173.577612,9.22380148 C173.176815,9.17229252 172.773553,9.1412284 172.36947,9.13074597 C171.419119,9.09932605 170.484111,9.37764414 169.705804,9.9236884 C168.927224,10.4697327 168.347809,11.2538896 168.054677,12.157787 C167.399924,14.3801442 169.199809,15.7787138 171.007913,16.5724226 Z M172.177701,11.0985963 C173.418718,11.1112683 174.649598,11.3219296 175.824043,11.7226156 C176.032523,11.7753015 176.252235,11.7587978 176.450305,11.6756226 C176.648374,11.5924474 176.813843,11.4471166 176.921781,11.2615803 C177.02972,11.0760714 177.074374,10.8604563 177.048897,10.6473592 C177.023419,10.4342621 176.928904,10.2352601 176.780147,10.0804596 C175.784046,9.1871814 175.045189,8.04369339 174.640557,6.76877815 C174.429612,5.67400743 175.862397,5.91485699 176.596597,6.02433406 C178.201152,6.26890584 179.766805,6.72156616 181.253833,7.37090204 C181.441766,7.47348206 181.657643,7.51262011 181.869684,7.48248655 C182.081452,7.45232561 182.277877,7.35450785 182.429649,7.20362108 C182.581146,7.0527343 182.680043,6.85687982 182.711,6.64531538 C182.741957,6.43375094 182.703604,6.21783478 182.601692,6.02980791 C181.885848,4.95709682 181.5771,3.66428208 181.730515,2.38422142 C181.848316,1.95726084 181.853795,1.91073309 182.278425,2.06947484 C182.757025,2.28670472 183.166588,2.63139328 183.461911,3.06571619 C184.982362,5.3117478 186.225022,7.73327115 187.163045,10.2775183 C187.878067,12.2809487 188.932794,15.5980766 186.837038,17.152651 C184.645397,18.7674378 181.133293,17.8888843 178.763581,17.2484435 C177.377369,16.8734845 176.024031,16.4273654 174.673432,15.9100863 C173.180925,15.4968103 171.758824,14.862117 170.454524,14.0270806 C168.945031,12.8639141 170.816144,11.0931225 172.177701,11.0958594 L172.177701,11.0985963 Z" id="Shape"></path>
                <path d="M309.941224,178.376798 C310.845276,179.263562 312.236968,177.87594 311.330177,176.986439 L307.653699,173.373695 L311.363051,169.744531 C312.267103,168.857766 310.875411,167.470144 309.971359,168.354172 L306.251049,171.997021 L302.544437,168.354172 C301.640385,167.467407 300.251433,168.855029 301.155485,169.744531 L304.848399,173.370959 L301.155485,176.986439 C300.251433,177.873203 301.640385,179.260825 302.544437,178.376798 L306.24831,174.75037 C307.472889,175.958175 308.702947,177.167076 309.941224,178.376798 Z" id="Path"></path>
                <path d="M315.146371,242.456465 L321.858271,238.000748 C322.904779,237.305568 321.92128,235.6032 320.863814,236.30659 L314.154654,240.75957 C313.108145,241.457486 314.091644,243.157118 315.146371,242.456465 Z" id="Path"></path>
                <path d="M363.088512,212.158685 L369.797672,207.705705 C370.844181,207.007789 369.863422,205.30542 368.803215,206.008811 L362.102274,210.470001 C361.053026,211.15697 362.036525,212.859338 363.088512,212.158685 Z" id="Path"></path>
                <path d="M340.35024,226.83135 C342.281623,225.621628 344.215746,224.413822 346.149869,223.207659 C347.221033,222.539848 346.234795,220.840217 345.158151,221.513501 L339.355783,225.134455 C338.27366,225.796791 339.254419,227.504634 340.35024,226.83135 Z" id="Path"></path>
                <path d="M252.709266,210.470001 L244.465957,205.598272 C244.241314,205.4825 243.981057,205.456772 243.739976,205.526564 C243.498896,205.596629 243.29069,205.757013 243.164671,205.974599 C243.035912,206.192185 242.997558,206.450277 243.055089,206.695505 C243.112619,206.940734 243.263294,207.154488 243.47424,207.292429 L251.714809,212.158685 C251.939452,212.286226 252.205189,212.320164 252.457227,212.252835 C252.706526,212.185781 252.920211,212.022933 253.04897,211.7996 C253.180469,211.576267 253.216083,211.310785 253.153073,211.060356 C253.087324,210.809928 252.92843,210.595079 252.706526,210.462064 L252.709266,210.470001 Z" id="Path"></path>
                <path d="M336.980592,283.466576 L343.689752,279.013596 C344.739,278.318416 343.755501,276.616048 342.698035,277.319438 L335.988874,281.772418 C334.939626,282.467597 335.923125,284.169966 336.980592,283.466576 Z" id="Path"></path>
                <path d="M363.088512,267.124386 L369.797672,262.671406 C370.844181,261.976227 369.863422,260.273858 368.805955,260.977248 L362.096795,265.430228 C361.053026,266.130881 362.036525,267.83325 363.088512,267.124386 Z" id="Path"></path>
                <path d="M249.14511,264.674836 C246.824711,263.306373 244.534446,261.894119 242.19213,260.569446 C241.967487,260.440811 241.70175,260.407968 241.449712,260.476391 C241.200413,260.542077 240.986728,260.706293 240.857969,260.927984 C240.72647,261.152412 240.690856,261.417893 240.753866,261.666954 C240.819615,261.918751 240.978509,262.132231 241.200413,262.266341 C243.515333,263.634804 245.808337,265.049795 248.150653,266.371731 C248.375296,266.503103 248.643772,266.54142 248.895811,266.472997 C249.150589,266.407311 249.364274,266.245832 249.498512,266.018667 C249.630011,265.794239 249.665625,265.526021 249.599876,265.274223 C249.534126,265.022426 249.369753,264.806209 249.14511,264.674836 L249.14511,264.674836 Z" id="Path"></path>
                <path d="M264.420846,274.054284 C262.103186,272.685821 259.810182,271.276304 257.467866,269.948894 C257.243223,269.82847 256.980226,269.798363 256.736406,269.866786 C256.489846,269.93521 256.28164,270.096688 256.150142,270.315642 C256.021383,270.534597 255.983029,270.797342 256.043299,271.043665 C256.10357,271.292725 256.256984,271.506206 256.473409,271.643052 C258.793809,273.011515 261.084073,274.42377 263.426389,275.748442 C263.651032,275.879815 263.919508,275.918132 264.174287,275.852445 C264.426325,275.784022 264.64275,275.622544 264.774248,275.395379 C264.905747,275.170951 264.941361,274.902732 264.875612,274.650935 C264.809862,274.399137 264.645489,274.18292 264.420846,274.051548 L264.420846,274.054284 Z" id="Path"></path>
                <path d="M151.047271,155.824521 L155.482604,150.180978 C156.255157,149.198421 154.874423,147.799852 154.090912,148.793356 L149.6501,154.436899 C148.877547,155.419456 150.25828,156.826236 151.047271,155.824521 Z" id="Path"></path>
                <path d="M46.3169786,263.612909 L58.5983854,264.464093 C59.8613184,264.551675 59.8558393,262.586561 58.5983854,262.49898 L46.3169786,261.647795 C45.0540457,261.560214 45.0595248,263.525327 46.3169786,263.612909 Z" id="Path"></path>
                <path d="M58.5983854,269.365929 L46.3169786,268.514745 C45.0540457,268.427163 45.0595248,270.392276 46.3169786,270.479858 L58.5983854,271.331042 C59.8613184,271.418624 59.8558393,269.453511 58.5983854,269.365929 Z" id="Path"></path>
                <path d="M24.7841084,167.549515 L17.7653789,166.216632 C16.5271019,165.981256 15.9983686,167.87521 17.2421247,168.110585 L24.2608542,169.443469 C25.4963916,169.689792 26.025125,167.787628 24.7841084,167.549515 Z" id="Path"></path>
                <path d="M24.7841084,159.897342 L17.7653789,158.564458 C16.5271019,158.329083 15.9983686,160.206614 17.2421247,160.455675 L24.2608542,161.788558 C25.4963916,162.026671 26.025125,160.132717 24.7841084,159.897342 Z" id="Path"></path>
                <path d="M113.811295,308.178288 L126.084483,307.203942 C127.336458,307.105412 127.350155,305.140299 126.084483,305.241565 L113.811295,306.215911 C112.55932,306.308967 112.548362,308.27408 113.811295,308.178288 Z" id="Path"></path>
                <path d="M113.811295,314.081839 L126.084483,313.107493 C127.336458,313.008964 127.350155,311.04385 126.084483,311.145116 L113.811295,312.119462 C112.55932,312.217992 112.548362,314.183105 113.811295,314.081839 Z" id="Path"></path>
                <path d="M73.4141508,308.178288 L90.8541319,308.178288 C91.1056227,308.164603 91.3423199,308.055126 91.5157335,307.874489 C91.6891471,307.691115 91.7855793,307.447528 91.7855793,307.198468 C91.7855793,306.946671 91.6891471,306.703084 91.5157335,306.51971 C91.3423199,306.339073 91.1056227,306.229596 90.8541319,306.215911 L73.4141508,306.215911 C73.16266,306.229596 72.9256888,306.339073 72.7525492,306.51971 C72.5791356,306.703084 72.4824295,306.946671 72.4824295,307.198468 C72.4824295,307.447528 72.5791356,307.691115 72.7525492,307.874489 C72.9256888,308.055126 73.16266,308.164603 73.4141508,308.178288 L73.4141508,308.178288 Z" id="Path"></path>
                <path d="M91.8044822,313.720565 C91.7962635,313.471504 91.6935303,313.233392 91.5168293,313.058228 C91.3404022,312.880328 91.1034311,312.779062 90.853858,312.770851 L73.4138768,312.770851 C73.1530716,312.770851 72.9029506,312.874854 72.7183048,313.058228 C72.5339331,313.241602 72.430378,313.4934 72.430378,313.753408 C72.430378,314.013416 72.5339331,314.262476 72.7183048,314.448587 C72.9029506,314.631961 73.1530716,314.735964 73.4138768,314.735964 L90.853858,314.735964 C91.1143893,314.727754 91.3606749,314.61554 91.5390197,314.423955 C91.7170905,314.235107 91.8124269,313.980573 91.8044822,313.720565 L91.8044822,313.720565 Z" id="Path"></path>
                <path d="M251.980545,452.332222 C248.890332,453.36678 245.652183,453.886796 242.392117,453.873112 C242.257879,453.867638 242.126381,453.886796 242.000361,453.933324 C241.874342,453.979852 241.759281,454.051012 241.663397,454.141331 C241.567512,454.234386 241.488065,454.343863 241.436014,454.467025 C241.383962,454.590187 241.356567,454.721559 241.356567,454.855668 C241.356567,454.987041 241.383962,455.12115 241.436014,455.241575 C241.488065,455.364737 241.567512,455.476951 241.663397,455.567269 C241.759281,455.660325 241.874342,455.731485 242.000361,455.775276 C242.126381,455.821804 242.257879,455.843699 242.392117,455.835488 C245.830254,455.854647 249.249213,455.309998 252.512018,454.226175 C253.698244,453.829321 253.185948,451.932631 251.980545,452.332222 Z" id="Path"></path>
                <path d="M254.122874,458.673681 C251.032661,459.705503 247.794512,460.225519 244.534446,460.211834 C244.304324,460.354154 244.134472,460.578582 244.060504,460.83859 C243.983796,461.098598 244.008452,461.377765 244.126253,461.621351 C244.244054,461.81841 244.381031,462.001784 244.534446,462.168737 C247.972582,462.185158 251.388802,461.64051 254.651608,460.559424 C255.837833,460.17078 255.328277,458.27409 254.122874,458.673681 Z" id="Path"></path>
                <path d="M280.266409,395.092135 L304.062148,385.376045 C305.215499,384.905293 304.708682,383.005866 303.538894,383.484828 L279.745894,393.198182 C278.589804,393.67167 279.093881,395.571097 280.266409,395.092135 Z" id="Path"></path>
                <path d="M319.844701,495.745355 C312.475309,491.366272 305.193583,486.858553 297.736525,482.643686 C297.511882,482.528735 297.251624,482.501366 297.010544,482.572526 C296.769463,482.640949 296.561258,482.802428 296.435238,483.018645 C296.306479,483.237599 296.268126,483.49487 296.325656,483.741194 C296.383187,483.98478 296.533862,484.200998 296.744808,484.337844 L318.850244,497.439512 C319.074887,497.559937 319.337884,497.590043 319.584444,497.52162 C319.828264,497.453197 320.039209,497.291718 320.167968,497.072764 C320.296727,496.85381 320.335081,496.591065 320.27481,496.344742 C320.21454,496.095681 320.061125,495.882201 319.844701,495.745355 L319.844701,495.745355 Z" id="Path"></path>
                <path d="M206.427293,498.074479 C206.177994,498.08269 205.942392,498.186693 205.767061,498.361857 C205.59173,498.53702 205.490366,498.772396 205.482148,499.021456 L205.482148,519.069445 C205.495845,519.321242 205.605427,519.556618 205.788977,519.731781 C205.969788,519.904208 206.213608,520 206.465646,520 C206.717685,520 206.958766,519.904208 207.142316,519.731781 C207.323126,519.556618 207.432708,519.321242 207.446406,519.069445 L207.446406,499.021456 C207.440927,498.892821 207.410792,498.766922 207.35874,498.649234 C207.303949,498.531546 207.227242,498.424806 207.134097,498.337224 C207.038213,498.249643 206.928631,498.18122 206.80809,498.134692 C206.684811,498.090901 206.556052,498.069006 206.427293,498.074479 L206.427293,498.074479 Z" id="Path"></path>
                <path d="M110.389596,480.0135 L86.9965703,491.587963 C85.8623962,492.149033 86.8568532,493.843191 87.9855482,493.282121 L111.381313,481.699446 C112.515487,481.152061 111.52103,479.455166 110.389596,480.0135 Z" id="Path"></path>
                <path d="M327.956511,115.999499 C335.295768,120.39774 361.379032,135.790217 373.753584,142.273996 C374.87406,142.862436 375.865778,141.179226 374.745301,140.579839 C357.346413,131.438503 335.745054,118.156197 328.948229,114.305341 C328.723585,114.177801 328.457849,114.144136 328.20581,114.211191 C327.956511,114.27852 327.742826,114.441367 327.614067,114.6647 C327.482569,114.887759 327.446955,115.153515 327.509964,115.40367 C327.575714,115.654099 327.734608,115.869221 327.956511,116.002236 L327.956511,115.999499 Z" id="Path"></path>
                <path d="M331.92612,108.836962 C335.868334,111.160613 376.115077,135.007456 380.309329,137.37216 C380.421651,137.434562 380.54767,137.4737 380.676429,137.487385 C380.805188,137.50107 380.933947,137.489027 381.057227,137.452079 C381.183246,137.41513 381.298307,137.354097 381.396931,137.272263 C381.498294,137.190428 381.580481,137.089436 381.640751,136.975306 C381.758552,136.756352 381.788687,136.500723 381.725677,136.260147 C381.662667,136.019571 381.511992,135.811565 381.301047,135.678003 C373.523462,131.090913 334.317748,107.928302 332.920577,107.140067 C332.808256,107.074928 332.684976,107.032232 332.558957,107.014716 C332.430198,106.996926 332.298699,107.004863 332.17542,107.037432 C331.923381,107.103392 331.706956,107.266787 331.575458,107.491762 C331.44122,107.716738 331.405606,107.984956 331.471355,108.237301 C331.537104,108.489646 331.701477,108.705316 331.92612,108.836962 L331.92612,108.836962 Z" id="Path"></path>
                <path d="M68.7922544,102.301181 C69.0410056,102.29297 69.2774289,102.190335 69.453308,102.014624 C69.6294612,101.83864 69.7319204,101.602717 69.740139,101.354204 L69.740139,76.8067074 C69.7269892,76.5554575 69.6176811,76.3187134 69.4349531,76.1454659 C69.252225,75.9724921 69.0097748,75.8758786 68.75801,75.8758786 C68.5062453,75.8758786 68.263795,75.9724921 68.081067,76.1454659 C67.8983389,76.3187134 67.7893048,76.5554575 67.775881,76.8067074 L67.775881,101.354204 C67.7797164,101.483113 67.8093035,101.610106 67.8624508,101.727794 C67.9158721,101.845482 67.9920316,101.951128 68.0865461,102.039257 C68.1810606,102.127386 68.2920124,102.195809 68.4131006,102.240694 C68.5341887,102.28558 68.6632216,102.306107 68.7922544,102.301181 L68.7922544,102.301181 Z" id="Path"></path>
                <path d="M96.6373239,100.664772 C96.8863491,100.657109 97.1230463,100.555021 97.2991994,100.379037 C97.4753526,100.203052 97.5775378,99.9663083 97.5852086,99.7177953 L97.5852086,79.2620044 C97.5717848,79.0104809 97.4624767,78.7740104 97.2797486,78.6007629 C97.0970206,78.4277892 96.8548443,78.3311756 96.6030795,78.3311756 C96.3510409,78.3311756 96.1088646,78.4277892 95.9261365,78.6007629 C95.7434085,78.7740104 95.6341004,79.0104809 95.6209505,79.2620044 L95.6209505,99.7177953 C95.6250599,99.8467046 95.654647,99.9734243 95.7080683,100.090838 C95.7617635,100.208253 95.837649,100.314172 95.9321635,100.402027 C96.026678,100.490156 96.1376298,100.558579 96.258444,100.603465 C96.3795322,100.648624 96.5082911,100.669425 96.6373239,100.664772 Z" id="Path"></path>
                <path d="M207.303949,385.044877 L201.123522,385.044877 C200.871483,385.058561 200.635882,385.168038 200.460551,385.348676 C200.287959,385.53205 200.192075,385.775636 200.192075,386.027433 C200.192075,386.276494 200.287959,386.52008 200.460551,386.703454 C200.635882,386.884092 200.871483,386.993569 201.123522,387.007253 L207.303949,387.007253 C207.555988,386.993569 207.791589,386.884092 207.96692,386.703454 C208.139512,386.52008 208.235396,386.276494 208.235396,386.027433 C208.235396,385.775636 208.139512,385.53205 207.96692,385.348676 C207.791589,385.168038 207.555988,385.058561 207.303949,385.044877 Z" id="Path"></path>
                <path d="M207.303949,390.417464 L201.123522,390.417464 C200.863265,390.417464 200.611226,390.521467 200.427676,390.704841 C200.244126,390.888215 200.140023,391.140013 200.140023,391.400021 C200.140023,391.660029 200.244126,391.909089 200.427676,392.0952 C200.611226,392.278574 200.863265,392.382577 201.123522,392.382577 L207.303949,392.382577 C207.564206,392.382577 207.813505,392.278574 207.999795,392.0952 C208.183345,391.909089 208.287448,391.660029 208.287448,391.400021 C208.287448,391.140013 208.183345,390.888215 207.999795,390.704841 C207.813505,390.521467 207.564206,390.417464 207.303949,390.417464 L207.303949,390.417464 Z" id="Path"></path>
                <path d="M207.303949,380.394838 L201.123522,380.394838 C200.863265,380.394838 200.611226,380.498841 200.427676,380.682215 C200.244126,380.86559 200.140023,381.117387 200.140023,381.377395 C200.140023,381.637403 200.244126,381.886463 200.427676,382.072574 C200.611226,382.255948 200.863265,382.359952 201.123522,382.359952 L207.303949,382.359952 C207.564206,382.359952 207.813505,382.255948 207.999795,382.072574 C208.183345,381.886463 208.287448,381.637403 208.287448,381.377395 C208.287448,381.117387 208.183345,380.86559 207.999795,380.682215 C207.813505,380.498841 207.564206,380.394838 207.303949,380.394838 L207.303949,380.394838 Z" id="Path"></path>
                <path d="M220.829112,358.847013 C217.618358,358.236679 214.369251,357.872668 211.103706,357.752243 C204.726032,357.404653 190.11902,357.388231 184.412535,359.479244 C183.524921,359.711882 182.601692,360.519276 182.634567,361.378671 C179.974463,366.327034 159.896294,403.970726 158.830609,405.621092 C156.866351,408.648133 163.539897,409.433631 165.158972,409.70185 C187.179482,412.986162 229.864151,412.334774 244.6906,409.255731 C246.085032,409.091516 247.410975,408.571499 248.545149,407.744948 C248.821843,407.498624 248.991695,407.156508 249.02731,406.787023 C249.062924,406.417538 248.956081,406.05079 248.731438,405.755202 C248.641033,405.393927 224.842554,361.605836 224.897345,361.321195 C224.985011,359.717356 222.155055,359.123443 220.829112,358.847013 Z M222.423531,361.323932 C217.18003,363.551791 192.201079,363.978751 185.078246,361.323932 C191.866854,358.868909 216.730744,359.005755 222.423531,361.323932 L222.423531,361.323932 Z M160.600359,406.510594 C160.682545,406.373747 162.274224,403.363128 184.001603,362.993458 C190.576525,365.960286 217.407413,365.593538 223.533049,363.037248 C223.719338,363.384838 246.761701,406.206795 246.920595,406.50512 C238.95946,410.873255 169.320349,411.108631 160.600359,406.510594 Z" id="Shape"></path>
                <path d="M204.602752,319.544745 C204.515086,319.399688 204.391806,319.276526 204.241131,319.194418 C204.093195,319.109573 203.926083,319.065783 203.756231,319.065783 C203.583639,319.065783 203.416526,319.109573 203.268591,319.194418 C203.117915,319.276526 202.994635,319.399688 202.90697,319.544745 C202.443986,320.365823 186.524455,349.681046 186.469664,350.329697 C186.462815,350.444648 186.462815,350.562336 186.469664,350.677287 L186.469664,350.589705 C186.477609,350.633496 186.488567,350.67455 186.502539,350.715604 L186.461446,350.677287 C186.699787,352.04575 188.847594,352.461763 189.921498,352.70535 C198.805862,354.18329 207.868297,354.238029 216.769097,352.866828 C217.977239,352.639664 220.7798,352.261968 221.02636,350.677287 C221.1469,350.001266 205.323254,320.811942 204.602752,319.544745 Z M188.617472,350.247589 L203.756231,322.111982 C219.062102,350.576021 218.727876,349.954738 218.88951,350.239379 C214.919901,352.376919 193.014451,352.407025 188.617472,350.247589 L188.617472,350.247589 Z" id="Shape"></path>
                <path d="M179.695029,292.13716 C175.971979,293.056767 172.333855,294.2747 168.701211,295.506317 C168.486978,295.582951 168.306168,295.730745 168.188641,295.927803 C168.071388,296.122125 168.024816,296.352027 168.057143,296.576455 C168.089195,296.800883 168.198229,297.00889 168.365342,297.162157 C168.532729,297.315425 168.748057,297.408481 168.975166,297.422165 L216.180094,297.802598 C216.401998,297.821757 216.623901,297.764281 216.807451,297.643857 C216.993741,297.520695 217.133458,297.342795 217.204686,297.132051 C217.275914,296.921308 217.275914,296.694143 217.204686,296.4834 C217.130718,296.275393 216.991001,296.094756 216.804712,295.974331 C205.769801,289.320862 192.321619,289.088223 179.695029,292.13716 Z M212.268015,295.821063 L174.865201,295.520001 C187.258929,291.734832 200.52356,290.341736 212.268015,295.821063 L212.268015,295.821063 Z" id="Shape"></path>
                <path d="M93.2920583,175.073601 L86.7719271,180.29292 C85.7829492,181.083892 87.1828597,182.463303 88.1608794,181.683279 L94.6837502,176.46396 C95.6699885,175.672988 94.2728175,174.29084 93.2920583,175.073601 Z" id="Path"></path>
                <path d="M115.337225,178.207108 C112.956555,179.587614 110.674509,181.131241 108.507524,182.827041 C108.288086,182.963887 108.129466,183.179009 108.063717,183.428891 C107.997968,183.678772 108.030294,183.944254 108.154122,184.170872 C108.219049,184.282538 108.305345,184.380247 108.408078,184.458523 C108.510812,184.536799 108.628064,184.594001 108.753262,184.626844 C108.878185,184.659687 109.008314,184.66735 109.136525,184.649834 C109.264462,184.632044 109.387742,184.589348 109.499242,184.523935 C111.682938,182.849757 113.963614,181.305309 116.328942,179.898529 C116.539887,179.760588 116.689741,179.546834 116.747545,179.301332 C116.80535,179.056103 116.766448,178.798011 116.639059,178.580425 C116.51167,178.363113 116.305656,178.202729 116.063206,178.132664 C115.821029,178.062598 115.561046,178.088326 115.337225,178.204371 L115.337225,178.207108 Z" id="Path"></path>
            </g>
        </g>
    </g>
</svg>