<svg width="16" height="18" viewBox="0 0 16 18" xmlns="http://www.w3.org/2000/svg">
    <path d="M9.248 4.44c.717-.247 1.339-.37 1.866-.37.865 0 1.635.232 2.31.696.38.267.755.63 1.128 1.086-.563.478-.974.904-1.234 1.276a3.82 3.82 0 0 0-.706 2.236c0 .893.25 1.698.748 2.415.5.717 1.069 1.17 1.709 1.36-.268.865-.71 1.768-1.33 2.71-.934 1.413-1.862 2.12-2.783 2.12-.365 0-.87-.117-1.513-.349-.643-.232-1.186-.348-1.63-.348-.442 0-.957.122-1.544.364-.587.243-1.063.364-1.429.364-1.104 0-2.186-.935-3.248-2.805C.531 13.346 0 11.533 0 9.754c0-1.652.406-2.998 1.218-4.039.812-1.04 1.836-1.56 3.074-1.56.527 0 1.165.109 1.914.327.748.217 1.246.326 1.492.326.316 0 .833-.123 1.55-.369zM10.935 0c.028.091.046.172.053.243.007.07.01.14.01.21 0 .45-.105.942-.316 1.477A4.375 4.375 0 0 1 9.68 3.417c-.394.386-.784.646-1.17.78-.246.077-.619.137-1.118.18.014-1.07.293-1.994.838-2.774C8.775.823 9.677.288 10.935 0z" fill="#FFF" fill-rule="nonzero"/>
</svg>
