<?xml version="1.0" encoding="UTF-8"?>
<svg width="600px" height="600px" viewBox="0 0 600 600" version="1.1" xmlns="http://www.w3.org/2000/svg" xmlns:xlink="http://www.w3.org/1999/xlink">
    <title>01</title>
    <g id="01" stroke="none" stroke-width="1" fill="none" fill-rule="evenodd">
        <g id="streamlinehq-startup-business-600" transform="translate(15.000000, 58.000000)" fill="#303030" fill-rule="nonzero">
            <path d="M174.534364,201.358973 C169.497364,192.034973 158.526364,186.658973 149.079364,192.193973 C139.869364,197.593973 135.894364,208.693973 135.846364,218.839973 C135.864364,225.563573 136.649164,232.262873 138.186364,238.807973 C143.218564,233.302373 149.464864,229.045673 156.429664,226.376273 C163.394464,223.706873 170.885764,222.697973 178.308364,223.429973 L179.565364,222.484973 C179.363464,215.171573 177.650764,207.978773 174.534364,201.358973 Z M164.238364,212.653973 C163.578364,214.643573 162.182764,216.305873 160.337464,217.300073 C158.491864,218.294573 156.336364,218.545973 154.311364,218.002973 C152.363164,217.445273 150.608764,216.355673 149.244664,214.856573 C147.880864,213.357473 146.961364,211.508273 146.589364,209.515973 C146.402764,207.816473 146.694364,206.098373 147.432064,204.555773 C148.169764,203.013173 149.323864,201.707273 150.764464,200.785973 C152.204764,199.864373 153.873964,199.363673 155.583664,199.340273 C157.293364,199.317173 158.975464,199.771973 160.440364,200.653973 C162.308464,201.955373 163.693864,203.837573 164.380564,206.008073 C165.067564,208.178273 165.017764,210.514973 164.238364,212.653973 L164.238364,212.653973 Z" id="Shape"></path>
            <path d="M117.348364,360.357473 C118.128364,359.184473 116.238364,358.089473 115.464364,359.256473 C114.774364,360.291473 38.1363638,475.794473 38.0943638,475.860473 C37.3143638,477.033473 39.2043638,478.128473 39.9783638,476.961473 C40.7523638,475.794473 117.147364,360.660473 117.348364,360.357473 Z" id="Path"></path>
            <path d="M157.200364,362.034473 C157.632364,360.693473 155.523364,360.120473 155.100364,361.455473 C153.879364,365.262473 118.284364,476.055473 118.263364,476.121473 C117.831364,477.462473 119.937364,478.035473 120.363364,476.703473 L157.200364,362.034473 Z" id="Path"></path>
            <path d="M276.321364,357.033473 C275.721364,355.758473 273.852364,356.865473 274.434364,358.134473 L329.100364,476.955473 C329.700364,478.230473 331.569364,477.123473 330.987364,475.854473 C330.900364,475.707473 276.390364,357.186473 276.321364,357.033473 Z" id="Path"></path>
            <path d="M383.433364,37.4971734 C385.446364,33.4741734 400.533364,3.32117339 401.268364,1.84517339 C401.892364,0.591173388 400.011364,-0.515826612 399.381364,0.741173388 L381.549364,36.3961734 C380.922364,37.6471734 382.800364,38.7541734 383.433364,37.4971734 Z" id="Path"></path>
            <path d="M392.820364,46.9876734 C391.671364,47.7796734 392.763364,49.6876734 393.924364,48.8746734 L434.859364,20.6746734 C436.011364,19.8826734 434.919364,17.9746734 433.758364,18.7906734 C429.147364,21.9646734 394.500364,45.8296734 392.820364,46.9876734 Z" id="Path"></path>
            <path d="M400.323364,62.3950734 C400.032364,62.3950734 399.756364,62.5099734 399.552364,62.7148734 C399.345364,62.9194734 399.231364,63.1972734 399.231364,63.4870734 C399.231364,63.7765734 399.345364,64.0543734 399.552364,64.2592734 C399.756364,64.4638734 400.032364,64.5790734 400.323364,64.5790734 L437.037364,64.5790734 C437.328364,64.5790734 437.604364,64.4638734 437.808364,64.2592734 C438.015364,64.0543734 438.129364,63.7765734 438.129364,63.4870734 C438.129364,63.1972734 438.015364,62.9194734 437.808364,62.7148734 C437.604364,62.5099734 437.328364,62.3950734 437.037364,62.3950734 C427.299364,62.2270734 409.356364,62.2390734 400.323364,62.3950734 Z" id="Path"></path>
            <path d="M498.900364,242.299673 C497.220364,241.177973 495.231364,240.615473 493.212364,240.692573 C491.196364,240.769673 489.255364,241.482173 487.665364,242.727473 C486.201364,243.993473 485.196364,245.703473 484.800364,247.596473 C484.407364,249.486473 484.644364,251.457473 485.478364,253.200473 C486.732364,252.177473 488.181364,251.424473 489.741364,250.986473 C491.298364,250.548473 492.930364,250.437473 494.532364,250.659473 C496.731364,250.452473 498.930364,251.067473 500.700364,252.387473 C502.470364,253.710473 503.685364,255.642473 504.111364,257.808473 C504.195364,257.655473 504.240364,257.481473 504.249364,257.304473 C504.519364,251.868473 503.718364,245.589473 498.900364,242.299673 Z" id="Path"></path>
            <path d="M17.5293638,186.947273 C18.5583638,185.987273 17.0133638,184.445273 15.9843638,185.402273 C9.33480378,191.596373 3.99543378,199.061573 0.282453782,207.356273 C-0.287546218,208.625273 1.59345378,209.738273 2.16645378,208.457273 C5.79738378,200.331773 11.0214338,193.017473 17.5293638,186.947273 L17.5293638,186.947273 Z" id="Path"></path>
            <path d="M569.754364,483.219473 C566.706364,472.299473 562.266364,461.820473 556.539364,452.040473 C556.005364,452.550473 555.432364,453.009473 554.871364,453.486473 C552.912364,455.199473 550.764364,456.684473 548.469364,457.917473 L567.756364,484.059473 C568.437364,484.980473 570.159364,484.491473 569.754364,483.219473 Z" id="Path"></path>
            <path d="M520.743364,249.855473 C517.644364,242.865473 513.456364,235.867973 506.391364,232.318973 C493.287364,225.742973 474.744364,232.853273 467.217364,249.960473 C466.068364,250.323473 465.048364,251.013473 464.277364,251.940473 C463.506364,252.867473 463.017364,253.995473 462.867364,255.192473 C462.894364,255.291473 462.879364,255.399473 462.828364,255.492473 C462.264364,259.641473 462.633364,263.868473 463.914364,267.858473 C464.187364,268.539473 464.622364,269.142473 465.183364,269.616473 C465.744364,270.090473 466.413364,270.420473 467.130364,270.576473 C470.496364,271.026473 472.530364,267.051473 472.932364,263.676473 C473.712364,259.320473 473.637364,251.847473 469.524364,250.155473 C476.748364,234.925973 492.696364,228.820973 504.270364,233.746973 C511.356364,236.746973 515.370364,243.216473 518.529364,250.221473 C517.590364,250.719473 516.780364,251.430473 516.159364,252.297473 C515.541364,253.161473 515.130364,254.157473 514.959364,255.210473 C514.644364,257.592473 514.602364,260.001473 514.830364,262.395473 C514.911364,264.267473 515.304364,266.112473 516.000364,267.855473 C516.273364,268.536473 516.708364,269.142473 517.269364,269.616473 C517.830364,270.090473 518.499364,270.417473 519.219364,270.573473 C519.987364,270.654473 520.761364,270.525473 521.457364,270.195473 C522.153364,269.865473 522.747364,269.349473 523.167364,268.704473 C524.172364,267.192473 524.805364,265.464473 525.018364,263.664473 C525.900364,258.786473 525.600364,250.713473 520.743364,249.855473 Z" id="Path"></path>
            <path d="M536.700364,265.476473 C536.892364,266.862473 538.998364,266.274473 538.800364,264.894473 C538.344364,261.540473 537.300364,258.291473 535.719364,255.294473 C535.572364,255.045473 535.335364,254.862473 535.053364,254.790473 C534.774364,254.715473 534.474364,254.757473 534.225364,254.901473 C533.976364,255.048473 533.793364,255.288473 533.718364,255.567473 C533.646364,255.849473 533.685364,256.146473 533.832364,256.395473 C535.317364,259.230473 536.289364,262.305473 536.700364,265.476473 L536.700364,265.476473 Z" id="Path"></path>
            <path d="M542.916364,259.098473 C543.633364,261.189473 544.230364,263.319473 544.701364,265.476473 C544.986364,266.850473 547.101364,266.268473 546.801364,264.894473 C545.406364,258.003473 542.580364,251.481473 538.506364,245.751473 C537.657364,244.635473 536.127364,246.186473 536.961364,247.296473 C539.577364,250.878473 541.587364,254.865473 542.916364,259.098473 L542.916364,259.098473 Z" id="Path"></path>
            <path d="M554.700364,263.448473 C554.868364,264.120473 555.033364,264.798473 555.171364,265.479473 C555.450364,266.853473 557.556364,266.271473 557.271364,264.897473 C555.396364,255.336473 551.484364,246.291473 545.808364,238.373573 C544.947364,237.266573 543.408364,238.820573 544.263364,239.918573 C549.321364,246.960473 552.876364,254.970473 554.700364,263.448473 L554.700364,263.448473 Z" id="Path"></path>
            <path d="M499.449364,290.610473 C501.717364,290.610473 503.982364,290.592473 506.247364,290.649473 C508.806364,290.745473 511.362364,290.394473 513.801364,289.608473 C515.484364,288.924473 516.945364,287.790473 518.022364,286.332473 C519.102364,284.871473 519.759364,283.143473 519.918364,281.334473 C520.302364,278.634473 520.428364,275.880473 520.713364,273.159473 C520.860364,271.761473 518.676364,271.773473 518.529364,273.159473 C518.292364,275.421473 518.085364,277.686473 517.905364,279.954473 C517.122364,289.629473 509.205364,288.483473 499.449364,288.426473 C499.209364,288.492473 498.996364,288.633473 498.846364,288.831473 C498.696364,289.026473 498.612364,289.269473 498.612364,289.518473 C498.612364,289.767473 498.696364,290.007473 498.846364,290.205473 C498.996364,290.403473 499.209364,290.544473 499.449364,290.610473 L499.449364,290.610473 Z" id="Path"></path>
            <path d="M493.542364,285.102473 C492.306364,285.054473 491.100364,285.498473 490.188364,286.338473 C489.279364,287.175473 488.736364,288.342473 488.685364,289.578473 C488.568364,290.634473 488.874364,291.690473 489.537364,292.521473 C490.200364,293.349473 491.163364,293.880473 492.219364,293.997473 C493.350364,294.147473 494.496364,293.904473 495.468364,293.313473 C496.443364,292.719473 497.184364,291.810473 497.568364,290.736473 C497.712364,290.100473 497.721364,289.437473 497.592364,288.795473 C497.463364,288.156473 497.199364,287.550473 496.818364,287.016473 C496.440364,286.485473 495.951364,286.038473 495.384364,285.708473 C494.820364,285.378473 494.193364,285.174473 493.542364,285.102473 L493.542364,285.102473 Z" id="Path"></path>
            <path d="M476.733364,408.393473 C485.226364,417.546473 489.609364,430.635473 495.462364,440.550473 C495.831364,441.177473 497.919364,444.543473 498.162364,444.750473 C499.011364,445.608473 500.646364,444.600473 499.896364,443.499473 C492.033364,431.946473 488.616364,418.563473 479.136364,407.799473 C478.407364,406.968473 478.041364,406.329473 477.237364,406.191473 C476.835364,406.062473 464.697364,407.391473 463.590364,407.448473 C462.042364,407.547473 460.485364,407.547473 458.937364,407.448473 C456.279364,407.235473 454.215364,405.801473 454.356364,403.062473 C454.485364,400.509473 457.185364,399.402473 459.648364,398.700473 C462.897364,397.839473 466.206364,397.221473 469.548364,396.852473 C470.913364,396.681473 470.958364,394.524473 469.548364,394.668473 C466.986364,394.935473 464.415364,395.142473 461.841364,395.211473 C459.345364,395.529473 456.810364,395.232473 454.455364,394.347473 C452.994364,393.582473 451.056364,391.542473 452.055364,389.784473 C453.294364,388.230473 454.974364,387.087473 456.873364,386.508473 C459.459364,385.473473 462.126364,384.645473 464.841364,384.027473 C466.236364,383.706473 465.618364,381.699473 464.262364,381.927473 C461.088364,382.452473 455.262364,383.028473 452.451364,381.438473 C451.872364,381.027473 451.395364,380.493473 451.056364,379.872473 C450.714364,379.251473 450.519364,378.561473 450.483364,377.853473 C450.450364,377.145473 450.576364,376.440473 450.852364,375.786473 C451.128364,375.135473 451.551364,374.556473 452.085364,374.091473 C455.724364,370.980473 459.858364,368.502473 464.313364,366.753473 C469.842364,364.296473 475.866364,363.153473 481.911364,363.414473 C487.659364,364.215473 493.140364,366.342473 497.925364,369.627473 C499.077364,370.374473 500.133364,368.601473 499.092364,367.806473 C497.706364,366.879473 496.269364,366.033473 494.787364,365.271473 C490.602364,362.919473 485.943364,361.530473 481.152364,361.209473 C476.361364,360.888473 471.558364,361.638473 467.094364,363.411473 C461.286364,365.244473 455.874364,368.145473 451.134364,371.967473 C450.228364,372.729473 449.508364,373.686473 449.025364,374.766473 C448.545364,375.846473 448.314364,377.022473 448.350364,378.207473 C448.545364,382.434473 451.701364,384.207473 455.919364,384.567473 L455.817364,384.612473 C453.615364,385.350473 451.680364,386.721473 450.252364,388.554473 C449.724364,389.613473 449.568364,390.819473 449.808364,391.980473 C450.048364,393.138473 450.669364,394.185473 451.572364,394.950473 C453.123364,396.318473 455.085364,397.137473 457.149364,397.272473 C455.700364,397.767473 454.401364,398.622473 453.378364,399.762473 C452.505364,400.920473 452.076364,402.354473 452.166364,403.800473 C452.256364,405.249473 452.859364,406.617473 453.867364,407.661473 C458.268364,411.483473 465.969364,409.029473 476.733364,408.393473 Z" id="Path"></path>
            <path d="M476.310364,380.280473 L482.637364,378.882473 C484.008364,378.582473 483.426364,376.482473 482.055364,376.782473 L475.728364,378.183473 C474.357364,378.480473 474.939364,380.583473 476.310364,380.280473 Z" id="Path"></path>
            <path d="M479.037364,395.715473 L484.200364,395.715473 C484.491364,395.715473 484.767364,395.598473 484.971364,395.394473 C485.178364,395.190473 485.292364,394.911473 485.292364,394.623473 C485.292364,394.332473 485.178364,394.053473 484.971364,393.849473 C484.767364,393.645473 484.491364,393.531473 484.200364,393.531473 L479.046364,393.531473 C478.755364,393.531473 478.479364,393.645473 478.275364,393.849473 C478.068364,394.053473 477.954364,394.332473 477.954364,394.623473 C477.954364,394.911473 478.068364,395.190473 478.275364,395.394473 C478.479364,395.598473 478.755364,395.715473 479.046364,395.715473 L479.037364,395.715473 Z" id="Path"></path>
            <path d="M546.177364,446.841473 L539.760364,451.626473 C538.647364,452.457473 539.733364,454.353473 540.861364,453.510473 L547.281364,448.728473 C548.400364,447.897473 547.308364,446.001473 546.177364,446.841473 Z" id="Path"></path>
            <path d="M522.963364,406.416473 L525.186364,416.469473 C525.486364,417.840473 527.586364,417.258473 527.286364,415.887473 L525.063364,405.834473 C524.766364,404.463473 522.660364,405.045473 522.963364,406.416473 Z" id="Path"></path>
            <path d="M363.207364,292.509473 C361.593364,295.212473 360.456364,298.173473 359.850364,301.263473 C359.568364,302.634473 361.674364,303.222473 361.950364,301.845473 C362.562364,298.956473 363.618364,296.178473 365.085364,293.613473 C365.226364,293.364473 365.262364,293.070473 365.187364,292.794473 C365.112364,292.518473 364.932364,292.281473 364.686364,292.137473 C364.437364,291.993473 364.143364,291.951473 363.867364,292.020473 C363.588364,292.089473 363.351364,292.266473 363.201364,292.509473 L363.207364,292.509473 Z" id="Path"></path>
            <path d="M453.600364,242.655473 C451.602364,244.101473 449.928364,245.946473 448.686364,248.076473 C447.618364,244.599473 445.338364,241.618973 442.263364,239.675873 C441.063364,238.922873 439.977364,240.812873 441.162364,241.559873 C442.878364,242.616473 444.318364,244.068473 445.359364,245.793473 C446.403364,247.518473 447.021364,249.468473 447.162364,251.478473 C447.168364,251.736473 447.267364,251.985473 447.441364,252.180473 C447.615364,252.372473 447.849364,252.498473 448.107364,252.534473 C448.365364,252.570473 448.626364,252.516473 448.845364,252.375473 C449.067364,252.237473 449.229364,252.024473 449.307364,251.778473 C450.306364,248.865473 452.196364,246.336473 454.707364,244.554473 C455.838364,243.708473 454.749364,241.814873 453.600364,242.655473 Z" id="Path"></path>
            <g id="Group" transform="translate(0.000000, -0.000000)">
                <path d="M104.400364,185.820473 C97.9083638,208.413473 99.7593638,207.588473 98.6733638,205.320473 C90.6453638,188.469473 72.9423638,180.054473 54.9033638,179.520473 C45.7428638,179.610773 36.7413638,181.926173 28.6743638,186.267473 C4.76433378,198.714473 -1.69466622,228.612473 8.79033378,251.277473 C10.2558938,254.370473 12.0234638,257.310473 14.0673338,260.055473 C14.8113338,263.856473 15.7683638,267.618473 16.4343638,271.434473 C20.0703638,292.347473 15.8343638,328.974473 35.1453638,343.452473 C40.3227638,347.253473 46.0005638,350.322473 52.0173638,352.569473 C73.6533638,360.909473 94.1883638,358.149473 108.837364,348.846473 C109.545364,349.002473 108.501364,348.951473 136.557364,348.957473 C137.989564,363.639473 140.818264,378.150473 145.005364,392.295473 C134.091364,426.273473 118.107364,476.025473 118.092364,476.070473 C117.591364,477.631351 120.048364,478.302473 120.549364,476.748473 L146.349364,396.393473 C149.760664,406.899473 155.006764,416.715473 161.844364,425.388473 C162.083764,425.625473 162.407164,425.760473 162.744364,425.760473 C163.081564,425.760473 163.404964,425.625473 163.644364,425.388473 C168.981964,419.907473 174.016264,414.141473 178.725364,408.111473 C182.253364,425.382473 189.225364,455.475473 196.629364,472.854473 C196.743964,473.043473 196.905664,473.199473 197.098564,473.310473 C197.291164,473.418473 197.508964,473.475473 197.730364,473.475473 C197.951764,473.475473 198.169264,473.418473 198.362164,473.310473 C198.555064,473.199473 198.716764,473.043473 198.831364,472.854473 C206.157364,456.405473 212.733364,425.601473 216.108364,408.015473 C220.194364,412.749473 229.680364,423.573473 233.673364,427.548473 C233.794564,427.668473 233.937964,427.761473 234.095764,427.824473 C234.253264,427.887473 234.421864,427.917473 234.591664,427.914473 C234.761464,427.911473 234.928864,427.875473 235.084264,427.806473 C235.239664,427.740473 235.380064,427.641473 235.497364,427.518473 C241.398064,418.389473 246.299164,408.651473 250.116364,398.472473 C256.309564,382.518473 260.660764,365.913473 263.085364,348.972473 C280.113364,348.972473 292.569364,348.954473 292.680364,348.954473 C292.875364,348.951473 293.070364,348.906473 293.244364,348.819473 C293.418364,348.732473 293.571364,348.603473 293.691364,348.447473 C293.808364,348.294473 293.892364,348.111473 293.928364,347.919473 C293.967364,347.727473 293.961364,347.529473 293.910364,347.340473 C292.299364,342.969473 290.691364,338.601473 289.083364,334.230473 C299.424364,298.167473 300.183364,257.640473 294.624364,221.049473 C318.978364,215.526473 378.243364,202.122473 383.385364,201.096473 C389.436364,199.974173 395.100364,197.316173 399.828364,193.377473 C408.351364,186.087473 406.251364,174.762473 392.601364,171.054473 C398.025364,169.068473 403.329364,165.870473 405.246364,160.353473 C406.077364,157.275773 405.978364,154.021373 404.964364,150.999473 C404.388364,148.405373 403.143364,146.006873 401.352364,144.041573 C399.564364,142.076273 397.293364,140.612273 394.764364,139.794473 C397.614364,138.799373 400.167364,137.101973 402.189364,134.859473 C403.806364,133.153673 404.799364,130.953173 405.012364,128.612873 C405.225364,126.272573 404.643364,123.928673 403.362364,121.959473 C396.354364,110.820473 379.662364,111.066473 365.052364,107.487473 C362.502364,106.836473 359.997364,106.018973 357.552364,105.039473 C356.688364,104.726873 355.902364,104.231573 355.248364,103.587473 C354.189364,102.486473 355.452364,102.987473 356.586364,84.9604734 C357.078364,80.3206734 357.231364,75.6514734 357.045364,70.9894734 C357.036364,68.9548734 356.547364,66.9508734 355.626364,65.1376734 C354.702364,63.3241734 353.367364,61.7521734 351.729364,60.5464734 C349.629364,59.4448734 347.283364,58.8970734 344.913364,58.9549734 C342.543364,59.0125734 340.227364,59.6740734 338.184364,60.8764734 C337.152364,61.4659734 336.246364,62.2561734 335.520364,63.2005734 C334.797364,64.1449734 334.269364,65.2243734 333.969364,66.3754734 C330.369364,79.4704734 333.006364,87.7504734 331.140364,98.0554734 C330.855364,99.7558734 330.366364,101.415773 329.685364,102.999473 C329.064364,103.641473 299.574364,128.730473 274.785364,148.497473 C256.140364,103.878473 225.819364,59.8504734 195.780364,22.4014734 C195.535264,22.1635734 195.206164,22.037161 194.864764,22.037161 C194.523664,22.0417734 194.197864,22.1812734 193.959364,22.4254734 C193.659364,22.7254734 169.908364,55.5724734 156.585364,75.8824734 C133.542364,110.994473 116.217364,144.654473 104.400364,185.820473 Z M99.5073638,216.855473 C100.978264,227.878373 99.3657638,239.093573 94.8483638,249.255473 C95.8194638,238.379873 97.3746638,227.564273 99.5073638,216.855473 L99.5073638,216.855473 Z M13.1343338,254.112473 C9.02904378,246.984473 6.73512378,238.956473 6.45375378,230.734973 C6.17235378,222.513473 7.91205378,214.348373 11.5203338,206.955473 C14.3576438,201.562973 18.2613638,196.803473 22.9947638,192.966173 C27.7278638,189.128573 33.1917638,186.293273 39.0543638,184.632473 C49.2423638,181.077773 60.3405638,181.121273 70.5003638,184.755473 C76.8852638,186.542573 82.7367638,189.862073 87.5469638,194.425373 C92.3568638,198.988673 95.9796638,204.657473 98.1003638,210.939473 C94.9716638,225.389873 92.8884638,240.046673 91.8663638,254.796473 C90.9057638,256.344473 89.8362638,257.823473 88.6653638,259.218473 C88.8033638,255.477473 89.2113638,254.982473 89.3343638,248.547473 C89.3646638,247.242473 89.1339638,245.943473 88.6554638,244.728473 C88.1766638,243.513473 87.4599638,242.403473 86.5473638,241.470473 C81.7143638,237.483473 74.9733638,241.293473 73.1853638,247.089473 C70.7313638,255.054473 73.8543638,257.964473 71.8413638,265.149473 C71.4813638,266.439473 70.6173638,268.053473 69.3123638,268.386473 C68.9976638,268.410473 68.6820638,268.356473 68.3952638,268.224473 C68.1084638,268.092473 67.8603638,267.888473 67.6743638,267.633473 C67.4805638,267.459473 67.3287638,267.243473 67.2303638,267.003473 C63.9633638,258.945473 68.5413638,251.859473 63.6153638,242.364473 C62.9961638,241.131773 62.0007638,240.127973 60.7731638,239.498573 C59.5458638,238.869173 58.1496638,238.646573 56.7873638,238.863473 C55.2891638,239.404073 53.9844638,240.376373 53.0382638,241.657973 C52.0920638,242.940473 51.5469638,244.473473 51.4713638,246.063473 C50.9433638,249.723473 50.8713638,253.485473 50.6613638,257.163473 C49.3335638,251.910473 47.6853638,246.741473 45.7263638,241.689473 C45.2361638,240.631973 44.5593638,239.671673 43.7283638,238.854473 C42.8142638,237.929573 41.6964638,237.230873 40.4643638,236.814173 C39.2325638,236.397773 37.9203638,236.274773 36.6321638,236.455073 C35.3442638,236.635373 34.1163638,237.114173 33.0462638,237.853073 C31.9761638,238.592273 31.0932638,239.570873 30.4683638,240.711473 C29.8089638,242.604473 29.3850638,244.572473 29.2053638,246.567473 C28.8903638,248.589473 28.7013638,250.623473 28.5723638,252.660473 C27.9723638,250.860473 27.3123638,249.087473 26.5623638,247.344473 C25.0203638,243.768473 21.2853638,238.908473 16.9383638,241.788473 C12.9003338,244.470473 12.7293338,249.720473 13.1343338,254.112473 Z M91.3053638,279.297473 C89.5371638,274.047473 88.6362638,268.542473 88.6383638,263.001473 C89.6964638,261.924473 90.6870638,260.784473 91.6053638,259.584473 C90.8193638,276.186473 91.9173638,280.950473 91.3053638,279.297473 Z M86.0763638,261.969473 C82.1139638,265.650473 77.3019638,268.293473 72.0693638,269.664473 C73.8930638,267.573473 74.9259638,264.909473 74.9883638,262.134473 C75.4083638,256.017473 72.8073638,249.627473 78.0033638,244.092473 C78.8457638,243.189473 79.9764638,242.610473 81.2007638,242.454473 C82.4247638,242.296373 83.6655638,242.571473 84.7083638,243.231473 C88.5003638,246.216473 86.0283638,254.019473 86.0763638,261.969473 Z M16.4253638,258.969473 C15.9591638,256.644473 15.6702638,254.286473 15.5613638,251.916473 C14.9613338,247.116473 17.9613638,241.941473 21.1053638,243.975473 C22.6965638,245.262473 23.8776638,246.987473 24.5043638,248.937473 C26.5362638,253.776473 27.9882638,258.840473 28.8303638,264.021473 C29.0613638,265.422473 31.4853638,265.110473 31.3293638,263.682473 C30.6183638,257.028473 30.9342638,250.305473 32.2653638,243.747473 C32.9913638,238.008473 41.0193638,236.742473 43.6653638,243.291473 C46.8213638,251.070473 46.7343638,255.117473 50.4483638,263.898473 C50.9823638,265.158473 52.7493638,264.390473 52.8213638,263.256473 C53.0733638,259.323473 53.3262638,255.390473 53.5803638,251.457473 C53.7723638,248.457473 53.4603638,244.257473 55.9803638,242.091473 C58.3803638,240.048473 60.7803638,242.181473 61.8333638,244.422473 C65.3373638,251.808473 61.8963638,258.093473 64.3443638,266.418473 C64.5321638,267.354473 64.9413638,268.233473 65.5380638,268.983473 C66.1344638,269.730473 66.9009638,270.324473 67.7733638,270.714473 C54.2106638,273.288473 40.2027638,272.127473 27.2493638,267.354473 C22.8213638,265.818473 19.0191638,262.875473 16.4253638,258.972473 L16.4253638,258.969473 Z M40.2903638,343.905473 C38.5185638,342.819473 36.8298638,341.604473 35.2383638,340.269473 C17.7783638,324.480473 23.3853638,290.352473 17.5143638,264.144473 C18.6183638,265.314473 19.8546638,266.349473 21.1983638,267.231473 C27.9573638,271.464473 43.7343638,275.745473 60.9603638,274.266473 C51.4803638,277.122473 44.9193638,282.825473 38.1363638,289.980473 C37.0083638,291.180473 38.8083638,292.980473 39.9363638,291.780473 C48.4353638,282.810473 59.9643638,273.246473 73.2753638,276.180473 C74.8743638,276.534473 75.5553638,274.080473 73.9533638,273.723473 C72.1494638,273.327473 70.3068638,273.135473 68.4603638,273.150473 C74.9379638,272.025473 81.0297638,269.295473 86.1783638,265.206473 C86.3466638,270.534473 87.3666638,275.799473 89.1993638,280.806473 C93.9543638,292.227473 109.755364,291.930473 118.143364,281.895473 C118.866364,281.028473 119.565364,280.143473 120.207364,279.216473 C124.942264,283.080473 130.325764,286.074473 136.107364,288.054473 C129.417364,309.891473 126.507364,331.740473 112.041364,343.416473 C92.0253638,359.610473 62.4423638,357.744473 40.2903638,343.908473 L40.2903638,343.905473 Z M174.690364,201.267473 C169.590364,191.847473 158.514364,186.465473 148.986364,192.036473 C139.719364,197.454473 135.714364,208.632473 135.663364,218.841473 C135.681664,225.546773 136.465564,232.228073 138.000364,238.755473 C135.887164,241.021373 134.003164,243.489473 132.375364,246.126473 C126.399364,231.063473 128.034364,207.228473 140.550364,193.251473 C160.173364,171.351473 195.150364,174.498473 214.860364,195.453473 C202.206364,205.077473 184.833364,218.274473 179.727364,222.153473 C179.505664,214.919573 177.790864,207.809873 174.690364,201.270473 L174.690364,201.267473 Z M177.255364,223.167473 C170.476864,222.656573 163.667164,223.585973 157.273264,225.893873 C150.879664,228.202073 145.046464,231.836873 140.157364,236.559473 C138.300364,226.758473 136.857364,216.534473 140.304364,206.943473 C143.304364,198.564473 151.452364,189.795473 161.115364,192.867473 C166.026064,194.492273 170.110264,197.967173 172.500364,202.554473 C175.476664,209.024273 177.095164,216.035573 177.255364,223.155473 L177.255364,223.167473 Z M133.233364,249.474473 C137.266864,242.326673 143.091964,236.352173 150.135364,232.138673 C157.178764,227.925173 165.197764,225.618173 173.403364,225.444473 C177.639364,225.444473 178.392364,226.209473 179.574364,225.426473 C181.251364,224.316473 224.256364,191.496473 228.573364,188.172473 L241.440364,231.672473 C231.108364,234.414473 204.540364,239.472473 194.340364,242.703473 C194.104864,242.778473 193.895464,242.916473 193.737064,243.105473 C193.578664,243.297473 193.477564,243.525473 193.446064,243.771473 C193.414564,244.017473 193.453864,244.266473 193.559164,244.488473 C193.664464,244.710473 193.831264,244.899473 194.040364,245.031473 C201.576364,250.749473 209.673364,255.735473 217.083364,261.618473 C210.598864,269.580473 201.445264,274.920473 191.322364,276.642473 C181.106164,278.370473 170.621764,277.566473 160.788364,274.302473 C155.640064,272.922473 151.027264,270.024473 147.552364,265.983473 C147.436564,265.797473 147.274564,265.641473 147.082264,265.533473 C146.889664,265.428473 146.673064,265.371473 146.452864,265.371473 C146.232664,265.371473 146.016064,265.428473 145.823464,265.533473 C145.631164,265.641473 145.469164,265.797473 145.353364,265.983473 C141.777364,272.181473 138.936364,278.775473 136.887364,285.633473 C131.369764,283.605473 126.214864,280.701473 121.620364,277.035473 C126.777364,268.389473 128.337364,258.210473 133.233364,249.468473 L133.233364,249.474473 Z M226.146364,237.750473 C225.275464,245.499473 222.715264,252.963473 218.646364,259.617473 C211.842364,254.238473 204.519364,249.543473 197.523364,244.413473 C203.316364,242.730473 215.535364,240.069473 226.146364,237.744473 L226.146364,237.750473 Z M234.405364,424.614473 C228.588364,418.557473 222.204364,411.225473 216.270364,404.319473 C216.111964,404.163473 215.916064,404.052473 215.701564,403.995473 C215.487364,403.938473 215.262064,403.938473 215.047564,403.995473 C214.833364,404.052473 214.637164,404.163473 214.478764,404.319473 C214.320364,404.475473 214.204564,404.667473 214.143364,404.880473 C211.032364,421.821473 204.276364,452.760473 197.757364,468.972473 C194.159164,459.510473 191.147464,449.838473 188.739364,440.007473 C186.003364,429.063473 182.904364,416.220473 180.666364,404.880473 C180.604564,404.667473 180.488464,404.475473 180.329764,404.319473 C180.171064,404.163473 179.974864,404.052473 179.760364,403.995473 C179.545864,403.941473 179.320264,403.941473 179.105764,403.995473 C178.891264,404.052473 178.695064,404.163473 178.536364,404.319473 C173.615164,410.652473 168.379864,416.733473 162.849364,422.541473 C156.973264,414.681473 152.353264,405.954473 149.154364,396.675473 C147.954364,393.279473 147.747364,392.394473 147.672364,392.331473 C150.567364,383.331473 157.368364,362.154473 157.386364,362.088473 C157.890364,360.525473 155.433364,359.856473 154.932364,361.413473 C154.563364,362.559473 151.074364,373.413473 146.382364,388.023473 C142.868464,375.231473 140.435164,362.166473 139.107364,348.966473 L180.834364,348.966473 C183.773764,362.550473 189.133264,375.495473 196.656364,387.183473 C196.771864,387.372473 196.933264,387.525473 197.125864,387.633473 C197.318464,387.741473 197.535364,387.798473 197.755864,387.798473 C197.976364,387.798473 198.193264,387.741473 198.385864,387.633473 C198.578464,387.525473 198.739864,387.372473 198.855364,387.183473 C206.128264,375.507473 211.069264,362.529473 213.405364,348.972473 C229.749364,348.972473 259.938364,348.987473 260.553364,348.972473 C257.376364,372.657473 247.251364,404.955473 234.405364,424.608473 L234.405364,424.614473 Z M183.450364,348.969473 L210.834364,348.969473 C208.657864,361.377473 204.206164,373.278473 197.703364,384.069473 C191.022364,373.248473 186.204364,361.383473 183.450364,348.969473 L183.450364,348.969473 Z M290.874364,346.407473 C290.874364,346.407473 113.802364,346.377473 112.404364,346.365473 C116.315764,343.371473 119.673364,339.717473 122.325364,335.565473 C168.825364,335.592473 285.483364,335.592473 286.881364,335.565473 C288.213364,339.174473 289.545364,342.789473 290.874364,346.407473 Z M286.791364,333.003473 L123.891364,333.003473 C134.010364,315.267473 135.057364,290.586473 146.724364,268.851473 C149.783464,271.962473 153.500464,274.347473 157.602364,275.835473 C172.761364,281.394473 191.361364,281.943473 205.647364,274.389473 C220.128364,266.730473 226.923364,253.560473 228.777364,237.171473 C249.696364,232.569473 258.177364,229.332473 292.143364,221.616473 C297.714364,258.972473 296.727364,298.185473 286.800364,333.003473 L286.791364,333.003473 Z M394.224364,174.255473 C399.213364,175.992473 403.077364,179.793473 402.240364,184.986473 C401.571364,187.518173 400.143364,189.784673 398.148364,191.481473 C391.140364,197.186573 382.167364,199.894973 373.173364,199.017473 C369.318364,198.855173 365.568364,197.705573 362.283364,195.678473 C360.786364,194.585273 359.622364,193.096373 358.923364,191.379173 C358.224364,189.661673 358.017364,187.783673 358.326364,185.955473 C358.467364,184.299773 359.007364,182.703473 359.904364,181.304273 C360.801364,179.904773 362.022364,178.744973 363.468364,177.924473 C366.468364,176.171273 369.729364,174.905573 373.128364,174.174473 C377.790364,174.283673 382.446364,173.726873 386.952364,172.521473 C389.421364,172.886273 391.854364,173.466473 394.224364,174.255473 L394.224364,174.255473 Z M402.432364,151.362473 C403.395364,154.032473 403.527364,156.932873 402.804364,159.678473 C401.643364,162.451073 399.570364,164.744573 396.930364,166.179473 C384.768364,172.263773 370.710364,173.358473 357.753364,169.230473 C354.957364,168.419573 352.470364,166.788173 350.613364,164.547473 C349.710364,163.264373 349.104364,161.795273 348.840364,160.247873 C348.579364,158.700473 348.666364,157.114073 349.095364,155.604473 C350.928364,147.231473 358.872364,143.904473 367.419364,143.151473 C381.360364,141.951473 381.549364,142.221473 390.156364,141.051473 C396.693364,142.629473 400.650364,144.828473 402.432364,151.359473 L402.432364,151.362473 Z M281.970364,146.115473 C290.523364,139.215473 328.374364,107.511473 329.370364,106.665473 C330.366364,105.819473 331.746364,104.967473 332.232364,103.719473 C336.855364,91.8484734 332.190364,77.5714734 336.969364,65.7124734 C339.780364,60.8044734 349.662364,59.5954734 352.980364,65.4634734 C354.570364,69.0766734 355.113364,73.0651734 354.540364,76.9714734 C354.240364,82.0714734 353.976364,87.1714734 353.541364,92.2504734 C352.791364,100.950473 352.341364,100.710473 352.341364,103.137473 C352.512364,104.158373 353.043364,105.083573 353.841364,105.744473 C355.719364,107.132573 357.849364,108.139373 360.114364,108.708473 C367.527364,110.776673 375.060364,112.374773 382.674364,113.493473 C390.474364,114.993473 401.292364,118.626473 402.492364,126.522473 C402.576364,128.590673 402.027364,130.635173 400.914364,132.380273 C399.801364,134.125373 398.178364,135.487073 396.267364,136.281473 C388.935364,140.640473 366.240364,140.694473 357.411364,139.701473 C353.115364,139.221473 348.150364,138.054473 345.678364,134.130473 C342.888364,129.696473 346.296364,125.055473 350.076364,122.613473 C354.729364,120.070973 359.898364,118.618373 365.196364,118.365473 C365.532364,118.357073 365.850364,118.220273 366.087364,117.983573 C366.324364,117.746873 366.459364,117.428273 366.468364,117.093473 C366.468364,116.926073 366.435364,116.760473 366.372364,116.605673 C366.309364,116.451173 366.216364,116.310473 366.096364,116.191973 C365.979364,116.073773 365.838364,115.979573 365.682364,115.915673 C365.529364,115.851473 365.364364,115.818473 365.196364,115.818473 C360.030364,116.137373 354.969364,117.403373 350.262364,119.553473 C345.819364,121.902473 341.382364,126.453473 342.162364,131.898473 C342.924364,137.220473 348.144364,140.406473 352.962364,141.525473 C361.572364,143.532473 359.163364,140.721473 352.851364,145.425473 C350.076364,147.466973 348.030364,150.344573 347.013364,153.635273 C345.996364,156.925673 346.059364,160.456073 347.196364,163.707473 C350.028364,170.496473 358.644364,172.761473 366.096364,173.778473 C364.914364,174.294473 363.771364,174.864473 362.640364,175.473473 C360.951364,176.351273 359.481364,177.601973 358.347364,179.131073 C357.210364,180.660173 356.439364,182.427773 356.088364,184.299473 C355.542364,186.393473 355.533364,188.591573 356.064364,190.689773 C356.595364,192.787973 357.648364,194.717873 359.124364,196.299473 C362.448364,199.166273 366.588364,200.919473 370.959364,201.312473 C323.700364,212.169473 282.300364,220.386473 243.900364,230.997473 C243.900364,230.997473 231.225364,188.154473 230.736364,186.498473 C247.952464,173.214473 265.030264,159.753473 281.970364,146.115473 Z M272.748364,150.156473 C262.746364,158.127473 236.379364,179.055473 216.900364,193.887473 C191.799364,167.037473 146.889364,169.977473 131.835364,201.756473 C128.457964,209.120873 126.623164,217.098773 126.444064,225.198773 C126.264964,233.298773 127.745464,241.349873 130.794364,248.856473 C125.196364,259.206473 124.698364,267.603473 118.884364,276.714473 L118.869364,276.750473 L118.833364,276.789473 C111.102364,288.615473 99.5673638,288.975473 94.2033638,283.644473 C93.7116638,274.269473 93.7797638,264.873473 94.4073638,255.507473 C102.313564,242.061473 104.589664,226.037273 100.740364,210.921473 C109.702864,169.086173 125.958664,129.154973 148.764364,92.9554734 C148.764364,92.9554734 241.968364,93.0874734 243.018364,93.0034734 C254.527264,111.178973 264.473164,130.298573 272.748364,150.156473 L272.748364,150.156473 Z M194.928364,25.4104734 C211.648864,46.1674734 227.161564,67.8694734 241.389364,90.4084734 C240.843364,90.4084734 151.011364,90.3934734 150.387364,90.3724734 C164.016364,68.3944734 179.550364,46.7884734 194.928364,25.4104734 Z" id="Shape"></path>
                <path d="M160.530364,200.483873 C159.032464,199.583273 157.312264,199.119773 155.564764,199.146473 C153.816964,199.173473 152.111764,199.688873 150.642364,200.635073 C149.172664,201.581273 147.997564,202.920173 147.249964,204.500273 C146.502364,206.080073 146.212264,207.837773 146.412364,209.573873 C146.793064,211.596473 147.728764,213.473273 149.114464,214.994873 C150.500464,216.516473 152.281864,217.622573 154.260364,218.189873 C156.331864,218.746673 158.538064,218.489573 160.426264,217.471673 C162.314464,216.453473 163.741864,214.751873 164.415364,212.714873 C165.211264,210.533573 165.261664,208.150073 164.558764,205.936973 C163.855864,203.723873 162.438964,201.806273 160.530364,200.483873 L160.530364,200.483873 Z M155.673364,215.906873 C149.592364,214.760873 146.271364,207.287873 151.344364,203.243873 C152.445364,202.352273 153.793564,201.820073 155.206864,201.719873 C156.620164,201.619373 158.030164,201.955673 159.246364,202.682873 C165.564364,207.125873 161.892364,217.076873 155.673364,215.906873 L155.673364,215.906873 Z" id="Shape"></path>
                <path d="M267.165064,219.614273 C270.804064,218.714273 274.446064,217.814273 278.052064,216.779273 C278.366164,216.679673 278.629564,216.462173 278.786764,216.172673 C278.943964,215.883173 278.982964,215.544173 278.895964,215.226173 C278.808664,214.908473 278.601664,214.636973 278.318464,214.468373 C278.035564,214.300073 277.698064,214.247573 277.377064,214.322273 C273.735064,215.222273 270.090064,216.122273 266.487064,217.160273 C266.178664,217.264673 265.921564,217.483073 265.769164,217.770773 C265.616464,218.058473 265.579864,218.393873 265.666564,218.707673 C265.753264,219.021773 265.956964,219.290573 266.235664,219.459173 C266.514064,219.627773 266.846764,219.683273 267.165064,219.614273 L267.165064,219.614273 Z" id="Path"></path>
                <path d="M71.6760638,342.666473 L61.2120638,341.313473 C60.8742638,341.316473 60.5505638,341.448473 60.3114638,341.688473 C60.0726638,341.928473 59.9379638,342.252473 59.9370638,342.588473 C59.9418638,342.924473 60.0777638,343.248473 60.3159638,343.485473 C60.5541638,343.722473 60.8757638,343.857473 61.2120638,343.860473 L71.6760638,345.213473 C72.0135638,345.213473 72.3366638,345.078473 72.5748638,344.838473 C72.8133638,344.601473 72.9474638,344.277473 72.9480638,343.938473 C72.9426638,343.602473 72.8070638,343.284473 72.5697638,343.047473 C72.3321638,342.807473 72.0117638,342.672473 71.6760638,342.666473 L71.6760638,342.666473 Z" id="Path"></path>
                <path d="M326.856364,169.194773 C329.001364,169.185773 331.116364,169.691873 333.024364,170.670473 C334.932364,171.649073 336.576364,173.071373 337.821364,174.817973 C339.063364,176.564573 339.870364,178.584173 340.170364,180.706973 C340.473364,182.830073 340.257364,184.994273 339.549364,187.017773 C339.015364,188.571773 341.484364,189.243773 342.003364,187.695773 C342.753364,185.484473 343.005364,183.135473 342.744364,180.815273 C342.483364,178.495373 341.715364,176.261273 340.491364,174.271673 C339.270364,172.282373 337.626364,170.586473 335.673364,169.304573 C333.723364,168.022673 331.512364,167.186273 329.202364,166.854773 C341.520364,150.705773 348.216364,129.384773 333.360364,115.419773 C332.160364,114.294773 330.360364,116.094773 331.560364,117.219773 C334.089364,119.596373 336.090364,122.477873 337.434364,125.677373 C338.778364,128.876873 339.432364,132.323273 339.360364,135.792773 C339.120364,147.246773 332.727364,157.947773 325.752364,167.292773 C325.155364,168.081773 325.974364,169.191773 326.856364,169.194773 Z" id="Path"></path>
                <path d="M120.681064,204.691373 C115.841164,205.290173 110.973964,205.640573 106.098064,205.741373 C105.771064,205.757273 105.462664,205.898273 105.236764,206.135573 C105.010864,206.372573 104.884864,206.687573 104.884864,207.014873 C104.884864,207.342473 105.010864,207.657173 105.236764,207.894473 C105.462664,208.131473 105.771064,208.272473 106.098064,208.288373 C110.977564,208.271573 115.849864,207.920573 120.681064,207.238373 C121.015864,207.229973 121.334464,207.093473 121.571464,206.856473 C121.808164,206.619773 121.944964,206.301173 121.953072,205.966373 C121.953664,205.799273 121.920964,205.633373 121.857064,205.478573 C121.793464,205.324073 121.699864,205.183373 121.581664,205.065173 C121.463464,204.946673 121.323064,204.852773 121.168564,204.788573 C121.014064,204.724373 120.848464,204.691373 120.681064,204.691373 Z" id="Path"></path>
                <path d="M118.827364,254.055473 L105.489364,254.769473 C103.860364,254.853473 103.848364,257.403473 105.489364,257.316473 L118.827364,256.602473 C120.456364,256.530473 120.468364,253.980473 118.827364,254.055473 Z" id="Path"></path>
                <path d="M217.620364,99.5560734 C216.843364,98.1130734 214.644364,99.3970734 215.421364,100.843073 L224.553364,117.835073 C225.330364,119.278073 227.529364,117.994073 226.752364,116.548073 L217.620364,99.5560734 Z" id="Path"></path>
                <path d="M242.649364,154.508573 C243.249364,156.008573 245.697364,155.363273 245.106364,153.833273 C243.471364,149.603273 239.739364,139.934273 239.505364,139.331273 C238.920364,137.831273 236.457364,138.476573 237.048364,140.009573 L242.649364,154.508573 Z" id="Path"></path>
                <path d="M262.437364,239.128973 C262.623364,243.897473 263.037364,254.802473 263.070364,255.492473 C263.136364,257.127473 265.683364,257.133473 265.620364,255.492473 C265.434364,250.728473 265.020364,239.815973 264.984364,239.128973 C264.921364,237.493973 262.374364,237.484973 262.437364,239.128973 Z" id="Path"></path>
                <path d="M258.849064,294.234473 C258.513064,294.240473 258.192364,294.375473 257.954464,294.615473 C257.716564,294.852473 257.580364,295.173473 257.574064,295.509473 C257.064064,299.763473 256.552264,304.017473 256.038064,308.274473 C256.038064,308.610473 256.172164,308.934473 256.410664,309.174473 C256.649164,309.411473 256.972864,309.546473 257.310064,309.546473 C257.645764,309.540473 257.966164,309.405473 258.204064,309.168473 C258.441664,308.931473 258.578164,308.610473 258.585064,308.274473 L260.124064,295.509473 C260.122564,295.170473 259.987864,294.849473 259.749064,294.609473 C259.510264,294.369473 259.186864,294.234473 258.849064,294.234473 L258.849064,294.234473 Z" id="Path"></path>
                <path d="M115.305364,359.163473 L37.9383638,475.770473 C37.0383638,477.138473 39.2343638,478.416473 40.1373638,477.054473 L117.504364,360.450473 C118.413364,359.079473 116.208364,357.801473 115.305364,359.163473 Z" id="Path"></path>
                <path d="M274.278364,358.227473 C274.767364,359.289473 328.911364,476.985473 328.941364,477.054473 C329.628364,478.554473 331.821364,477.249473 331.140364,475.770473 L276.477364,356.955473 C275.793364,355.455473 273.600364,356.745473 274.278364,358.227473 Z" id="Path"></path>
                <path d="M383.589364,37.5904734 C385.602364,33.5674734 400.689364,3.41447339 401.424364,1.93547339 C402.159364,0.456473388 399.957364,-0.818526612 399.225364,0.651473388 C397.212364,4.67147339 381.390364,36.3034734 381.390364,36.3034734 C380.661364,37.7554734 382.857364,39.0574734 383.589364,37.5904734 Z" id="Path"></path>
                <path d="M394.014364,49.0315734 L434.952364,20.8315734 C436.293364,19.9075734 435.021364,17.6995734 433.668364,18.6325734 L392.730364,46.8325734 C391.389364,47.7565734 392.661364,49.9645734 394.014364,49.0315734 Z" id="Path"></path>
                <path d="M400.323364,64.7560734 L437.037364,64.7560734 C437.364364,64.7401734 437.673364,64.5988734 437.898364,64.3618734 C438.123364,64.1248734 438.249364,63.8098734 438.249364,63.4825734 C438.249364,63.1549734 438.123364,62.8402734 437.898364,62.6029734 C437.673364,62.3659734 437.364364,62.2249734 437.037364,62.2090734 L400.323364,62.2090734 C399.996364,62.2249734 399.687364,62.3659734 399.462364,62.6029734 C399.237364,62.8402734 399.111364,63.1549734 399.111364,63.4825734 C399.111364,63.8098734 399.237364,64.1248734 399.462364,64.3618734 C399.687364,64.5988734 399.996364,64.7401734 400.323364,64.7560734 Z" id="Path"></path>
                <path d="M2.32227378,208.549373 C5.94597378,200.437973 11.1609638,193.136873 17.6583638,187.078073 C18.8583638,185.956073 17.0583638,184.159073 15.8583638,185.278073 C9.19701378,191.478773 3.84657378,198.952073 0.123273782,207.256373 C-0.539726218,208.756373 1.65627378,210.046373 2.32227378,208.549373 Z" id="Path"></path>
                <path d="M504.330364,257.748473 C504.387364,257.607473 504.423364,257.457473 504.435364,257.307473 C504.762364,251.799473 503.871364,245.472473 498.996364,242.144273 C497.283364,241.000973 495.252364,240.429173 493.194364,240.511673 C491.133364,240.594173 489.156364,241.326473 487.539364,242.604473 C486.072364,243.879473 485.058364,245.598473 484.650364,247.497473 C484.239364,249.399473 484.455364,251.382473 485.268364,253.149473 C483.105364,255.345473 481.869364,258.291473 481.818364,261.375473 C481.770364,264.459473 482.910364,267.441473 485.001364,269.709473 C493.317364,277.323473 506.253364,268.851473 504.330364,257.748473 Z M487.731364,246.348473 C488.232364,245.532473 488.895364,244.833473 489.678364,244.287473 C490.461364,243.741473 491.349364,243.363473 492.285364,243.174473 C493.221364,242.988473 494.187364,242.997473 495.120364,243.198473 C496.053364,243.402473 496.935364,243.795473 497.709364,244.356473 C498.990364,245.403473 500.025364,246.723473 500.736364,248.220473 C501.447364,249.717473 501.816364,251.352473 501.816364,253.011473 C501.786364,252.981473 501.762364,252.942473 501.732364,252.912473 C499.644364,251.514473 497.235364,250.668473 494.733364,250.446473 C492.231364,250.224473 489.711364,250.635473 487.410364,251.643473 C487.071364,250.788473 486.924364,249.870473 486.978364,248.952473 C487.035364,248.037473 487.290364,247.143473 487.731364,246.336473 L487.731364,246.348473 Z M487.629364,268.581473 C486.063364,267.291473 484.974364,265.518473 484.527364,263.541473 C484.083364,261.561473 484.308364,259.491473 485.169364,257.658473 C487.248364,252.384473 494.613364,252.072473 498.969364,254.058473 C499.725364,254.514473 500.376364,255.132473 500.868364,255.867473 C501.363364,256.599473 501.687364,257.433473 501.825364,258.309473 C503.127364,266.481473 494.481364,273.168473 487.629364,268.569473 L487.629364,268.581473 Z" id="Shape"></path>
                <path d="M43.2663638,215.399573 L58.8423638,222.392573 C60.3243638,223.058573 61.6233638,220.862573 60.1293638,220.193573 L44.5533638,213.200573 C43.0683638,212.534573 41.7723638,214.730573 43.2663638,215.399573 Z" id="Path"></path>
                <path d="M44.5083638,207.716573 L68.2620638,216.854573 C69.7950638,217.454573 70.4550638,214.982573 68.9400638,214.400573 L45.1860638,205.250573 C43.6560638,204.671573 42.9933638,207.131573 44.5083638,207.716573 Z" id="Path"></path>
                <path d="M395.535364,392.904473 C399.408364,393.144473 403.290364,393.156473 407.166364,392.940473 C407.388364,392.934473 407.607364,392.874473 407.796364,392.760473 C407.988364,392.646473 408.147364,392.484473 408.258364,392.292473 C408.369364,392.100473 408.429364,391.881473 408.429364,391.659473 C408.429364,391.434473 408.372364,391.215473 408.264364,391.023473 C406.299364,387.711473 404.037364,384.582473 401.511364,381.675473 C401.373364,381.537473 401.205364,381.435473 401.019364,381.375473 C400.836364,381.312473 400.641364,381.294473 400.449364,381.318473 C400.254364,381.342473 400.071364,381.411473 399.909364,381.516473 C399.747364,381.624473 399.609364,381.765473 399.510364,381.933473 C398.856364,383.088473 394.644364,390.849473 394.563364,391.197473 C394.491364,391.371473 394.461364,391.560473 394.473364,391.749473 C394.485364,391.938473 394.542364,392.121473 394.635364,392.286473 C394.728364,392.451473 394.857364,392.592473 395.013364,392.697473 C395.169364,392.805473 395.349364,392.874473 395.535364,392.904473 L395.535364,392.904473 Z M400.818364,384.873473 C402.240364,386.655473 403.656364,388.473473 404.895364,390.393473 L397.848364,390.393473 L400.818364,384.873473 Z" id="Shape"></path>
                <path d="M567.600364,428.676473 C568.086364,422.676473 568.170364,416.652473 567.852364,410.640473 C567.417364,401.502473 564.945364,348.219473 562.617364,332.874473 C561.765364,326.751473 559.224364,320.985473 555.282364,316.221473 C550.482364,310.560473 543.303364,308.859473 536.190364,308.163473 C506.016364,305.190473 464.445364,308.229473 432.240364,308.439473 C425.040364,308.487473 416.601364,308.688473 411.201364,303.039473 C410.100364,301.884473 409.254364,300.510473 408.720364,299.004473 L408.720364,298.974473 C408.219364,297.213473 408.117364,295.359473 408.423364,293.550473 C408.732364,291.744473 409.437364,290.028473 410.493364,288.528473 C416.883364,278.076473 434.409364,268.482473 452.793364,270.168473 C455.523364,274.083473 458.976364,277.437473 462.966364,280.050473 C463.947364,280.728473 465.066364,281.184473 466.242364,281.388473 C467.421364,281.589473 468.627364,281.532473 469.779364,281.217473 C470.712364,280.791473 471.507364,280.110473 472.065364,279.249473 C472.626364,278.388473 472.929364,277.386473 472.938364,276.357473 C472.968364,273.828473 472.242364,271.350473 470.853364,269.235473 C472.128364,267.645473 472.917364,265.722473 473.124364,263.694473 C473.910364,259.344473 473.931364,251.772473 469.785364,250.041473 C477.246364,234.616373 493.098364,229.168373 504.198364,233.878373 C511.083364,236.794373 515.214364,243.159473 518.298364,250.113473 C517.338364,250.632473 516.519364,251.373473 515.910364,252.279473 C515.301364,253.182473 514.920364,254.220473 514.800364,255.303473 C514.476364,257.643473 514.431364,260.016473 514.668364,262.365473 C514.746364,264.276473 515.151364,266.157473 515.868364,267.927473 C516.150364,268.632473 516.603364,269.256473 517.182364,269.745473 C517.761364,270.231473 518.454364,270.570473 519.195364,270.729473 C519.999364,270.825473 520.815364,270.690473 521.550364,270.345473 C522.285364,270.003473 522.906364,269.460473 523.350364,268.779473 C524.361364,267.249473 525.003364,265.503473 525.216364,263.679473 C526.116364,258.702473 525.906364,250.617473 520.920364,249.741473 C517.809364,242.718473 513.597364,235.699373 506.502364,232.138373 C493.440364,225.580373 474.771364,232.486373 467.118364,249.783473 C463.317364,251.040473 462.648364,254.283473 462.441364,257.727473 C461.595364,255.948473 460.989364,254.061473 460.641364,252.117473 C460.293364,250.356473 460.353364,248.538473 460.818364,246.801473 C463.578364,240.412973 468.006364,234.883373 473.637364,230.794373 C475.845364,229.135373 478.137364,227.575373 480.414364,226.030373 C482.523364,224.868473 484.431364,223.377773 486.069364,221.614373 C486.720364,220.778273 487.110364,219.768473 487.188364,218.711573 C487.269364,217.654673 487.032364,216.598073 486.513364,215.674373 C483.240364,210.685373 475.794364,213.274373 470.646364,216.274373 C472.167364,213.538373 472.446364,208.330373 468.279364,207.940373 C466.473364,207.967673 464.724364,208.572173 463.287364,209.665373 C459.195364,212.581973 455.490364,216.009773 452.268364,219.865373 C452.802364,218.608673 453.039364,217.246373 452.961364,215.883473 C452.883364,214.520573 452.493364,213.193673 451.821364,212.005373 C451.458364,211.488473 450.972364,211.067573 450.411364,210.779273 C449.850364,210.490673 449.226364,210.343373 448.593364,210.349373 C446.988364,210.628673 445.527364,211.453073 444.459364,212.683373 C439.341364,217.323173 435.795364,223.443173 434.319364,230.191373 C417.129364,234.438773 400.977364,242.118773 386.832364,252.768473 C364.887364,269.346473 351.219364,295.287473 357.159364,321.483473 C360.981364,338.346473 373.386364,354.096473 391.839364,358.575473 C399.057364,360.285473 406.410364,361.368473 413.814364,361.806473 C423.768364,362.478473 433.749364,362.619473 443.718364,362.235473 C443.718364,366.165473 443.742364,394.587473 443.751364,403.686473 C442.665364,400.188473 433.104364,369.393473 432.621364,367.800473 C432.543364,367.536473 432.381364,367.299473 432.162364,367.131473 C431.940364,366.963473 431.670364,366.870473 431.394364,366.864473 C428.994364,366.834473 359.172364,366.444473 359.130364,366.444473 C358.935364,366.447473 358.740364,366.492473 358.566364,366.582473 C358.392364,366.669473 358.239364,366.795473 358.119364,366.951473 C358.002364,367.107473 357.921364,367.287473 357.882364,367.479473 C357.846364,367.671473 357.852364,367.869473 357.903364,368.058473 C361.464364,377.877473 370.716364,402.699473 371.742364,405.336473 C369.468364,405.540473 367.233364,406.053473 365.097364,406.857473 C356.925364,410.139473 349.770364,415.530473 344.364364,422.481473 C333.645364,436.692473 336.216364,455.241473 347.844364,468.435473 C351.879364,473.013473 357.393364,477.771473 363.648364,478.536473 C366.228364,478.788473 368.823364,478.857473 371.415364,478.746473 C373.197364,478.713473 416.139364,478.959473 416.445364,479.001473 C416.745364,478.968473 529.185364,478.788473 534.750364,478.701473 C535.086364,478.698473 535.407364,478.560473 535.644364,478.323473 C535.884364,478.086473 536.019364,477.762473 536.022364,477.426473 L536.022364,462.162473 C540.369364,461.565473 544.575364,460.197473 548.442364,458.124473 L567.600364,484.155473 C568.395364,485.229473 570.405364,484.659473 569.928364,483.174473 C566.877364,472.293473 562.467364,461.835473 556.800364,452.055473 C563.154364,445.857473 566.997364,437.532473 567.600364,428.676473 Z M520.716364,252.324473 C522.663364,252.957473 522.861364,256.032473 523.014364,257.724473 C523.305364,260.613473 522.927364,263.526473 521.913364,266.244473 C520.596364,269.112473 518.775364,268.734473 517.962364,266.418473 C517.068364,262.917473 516.837364,259.275473 517.284364,255.687473 C517.596364,253.842473 518.874364,251.736473 520.701364,252.324473 L520.716364,252.324473 Z M465.195364,255.672473 C465.519364,253.842473 466.812364,251.727473 468.624364,252.324473 C470.574364,252.957473 470.769364,256.032473 470.922364,257.724473 C471.216364,260.613473 470.838364,263.529473 469.821364,266.244473 C469.452364,267.048473 468.795364,268.215473 467.787364,268.269473 C464.655364,268.419473 464.814364,258.822473 465.180364,255.672473 L465.195364,255.672473 Z M359.700364,296.616473 C367.854364,262.392473 402.276364,241.051373 435.678364,232.474373 C435.894364,232.418873 436.092364,232.306073 436.251364,232.147673 C436.410364,231.989573 436.521364,231.791273 436.578364,231.574373 C437.961364,224.554973 441.720364,218.225573 447.219364,213.649373 C447.906364,213.091373 448.782364,212.554373 449.535364,213.271373 C451.068364,214.726373 450.312364,217.069373 449.880364,218.794373 C449.409364,220.694573 448.953364,222.594473 448.518364,224.494373 C448.263364,225.613373 449.808364,226.810373 450.648364,225.733373 C453.114364,222.615473 455.766364,219.646373 458.583364,216.841373 C460.557364,214.776473 462.786364,212.971673 465.216364,211.471373 C466.116364,210.931373 468.159364,209.728373 468.906364,211.054373 C469.119364,211.640273 469.203364,212.265773 469.152364,212.887373 C469.101364,213.509273 468.915364,214.112273 468.606364,214.654373 C467.349364,216.872573 465.726364,218.861873 463.806364,220.537373 C462.798364,221.518373 464.145364,223.393373 465.351364,222.535373 C468.186364,220.514573 471.192364,218.747573 474.336364,217.255373 C476.244364,216.220373 478.341364,215.589473 480.504364,215.401373 C482.640364,215.365373 485.466364,216.703373 484.464364,219.325373 C483.726364,220.630373 482.619364,221.689373 481.284364,222.370373 C473.163364,227.905373 466.974364,231.619373 461.592364,239.737373 C459.900364,242.009273 458.685364,244.599473 458.019364,247.350473 C457.728364,250.071473 457.980364,252.819473 458.760364,255.441473 C459.540364,258.063473 460.830364,260.505473 462.558364,262.623473 C462.696364,264.444473 463.095364,266.235473 463.740364,267.939473 C464.091364,268.893473 464.772364,269.691473 465.657364,270.192473 C466.542364,270.693473 467.577364,270.861473 468.576364,270.666473 C468.915364,271.233473 469.251364,271.800473 469.536364,272.403473 C470.376364,274.170473 471.246364,277.905473 468.804364,278.880473 C468.012364,279.048473 467.193364,279.042473 466.401364,278.865473 C465.612364,278.691473 464.868364,278.349473 464.220364,277.863473 C461.331364,276.099473 458.790364,273.819473 456.720364,271.137473 C454.380364,268.287473 454.407364,267.777473 453.120364,267.648473 C439.686364,266.427473 426.300364,270.462473 415.782364,278.907473 C409.656364,283.821473 404.268364,291.141473 405.930364,298.683473 C398.550364,302.550473 367.785364,317.922473 359.841364,321.852473 C357.780364,313.572473 357.732364,304.920473 359.700364,296.616473 L359.700364,296.616473 Z M395.700364,356.898473 C387.357364,355.398473 379.614364,351.549473 373.386364,345.798473 C367.158364,340.047473 362.703364,332.637473 360.543364,324.438473 C372.726364,318.399473 403.584364,302.874473 406.836364,301.164473 C408.384364,303.909473 410.604364,306.213473 413.286364,307.869473 C415.965364,309.522473 419.022364,310.473473 422.169364,310.626473 C426.255364,311.022473 430.365364,311.136473 434.469364,310.968473 C438.849364,310.857473 443.232364,310.842473 447.612364,310.731473 C474.057364,310.056473 511.236364,308.049473 537.912364,310.899473 C554.880364,312.699473 559.728364,324.135473 560.985364,341.229473 C561.978364,354.696473 564.006364,384.543473 564.087364,385.989473 L521.700364,385.989473 C521.364364,385.992473 521.040364,386.130473 520.803364,386.367473 C520.566364,386.607473 520.431364,386.928473 520.428364,387.264473 C520.749364,391.893473 520.968364,394.596473 520.968364,394.596473 C520.968364,394.596473 517.128364,379.971473 499.212364,367.653473 C496.773364,366.039473 494.190364,364.653473 491.496364,363.513473 C483.762364,360.273473 475.677364,359.733473 463.791364,364.440473 C461.409364,365.382473 459.096364,366.540473 459.138364,366.513473 C456.459364,367.908473 453.915364,369.540473 451.533364,371.394473 C450.474364,372.180473 449.619364,373.209473 449.037364,374.391473 C448.455364,375.576473 448.167364,376.881473 448.194364,378.198473 C448.221364,378.810473 448.320364,379.413473 448.494364,379.998473 L448.494364,380.052473 C448.881364,381.162473 449.556364,382.149473 450.453364,382.905473 C451.350364,383.664473 452.436364,384.165473 453.594364,384.360473 C454.116364,384.504473 454.647364,384.618473 455.181364,384.699473 C453.171364,385.440473 451.416364,386.745473 450.129364,388.455473 C449.583364,389.553473 449.421364,390.798473 449.664364,391.998473 C449.910364,393.195473 450.549364,394.278473 451.479364,395.073473 C452.877364,396.330473 454.629364,397.128473 456.495364,397.353473 C455.262364,397.851473 454.161364,398.631473 453.282364,399.627473 C452.697364,400.422473 452.298364,401.337473 452.118364,402.306473 C451.938364,403.275473 451.980364,404.271473 452.241364,405.222473 C446.892364,405.222473 447.666364,405.120473 446.283364,405.150473 C446.283364,400.467473 446.250364,360.927473 446.250364,360.927473 C446.247364,360.591473 446.112364,360.270473 445.872364,360.030473 C445.635364,359.793473 445.311364,359.658473 444.975364,359.655473 C428.508364,360.597473 411.987364,359.673473 395.727364,356.898473 L395.700364,356.898473 Z M360.900364,369.024473 C362.700364,369.024473 429.738364,369.456473 430.413364,369.450473 C431.652364,373.443473 441.180364,404.175473 441.513364,405.231473 L374.376364,405.231473 C369.993364,394.008473 365.496364,381.612473 360.921364,369.024473 L360.900364,369.024473 Z M369.189364,476.205473 C366.825364,476.361473 364.452364,476.163473 362.148364,475.620473 C359.436364,474.720473 356.910364,473.337473 354.693364,471.537473 C342.807364,461.937473 336.240364,445.344473 342.393364,430.848473 C345.645364,423.735473 350.937364,417.747473 357.600364,413.646473 C362.397364,410.043473 368.181364,407.994473 374.178364,407.778473 L405.801364,407.778473 C400.485364,409.824473 395.754364,413.142473 392.019364,417.441473 C388.281364,421.740473 385.656364,426.888473 384.372364,432.435473 C382.077364,441.159473 383.016364,450.420473 387.018364,458.505473 C391.017364,466.593473 397.812364,472.956473 406.140364,476.421473 C400.242364,476.394473 375.636364,476.250473 369.210364,476.205473 L369.189364,476.205473 Z M533.394364,476.205473 C524.658364,476.328473 435.132364,476.505473 418.107364,476.490473 C411.486364,476.151473 405.111364,473.883473 399.762364,469.965473 C394.416364,466.047473 390.330364,460.650473 388.011364,454.440473 C385.674364,448.344473 385.077364,441.720473 386.283364,435.303473 C387.492364,428.886473 390.456364,422.931473 394.848364,418.101473 C400.287364,412.671473 407.280364,409.068473 414.861364,407.790473 L453.726364,407.790473 C458.067364,411.690473 465.726364,409.251473 476.637364,408.594473 C488.532364,421.464473 491.472364,440.373473 504.177364,451.932473 L461.946364,451.932473 C461.607364,451.932473 461.283364,452.067473 461.043364,452.307473 C460.806364,452.544473 460.671364,452.871473 460.671364,453.207473 C460.671364,453.546473 460.806364,453.870473 461.043364,454.110473 C461.283364,454.350473 461.607364,454.482473 461.946364,454.482473 C508.062364,455.289473 506.991364,454.593473 507.183364,454.398473 C514.695364,460.137473 524.010364,462.999473 533.448364,462.462473 C533.448364,462.855473 533.424364,475.647473 533.415364,476.193473 L533.394364,476.205473 Z M564.993364,476.391473 L550.593364,456.891473 C552.069364,455.958473 553.479364,454.929473 554.820364,453.810473 C559.071364,460.917473 562.491364,468.492473 565.014364,476.379473 L564.993364,476.391473 Z M553.593364,451.548473 C536.733364,466.119473 512.061364,460.974473 499.932364,443.229473 C493.032364,433.005473 489.132364,420.537473 481.968364,410.997473 C480.708364,409.296473 479.325364,407.685473 477.831364,406.179473 C477.492364,406.008473 477.492364,406.089473 477.189364,406.005473 C476.052364,405.879473 464.955364,407.454473 460.032364,407.352473 C455.832364,407.505473 453.837364,404.808473 454.677364,402.288473 C455.577364,398.748473 465.729364,397.548473 469.557364,397.056473 C469.893364,397.050473 470.211364,396.912473 470.448364,396.675473 C470.685364,396.438473 470.823364,396.120473 470.832364,395.784473 C470.832364,395.616473 470.799364,395.451473 470.736364,395.298473 C470.673364,395.142473 470.577364,395.001473 470.460364,394.881473 C470.340364,394.764473 470.199364,394.671473 470.046364,394.605473 C469.890364,394.542473 469.725364,394.509473 469.557364,394.509473 C466.995364,394.773473 464.427364,394.980473 461.850364,395.052473 C458.196364,395.148473 453.885364,395.352473 452.250364,391.875473 C452.067364,391.578473 451.968364,391.239473 451.962364,390.891473 C451.956364,390.543473 452.043364,390.198473 452.214364,389.895473 C453.432364,388.389473 455.070364,387.279473 456.921364,386.703473 C459.510364,385.671473 462.174364,384.840473 464.892364,384.225473 C466.518364,383.847473 465.792364,381.507473 464.214364,381.768473 C459.924364,382.476473 452.091364,383.289473 450.888364,379.152473 C450.660364,378.285473 450.666364,377.373473 450.900364,376.506473 C451.137364,375.642473 451.593364,374.853473 452.229364,374.217473 C455.148364,370.968473 465.903364,365.094473 475.983364,363.777473 C482.997364,362.991473 490.062364,364.707473 495.933364,368.622473 C506.304364,374.811473 515.016364,384.126473 521.655364,402.561473 C521.742364,402.852473 521.931364,403.104473 522.186364,403.269473 C522.441364,403.434473 522.747364,403.503473 523.050364,403.461473 C523.350364,403.422473 523.629364,403.275473 523.830364,403.047473 C524.034364,402.822473 524.151364,402.531473 524.157364,402.225473 C523.737364,397.671473 523.368364,393.114473 523.050364,388.551473 L564.207364,388.551473 C564.621364,395.955473 565.011364,403.362473 565.272364,410.772473 C565.863364,426.951473 565.977364,440.841473 553.605364,451.536473 L553.593364,451.548473 Z" id="Shape"></path>
                <path d="M534.111364,254.817473 C533.838364,254.991473 533.643364,255.261473 533.562364,255.573473 C533.478364,255.882473 533.517364,256.215473 533.670364,256.497473 C535.158364,259.311473 536.121364,262.371473 536.511364,265.527473 C536.601364,265.854473 536.814364,266.133473 537.108364,266.301473 C537.402364,266.469473 537.750364,266.517473 538.077364,266.427473 C538.401364,266.334473 538.677364,266.118473 538.845364,265.827473 C539.013364,265.533473 539.061364,265.188473 538.977364,264.858473 C538.533364,261.486473 537.483364,258.222473 535.878364,255.222473 C535.788364,255.081473 535.674364,254.955473 535.536364,254.856473 C535.398364,254.760473 535.245364,254.688473 535.080364,254.652473 C534.915364,254.613473 534.744364,254.610473 534.579364,254.637473 C534.411364,254.667473 534.252364,254.727473 534.111364,254.817473 L534.111364,254.817473 Z" id="Path"></path>
                <path d="M536.838364,245.622473 C536.604364,245.865473 536.475364,246.186473 536.475364,246.522473 C536.475364,246.858473 536.604364,247.179473 536.838364,247.422473 C540.600364,252.873473 543.216364,259.032473 544.527364,265.527473 C544.860364,267.129473 547.314364,266.451473 546.984364,264.849473 C545.571364,257.928473 542.730364,251.379473 538.641364,245.622473 C538.401364,245.382473 538.077364,245.250473 537.738364,245.250473 C537.402364,245.250473 537.078364,245.382473 536.838364,245.622473 L536.838364,245.622473 Z" id="Path"></path>
                <path d="M545.952364,238.246673 C545.712364,238.009073 545.388364,237.875873 545.052364,237.875873 C544.716364,237.875873 544.392364,238.009073 544.152364,238.246673 C543.921364,238.489073 543.792364,238.811273 543.792364,239.146673 C543.792364,239.482073 543.921364,239.804273 544.152364,240.046673 C549.186364,247.068473 552.723364,255.048473 554.538364,263.493473 C554.706364,264.168473 554.871364,264.843473 555.006364,265.524473 C555.330364,267.129473 557.790364,266.448473 557.463364,264.846473 C555.582364,255.255473 551.655364,246.183473 545.952364,238.246673 L545.952364,238.246673 Z" id="Path"></path>
                <path d="M499.449364,290.793473 C507.162364,290.793473 509.817364,291.135473 513.849364,289.785473 C515.550364,289.077473 517.026364,287.922473 518.127364,286.443473 C519.225364,284.967473 519.903364,283.218473 520.092364,281.385473 C520.413364,278.649473 520.608364,275.898473 520.896364,273.162473 C521.064364,271.533473 518.517364,271.545473 518.349364,273.162473 C518.109364,275.424473 517.914364,277.689473 517.722364,279.957473 C516.930364,289.527473 509.058364,288.276473 499.449364,288.246473 C499.110364,288.246473 498.786364,288.381473 498.546364,288.621473 C498.309364,288.858473 498.174364,289.182473 498.174364,289.521473 C498.174364,289.860473 498.309364,290.184473 498.546364,290.424473 C498.786364,290.661473 499.110364,290.796473 499.449364,290.796473 L499.449364,290.793473 Z" id="Path"></path>
                <path d="M488.652364,288.420473 C488.436364,289.035473 488.361364,289.689473 488.433364,290.334473 C488.502364,290.979473 488.718364,291.600473 489.060364,292.152473 C489.402364,292.707473 489.864364,293.175473 490.410364,293.523473 C490.959364,293.874473 491.577364,294.099473 492.222364,294.177473 C493.392364,294.327473 494.577364,294.072473 495.582364,293.454473 C496.584364,292.836473 497.349364,291.894473 497.745364,290.784473 C498.042364,289.584473 497.853364,288.318473 497.220364,287.256473 C496.587364,286.194473 495.561364,285.423473 494.367364,285.114473 C493.170364,284.802473 491.898364,284.976473 490.830364,285.594473 C489.759364,286.212473 488.979364,287.229473 488.652364,288.420473 L488.652364,288.420473 Z M495.324364,289.710473 C495.324364,291.747473 491.172364,292.710473 491.031364,290.010473 C490.992364,289.404473 491.181364,288.804473 491.559364,288.327473 C491.937364,287.853473 492.477364,287.532473 493.077364,287.430473 C493.374364,287.433473 493.668364,287.493473 493.944364,287.607473 C494.217364,287.724473 494.466364,287.892473 494.673364,288.105473 C494.883364,288.315473 495.048364,288.567473 495.159364,288.843473 C495.270364,289.119473 495.327364,289.413473 495.324364,289.710473 L495.324364,289.710473 Z" id="Shape"></path>
                <path d="M404.379364,420.654473 L398.379364,427.989473 C397.350364,429.249473 399.141364,431.061473 400.179364,429.789473 L406.179364,422.451473 C407.208364,421.194473 405.417364,419.382473 404.379364,420.654473 Z" id="Path"></path>
                <path d="M353.076364,420.654473 L347.076364,427.989473 C346.050364,429.249473 347.841364,431.061473 348.876364,429.789473 L354.876364,422.451473 C355.905364,421.194473 354.114364,419.382473 353.076364,420.654473 Z" id="Path"></path>
                <path d="M482.007364,376.602473 L475.680364,378.000473 C474.081364,378.354473 474.756364,380.811473 476.358364,380.457473 L482.685364,379.056473 C484.284364,378.702473 483.600364,376.248473 482.007364,376.602473 Z" id="Path"></path>
                <path d="M484.200364,393.348473 L479.046364,393.348473 C478.719364,393.363473 478.410364,393.504473 478.185364,393.741473 C477.960364,393.978473 477.834364,394.293473 477.834364,394.623473 C477.834364,394.950473 477.960364,395.265473 478.185364,395.502473 C478.410364,395.739473 478.719364,395.880473 479.046364,395.895473 L484.200364,395.895473 C484.527364,395.880473 484.836364,395.739473 485.061364,395.502473 C485.286364,395.265473 485.412364,394.950473 485.412364,394.623473 C485.412364,394.293473 485.286364,393.978473 485.061364,393.741473 C484.836364,393.504473 484.527364,393.363473 484.200364,393.348473 Z" id="Path"></path>
                <path d="M546.087364,446.685473 L539.667364,451.470473 C539.382364,451.647473 539.175364,451.923473 539.091364,452.247473 C539.007364,452.571473 539.049364,452.916473 539.211364,453.210473 C539.295364,453.354473 539.406364,453.480473 539.541364,453.582473 C539.673364,453.684473 539.826364,453.759473 539.988364,453.801473 C540.150364,453.843473 540.318364,453.855473 540.483364,453.831473 C540.651364,453.807473 540.810364,453.753473 540.954364,453.669473 L547.374364,448.884473 C547.659364,448.707473 547.866364,448.428473 547.950364,448.104473 C548.034364,447.780473 547.992364,447.435473 547.830364,447.141473 C547.659364,446.850473 547.380364,446.637473 547.053364,446.553473 C546.726364,446.466473 546.378364,446.514473 546.087364,446.685473 Z" id="Path"></path>
                <path d="M525.246364,405.789473 C524.892364,404.187473 522.435364,404.865473 522.789364,406.464473 L525.009364,416.517473 C525.363364,418.116473 527.820364,417.438473 527.466364,415.839473 L525.246364,405.789473 Z" id="Path"></path>
                <path d="M364.734364,291.978473 C364.449364,291.822473 364.119364,291.783473 363.804364,291.864473 C363.492364,291.945473 363.222364,292.146473 363.051364,292.419473 C361.428364,295.134473 360.285364,298.110473 359.676364,301.215473 C359.346364,302.814473 361.806364,303.501473 362.130364,301.893473 C362.736364,299.019473 363.789364,296.256473 365.250364,293.703473 C365.331364,293.556473 365.379364,293.394473 365.397364,293.229473 C365.415364,293.061473 365.400364,292.893473 365.352364,292.734473 C365.304364,292.572473 365.223364,292.425473 365.118364,292.293473 C365.013364,292.164473 364.881364,292.056473 364.734364,291.978473 L364.734364,291.978473 Z" id="Path"></path>
                <path d="M441.075364,241.699373 C442.761364,242.739473 444.177364,244.170473 445.203364,245.865473 C446.229364,247.563473 446.835364,249.480473 446.973364,251.457473 C446.985364,251.760473 447.102364,252.048473 447.303364,252.273473 C447.507364,252.495473 447.783364,252.642473 448.080364,252.681473 C448.380364,252.723473 448.683364,252.654473 448.938364,252.495473 C449.196364,252.333473 449.385364,252.084473 449.475364,251.796473 C450.465364,248.928473 452.328364,246.441473 454.800364,244.680473 C456.117364,243.729473 454.845364,241.519373 453.516364,242.484473 C451.596364,243.873473 449.973364,245.628473 448.740364,247.650473 C447.621364,244.278473 445.365364,241.398173 442.362364,239.500373 C440.973364,238.621373 439.692364,240.823373 441.075364,241.699373 Z" id="Path"></path>
                <path d="M519.693364,382.419473 C519.774364,384.051473 522.321364,384.060473 522.243364,382.419473 C521.829364,373.920473 521.217364,365.430473 520.407364,356.952473 C520.254364,355.335473 517.707364,355.320473 517.860364,356.952473 C518.670364,365.427473 519.282364,373.917473 519.693364,382.419473 Z" id="Path"></path>
            </g>
        </g>
    </g>
</svg>