<?xml version="1.0" encoding="UTF-8"?>
<svg width="600px" height="600px" viewBox="0 0 600 600" version="1.1" xmlns="http://www.w3.org/2000/svg" xmlns:xlink="http://www.w3.org/1999/xlink">
    <title>03</title>
    <g id="03" stroke="none" stroke-width="1" fill="none" fill-rule="evenodd">
        <g id="streamlinehq-coding-a-website-development-600" transform="translate(15.000000, 96.000000)" fill="#303030" fill-rule="nonzero">
            <path d="M496.170277,29.6341661 L518.517277,29.6341661 C518.808277,29.6191661 519.081277,29.4931661 519.282277,29.2825661 C519.480277,29.0716661 519.594277,28.7920661 519.594277,28.5016661 C519.594277,28.2109661 519.480277,27.9313661 519.282277,27.7204661 C519.081277,27.5098661 518.808277,27.3838661 518.517277,27.3691661 L496.170277,27.3691661 C495.879277,27.3838661 495.606277,27.5098661 495.405277,27.7204661 C495.207277,27.9313661 495.093277,28.2109661 495.093277,28.5016661 C495.093277,28.7920661 495.207277,29.0716661 495.405277,29.2825661 C495.606277,29.4931661 495.879277,29.6191661 496.170277,29.6341661 L496.170277,29.6341661 Z" id="Path"></path>
            <path d="M496.050277,36.2371661 L518.400277,36.2371661 C518.691277,36.2221661 518.964277,36.0964661 519.165277,35.8855661 C519.363277,35.6749661 519.477277,35.3953661 519.477277,35.1046661 C519.477277,34.8139661 519.363277,34.5343661 519.165277,34.3237661 C518.964277,34.1128661 518.691277,33.9871661 518.400277,33.9721661 L496.050277,33.9721661 C495.759277,33.9871661 495.486277,34.1128661 495.285277,34.3237661 C495.087277,34.5343661 494.973277,34.8139661 494.973277,35.1046661 C494.973277,35.3953661 495.087277,35.6749661 495.285277,35.8855661 C495.486277,36.0964661 495.759277,36.2221661 496.050277,36.2371661 L496.050277,36.2371661 Z" id="Path"></path>
            <path d="M413.688277,37.8001661 C413.904277,37.9966661 414.186277,38.1025661 414.477277,38.0959661 C414.771277,38.0890661 415.047277,37.9702661 415.254277,37.7641661 C415.461277,37.5577661 415.578277,37.2799661 415.587277,36.9883661 C415.593277,36.6967661 415.485277,36.4138661 415.290277,36.1981661 C411.987277,32.7841661 408.630277,29.4262661 405.216277,26.1241661 C405.000277,25.9276661 404.718277,25.8220661 404.427277,25.8286661 C404.133277,25.8355661 403.857277,25.9543661 403.650277,26.1604661 C403.443277,26.3668661 403.326277,26.6446661 403.317277,26.9362661 C403.311277,27.2278661 403.419277,27.5107661 403.614277,27.7261661 C406.911277,31.1401661 410.271277,34.4983661 413.688277,37.8001661 Z" id="Path"></path>
            <path d="M423.126277,37.8001661 C423.339277,38.0071661 423.627277,38.1220661 423.924277,38.1199944 C424.221277,38.1175661 424.506277,37.9987661 424.716277,37.7884661 C424.926277,37.5781661 425.046277,37.2937661 425.049334,36.9961661 C425.052277,36.6988661 424.938277,36.4120661 424.731277,36.1981661 C421.068277,32.4121661 417.345277,28.6870661 413.556277,25.0231661 C413.340277,24.8266661 413.058277,24.7207661 412.767277,24.7273661 C412.473277,24.7342661 412.197277,24.8530661 411.990277,25.0594661 C411.783277,25.2655661 411.666277,25.5433661 411.657277,25.8349661 C411.651277,26.1265661 411.759277,26.4094661 411.954277,26.6251661 C415.614277,30.4111661 419.337277,34.1359661 423.126277,37.8001661 Z" id="Path"></path>
            <path d="M463.488277,37.8001661 C463.701277,38.0071661 463.989277,38.1220661 464.286277,38.1199944 C464.583277,38.1178661 464.868277,37.9987661 465.078277,37.7884661 C465.288277,37.5784661 465.408277,37.2937661 465.411334,36.9964661 C465.414277,36.6988661 465.300277,36.4120661 465.093277,36.1981661 C461.430277,32.4121661 457.704277,28.6870661 453.918277,25.0231661 C453.705277,24.8161661 453.417277,24.7012661 453.120277,24.7033379 C452.823277,24.7054661 452.538277,24.8245661 452.328277,25.0348661 C452.118277,25.2448661 451.998277,25.5295661 451.995219,25.8268661 C451.992277,26.1244661 452.106277,26.4112661 452.313277,26.6251661 C455.964277,30.4111661 459.687277,34.1362661 463.488277,37.8001661 Z" id="Path"></path>
            <path d="M195.741277,98.9611661 L180.345277,114.354166 C180.153577,114.570766 180.051277,114.852766 180.060277,115.142266 C180.068977,115.431766 180.187777,115.706866 180.392677,115.911766 C180.597577,116.116666 180.872677,116.235466 181.162177,116.244166 C181.451677,116.253166 181.733677,116.151166 181.950277,115.959166 C187.168477,110.913166 192.299377,105.781066 197.343277,100.563166 C197.539777,100.347466 197.645677,100.064566 197.639077,99.7729661 C197.632177,99.4813661 197.513377,99.2035661 197.307277,98.9971661 C197.100877,98.7910661 196.823077,98.6722661 196.531477,98.6653661 C196.239877,98.6587661 195.956977,98.7646661 195.741277,98.9611661 L195.741277,98.9611661 Z" id="Path"></path>
            <path d="M195.741277,40.0108661 L180.345277,55.4068661 C180.138577,55.6210661 180.024277,55.9075661 180.027219,56.2051661 C180.029977,56.5027661 180.149377,56.7871661 180.359977,56.9974661 C180.570577,57.2074661 180.855277,57.3265661 181.152877,57.3286945 C181.450177,57.3307661 181.736677,57.2161661 181.950277,57.0088661 C187.168477,51.9670661 192.299377,46.8349661 197.343277,41.6128661 C197.539777,41.3974661 197.645677,41.1145661 197.639077,40.8229661 C197.632177,40.5313661 197.513377,40.2535661 197.307277,40.0471661 C197.100877,39.8410661 196.823077,39.7222661 196.531477,39.7153661 C196.239877,39.7087661 195.956977,39.8146661 195.741277,40.0108661 L195.741277,40.0108661 Z" id="Path"></path>
            <path d="M195.741277,69.6031661 C190.523377,74.6470661 185.391277,79.7779661 180.345277,84.9961661 C180.153577,85.2127661 180.051277,85.4947661 180.060277,85.7842661 C180.068977,86.0737661 180.187777,86.3488661 180.392677,86.5537661 C180.597577,86.7586661 180.872677,86.8774661 181.162177,86.8861661 C181.451677,86.8951661 181.733677,86.7931661 181.950277,86.6011661 C187.168477,81.5551661 192.299377,76.4230661 197.343277,71.2051661 C197.539777,70.9894661 197.645677,70.7065661 197.639077,70.4149661 C197.632177,70.1233661 197.513377,69.8455661 197.307277,69.6391661 C197.100877,69.4330661 196.823077,69.3142661 196.531477,69.3073661 C196.239877,69.3007661 195.956977,69.4066661 195.741277,69.6031661 L195.741277,69.6031661 Z" id="Path"></path>
            <path d="M234.864577,286.113166 C223.413577,299.202166 215.921977,315.276166 213.264577,332.463166 C212.124577,340.164166 212.205577,348.474166 217.164577,354.903166 C217.305277,355.041166 217.479577,355.140166 217.670377,355.191166 C217.860877,355.242166 218.061577,355.242166 218.252377,355.191166 C218.442877,355.140166 218.617477,355.041166 218.758477,354.903166 C218.899777,354.765166 219.002677,354.594166 219.057577,354.405166 C219.657577,352.173166 236.757577,287.256166 236.757577,287.205166 C237.033577,286.176166 235.635577,285.228166 234.864577,286.113166 Z" id="Path"></path>
            <path d="M181.812277,378.930166 C171.882277,370.677166 158.613277,368.490166 146.052277,368.643166 C131.548477,368.832166 117.205777,371.709166 103.752277,377.130166 C103.496377,377.211166 103.277077,377.379166 103.133377,377.607166 C102.989677,377.832166 102.930577,378.102166 102.966277,378.369166 C103.002277,378.636166 103.130677,378.879166 103.329277,379.062166 C103.527877,379.242166 103.784077,379.347166 104.052277,379.356166 C106.605277,379.425166 180.963277,380.856166 181.008277,380.856166 C181.228177,380.850166 181.441777,380.778166 181.622977,380.655166 C181.804177,380.529166 181.945777,380.355166 182.030677,380.151166 C182.115277,379.950166 182.139877,379.725166 182.101177,379.509166 C182.062477,379.293166 181.961977,379.092166 181.812277,378.930166 L181.812277,378.930166 Z" id="Path"></path>
            <path d="M110.217277,156.753466 C109.803277,151.134466 103.053277,149.229466 97.9832766,151.875466 C93.1580766,154.931566 89.3066766,159.303166 86.8832766,164.475466 C85.6832766,166.644466 84.3302766,168.720466 83.1122766,170.877466 C83.0150766,171.049966 82.9643766,171.244966 82.9649713,171.442966 C82.9658766,171.640966 83.0180766,171.835666 83.1167766,172.007566 C83.2154766,172.179166 83.3570766,172.322566 83.5277766,172.423066 C83.6981766,172.523866 83.8922766,172.578166 84.0902766,172.581466 C87.3902766,172.404466 90.6902766,172.134466 93.9602766,171.720466 C96.5345766,171.435766 99.0527766,170.772466 101.433277,169.752466 C103.990477,168.656866 106.178377,166.848766 107.735677,164.543866 C109.293277,162.238966 110.154877,159.534466 110.217277,156.753466 L110.217277,156.753466 Z" id="Path"></path>
            <path d="M39.3662766,206.604166 C39.9662766,207.930166 41.9222766,206.781166 41.3222766,205.461166 C38.5952766,199.464166 17.6882766,153.369166 17.3882766,152.832166 C17.5502766,152.448166 27.5882766,130.389166 41.3222766,100.224166 C41.9222766,98.9071661 39.9692766,97.7521661 39.3662766,99.0811661 C36.5882766,105.132166 16.0502766,149.997166 15.2462766,152.082166 C15.1307766,152.438866 15.0977766,152.817466 15.1499766,153.188866 C15.2018766,153.560566 15.3374766,153.915466 15.5462766,154.227166 C15.7232766,154.632166 39.0722766,205.956166 39.3662766,206.604166 Z" id="Path"></path>
            <path d="M164.028577,108.630166 C167.878477,105.648166 171.727477,102.669166 175.575577,99.6931661 C175.787077,99.4798661 175.905877,99.1912661 175.905877,98.8906661 C175.905877,98.5900661 175.787077,98.3017661 175.575577,98.0881661 C175.360177,97.8811661 175.073077,97.7653661 174.774577,97.7653661 C174.475777,97.7653661 174.188677,97.8811661 173.973577,98.0881661 C173.973577,98.0881661 161.817577,107.442166 161.421577,107.802166 C160.521577,108.759166 161.451577,109.476166 162.144577,110.013166 L173.988577,119.169166 C174.205177,119.373766 174.491677,119.487466 174.789577,119.487466 C175.087177,119.487466 175.373977,119.373766 175.590577,119.169166 C175.802677,118.956766 175.921777,118.668766 175.921777,118.368166 C175.921777,118.067866 175.802677,117.779866 175.590577,117.567166 C171.722377,114.587266 167.868577,111.608266 164.028577,108.630166 Z" id="Path"></path>
            <path d="M164.028577,79.0948661 L175.575577,70.1578661 C175.787677,69.9454661 175.906777,69.6574661 175.906777,69.3568661 C175.906777,69.0565661 175.787677,68.7685661 175.575577,68.5558661 C175.360777,68.3482661 175.073377,68.2318661 174.774577,68.2318661 C174.475477,68.2318661 174.188377,68.3482661 173.973577,68.5558661 C170.211577,71.4658661 161.817577,77.9098661 161.421577,78.2668661 C160.521577,79.2238661 161.451577,79.9438661 162.144577,80.4808661 L173.988577,89.6338661 C174.204277,89.8396661 174.491077,89.9545661 174.789577,89.9545661 C175.087777,89.9545661 175.374577,89.8396661 175.590577,89.6338661 C175.802677,89.4214661 175.921777,89.1334661 175.921777,88.8328661 C175.921777,88.5325661 175.802677,88.2445661 175.590577,88.0318661 L164.028577,79.0948661 Z" id="Path"></path>
            <path d="M164.028577,48.8851661 L175.575577,39.9481661 C175.787677,39.7354661 175.906777,39.4474661 175.906777,39.1471661 C175.906777,38.8468661 175.787677,38.5585661 175.575577,38.3461661 C175.360177,38.1388661 175.073077,38.0230661 174.774577,38.0230661 C174.475777,38.0230661 174.188677,38.1388661 173.973577,38.3461661 C170.211577,41.2561661 161.817577,47.7001661 161.421577,48.0601661 C160.521577,49.0141661 161.451577,49.7341661 162.144577,50.2711661 L173.988577,59.4271661 C174.205777,59.6326661 174.493477,59.7469661 174.792577,59.7469661 C175.091677,59.7469661 175.379077,59.6326661 175.596577,59.4271661 C175.701877,59.3221661 175.785577,59.1970661 175.842577,59.0596661 C175.899577,58.9222661 175.928977,58.7749661 175.928977,58.6261661 C175.928977,58.4773661 175.899577,58.3297661 175.842577,58.1923661 C175.785577,58.0549661 175.701877,57.9301661 175.596577,57.8251661 L164.028577,48.8851661 Z" id="Path"></path>
            <path d="M279.588577,107.231866 L267.759577,98.0758661 C267.542977,97.8715661 267.256177,97.7575661 266.958577,97.7575661 C266.660677,97.7575661 266.374177,97.8715661 266.157577,98.0758661 C265.945177,98.2891661 265.825777,98.5777661 265.825777,98.8783661 C265.825777,99.1792661 265.945177,99.4678661 266.157577,99.6808661 L277.707577,108.614866 L266.157577,117.554866 C265.945177,117.767566 265.826077,118.055566 265.826077,118.355866 C265.826077,118.656466 265.945177,118.944466 266.157577,119.156866 C266.372677,119.364166 266.659777,119.479966 266.958577,119.479966 C267.257077,119.479966 267.544177,119.364166 267.759577,119.156866 C267.759577,119.156866 279.915577,109.802866 280.311577,109.442866 C281.199577,108.497866 280.281577,107.780866 279.588577,107.231866 Z" id="Path"></path>
            <path d="M268.848577,79.9141661 C269.748577,78.9571661 268.818577,78.2374661 268.125577,77.7034661 L256.296577,68.5471661 C256.079977,68.3428661 255.793177,68.2291661 255.495577,68.2291661 C255.197677,68.2291661 254.911177,68.3428661 254.694577,68.5471661 C254.482177,68.7598661 254.363077,69.0478661 254.363077,69.3484661 C254.363077,69.6487661 254.482177,69.9367661 254.694577,70.1491661 L266.241577,79.0861661 L254.688577,88.0324661 C254.476177,88.2454661 254.357077,88.5340661 254.357077,88.8346661 C254.357077,89.1355661 254.476177,89.4241661 254.688577,89.6374661 C254.903977,89.8438661 255.191077,89.9590661 255.489577,89.9590661 C255.788077,89.9590661 256.074877,89.8438661 256.290577,89.6374661 C260.058577,86.7154661 268.452577,80.2741661 268.848577,79.9141661 Z" id="Path"></path>
            <path d="M241.911277,48.8851661 L230.361277,57.8221661 C230.149477,58.0357661 230.030977,58.3243661 230.030977,58.6246661 C230.030977,58.9252661 230.149477,59.2138661 230.361277,59.4271661 C230.576677,59.6338661 230.863777,59.7490661 231.162277,59.7490661 C231.460777,59.7490661 231.747577,59.6338661 231.963277,59.4271661 C235.725277,56.5141661 244.119277,50.0731661 244.515277,49.7131661 C245.415277,48.7561661 244.485277,48.0361661 243.792277,47.4991661 L231.963277,38.3461661 C231.746977,38.1412661 231.460177,38.0269661 231.162277,38.0269661 C230.864077,38.0269661 230.577577,38.1412661 230.361277,38.3461661 C230.149177,38.5588661 230.029777,38.8468661 230.029777,39.1471661 C230.029777,39.4477661 230.149177,39.7357661 230.361277,39.9481661 L241.911277,48.8851661 Z" id="Path"></path>
            <path d="M545.745277,99.0661661 C545.145277,97.7401661 543.189277,98.8888661 543.789277,100.208866 C546.516277,106.208866 567.429277,152.301166 567.723277,152.853166 C566.223277,156.408166 554.142277,182.702866 543.789277,205.461166 C543.189277,206.778166 545.142277,207.933166 545.745277,206.604166 C548.511277,200.526166 569.061277,155.672866 569.865277,153.587866 C569.979277,153.231166 570.012277,152.852566 569.961277,152.481166 C569.910277,152.109466 569.775277,151.754566 569.565277,151.443166 L545.745277,99.0661661 Z" id="Path"></path>
            <path d="M135.171277,7.03216614 C128.954677,10.6483661 123.975877,16.0588661 120.888277,22.5541661 C120.252277,23.8591661 122.208277,25.0111661 122.844277,23.6971661 C125.838577,17.6068661 130.512277,12.4999661 136.314277,8.97916614 C136.558777,8.82046614 136.732777,8.57356614 136.799977,8.29006614 C136.867177,8.00626614 136.822777,7.70776614 136.675777,7.45606614 C136.528777,7.20436614 136.290277,7.01896614 136.010077,6.93826614 C135.730177,6.85786614 135.429577,6.88816614 135.171277,7.02316614 L135.171277,7.03216614 Z" id="Path"></path>
            <path d="M133.295977,0.132166143 C124.906177,4.05286614 118.214077,10.8706661 114.449977,19.3321661 C113.849977,20.6551661 115.817977,21.8101661 116.405977,20.4781661 C119.990977,12.3595661 126.398077,5.81626614 134.438977,2.06116614 C135.761977,1.45816614 134.609977,-0.497833857 133.295977,0.132166143 Z" id="Path"></path>
            <path d="M12.7142466,269.478166 C8.84160656,282.582166 7.49670656,296.304166 8.75124656,309.912166 C8.87724656,311.352166 11.1512466,311.367166 11.0162466,309.912166 C10.0080966,296.508166 11.3275866,283.032166 14.9162466,270.078166 C14.9915766,269.790166 14.9499066,269.484166 14.8006566,269.223166 C14.6514366,268.965166 14.4064866,268.776166 14.1189066,268.698166 C13.8312966,268.620166 13.5241866,268.656166 13.2641166,268.803166 C13.0040166,268.950166 12.8118366,269.190166 12.7292466,269.478166 L12.7142466,269.478166 Z" id="Path"></path>
            <path d="M5.47530656,268.947166 C-0.182693437,283.209166 -0.731693437,295.065166 0.615306563,309.912166 C0.744306563,311.352166 3.01530656,311.367166 2.88030656,309.912166 C1.23930656,291.798166 3.15030656,280.971166 7.66230656,269.550166 C8.19930656,268.191166 6.00930656,267.603166 5.47530656,268.947166 Z" id="Path"></path>
            <path d="M319.107277,231.177166 L291.435277,231.177166 C291.144277,231.192166 290.871277,231.318166 290.670277,231.528166 C290.472277,231.738166 290.358277,232.020166 290.358277,232.311166 C290.358277,232.599166 290.472277,232.881166 290.670277,233.091166 C290.871277,233.301166 291.144277,233.427166 291.435277,233.442166 L319.107277,233.442166 C319.260277,233.451166 319.413277,233.427166 319.557277,233.373166 C319.704277,233.319166 319.836277,233.238166 319.947277,233.133166 C320.058277,233.025166 320.148277,232.899166 320.208277,232.758166 C320.268277,232.617166 320.298277,232.464166 320.298277,232.311166 C320.298277,232.155166 320.268277,232.002166 320.208277,231.861166 C320.148277,231.720166 320.058277,231.594166 319.947277,231.486166 C319.836277,231.381166 319.704277,231.300166 319.557277,231.246166 C319.413277,231.192166 319.260277,231.168166 319.107277,231.177166 Z" id="Path"></path>
            <path d="M307.950277,212.043166 L290.526277,225.684166 C289.377277,226.584166 290.991277,228.177166 292.128277,227.289166 L309.552277,213.645166 C310.701277,212.745166 309.087277,211.152166 307.950277,212.043166 Z" id="Path"></path>
            <path d="M292.236277,238.704166 C291.102277,237.804166 289.485277,239.409166 290.634277,240.306166 L306.186277,252.468166 C307.323277,253.368166 308.937277,251.766166 307.788277,250.866166 C303.261277,247.332166 292.896277,239.232166 292.236277,238.704166 Z" id="Path"></path>
            <g id="Group" transform="translate(0.005113, 0.000000)">
                <path d="M361.126163,209.373166 L484.828163,209.373166 C485.128163,209.367166 485.413163,209.247166 485.626163,209.037166 C485.836163,208.824166 485.959163,208.539166 485.962163,208.239166 L485.962163,115.698166 C485.959163,115.398766 485.836163,115.113166 485.626163,114.901366 C485.413163,114.689866 485.128163,114.568966 484.828163,114.564166 L361.126163,114.564166 C360.826163,114.568966 360.541163,114.689866 360.328163,114.901366 C360.118163,115.113166 359.998163,115.398766 359.992163,115.698166 L359.992163,208.239166 C359.998163,208.539166 360.118163,208.824166 360.328163,209.037166 C360.541163,209.247166 360.826163,209.367166 361.126163,209.373166 L361.126163,209.373166 Z M362.260163,119.481166 C362.260163,118.620166 362.302163,117.717166 362.287163,116.832166 C362.287163,116.832166 479.026163,116.958166 483.697163,116.832166 C483.697163,116.832166 483.652163,206.205166 483.667163,207.090166 C483.667163,207.090166 363.541163,206.994166 362.260163,207.036166 L362.260163,119.481166 Z" id="Shape"></path>
                <path d="M491.125163,114.564166 C490.825163,114.569566 490.540163,114.690766 490.330163,114.902266 C490.117163,115.113766 489.997163,115.399066 489.991163,115.698166 L489.991163,208.239166 C489.997163,208.539166 490.117163,208.824166 490.327163,209.037166 C490.540163,209.247166 490.825163,209.367166 491.125163,209.373166 L527.956163,209.373166 C528.256163,209.367166 528.541163,209.247166 528.754163,209.037166 C528.964163,208.824166 529.087163,208.539166 529.090163,208.239166 L529.090163,115.698166 C529.087163,115.398766 528.964163,115.113166 528.754163,114.901366 C528.541163,114.689866 528.256163,114.568966 527.956163,114.564166 L491.125163,114.564166 Z M526.783163,207.105166 L492.259163,207.105166 C492.259163,207.105166 492.352163,120.237166 492.259163,116.832166 L526.813163,116.832166 C526.813163,116.832166 526.783163,206.232166 526.783163,207.105166 Z" id="Shape"></path>
                <path d="M527.956163,212.778166 L361.126163,212.778166 C360.826163,212.781166 360.541163,212.904166 360.328163,213.114166 C360.118163,213.327166 359.995163,213.612166 359.992163,213.912166 C359.779163,244.431166 360.427163,248.190166 358.792163,255.387166 C357.670163,260.592166 355.411163,265.482166 352.177163,269.709166 C348.943163,273.939166 344.812163,277.398166 340.084163,279.843166 C326.509163,287.460166 312.694163,283.872166 302.284163,292.077166 C287.338163,303.840166 289.780163,322.752166 284.713163,338.046166 C284.668763,338.214166 284.663663,338.391166 284.697863,338.562166 C284.731763,338.733166 284.804363,338.892166 284.909963,339.030166 C285.016163,339.168166 285.151163,339.282166 285.307163,339.360166 C285.463163,339.438166 285.634163,339.480166 285.808163,339.480166 L452.635163,339.480166 C452.884163,339.477166 453.124163,339.396166 453.319163,339.246166 C453.517163,339.096166 453.661163,338.886166 453.730163,338.649166 C458.461163,324.498166 456.709163,307.209166 468.103163,295.941166 C478.030163,286.119166 492.805163,289.521166 506.503163,282.621166 C511.189163,280.371166 515.386163,277.215166 518.848163,273.339166 C522.313163,269.463166 524.977163,264.939166 526.687163,260.031166 C529.567163,251.463166 529.114163,245.430166 529.114163,213.912166 C529.108163,213.609166 528.985163,213.318166 528.769163,213.108166 C528.550163,212.895166 528.259163,212.778166 527.956163,212.778166 L527.956163,212.778166 Z M525.610163,255.378166 C524.488163,260.583166 522.229163,265.473166 518.995163,269.703166 C515.761163,273.930166 511.630163,277.389166 506.902163,279.834166 C493.327163,287.448166 479.509163,283.863166 469.102163,292.068166 C454.402163,303.645166 456.502163,322.206166 451.783163,337.206166 C451.783163,337.206166 289.081163,337.056166 287.350163,337.122166 C291.496163,323.268166 290.269163,306.801166 301.258163,295.932166 C311.191163,286.110166 325.960163,289.515166 339.658163,282.612166 C344.344163,280.362166 348.538163,277.206166 352.003163,273.330166 C355.465163,269.454166 358.129163,264.930166 359.839163,260.022166 C362.500163,252.108166 362.266163,243.864166 362.266163,235.644166 C362.266163,213.276166 362.410163,217.689166 362.290163,215.034166 C362.290163,215.034166 524.971163,215.202166 526.828163,215.091166 C526.822163,243.654166 527.257163,248.178166 525.610163,255.387166 L525.610163,255.378166 Z" id="Shape"></path>
                <path d="M451.003163,342.924166 C450.778163,342.864166 394.345163,342.888166 283.903163,342.888166 C283.656563,342.894166 283.417763,342.975166 283.221263,343.125166 C283.025063,343.275166 282.881363,343.482166 282.811163,343.719166 C277.003163,362.343166 257.449163,361.161166 241.231163,366.408166 C236.321963,367.938166 231.742763,370.377166 227.731163,373.593166 C226.942163,374.235166 227.620163,375.528166 228.532163,375.528166 C359.116163,375.528166 387.382163,375.699166 393.706163,375.561166 C396.187163,375.507166 395.890163,375.339166 396.163163,375.195166 C410.089163,363.855166 430.345163,367.236166 443.290163,357.072166 C447.355163,353.778166 450.334163,349.335166 451.834163,344.322166 C451.872188,344.175166 451.882163,344.022166 451.861163,343.872166 C451.840163,343.722166 451.789163,343.578166 451.714163,343.449166 C451.636163,343.317166 451.534163,343.206166 451.411163,343.116166 C451.288163,343.026166 451.150163,342.960166 451.003163,342.924166 L451.003163,342.924166 Z M408.049163,366.408166 C403.321163,367.893166 398.902163,370.215166 394.996163,373.263166 C394.996163,373.263166 233.173163,373.206166 232.096163,373.179166 C238.880963,369.327166 246.306563,366.732166 254.014163,365.523166 C261.787163,363.822166 270.046163,362.100166 276.448163,357.072166 C280.250663,353.946166 283.102463,349.818166 284.680163,345.153166 C284.680163,345.153166 447.361163,345.282166 449.080163,345.234166 C442.714163,362.298166 423.952163,361.263166 408.049163,366.408166 Z" id="Shape"></path>
                <path d="M389.773163,380.748166 C255.913163,380.748166 229.636163,380.553166 224.230163,380.796166 C222.430163,380.880166 222.160163,381.048166 222.046163,381.237166 C219.179963,384.888166 217.101263,389.094166 215.941163,393.588166 C215.897663,393.756166 215.892563,393.933166 215.926763,394.101166 C215.960963,394.272166 216.033563,394.431166 216.138563,394.572166 C216.243863,394.710166 216.379163,394.821166 216.533963,394.899166 C216.689063,394.977166 216.859763,395.019166 217.033163,395.022166 L383.863163,395.022166 C384.109163,395.019166 384.349163,394.938166 384.547163,394.788166 C384.742163,394.638166 384.886163,394.428166 384.955163,394.191166 C386.074163,389.925166 388.045163,385.932166 390.751163,382.452166 C391.294163,381.732166 390.550163,380.748166 389.773163,380.748166 Z M383.032163,392.748166 C383.032163,392.748166 220.333163,392.652166 218.593163,392.694166 C219.687263,389.211166 221.357363,385.938166 223.534163,383.007166 C223.534163,383.007166 386.038163,383.082166 387.568163,383.073166 C385.552163,386.040166 384.022163,389.310166 383.032163,392.757166 L383.032163,392.748166 Z" id="Shape"></path>
                <path d="M361.126163,111.159466 L527.956163,111.159466 C528.256163,111.153166 528.541163,111.031966 528.751163,110.820466 C528.964163,110.609266 529.084163,110.324266 529.090163,110.025466 L529.090163,20.0014661 C529.087163,19.7020661 528.964163,19.4164661 528.754163,19.2046661 C528.541163,18.9931661 528.256163,18.8719661 527.956163,18.8674661 L361.126163,18.8674661 C360.826163,18.8719661 360.541163,18.9931661 360.328163,19.2046661 C360.118163,19.4164661 359.998163,19.7020661 359.992163,20.0014661 L359.992163,110.025466 C359.998163,110.324866 360.118163,110.610466 360.328163,110.822266 C360.541163,111.033766 360.826163,111.154666 361.126163,111.159466 L361.126163,111.159466 Z M488.167163,21.1324661 C488.167163,21.1324661 524.947163,21.2374661 526.822163,21.1684661 L526.822163,42.7864661 L488.167163,42.7864661 L488.167163,21.1324661 Z M400.033163,21.1324661 L485.902163,21.1324661 L485.902163,42.7864661 L400.033163,42.7864661 L400.033163,21.1324661 Z M362.260163,21.1324661 L397.765163,21.1324661 L397.765163,42.7864661 C397.765163,42.7864661 364.135163,42.6784661 362.260163,42.7504661 L362.260163,21.1324661 Z M362.296163,45.0544661 C362.296163,45.0544661 524.947163,45.1624661 526.822163,45.0904661 C526.822163,45.0904661 526.753163,106.560466 526.822163,108.888466 C526.822163,108.888466 364.147163,108.780466 362.272163,108.855466 C362.260415,35.6974661 362.245163,48.0934661 362.296163,45.0574661 L362.296163,45.0544661 Z" id="Shape"></path>
                <path d="M383.158163,398.649166 L216.328463,398.649166 C216.027563,398.649166 215.739263,398.769166 215.526563,398.982166 C215.313863,399.195166 215.194463,399.483166 215.194463,399.783166 C215.194463,400.083166 215.313863,400.371166 215.526563,400.584166 C215.739263,400.797166 216.027563,400.917166 216.328463,400.917166 L383.158163,400.917166 C383.458163,400.917166 383.746163,400.797166 383.959163,400.584166 C384.172163,400.371166 384.292163,400.083166 384.292163,399.783166 C384.292163,399.483166 384.172163,399.195166 383.959163,398.982166 C383.746163,398.769166 383.458163,398.649166 383.158163,398.649166 Z" id="Path"></path>
                <path d="M383.158163,405.399166 L216.328463,405.399166 C216.027563,405.399166 215.739263,405.519166 215.526563,405.732166 C215.313863,405.945166 215.194463,406.233166 215.194463,406.533166 C215.194463,406.833166 215.313863,407.121166 215.526563,407.334166 C215.739263,407.547166 216.027563,407.667166 216.328463,407.667166 L383.158163,407.667166 C383.458163,407.667166 383.746163,407.547166 383.959163,407.334166 C384.172163,407.121166 384.292163,406.833166 384.292163,406.533166 C384.292163,406.233166 384.172163,405.945166 383.959163,405.732166 C383.746163,405.519166 383.458163,405.399166 383.158163,405.399166 L383.158163,405.399166 Z" id="Path"></path>
                <path d="M518.512163,27.3694661 L496.165163,27.3694661 C495.874163,27.3844661 495.601163,27.5101661 495.400163,27.7210661 C495.202163,27.9316661 495.091163,28.2112661 495.091163,28.5019661 C495.091163,28.7926661 495.202163,29.0722661 495.400163,29.2828661 C495.601163,29.4937661 495.874163,29.6194661 496.165163,29.6344661 L518.512163,29.6344661 C518.803163,29.6194661 519.076163,29.4937661 519.277163,29.2828661 C519.475163,29.0722661 519.589163,28.7926661 519.589163,28.5019661 C519.589163,28.2112661 519.475163,27.9316661 519.277163,27.7210661 C519.076163,27.5101661 518.803163,27.3844661 518.512163,27.3694661 L518.512163,27.3694661 Z" id="Path"></path>
                <path d="M518.383163,33.9721661 L496.033163,33.9721661 C495.742163,33.9871661 495.469163,34.1128661 495.268163,34.3237661 C495.070163,34.5343661 494.956163,34.8139661 494.956163,35.1046661 C494.956163,35.3953661 495.070163,35.6749661 495.268163,35.8855661 C495.469163,36.0964661 495.742163,36.2221661 496.033163,36.2371661 L518.383163,36.2371661 C518.674163,36.2221661 518.947163,36.0964661 519.148163,35.8855661 C519.346163,35.6749661 519.460163,35.3953661 519.460163,35.1046661 C519.460163,34.8139661 519.346163,34.5343661 519.148163,34.3237661 C518.947163,34.1128661 518.674163,33.9871661 518.383163,33.9721661 L518.383163,33.9721661 Z" id="Path"></path>
                <path d="M374.308163,38.6044661 C386.008163,38.6854661 385.726163,38.7664661 386.176163,38.1964661 C386.578163,37.7704661 386.539163,38.3614661 386.458163,26.4544661 C386.455163,26.1547661 386.335163,25.8679661 386.122163,25.6561661 C385.912163,25.4440661 385.624163,25.3234661 385.324163,25.3204661 L374.308163,25.3204661 C374.008163,25.3243661 373.723163,25.4449661 373.510163,25.6567661 C373.300163,25.8688661 373.177163,26.1547661 373.174163,26.4544661 L373.174163,37.4704661 C373.177163,37.7698661 373.300163,38.0560661 373.510163,38.2681661 C373.723163,38.4799661 374.008163,38.6005661 374.308163,38.6044661 L374.308163,38.6044661 Z M375.439163,27.5854661 L384.190163,27.5854661 L384.190163,36.3364661 L375.439163,36.3364661 L375.439163,27.5854661 Z" id="Shape"></path>
                <path d="M459.562163,239.604166 C458.122163,240.720166 456.964163,242.154166 456.178163,243.798166 C455.392163,245.439166 455.002163,247.242166 455.038163,249.063166 C454.603163,253.563166 455.611163,257.322166 453.052163,261.291166 C452.290163,262.506166 451.078163,263.373166 449.683163,263.700166 C448.285163,264.030166 446.815163,263.796166 445.591163,263.049166 C437.722163,258.180166 446.425163,244.233166 436.573163,238.641166 C435.382163,238.008166 434.068163,237.642166 432.721163,237.564166 C431.374163,237.489166 430.027163,237.705166 428.770163,238.203166 C427.516163,238.698166 426.385163,239.460166 425.452163,240.435166 C424.519163,241.410166 423.811163,242.577166 423.373163,243.852166 C421.573163,249.021166 423.778163,254.712166 421.006163,259.611166 C418.588163,264.549166 411.640163,263.127166 409.963163,257.715166 C408.862163,251.532166 408.622163,245.223166 409.246163,238.974166 C409.396163,237.525166 407.128163,237.534166 406.981163,238.974166 C406.432163,244.293166 406.495163,249.660166 407.170163,254.964166 C407.095163,257.415166 407.953163,259.803166 409.564163,261.651166 C411.178163,263.499166 413.431163,264.669166 415.870163,264.924166 C421.654163,265.275166 424.336163,259.332166 424.738163,254.466166 C424.717163,251.478166 424.903163,248.493166 425.293163,245.532166 C425.527163,244.299166 426.085163,243.153166 426.910163,242.208166 C427.738163,241.263166 428.800163,240.558166 429.991163,240.165166 C431.182163,239.772166 432.457163,239.703166 433.684163,239.970166 C434.908163,240.234166 436.042163,240.822166 436.963163,241.674166 C438.019163,242.964166 438.796163,244.455166 439.249163,246.060166 C439.702163,247.662166 439.822163,249.342166 439.597163,250.992166 C439.324163,254.028166 439.615163,257.088166 440.458163,260.019166 C440.935163,261.348166 441.697163,262.560166 442.690163,263.565166 C443.683163,264.570166 444.886163,265.344166 446.209163,265.836166 C451.609163,267.456166 456.043163,263.106166 456.862163,257.586166 C457.795163,252.333166 456.019163,244.941166 460.642163,241.605166 C461.563163,241.080166 462.604163,240.798166 463.663163,240.786166 C464.725163,240.777166 465.769163,241.035166 466.702163,241.542166 C473.104163,245.046166 471.502163,255.513166 470.512163,263.229166 C470.338163,264.675166 472.612163,264.663166 472.780163,263.229166 C473.275163,259.749166 473.554163,256.242166 473.611163,252.729166 C473.746163,249.768166 473.212163,246.813166 472.045163,244.089166 C471.559163,242.940166 470.842163,241.905166 469.936163,241.050166 C469.033163,240.192166 467.959163,239.532166 466.786163,239.112166 C465.613163,238.689166 464.365163,238.518166 463.123163,238.602166 C461.878163,238.686166 460.666163,239.028166 459.562163,239.604166 L459.562163,239.604166 Z" id="Path"></path>
                <path d="M430.801163,89.2861661 C431.170163,89.4961661 429.259163,89.4331661 457.738163,89.4331661 C457.933163,89.4229661 458.122163,89.3638661 458.290163,89.2615661 C458.455163,89.1592661 458.593163,89.0167661 458.692163,88.8472661 C458.788163,88.6777661 458.842163,88.4869661 458.845163,88.2916661 C458.851163,88.0963661 458.806163,87.9028661 458.716163,87.7291661 C455.029163,81.0181661 446.065163,66.0121661 445.516163,65.0761661 C445.438163,64.9477661 445.336163,64.8358661 445.216163,64.7467661 C445.093163,64.6579661 444.955163,64.5937661 444.811163,64.5580661 C444.664163,64.5223661 444.511163,64.5160661 444.364163,64.5388661 C444.214163,64.5619661 444.073163,64.6141661 443.944163,64.6921661 C443.569163,64.9231661 444.475163,63.1231661 430.363163,87.7291661 C430.288163,87.8599661 430.240163,88.0042661 430.222163,88.1536661 C430.204163,88.3030661 430.216163,88.4542661 430.258163,88.5991661 C430.297163,88.7440661 430.366163,88.8793661 430.459163,88.9972661 C430.555163,89.1151661 430.669163,89.2135661 430.801163,89.2861661 L430.801163,89.2861661 Z M444.541163,67.8991661 L455.767163,87.1681661 L433.315163,87.1681661 C434.218163,85.6321661 443.644163,69.4321661 444.541163,67.8991661 Z" id="Shape"></path>
                <path d="M444.853163,25.4854661 C444.697163,25.2259661 444.442163,25.0393661 444.148163,24.9670661 C443.854163,24.8944661 443.542163,24.9418661 443.281163,25.0984661 C442.915163,25.3234661 443.206163,24.7204661 435.781163,37.6984661 C435.685163,37.8712661 435.634163,38.0659661 435.634163,38.2642661 C435.634163,38.4622661 435.688163,38.6566661 435.787163,38.8285661 C435.883163,39.0004661 436.027163,39.1435661 436.198163,39.2443661 C436.366163,39.3448661 436.561163,39.3994661 436.759163,39.4024661 L450.997163,39.4024661 C451.192163,39.3922661 451.381163,39.3331661 451.549163,39.2308661 C451.714163,39.1282661 451.852163,38.9860661 451.951163,38.8165661 C452.047163,38.6470661 452.101163,38.4559661 452.104163,38.2606661 C452.110163,38.0653661 452.065163,37.8721661 451.975163,37.6984661 L444.853163,25.4854661 Z M438.727163,37.1434661 L443.875163,28.3084661 L449.023163,37.1434661 L438.727163,37.1434661 Z" id="Shape"></path>
                <path d="M401.416163,153.027466 L445.801163,153.027466 C446.092163,153.012466 446.365163,152.886466 446.566163,152.675866 C446.764163,152.464966 446.878163,152.185366 446.878163,151.894966 C446.878163,151.604266 446.764163,151.324666 446.566163,151.113766 C446.365163,150.903166 446.092163,150.777166 445.801163,150.762466 L401.416163,150.762466 C401.125163,150.777166 400.852163,150.903166 400.651163,151.113766 C400.453163,151.324666 400.342163,151.604266 400.342163,151.894966 C400.342163,152.185366 400.453163,152.464966 400.651163,152.675866 C400.852163,152.886466 401.125163,153.012466 401.416163,153.027466 L401.416163,153.027466 Z" id="Path"></path>
                <path d="M401.416163,161.532166 L445.483163,161.532166 C445.774163,161.517166 446.047163,161.391466 446.248163,161.180566 C446.446163,160.969966 446.560163,160.690366 446.560163,160.399666 C446.560163,160.108966 446.446163,159.829366 446.248163,159.618766 C446.047163,159.408166 445.774163,159.282166 445.483163,159.267166 L401.413163,159.267166 C401.122163,159.282166 400.849163,159.408166 400.648163,159.618766 C400.450163,159.829366 400.336163,160.108966 400.336163,160.399666 C400.336163,160.690366 400.450163,160.969966 400.648163,161.180566 C400.849163,161.391466 401.122163,161.517166 401.413163,161.532166 L401.416163,161.532166 Z" id="Path"></path>
                <path d="M400.783163,169.080166 L445.783163,169.080166 C446.074163,169.065166 446.347163,168.939466 446.548163,168.728566 C446.746163,168.517966 446.860163,168.238366 446.860163,167.947666 C446.860163,167.656966 446.746163,167.377366 446.548163,167.166766 C446.347163,166.955866 446.074163,166.830166 445.783163,166.815166 L400.783163,166.815166 C400.492163,166.830166 400.219163,166.955866 400.018163,167.166766 C399.820163,167.377366 399.706163,167.656966 399.706163,167.947666 C399.706163,168.238366 399.820163,168.517966 400.018163,168.728566 C400.219163,168.939466 400.492163,169.065166 400.783163,169.080166 L400.783163,169.080166 Z" id="Path"></path>
                <path d="M472.657163,129.099166 L479.473163,122.691166 C480.538163,121.692166 478.933163,120.090166 477.871163,121.089166 L471.055163,127.497166 C469.990163,128.496166 471.583163,130.098166 472.657163,129.099166 Z" id="Path"></path>
                <path d="M473.146163,196.161166 L478.846163,201.327166 C479.923163,202.305166 481.546163,200.709166 480.448163,199.725166 L474.748163,194.559166 C473.683163,193.581166 472.063163,195.180166 473.146163,196.161166 Z" id="Path"></path>
                <path d="M371.683163,128.367466 C372.757163,129.351466 374.365163,127.767466 373.288163,126.765466 C371.278163,124.919866 369.376163,122.961766 367.588163,120.900466 C366.628163,119.799466 365.032163,121.407466 365.986163,122.502466 C367.774163,124.562866 369.676163,126.520966 371.683163,128.367466 L371.683163,128.367466 Z" id="Path"></path>
                <path d="M371.923163,196.065466 C370.051163,197.291566 368.242163,198.604366 366.496163,200.004466 C365.356163,200.904466 366.970163,202.506466 368.098163,201.606466 C369.697163,200.331466 371.356163,199.143466 373.069163,198.024466 C374.284163,197.232466 373.150163,195.267466 371.923163,196.065466 Z" id="Path"></path>
                <path d="M500.416163,136.032166 L517.648163,136.032166 C517.921163,135.992566 518.170163,135.856066 518.350163,135.647866 C518.530163,135.439666 518.629163,135.173566 518.629163,134.898166 C518.629163,134.623066 518.530163,134.356966 518.350163,134.148766 C518.170163,133.940566 517.921163,133.804066 517.648163,133.764166 L500.416163,133.764166 C500.116163,133.764166 499.828163,133.883866 499.615163,134.096566 C499.402163,134.308966 499.282163,134.597566 499.282163,134.898166 C499.282163,135.199066 499.402163,135.487366 499.615163,135.700066 C499.828163,135.912766 500.116163,136.032166 500.416163,136.032166 Z" id="Path"></path>
                <path d="M517.648163,142.410166 L500.416163,142.410166 C500.125163,142.425166 499.852163,142.550866 499.651163,142.761766 C499.453163,142.972366 499.342163,143.251966 499.342163,143.542666 C499.342163,143.833366 499.453163,144.112966 499.651163,144.323566 C499.852163,144.534466 500.125163,144.660166 500.416163,144.675166 L517.648163,144.675166 C517.801163,144.682966 517.954163,144.659566 518.101163,144.606466 C518.245163,144.553066 518.377163,144.470866 518.488163,144.364966 C518.599163,144.259066 518.689163,144.131566 518.749163,143.989966 C518.809163,143.848666 518.842163,143.696566 518.842163,143.542666 C518.842163,143.388766 518.809163,143.236666 518.749163,143.095366 C518.689163,142.954066 518.599163,142.826566 518.488163,142.720366 C518.377163,142.614466 518.245163,142.532266 518.101163,142.479166 C517.954163,142.425766 517.801163,142.402366 517.648163,142.410166 L517.648163,142.410166 Z" id="Path"></path>
                <path d="M500.416163,153.027466 L517.648163,153.027466 C517.948163,153.027466 518.236163,152.908066 518.449163,152.695366 C518.662163,152.482666 518.782163,152.194066 518.782163,151.893466 C518.782163,151.592566 518.662163,151.304266 518.449163,151.091566 C518.236163,150.878866 517.948163,150.759466 517.648163,150.759466 L500.416163,150.759466 C500.116163,150.759466 499.828163,150.878866 499.615163,151.091566 C499.402163,151.304266 499.282163,151.592566 499.282163,151.893466 C499.282163,152.194066 499.402163,152.482666 499.615163,152.695366 C499.828163,152.908066 500.116163,153.027466 500.416163,153.027466 Z" id="Path"></path>
                <path d="M500.416163,161.532466 L517.648163,161.532466 C517.801163,161.540266 517.957163,161.516866 518.101163,161.463466 C518.245163,161.409766 518.377163,161.327566 518.491163,161.221366 C518.602163,161.115166 518.692163,160.987066 518.752163,160.845466 C518.812163,160.703866 518.845163,160.551166 518.845163,160.396966 C518.845163,160.242766 518.812163,160.090066 518.752163,159.948466 C518.692163,159.806566 518.602163,159.678766 518.491163,159.572566 C518.377163,159.466366 518.245163,159.383866 518.101163,159.330466 C517.957163,159.277066 517.801163,159.253366 517.648163,159.261466 L500.416163,159.261466 C500.125163,159.276466 499.852163,159.402466 499.651163,159.613966 C499.450163,159.825166 499.339163,160.105366 499.339163,160.396966 C499.339163,160.688266 499.450163,160.968766 499.651163,161.179966 C499.852163,161.391166 500.125163,161.517466 500.416163,161.532466 L500.416163,161.532466 Z" id="Path"></path>
                <path d="M517.648163,173.574466 L500.416163,173.574466 C500.125163,173.589166 499.852163,173.715166 499.651163,173.925766 C499.453163,174.136666 499.342163,174.416266 499.342163,174.706966 C499.342163,174.997366 499.453163,175.276966 499.651163,175.487866 C499.852163,175.698466 500.125163,175.824466 500.416163,175.839466 L517.648163,175.839466 C517.921163,175.801966 518.173163,175.666666 518.356163,175.458466 C518.536163,175.250266 518.638163,174.983266 518.638163,174.706966 C518.638163,174.430366 518.536163,174.163366 518.356163,173.955166 C518.173163,173.746966 517.921163,173.611666 517.648163,173.574466 L517.648163,173.574466 Z" id="Path"></path>
                <path d="M517.648163,182.073466 L500.416163,182.073466 C500.125163,182.088466 499.852163,182.214166 499.651163,182.424766 C499.453163,182.635666 499.342163,182.915266 499.342163,183.205966 C499.342163,183.496666 499.453163,183.775966 499.651163,183.986866 C499.852163,184.197466 500.125163,184.323466 500.416163,184.338466 L517.648163,184.338466 C517.909163,184.285966 518.146163,184.144366 518.314163,183.937966 C518.485163,183.731566 518.575163,183.472666 518.575163,183.205966 C518.575163,182.938966 518.485163,182.680366 518.314163,182.473666 C518.146163,182.267266 517.909163,182.125666 517.648163,182.073466 Z" id="Path"></path>
                <path d="M135.100163,39.8461661 L135.100163,158.601166 C135.072563,161.428966 135.616763,164.233066 136.700063,166.844866 C137.783363,169.456966 139.383563,171.823066 141.404663,173.801266 C143.425463,175.779166 145.825163,177.328366 148.460063,178.355266 C151.094663,179.382466 153.909863,179.866366 156.736163,179.778166 C271.303163,179.961166 284.128163,179.985166 287.470163,179.403166 C291.985163,178.543666 296.083163,176.196766 299.107163,172.736866 C302.131163,169.276666 303.910163,164.903266 304.159163,160.314166 C304.216163,159.366166 304.720163,145.206166 304.195163,41.9341661 C304.255163,39.2869661 304.054163,36.6400661 303.595163,34.0321661 C302.464163,29.7127661 299.938163,25.8865661 296.416163,23.1454661 C292.891163,20.4043661 288.559163,18.9007661 284.095163,18.8671661 L155.938163,18.8671661 C153.163763,18.7705661 150.398963,19.2481661 147.817763,20.2702661 C145.236563,21.2920661 142.894163,22.8364661 140.937863,24.8059661 C138.981263,26.7757661 137.452763,29.1283661 136.448363,31.7164661 C135.443963,34.3045661 134.984963,37.0723661 135.100163,39.8461661 L135.100163,39.8461661 Z M155.200163,21.1351661 L284.098163,21.1351661 C288.610163,21.1741661 292.942163,22.9060661 296.239163,25.9882661 C299.533163,29.0701661 301.552163,33.2770661 301.891163,37.7761661 C301.984163,39.2761661 301.978163,159.675166 301.804163,161.349166 C301.264163,165.810166 299.107163,169.918366 295.744163,172.896766 C292.378163,175.874866 288.040163,177.516166 283.546163,177.510166 C282.217163,177.510166 156.577163,177.510166 156.577163,177.510166 C154.152863,177.607966 151.732763,177.226966 149.455763,176.389066 C147.178463,175.551466 145.088963,174.273166 143.305763,172.627366 C141.522863,170.981866 140.081363,169.000966 139.064363,166.798066 C138.047063,164.595466 137.473763,162.213766 137.377163,159.789166 C137.359163,159.240166 137.377163,158.688166 137.377163,158.139166 L137.377163,39.6901661 C137.291663,37.2907661 137.688863,34.8988661 138.545663,32.6560661 C139.402463,30.4132661 140.701463,28.3654661 142.364963,26.6344661 C144.028463,24.9034661 146.023163,23.5243661 148.229963,22.5793661 C150.437063,21.6340661 152.811263,21.1420661 155.212163,21.1321661 L155.200163,21.1351661 Z" id="Shape"></path>
                <path d="M343.183163,302.877166 L315.328163,302.877166 C315.028163,302.877166 314.740163,302.997166 314.527163,303.210166 C314.314163,303.423166 314.194163,303.711166 314.194163,304.011166 C314.194163,304.311166 314.314163,304.599166 314.527163,304.812166 C314.740163,305.025166 315.028163,305.145166 315.328163,305.145166 L343.183163,305.145166 C343.483163,305.145166 343.771163,305.025166 343.984163,304.812166 C344.197163,304.599166 344.317163,304.311166 344.317163,304.011166 C344.317163,303.711166 344.197163,303.423166 343.984163,303.210166 C343.771163,302.997166 343.483163,302.877166 343.183163,302.877166 L343.183163,302.877166 Z" id="Path"></path>
                <path d="M340.351163,309.042166 L313.912163,309.042166 C313.621163,309.057166 313.348163,309.183166 313.147163,309.393166 C312.949163,309.603166 312.835163,309.885166 312.835163,310.176166 C312.835163,310.464166 312.949163,310.746166 313.147163,310.956166 C313.348163,311.166166 313.621163,311.292166 313.912163,311.307166 L340.351163,311.307166 C340.642163,311.292166 340.915163,311.166166 341.116163,310.956166 C341.314163,310.746166 341.428163,310.464166 341.428163,310.176166 C341.428163,309.885166 341.314163,309.603166 341.116163,309.393166 C340.915163,309.183166 340.642163,309.057166 340.351163,309.042166 L340.351163,309.042166 Z" id="Path"></path>
                <path d="M454.783163,292.752166 L312.949163,292.752166 C312.649163,292.752166 312.361163,292.872166 312.148163,293.085166 C311.935163,293.298166 311.815163,293.586166 311.815163,293.886166 C311.815163,294.186166 311.935163,294.474166 312.148163,294.687166 C312.361163,294.900166 312.649163,295.020166 312.949163,295.020166 L454.783163,295.020166 C455.083163,295.020166 455.371163,294.900166 455.584163,294.687166 C455.797163,294.474166 455.917163,294.186166 455.917163,293.886166 C455.917163,293.586166 455.797163,293.298166 455.584163,293.085166 C455.371163,292.872166 455.083163,292.752166 454.783163,292.752166 Z" id="Path"></path>
                <path d="M429.433163,302.877166 L382.183163,302.877166 C381.883163,302.877166 381.595163,302.997166 381.382163,303.210166 C381.169163,303.423166 381.049163,303.711166 381.049163,304.011166 C381.049163,304.311166 381.169163,304.599166 381.382163,304.812166 C381.595163,305.025166 381.883163,305.145166 382.183163,305.145166 L429.433163,305.145166 C429.586163,305.148166 429.736163,305.124166 429.877163,305.067166 C430.021163,305.013166 430.150163,304.932166 430.258163,304.824166 C430.369163,304.719166 430.456163,304.593166 430.516163,304.452166 C430.573163,304.314166 430.606369,304.164166 430.606369,304.011166 C430.609163,303.858166 430.579163,303.705166 430.522163,303.564166 C430.462163,303.423166 430.375163,303.297166 430.267163,303.189166 C430.156163,303.084166 430.024163,303.000166 429.883163,302.946166 C429.739163,302.892166 429.586163,302.868166 429.433163,302.877166 L429.433163,302.877166 Z" id="Path"></path>
                <path d="M424.627163,309.042166 L379.783163,309.042166 C379.492163,309.057166 379.219163,309.183166 379.018163,309.393166 C378.820163,309.606166 378.706163,309.885166 378.706163,310.176166 C378.706163,310.464166 378.820163,310.746166 379.018163,310.956166 C379.219163,311.166166 379.492163,311.292166 379.783163,311.307166 L424.633163,311.307166 C424.786163,311.316166 424.939163,311.292166 425.086163,311.238166 C425.230163,311.184166 425.362163,311.103166 425.473163,310.998166 C425.584163,310.890166 425.674163,310.764166 425.734163,310.623166 C425.794163,310.482166 425.824163,310.329166 425.824163,310.176166 C425.824163,310.020166 425.794163,309.870166 425.734163,309.726166 C425.674163,309.585166 425.584163,309.459166 425.473163,309.354166 C425.362163,309.246166 425.230163,309.165166 425.086163,309.111166 C424.939163,309.057166 424.786163,309.033166 424.633163,309.042166 L424.627163,309.042166 Z" id="Path"></path>
                <path d="M335.923163,289.815166 L348.823163,286.836166 C350.245163,286.509166 349.642163,284.325166 348.223163,284.652166 L335.323163,287.631166 C333.901163,287.958166 334.501163,290.145166 335.923163,289.815166 Z" id="Path"></path>
                <path d="M461.845163,289.569166 L452.098163,286.023166 C450.724163,285.525166 450.133163,287.712166 451.498163,288.207166 C454.747163,289.392166 457.996163,290.574166 461.245163,291.753166 C462.616163,292.254166 463.207163,290.064166 461.845163,289.569166 Z" id="Path"></path>
                <path d="M367.429163,220.299166 C370.237163,221.370166 372.973163,222.627166 375.616163,224.061166 C376.897163,224.757166 378.043163,222.801166 376.759163,222.105166 C373.942163,220.581166 371.026163,219.249166 368.032163,218.112166 C366.667163,217.593166 366.079163,219.783166 367.429163,220.299166 Z" id="Path"></path>
                <path d="M522.028163,217.632166 L514.129163,221.988166 C512.851163,222.693166 513.994163,224.652166 515.272163,223.944166 L523.171163,219.588166 C524.449163,218.871166 523.306163,216.915166 522.028163,217.632166 Z" id="Path"></path>
                <path d="M405.208163,26.1241661 C404.992163,25.9276661 404.710163,25.8220661 404.419163,25.8286661 C404.125163,25.8355661 403.849163,25.9543661 403.642163,26.1604661 C403.435163,26.3668661 403.318163,26.6446661 403.309163,26.9362661 C403.303163,27.2278661 403.411163,27.5107661 403.606163,27.7261661 C406.906163,31.1401661 410.263163,34.4983661 413.677163,37.8001661 C413.890163,38.0074661 414.178163,38.1220661 414.475163,38.1199945 C414.772163,38.1178661 415.057163,37.9987661 415.267163,37.7887661 C415.477163,37.5784661 415.597163,37.2940661 415.600221,36.9964661 C415.603163,36.6988661 415.489163,36.4123661 415.282163,36.1981661 C411.979163,32.7841661 408.622163,29.4262661 405.208163,26.1241661 Z" id="Path"></path>
                <path d="M413.551163,25.0321661 C413.335163,24.8356661 413.053163,24.7297661 412.762163,24.7366661 C412.468163,24.7432661 412.192163,24.8623661 411.985163,25.0684661 C411.778163,25.2748661 411.661163,25.5523661 411.652163,25.8439661 C411.646163,26.1355661 411.754163,26.4187661 411.949163,26.6341661 L423.121163,37.8091661 C423.334163,38.0164661 423.622163,38.1310661 423.919163,38.1289945 C424.216163,38.1268661 424.501163,38.0077661 424.711163,37.7977661 C424.921163,37.5874661 425.041163,37.3030661 425.044221,37.0054661 C425.047163,36.7078661 424.933163,36.4213661 424.726163,36.2071661 C421.063163,32.4133661 417.340163,28.6882661 413.551163,25.0321661 Z" id="Path"></path>
                <path d="M453.901163,25.0324661 C453.688163,24.8251661 453.400163,24.7102661 453.103163,24.7126293 C452.806163,24.7147661 452.521163,24.8338661 452.311163,25.0438661 C452.101163,25.2541661 451.981163,25.5385661 451.978106,25.8361661 C451.975163,26.1337661 452.089163,26.4202661 452.296163,26.6344661 C455.959163,30.4243661 459.685163,34.1494661 463.474163,37.8094661 C463.582163,37.9120661 463.711163,37.9921661 463.849163,38.0449661 C463.990163,38.0980661 464.137163,38.1226661 464.287163,38.1175661 C464.434163,38.1124661 464.581163,38.0779661 464.719163,38.0158661 C464.854163,37.9534661 464.974163,37.8649661 465.076163,37.7554661 C465.271163,37.5448661 465.379163,37.2685661 465.379163,36.9814661 C465.379163,36.6940661 465.271163,36.4177661 465.076163,36.2074661 L453.901163,25.0324661 Z" id="Path"></path>
                <path d="M199.828163,86.6791661 C200.206163,86.8951661 198.751163,87.3811661 219.985163,86.8261661 C220.180763,86.8171661 220.370963,86.7589661 220.538363,86.6569661 C220.705463,86.5549661 220.844363,86.4124661 220.942163,86.2426661 C221.039963,86.0728661 221.093363,85.8814661 221.097563,85.6855661 C221.101763,85.4896661 221.056463,85.2961661 220.966163,85.1221661 C218.224163,80.1301661 211.561163,68.9791661 211.156163,68.2861661 C210.998963,68.0272661 210.745463,67.8415661 210.451163,67.7695661 C210.156863,67.6975661 209.846363,67.7452661 209.587163,67.9021661 C209.206163,68.1301661 209.953163,67.0021661 199.387163,85.1221661 C199.313363,85.2532661 199.266263,85.3975661 199.248263,85.5469661 C199.230563,85.6963661 199.242563,85.8478661 199.283663,85.9924661 C199.324463,86.1373661 199.393763,86.2723661 199.487363,86.3902661 C199.580663,86.5081661 199.696463,86.6062661 199.828163,86.6791661 L199.828163,86.6791661 Z M210.178163,71.1091661 L218.014163,84.5611661 L202.342163,84.5611661 L210.178163,71.1091661 Z" id="Shape"></path>
                <path d="M225.235163,86.6794661 C225.613163,86.8954661 224.161163,87.3814661 245.395163,86.8264661 C245.590763,86.8174661 245.781263,86.7595661 245.948663,86.6575661 C246.115763,86.5555661 246.254663,86.4130661 246.352163,86.2429661 C246.449663,86.0731661 246.502763,85.8814661 246.506561,85.6855661 C246.509963,85.4896661 246.464363,85.2958661 246.373163,85.1224661 C243.631163,80.1304661 236.968163,68.9794661 236.566163,68.2864661 C236.488163,68.1577661 236.385863,68.0458661 236.264663,67.9570661 C236.143463,67.8682661 236.005763,67.8040661 235.859963,67.7683661 C235.713863,67.7326661 235.562063,67.7260661 235.413563,67.7491661 C235.265063,67.7722661 235.122563,67.8241661 234.994163,67.9024661 C234.571163,68.1574661 235.252163,67.2454661 224.794163,85.1224661 C224.720663,85.2535661 224.673863,85.3978661 224.656163,85.5472661 C224.638763,85.6966661 224.650763,85.8478661 224.691563,85.9924661 C224.732663,86.1370661 224.801663,86.2720661 224.894963,86.3899661 C224.988263,86.5078661 225.103763,86.6062661 225.235163,86.6794661 L225.235163,86.6794661 Z M235.588163,71.1094661 C238.126163,75.4714661 243.424163,84.5614661 243.424163,84.5614661 L227.752163,84.5614661 L235.588163,71.1094661 Z" id="Shape"></path>
                <path d="M219.319163,99.4954661 L204.139163,99.4954661 C203.840363,99.4999661 203.554763,99.6211661 203.343563,99.8329661 C203.132363,100.044466 203.012063,100.330366 203.008163,100.629466 L203.008163,115.806466 C203.012063,116.105266 203.132363,116.391166 203.343563,116.602966 C203.554763,116.814766 203.840363,116.935666 204.139163,116.940466 C221.185163,117.060466 219.577163,117.063466 220.117163,116.601466 C220.600163,116.085466 220.567163,117.075466 220.453163,100.629466 C220.449263,100.329766 220.328663,100.043566 220.116863,99.8317661 C219.905063,99.6199661 219.618863,99.4993661 219.319163,99.4954661 L219.319163,99.4954661 Z M218.185163,114.672466 L205.285163,114.672466 L205.285163,101.772466 L218.185163,101.772466 L218.185163,114.672466 Z" id="Shape"></path>
                <path d="M242.155463,99.5101661 L232.348463,116.346166 C232.274363,116.476966 232.226663,116.620966 232.208363,116.770066 C232.190363,116.919166 232.201763,117.070666 232.242263,117.215266 C232.282463,117.359866 232.351163,117.495166 232.444163,117.613366 C232.536863,117.731266 232.652363,117.829966 232.783463,117.903166 C233.182463,118.128166 231.913463,118.050166 252.943463,118.050166 C253.138463,118.039966 253.327763,117.980866 253.494263,117.878566 C253.660463,117.776266 253.798763,117.633766 253.895963,117.464266 C253.993163,117.295066 254.046563,117.103966 254.050763,116.908666 C254.055263,116.713366 254.010863,116.519866 253.921463,116.346166 C253.921463,116.346166 244.516463,100.200166 244.111463,99.5101661 C244.009463,99.3418661 243.866063,99.2029661 243.694763,99.1063661 C243.523463,99.0097661 243.329963,98.9587661 243.133463,98.9587661 C242.936663,98.9587661 242.743163,99.0097661 242.571863,99.1063661 C242.400563,99.2029661 242.257163,99.3418661 242.155463,99.5101661 L242.155463,99.5101661 Z M235.297463,115.782166 L243.133463,102.333166 L250.972463,115.782166 L235.297463,115.782166 Z" id="Shape"></path>
                <path d="M195.736163,98.9614661 L180.343163,114.354466 C180.146663,114.570166 180.040763,114.853066 180.047663,115.144666 C180.054263,115.436266 180.173063,115.714066 180.379463,115.920166 C180.585563,116.126566 180.863363,116.245366 181.154963,116.251966 C181.446563,116.258866 181.729463,116.152966 181.945163,115.956466 C187.165163,110.916466 192.297263,105.785566 197.341163,100.563466 C197.547863,100.349566 197.662163,100.062766 197.65951,99.7654661 C197.656763,99.4678661 197.537063,99.1831661 197.326463,98.9731661 C197.115863,98.7628661 196.831163,98.6440661 196.533863,98.6416379 C196.236263,98.6395661 195.949763,98.7544661 195.736163,98.9614661 Z" id="Path"></path>
                <path d="M181.945163,57.0094661 C187.165163,51.9694661 192.297263,46.8373661 197.341163,41.6134661 C197.547863,41.3995661 197.662163,41.1127661 197.65951,40.8151661 C197.656763,40.5178661 197.537063,40.2331661 197.326463,40.0231661 C197.115863,39.8128661 196.831163,39.6937661 196.533863,39.6916379 C196.236263,39.6895661 195.949763,39.8044661 195.736163,40.0114661 L180.343163,55.4074661 C180.146663,55.6231661 180.040763,55.9060661 180.047663,56.1976661 C180.054263,56.4892661 180.173063,56.7670661 180.379463,56.9731661 C180.585563,57.1795661 180.863363,57.2983661 181.154963,57.3049661 C181.446563,57.3118661 181.729463,57.2059661 181.945163,57.0094661 L181.945163,57.0094661 Z" id="Path"></path>
                <path d="M181.945163,86.6014661 C187.163363,81.5554661 192.295163,76.4233661 197.341163,71.2054661 C197.547863,70.9915661 197.662163,70.7047661 197.65951,70.4071661 C197.656763,70.1098661 197.537363,69.8251661 197.326763,69.6151661 C197.116163,69.4048661 196.831463,69.2857661 196.533863,69.2836379 C196.236263,69.2815661 195.949763,69.3964661 195.736163,69.6034661 C190.522163,74.6494661 185.391263,79.7803661 180.343163,84.9964661 C180.136163,85.2100661 180.021263,85.4965661 180.023335,85.7941661 C180.025763,86.0914661 180.144563,86.3764661 180.354863,86.5867661 C180.565163,86.7973661 180.849563,86.9170661 181.147163,86.9198129 C181.444463,86.9224661 181.731263,86.8081661 181.945163,86.6014661 L181.945163,86.6014661 Z" id="Path"></path>
                <path d="M152.383163,58.4014661 C152.669963,58.3918661 152.942663,58.2736661 153.145763,58.0708661 C153.348863,57.8683661 153.467663,57.5962661 153.478163,57.3094661 L153.478163,41.0464661 C153.463463,40.7560661 153.337463,40.4827661 153.126863,40.2823661 C152.915963,40.0822661 152.636363,39.9706661 152.345663,39.9706661 C152.054963,39.9706661 151.775663,40.0822661 151.564763,40.2823661 C151.354163,40.4827661 151.228163,40.7560661 151.213163,41.0464661 L151.213163,57.3094661 C151.218263,57.4579661 151.252463,57.6040661 151.313963,57.7393661 C151.375763,57.8746661 151.463363,57.9964661 151.571963,58.0978661 C151.680563,58.1992661 151.808063,58.2784661 151.947263,58.3303661 C152.086463,58.3825661 152.234663,58.4065661 152.383163,58.4014661 L152.383163,58.4014661 Z" id="Path"></path>
                <path d="M152.383163,88.3324661 C152.670563,88.3225661 152.943563,88.2040661 153.146663,88.0009661 C153.350063,87.7975661 153.468563,87.5248661 153.478163,87.2374661 L153.478163,70.9684661 C153.463463,70.6780661 153.337463,70.4047661 153.126863,70.2043661 C152.915963,70.0042661 152.636363,69.8926661 152.345663,69.8926661 C152.054963,69.8926661 151.775663,70.0042661 151.564763,70.2043661 C151.354163,70.4047661 151.228163,70.6780661 151.213163,70.9684661 L151.213163,87.2314661 C151.217663,87.3805661 151.251263,87.5275661 151.312463,87.6637661 C151.373663,87.7996661 151.460963,87.9226661 151.569563,88.0249661 C151.678463,88.1272661 151.806263,88.2070661 151.945763,88.2598661 C152.085563,88.3123661 152.234063,88.3372661 152.383163,88.3324661 L152.383163,88.3324661 Z" id="Path"></path>
                <path d="M152.383463,117.924166 C152.669063,117.913066 152.940263,117.794266 153.142163,117.592066 C153.344063,117.389566 153.461963,117.118066 153.472463,116.832166 L153.472463,100.566166 C153.457463,100.276066 153.331763,100.002466 153.120863,99.8023661 C152.910263,99.6022661 152.630663,99.4906661 152.339963,99.4906661 C152.049263,99.4906661 151.769663,99.6022661 151.559063,99.8023661 C151.348163,100.002466 151.222463,100.276066 151.207463,100.566166 L151.207463,116.832166 C151.212863,116.981266 151.247663,117.127666 151.309463,117.263266 C151.371563,117.398866 151.459763,117.520666 151.568963,117.622066 C151.678163,117.723466 151.806263,117.802366 151.946063,117.854266 C152.085863,117.906166 152.234363,117.929866 152.383463,117.924166 Z" id="Path"></path>
                <path d="M152.383163,147.414466 C152.670263,147.403966 152.942963,147.285466 153.146063,147.082366 C153.349163,146.879266 153.467963,146.606566 153.478163,146.319466 L153.478163,130.056466 C153.463463,129.766366 153.337463,129.492766 153.126863,129.292666 C152.915963,129.092566 152.636363,128.980966 152.345663,128.980966 C152.054963,128.980966 151.775663,129.092566 151.564763,129.292666 C151.354163,129.492766 151.228163,129.766366 151.213163,130.056466 L151.213163,146.319466 C151.223363,146.619766 151.352363,146.903866 151.571663,147.109066 C151.790963,147.314266 152.082863,147.424366 152.383163,147.414466 L152.383163,147.414466 Z" id="Path"></path>
                <path d="M204.430163,287.211166 C201.256163,287.565166 132.730163,294.777166 124.630163,295.587166 C119.560163,288.321166 115.063163,282.087166 109.609163,275.073166 C120.605963,280.134166 132.787163,282.057166 144.808163,280.632166 C156.747563,279.177166 167.892863,273.891166 176.569163,265.560166 C176.569163,265.560166 232.717163,265.560166 233.431163,265.560166 C240.107063,265.515166 246.680663,263.916166 252.629963,260.886166 C258.579263,257.856166 263.740163,253.482166 267.703163,248.109166 C270.475163,244.098166 267.199163,248.151166 293.911163,203.901166 C295.072163,202.009666 295.708163,199.841566 295.755393,197.621866 C295.795163,195.402166 295.243163,193.211266 294.157163,191.275666 C293.071163,189.339766 291.484163,187.729966 289.567163,186.612166 C287.647163,185.494366 285.466163,184.909066 283.246163,184.917466 C282.412163,184.917466 160.141163,184.917466 160.141163,184.917466 C155.421563,184.739266 150.701663,185.260066 146.134163,186.462466 C134.914163,189.837466 127.969163,196.902466 122.458163,207.300166 L120.397163,210.816166 L120.379163,210.888166 C120.142163,211.221166 120.145163,211.248166 115.240163,219.612166 C109.358063,213.936166 102.756863,209.058166 95.6051635,205.101166 C92.5820635,203.494066 89.2118635,202.650166 85.7879635,202.643266 C82.3643635,202.636666 78.9905635,203.467066 75.9611635,205.062166 C56.6321635,215.163166 34.0061635,242.379166 25.5341635,283.149166 C23.5013635,294.669166 22.6469635,306.366166 22.9841635,318.057166 C22.2719635,326.421166 23.8754635,334.821166 27.6191635,342.336166 C29.5856635,345.600166 32.2565635,348.381166 35.4368635,350.481166 C38.6171635,352.578166 42.2264635,353.940166 46.0001635,354.462166 C50.8001635,355.245166 49.9421635,355.032166 93.9401635,355.032166 C94.5941635,357.363166 95.1791635,359.709166 95.8031635,362.046166 C95.8703635,362.286166 96.0134635,362.496166 96.2111635,362.646166 C96.4088635,362.796166 96.6500635,362.880166 96.8981635,362.880166 L166.756163,362.880166 C166.954463,362.877166 167.148263,362.823166 167.318963,362.721166 C167.489363,362.619166 167.630963,362.475166 167.729363,362.304166 C167.828063,362.133166 167.880263,361.938166 167.881163,361.740166 C167.882063,361.542166 167.831363,361.347166 167.734163,361.173166 C166.366163,359.145166 165.034163,357.084166 163.708163,355.032166 L204.430163,355.032166 C204.728963,355.029166 205.014563,354.909166 205.225763,354.696166 C205.436963,354.486166 205.557263,354.201166 205.561163,353.901166 L205.561163,288.351166 C205.577663,288.198166 205.559663,288.045166 205.508663,287.898166 C205.457963,287.754166 205.375163,287.622166 205.266863,287.511166 C205.158563,287.403166 205.027163,287.319166 204.882563,287.268166 C204.737963,287.214166 204.583463,287.196166 204.430163,287.211166 L204.430163,287.211166 Z M170.320163,267.918166 C153.568163,280.626166 128.902163,283.029166 106.378163,271.008166 C103.978163,268.056166 101.470163,265.188166 98.8451635,262.440166 C106.345163,250.740166 112.213163,238.776166 121.159163,228.336166 C123.901163,231.036166 126.577163,233.859166 129.457163,236.436166 C130.834763,237.897166 132.574163,238.968166 134.498963,239.538166 C136.423763,240.108166 138.465263,240.159166 140.416163,239.685166 C144.701063,237.897166 148.194263,234.621166 150.250163,230.457166 C155.425463,221.898166 161.631863,214.008166 168.730163,206.964166 C172.044263,203.518066 175.764563,200.486866 179.809163,197.937466 C186.826163,193.587466 196.786163,193.209466 202.051163,199.722466 C202.651163,200.478466 203.146163,201.321466 203.749163,202.086466 C204.796163,203.811466 205.885163,203.886166 207.667163,204.621166 C209.263163,205.266166 210.832163,205.980166 212.404163,206.679166 C213.752063,207.258166 215.032463,207.984166 216.223163,208.842166 C218.521163,210.867166 222.364163,214.599166 220.363163,217.971166 C218.263163,221.490166 213.403163,220.245166 210.463163,218.832166 C209.392163,218.319166 208.012163,219.750166 209.089163,220.611166 C211.594763,222.597166 213.648263,225.093166 215.113163,227.934166 C216.481163,230.604166 217.924163,234.384166 216.151163,237.189166 C215.812463,237.795166 215.301863,238.287166 214.684163,238.602166 C214.066463,238.917166 213.369263,239.043166 212.680163,238.962166 C211.076963,238.575166 209.570963,237.861166 208.258163,236.862166 C205.499063,235.089166 203.063963,232.857166 201.058163,230.262166 C200.955263,230.094166 200.811563,229.959166 200.640263,229.863166 C200.468963,229.767166 200.276363,229.716166 200.080163,229.716166 C199.884263,229.716166 199.691363,229.767166 199.520363,229.863166 C199.349063,229.959166 199.205063,230.094166 199.102163,230.262166 C191.056163,243.783166 183.064163,258.249166 170.320163,267.918166 L170.320163,267.918166 Z M273.979163,233.448166 C273.727163,233.799166 273.598163,234.048166 269.284163,241.413166 C265.776863,248.061166 260.510663,253.617166 254.060363,257.475166 C247.610063,261.333166 240.224063,263.343166 232.708163,263.289166 L178.888163,263.289166 C187.241663,254.052166 194.417363,243.816166 200.251163,232.812166 C201.822563,234.654166 203.600063,236.313166 205.549163,237.750166 C207.809663,239.853166 210.747263,241.080166 213.832163,241.209166 C215.166563,240.981166 216.392663,240.333166 217.331963,239.358166 C218.270963,238.383166 218.873963,237.132166 219.052163,235.791166 C219.397163,232.653166 218.696063,229.488166 217.057163,226.791166 C216.251063,225.225166 215.271863,223.755166 214.138163,222.408166 C221.038163,223.539166 225.268163,217.386166 222.211163,212.526166 C222.211163,212.526166 284.611163,212.541166 286.222163,212.526166 L273.937163,233.472166 L273.979163,233.448166 Z M126.826163,204.330166 C129.873563,199.110166 134.235563,194.779666 139.477763,191.769766 C144.719663,188.760166 150.658763,187.176466 156.703163,187.176466 C157.273163,187.176466 282.262163,187.086466 284.605163,187.242466 C287.068163,187.567366 289.327163,188.773366 290.968163,190.637266 C292.609163,192.500866 293.521163,194.896066 293.530163,197.379466 C293.530163,201.144466 290.980163,204.408166 289.153163,207.525166 L287.557163,210.249166 L220.723163,210.249166 C219.847763,209.160166 218.878163,208.149166 217.825163,207.231166 C215.400863,205.461166 212.723963,204.066166 209.884163,203.091466 C208.780163,202.626466 206.284163,201.621466 206.284163,201.621466 C204.932063,199.633966 203.381063,197.789566 201.655163,196.116466 C199.239263,194.327266 196.429763,193.142566 193.462163,192.661966 C190.494263,192.181366 187.454663,192.418366 184.597163,193.353466 C180.155363,194.846866 176.059763,197.220166 172.555163,200.331466 C168.962663,203.396566 165.590363,206.712166 162.463163,210.249166 C162.463163,210.249166 124.978163,210.165166 123.388163,210.180166 C124.536263,208.230166 125.682263,206.280166 126.826163,204.330166 L126.826163,204.330166 Z M122.026163,212.517166 L160.537163,212.517166 C156.194963,217.512166 152.269763,222.852166 148.801163,228.489166 C147.587063,230.568166 146.180963,232.527166 144.601163,234.342166 C142.924163,236.265166 140.603063,237.510166 138.073163,237.843166 C135.707063,237.822166 133.429763,236.940166 131.668163,235.359166 C128.368163,232.545166 122.476163,226.218166 121.582163,225.666166 C121.662563,225.708166 121.738163,225.759166 121.807163,225.819166 C121.606163,225.519166 117.244163,221.451166 116.938163,221.169166 C118.573163,218.406166 120.832163,214.548166 122.023163,212.532166 L122.026163,212.517166 Z M86.4521635,204.885166 C88.9754635,204.906166 91.4579635,205.521166 93.6971635,206.685166 C96.6083635,208.071166 99.3824635,209.727166 101.983163,211.632166 C108.175163,216.192166 114.010163,221.214166 119.437163,226.662166 C110.254163,237.321166 103.756163,250.188166 97.1261635,260.646166 C91.1561635,254.610166 84.8651635,249.120166 76.4861635,247.956166 L75.5681635,247.302166 C69.9398635,243.168166 66.1127635,237.030166 64.8761635,230.157166 C63.2831635,219.399166 75.1421635,204.927166 86.4491635,204.885166 L86.4521635,204.885166 Z M33.9521635,262.155166 C40.6964635,242.547166 52.8392635,225.243166 68.9831635,212.232166 C64.9349635,216.675166 62.6162635,222.423166 62.4491635,228.432166 C62.7698635,232.128166 63.8159635,235.725166 65.5274635,239.016166 C67.2392635,242.307166 69.5828635,245.226166 72.4241635,247.611166 C60.1991635,247.782166 49.5491635,255.165166 42.9431635,263.724166 C34.3076635,274.578166 28.3727635,287.328166 25.6271635,300.924166 C26.3237635,287.640166 29.1329635,274.554166 33.9491635,262.155166 L33.9521635,262.155166 Z M65.3741635,352.755166 C70.7285635,350.508166 75.2480635,346.644166 78.3011635,341.706166 C80.1839635,338.367166 81.5972635,334.785166 82.5011635,331.059166 C83.0411635,329.043166 83.7311635,327.039166 84.3011635,325.011166 C87.4751635,333.813166 90.4721635,342.921166 93.3011635,352.755166 L65.3741635,352.755166 Z M164.650163,360.600166 C164.650163,360.600166 98.4281635,360.561166 97.7501635,360.573166 C94.2344635,347.124166 90.0401635,333.858166 85.1831635,320.832166 C84.8291635,319.881166 83.2391635,319.632166 82.9961635,320.832166 C82.4981635,323.322166 81.6731635,325.782166 80.9711635,328.221166 C80.1140635,331.929166 78.8753635,335.535166 77.2751635,338.988166 C74.9675635,343.335166 71.4743635,346.941166 67.2008635,349.383166 C62.9273635,351.825166 58.0487635,353.007166 53.1311635,352.788166 C36.2831635,352.752166 26.3921635,343.947166 25.3511635,325.188166 C25.1564635,310.542166 28.1048635,296.022166 33.9971635,282.612166 C38.3090635,272.721166 44.8298635,263.946166 53.0591635,256.965166 C60.9611635,250.698166 72.7811635,247.542166 82.5671635,252.141166 C85.8581635,253.791166 88.8899635,255.915166 91.5671635,258.441166 C114.850163,280.431166 139.975163,323.334166 164.647163,360.606166 L164.650163,360.600166 Z M203.263163,352.755166 L162.223163,352.755166 C145.081163,326.199166 138.166163,315.174166 126.133163,297.720166 C130.783163,297.258166 203.296163,289.599166 203.296163,289.599166 C203.296163,361.734166 203.308163,349.767166 203.260163,352.761166 L203.263163,352.755166 Z" id="Shape"></path>
                <path d="M219.052163,354.405166 C219.652163,352.167166 236.752163,287.256166 236.752163,287.205166 C237.028163,286.167166 235.630163,285.219166 234.859163,286.104166 C223.414463,299.196166 215.923763,315.270166 213.259163,332.454166 C212.131163,340.155166 212.200163,348.465166 217.159163,354.894166 C217.299563,355.032166 217.472963,355.131166 217.663163,355.182166 C217.853363,355.233166 218.053463,355.236166 218.243963,355.185166 C218.434763,355.137166 218.609363,355.038166 218.750963,354.903166 C218.892563,354.765166 218.996363,354.594166 219.052163,354.405166 Z M215.431163,333.066166 C217.713563,317.967166 223.845263,303.708166 233.236163,291.666166 C233.236163,291.666166 217.531163,351.249166 217.498163,351.366166 C214.824863,345.657166 214.098563,339.228166 215.431163,333.066166 L215.431163,333.066166 Z" id="Shape"></path>
                <path d="M103.750463,377.130166 C103.494563,377.211166 103.275263,377.379166 103.131563,377.607166 C102.987863,377.832166 102.928763,378.102166 102.964463,378.369166 C103.000463,378.636166 103.128863,378.879166 103.327463,379.062166 C103.526063,379.242166 103.782263,379.347166 104.050463,379.356166 L181.006463,380.856166 C181.227863,380.850166 181.442963,380.781166 181.625663,380.655166 C181.808363,380.529166 181.950563,380.355166 182.035463,380.148166 C182.120063,379.944166 182.143763,379.719166 182.103263,379.500166 C182.062763,379.284166 181.959863,379.083166 181.807463,378.921166 C162.730463,363.078166 126.685463,367.908166 103.750463,377.130166 Z M110.050463,377.208166 C129.850463,370.389166 160.150463,366.780166 177.511463,378.531166 L110.050463,377.208166 Z" id="Shape"></path>
                <path d="M200.647163,200.304166 C196.905263,198.478666 192.680363,197.888266 188.581163,198.618166 C187.144163,198.855166 187.753163,201.039166 189.181163,200.802166 C192.889463,200.218966 196.687163,200.808466 200.044163,202.488166 C201.406163,203.019166 201.997163,200.832166 200.647163,200.304166 Z" id="Path"></path>
                <path d="M207.394163,219.105166 C207.531563,218.853166 207.567263,218.556166 207.494363,218.277166 C207.421163,217.998166 207.245063,217.758166 207.001163,217.605166 C204.346763,216.030166 201.460163,214.884166 198.448163,214.209166 C197.026163,213.909166 196.417163,216.084166 197.848163,216.396166 C200.660363,217.047166 203.360063,218.115166 205.858163,219.561166 C205.988963,219.633166 206.132363,219.678166 206.280563,219.693166 C206.428763,219.708166 206.578463,219.696166 206.721263,219.654166 C206.864063,219.612166 206.997263,219.540166 207.112763,219.447166 C207.228263,219.351166 207.323963,219.237166 207.394163,219.105166 L207.394163,219.105166 Z" id="Path"></path>
                <path d="M142.528163,272.259166 L131.827163,272.259166 C131.537063,272.274166 131.263463,272.400166 131.063363,272.610166 C130.863263,272.823166 130.751663,273.102166 130.751663,273.393166 C130.751663,273.681166 130.863263,273.963166 131.063363,274.173166 C131.263463,274.383166 131.537063,274.509166 131.827163,274.524166 L142.528163,274.524166 C142.818563,274.509166 143.092163,274.383166 143.292263,274.173166 C143.492363,273.963166 143.603963,273.681166 143.603963,273.393166 C143.603963,273.102166 143.492363,272.823166 143.292263,272.610166 C143.092163,272.400166 142.818563,272.274166 142.528163,272.259166 L142.528163,272.259166 Z" id="Path"></path>
                <path d="M88.1531635,192.687166 C90.2804635,193.201966 92.5127635,193.072966 94.5665635,192.316666 C96.6203635,191.560066 98.4029635,190.210666 99.6881635,188.439166 C100.952363,186.854566 101.630063,184.881766 101.607263,182.854666 C101.584163,180.827866 100.861763,178.870966 99.5621635,177.315166 C98.6402635,176.278666 97.5221635,175.435066 96.2720635,174.832966 C95.0222635,174.231166 93.6653635,173.882866 92.2802635,173.808466 C90.8948635,173.734066 89.5085635,173.934766 88.2014635,174.399166 C86.8943635,174.863566 85.6919635,175.582366 84.6641635,176.514166 C83.3573635,177.606766 82.3736635,179.035666 81.8201635,180.646666 C81.2663635,182.257666 81.1637635,183.989566 81.5228635,185.654566 C81.8822635,187.319866 82.6895635,188.855266 83.8583635,190.094566 C85.0268635,191.334166 86.5121635,192.230566 88.1531635,192.687166 L88.1531635,192.687166 Z M83.6831635,182.430166 C83.9852635,181.071466 84.6269635,179.811466 85.5485635,178.768666 C86.4701635,177.725566 87.6416635,176.933566 88.9529635,176.466766 C90.2642635,176.000266 91.6724635,175.873966 93.0458635,176.099866 C94.4192635,176.325766 95.7128635,176.896966 96.8051635,177.759166 C98.0603635,178.718266 98.9219635,180.102466 99.2285635,181.651966 C99.5351635,183.201466 99.2654635,184.809466 98.4701635,186.174166 C97.6040635,187.769566 96.2663635,189.058066 94.6394635,189.863566 C93.0128635,190.669066 91.1771635,190.952266 89.3831635,190.674166 C88.4669635,190.508266 87.5924635,190.163566 86.8100635,189.658966 C86.0273635,189.154666 85.3520635,188.500966 84.8225635,187.735066 C84.2930635,186.969166 83.9198635,186.106366 83.7242635,185.196166 C83.5286635,184.285966 83.5148635,183.345766 83.6831635,182.430166 L83.6831635,182.430166 Z" id="Shape"></path>
                <path d="M84.0761635,172.584466 C87.3761635,172.407466 90.6761635,172.188466 93.9461635,171.723466 C96.5204635,171.438766 99.0386635,170.775466 101.419163,169.755466 C103.969163,168.648466 106.150763,166.837066 107.708063,164.534266 C109.265363,162.231466 110.134163,159.532366 110.212163,156.753466 C109.801163,151.122466 103.084163,149.208466 97.9781635,151.875466 C93.1520635,154.930966 89.3006635,159.302866 86.8781635,164.475466 C85.6781635,166.641466 84.3251635,168.720466 83.1071635,170.877466 C83.0093635,171.049666 82.9580635,171.244066 82.9580635,171.441766 C82.9580635,171.639466 83.0093635,171.833866 83.1071635,172.006066 C83.2046635,172.177966 83.3453635,172.321666 83.5151635,172.423066 C83.6849635,172.524466 83.8784635,172.580266 84.0761635,172.584466 L84.0761635,172.584466 Z M101.284163,153.084466 C102.183563,152.875366 103.117163,152.860966 104.022563,153.041866 C104.927963,153.223066 105.784463,153.595666 106.534163,154.134466 C108.952163,155.838466 108.034163,159.534466 106.534163,162.132466 C105.208463,164.268166 103.383263,166.049566 101.216063,167.322466 C99.0485635,168.595666 96.6041635,169.322566 94.0931635,169.440466 C91.4531635,169.788466 88.7981635,170.058466 86.1401635,170.214466 C89.9831635,163.752466 94.1231635,154.749466 101.284163,153.072466 L101.284163,153.084466 Z" id="Shape"></path>
                <path d="M41.3171635,205.461166 C40.9901635,204.732166 17.6831635,153.369466 17.3831635,152.832466 C17.8721635,151.671466 17.7221635,151.953466 17.5511635,152.307466 C18.4691635,150.333466 23.0591635,140.370466 41.3171635,100.224466 C41.9171635,98.9074661 39.9641635,97.7524661 39.3611635,99.0814661 C36.5951635,105.159466 15.9911635,149.991466 15.2411635,152.097466 C15.1214635,152.453566 15.0863635,152.833066 15.1382635,153.205366 C15.1904635,153.577666 15.3284635,153.932566 15.5411635,154.242466 C16.4141635,156.165466 39.2411635,206.316166 39.3701635,206.619166 C39.9641635,207.930166 41.9171635,206.781166 41.3171635,205.461166 Z" id="Path"></path>
                <path d="M162.139163,110.013166 L173.983163,119.169166 C174.199763,119.373766 174.486263,119.487466 174.784163,119.487466 C175.082063,119.487466 175.368563,119.373766 175.585163,119.169166 C175.797263,118.956766 175.916663,118.668766 175.916663,118.368166 C175.916663,118.067866 175.797263,117.779866 175.585163,117.567166 C175.318163,117.360166 167.617163,111.402166 164.038163,108.627166 L175.585163,99.6931661 C175.797563,99.4801661 175.916663,99.1915661 175.916663,98.8906661 C175.916663,98.5900661 175.797563,98.3014661 175.585163,98.0881661 C175.370063,97.8811661 175.082963,97.7653661 174.784163,97.7653661 C174.485663,97.7653661 174.198563,97.8811661 173.983163,98.0881661 C173.983163,98.0881661 161.827163,107.442166 161.431163,107.802166 C160.531163,108.759166 161.446163,109.479166 162.139163,110.013166 Z" id="Path"></path>
                <path d="M162.139463,80.4814661 L173.983463,89.6344661 C174.199163,89.8402661 174.485963,89.9548661 174.784463,89.9548661 C175.082663,89.9548661 175.369463,89.8402661 175.585463,89.6344661 C175.797563,89.4217661 175.916663,89.1337661 175.916663,88.8334661 C175.916663,88.5331661 175.797563,88.2448661 175.585463,88.0324661 L164.023463,79.0954661 L175.570463,70.1584661 C175.782563,69.9457661 175.901663,69.6577661 175.901663,69.3574661 C175.901663,69.0571661 175.782563,68.7688661 175.570463,68.5564661 C175.355363,68.3485661 175.068263,68.2321661 174.769463,68.2321661 C174.470363,68.2321661 174.183263,68.3485661 173.968463,68.5564661 C170.206463,71.4664661 161.812463,77.9104661 161.416463,78.2674661 C160.531463,79.2244661 161.446463,79.9324661 162.139463,80.4814661 Z" id="Path"></path>
                <path d="M162.139463,50.2714661 L173.983463,59.4244661 C174.199163,59.6302661 174.485963,59.7451661 174.784463,59.7451661 C175.082663,59.7451661 175.369463,59.6302661 175.585463,59.4244661 C175.797563,59.2117661 175.916663,58.9237661 175.916663,58.6234661 C175.916663,58.3231661 175.797563,58.0351661 175.585463,57.8224661 L164.023463,48.8854661 L175.570463,39.9484661 C175.782563,39.7357661 175.901663,39.4477661 175.901663,39.1474661 C175.901663,38.8471661 175.782563,38.5591661 175.570463,38.3464661 C175.355063,38.1391661 175.067963,38.0236661 174.769463,38.0236661 C174.470663,38.0236661 174.183563,38.1391661 173.968463,38.3464661 C170.206463,41.2564661 161.812463,47.7004661 161.416463,48.0604661 C160.531463,49.0144661 161.446463,49.7344661 162.139463,50.2714661 Z" id="Path"></path>
                <path d="M266.152463,98.0884661 C265.940063,98.3014661 265.820663,98.5900661 265.820663,98.8909661 C265.820663,99.1918661 265.940063,99.4804661 266.152463,99.6934661 L277.702463,108.627466 L266.152463,117.564466 C265.940663,117.778066 265.822163,118.066366 265.822163,118.366966 C265.822163,118.667566 265.940663,118.955866 266.152463,119.169466 C266.367863,119.375866 266.654963,119.491066 266.953463,119.491066 C267.251963,119.491066 267.538763,119.375866 267.754463,119.169466 C267.754463,119.169466 279.910463,109.815466 280.306463,109.455466 C281.206463,108.498466 280.279463,107.781466 279.583463,107.244466 L267.754463,98.0884661 C267.537863,97.8841661 267.251063,97.7701661 266.953463,97.7701661 C266.655563,97.7701661 266.369063,97.8841661 266.152463,98.0884661 L266.152463,98.0884661 Z" id="Path"></path>
                <path d="M266.236463,79.0864661 L254.683463,88.0324661 C254.471063,88.2454661 254.351963,88.5340661 254.351963,88.8349661 C254.351963,89.1358661 254.471063,89.4244661 254.683463,89.6374661 C254.898863,89.8438661 255.185963,89.9590661 255.484463,89.9590661 C255.782963,89.9590661 256.069763,89.8438661 256.285463,89.6374661 C260.047463,86.7244661 268.441463,80.2834661 268.837463,79.9234661 C269.737463,78.9664661 268.807463,78.2464661 268.114463,77.7124661 L256.285463,68.5564661 C256.068863,68.3521661 255.782363,68.2381661 255.484463,68.2381661 C255.186563,68.2381661 254.900063,68.3521661 254.683463,68.5564661 C254.577563,68.6614661 254.493563,68.7859661 254.436263,68.9236661 C254.378963,69.0610661 254.349563,69.2086661 254.349563,69.3574661 C254.349563,69.5062661 254.378963,69.6538661 254.436263,69.7912661 C254.493563,69.9289661 254.577563,70.0534661 254.683463,70.1584661 L266.236463,79.0864661 Z" id="Path"></path>
                <path d="M241.906463,48.8851661 L230.356463,57.8221661 C230.144363,58.0348661 230.025263,58.3228661 230.025263,58.6231661 C230.025263,58.9234661 230.144363,59.2117661 230.356463,59.4241661 C230.570963,59.6326661 230.858363,59.7493661 231.157463,59.7493661 C231.456563,59.7493661 231.743963,59.6326661 231.958463,59.4241661 C235.720463,56.5141661 244.114463,50.0731661 244.510463,49.7131661 C245.410463,48.7561661 244.480463,48.0361661 243.790463,47.4991661 L231.958463,38.3461661 C231.741863,38.1418661 231.455363,38.0278661 231.157463,38.0278661 C230.859563,38.0278661 230.573063,38.1418661 230.356463,38.3461661 C230.144363,38.5588661 230.025263,38.8468661 230.025263,39.1471661 C230.025263,39.4474661 230.144363,39.7357661 230.356463,39.9481661 L241.906463,48.8851661 Z" id="Path"></path>
                <path d="M569.569163,151.443466 C569.080163,150.363466 545.740163,99.0664661 545.740163,99.0664661 C545.140163,97.7404661 543.184163,98.8894661 543.784163,100.209466 C562.132163,140.622466 566.527163,150.081466 567.448163,152.376466 C567.820163,153.306466 567.622163,153.060466 567.550163,153.219466 L543.784163,205.461166 C543.184163,206.778166 545.137163,207.930166 545.740163,206.604166 C548.506163,200.526466 569.053163,155.673466 569.860163,153.588466 C569.977163,153.232066 570.010163,152.854066 569.962163,152.482366 C569.911163,152.110966 569.776163,151.755766 569.569163,151.443466 L569.569163,151.443466 Z" id="Path"></path>
                <path d="M209.140463,57.2884661 C210.919163,57.9391661 212.850863,58.0480661 214.691363,57.6010661 C216.531863,57.1543661 218.198663,56.1718661 219.480863,54.7783661 C220.763363,53.3845661 221.603663,51.6418661 221.895863,49.7704661 C222.188063,47.8993661 221.918963,45.9832661 221.122763,44.2648661 C220.326263,42.5464661 219.038363,41.1028661 217.421963,40.1161661 C215.805263,39.1294661 213.932363,38.6440661 212.039963,38.7214661 C210.147563,38.7988661 208.320563,39.4357661 206.789963,40.5511661 C205.259363,41.6665661 204.093863,43.2106661 203.440463,44.9884661 C203.006663,46.1701661 202.809863,47.4259661 202.861463,48.6838661 C202.913063,49.9417661 203.212163,51.1771661 203.741663,52.3195661 C204.270863,53.4619661 205.020263,54.4885661 205.946663,55.3411661 C206.873063,56.1937661 207.958163,56.8555661 209.140463,57.2884661 L209.140463,57.2884661 Z M209.962463,41.4064661 C211.067963,41.0110661 212.252663,40.8871661 213.416063,41.0455661 C214.579463,41.2039661 215.687663,41.6395661 216.647363,42.3160661 C217.607063,42.9925661 218.390063,43.8898661 218.930363,44.9326661 C219.470663,45.9751661 219.752063,47.1322661 219.751464,48.3064661 C219.741263,49.8136661 219.271463,51.2815661 218.404463,52.5145661 C217.537763,53.7475661 216.315263,54.6868661 214.900463,55.2064661 C213.074663,55.8538661 211.066463,55.7512661 209.316263,54.9208661 C207.565763,54.0904661 206.216063,52.6000661 205.562663,50.7763661 C204.909263,48.9526661 205.005263,46.9441661 205.829963,45.1912661 C206.654663,43.4383661 208.140863,42.0835661 209.962463,41.4244661 L209.962463,41.4064661 Z" id="Shape"></path>
                <path d="M120.883163,22.5514661 C120.247163,23.8594661 122.203163,25.0084661 122.839163,23.6974661 C125.806163,17.5885661 130.486463,12.4747661 136.309163,8.97946614 C136.563263,8.81896614 136.743263,8.56426614 136.809563,8.27116614 C136.875863,7.97806614 136.823363,7.67056614 136.663163,7.41646614 C136.511963,7.17046614 136.271363,6.99226614 135.992063,6.91906614 C135.712763,6.84586614 135.415763,6.88336614 135.163163,7.02346614 C128.950463,10.6459661 123.973763,16.0576661 120.883163,22.5514661 L120.883163,22.5514661 Z" id="Path"></path>
                <path d="M116.404463,20.4904661 C120.020063,12.3937661 126.416363,5.86036614 134.434463,2.07346614 C135.757463,1.47346614 134.605463,-0.497533857 133.291463,0.117466143 C124.907663,4.05406614 118.218863,10.8739661 114.445463,19.3324661 C113.860463,20.6674661 115.813463,21.8224661 116.404463,20.4904661 Z" id="Path"></path>
                <path d="M14.0561635,268.713166 C13.7768935,268.647166 13.4825935,268.689166 13.2329935,268.830166 C12.9833935,268.971166 12.7972135,269.205166 12.7121635,269.478166 C8.91146349,282.597166 7.56689349,296.304166 8.74616349,309.912166 C8.87216349,311.352166 11.1461635,311.367166 11.0111635,309.912166 C9.87800349,296.508166 11.1996235,283.011166 14.9111635,270.081166 C14.9466235,269.934166 14.9525335,269.784166 14.9285635,269.634166 C14.9045935,269.487166 14.8511935,269.346166 14.7715435,269.217166 C14.6918935,269.091166 14.5875835,268.980166 14.4647335,268.893166 C14.3418835,268.806166 14.2029835,268.746166 14.0561635,268.713166 L14.0561635,268.713166 Z" id="Path"></path>
                <path d="M5.47328349,268.947166 C-0.226716514,283.188166 -0.709716514,295.410166 0.610283486,309.912166 C0.739283486,311.352166 3.01028349,311.364166 2.87528349,309.912166 C1.52528349,295.047166 2.23028349,283.383166 7.65728349,269.550166 C8.19128349,268.191166 6.00128349,267.603166 5.47328349,268.947166 Z" id="Path"></path>
                <path d="M290.338163,232.350166 C290.347163,232.638166 290.467163,232.908166 290.668163,233.112166 C290.872163,233.313166 291.145163,233.433166 291.430163,233.442166 L319.102163,233.442166 C319.393163,233.427166 319.666163,233.301166 319.867163,233.091166 C320.065163,232.881166 320.179163,232.602166 320.179163,232.311166 C320.179163,232.020166 320.065163,231.741166 319.867163,231.528166 C319.666163,231.318166 319.393163,231.192166 319.102163,231.177166 L291.430163,231.177166 C291.280163,231.183166 291.136163,231.216166 290.998163,231.279166 C290.863163,231.339166 290.740163,231.426166 290.641163,231.537166 C290.539163,231.645166 290.458163,231.774166 290.407163,231.912166 C290.356163,232.053166 290.332163,232.200166 290.338163,232.350166 L290.338163,232.350166 Z" id="Path"></path>
                <path d="M292.123163,227.289166 L309.547163,213.645166 C310.696163,212.745166 309.082163,211.152166 307.945163,212.043166 L290.521163,225.684166 C289.372163,226.584166 290.983163,228.177166 292.123163,227.289166 Z" id="Path"></path>
                <path d="M292.231163,238.704166 C291.097163,237.804166 289.480163,239.409166 290.629163,240.306166 L306.181163,252.471166 C307.318163,253.371166 308.932163,251.766166 307.783163,250.866166 C296.791163,242.268166 295.753163,241.455166 292.231163,238.704166 Z" id="Path"></path>
            </g>
        </g>
    </g>
</svg>