<?xml version="1.0" encoding="UTF-8"?>
<svg width="600px" height="600px" viewBox="0 0 600 600" version="1.1" xmlns="http://www.w3.org/2000/svg" xmlns:xlink="http://www.w3.org/1999/xlink">
    <title>05</title>
    <g id="05" stroke="none" stroke-width="1" fill="none" fill-rule="evenodd">
        <g id="streamlinehq-successful-business-business-600" transform="translate(15.000000, 82.000000)" fill="#303030" fill-rule="nonzero">
            <path d="M53.5009456,302.0343 C53.2912456,301.9803 53.0704456,301.9983 52.8706456,302.0793 C52.6711456,302.1633 52.5028456,302.3073 52.3909456,302.4933 C50.8909456,304.9533 6.19094557,375.9693 6.16994557,376.0113 C6.06029557,376.2123 6.01862557,376.4433 6.05117557,376.6683 C6.08372557,376.8963 6.18878557,377.1063 6.35057557,377.2653 C6.51236557,377.4273 6.72221557,377.5323 6.94871557,377.5653 C7.17518557,377.5983 7.40612557,377.5563 7.60694557,377.4483 C20.5612456,369.4893 31.5115456,358.6563 39.6115456,345.7893 C47.7115456,332.9223 52.7440456,318.3633 54.3199456,303.2433 C54.3616799,303.1083 54.3721456,302.9673 54.3514456,302.8293 C54.3307456,302.6883 54.2791456,302.5563 54.2005456,302.4423 C54.1219456,302.3253 54.0181456,302.2293 53.8972456,302.1573 C53.7760456,302.0883 53.6407456,302.0433 53.5009456,302.0343 L53.5009456,302.0343 Z" id="Path"></path>
            <path d="M332.437946,188.4705 C333.787946,188.5755 333.778946,186.4755 332.437946,186.3705 L325.519946,185.8425 C324.172946,185.7375 324.181946,187.8375 325.519946,187.9425 L332.437946,188.4705 Z" id="Path"></path>
            <path d="M298.012946,180.1389 L315.622946,181.6809 C316.966946,181.7979 316.960946,179.6979 315.622946,179.5809 L298.012946,178.0389 C296.668946,177.9219 296.674946,180.0219 298.012946,180.1389 Z" id="Path"></path>
            <path d="M393.634946,163.8543 C392.296946,163.6953 392.308946,165.7983 393.634946,165.9543 L421.558946,169.2693 C422.899946,169.4283 422.887946,167.3283 421.558946,167.1693 L393.634946,163.8543 Z" id="Path"></path>
            <path d="M429.301946,156.3828 C420.400946,144.693 411.502946,133.0008 402.601946,121.3068 C401.794946,120.2448 399.970946,121.2918 400.801946,122.3658 C409.702946,134.0598 418.603946,145.752 427.501946,157.4418 C428.296946,158.5038 430.120946,157.4598 429.301946,156.3828 Z" id="Path"></path>
            <path d="M441.349946,148.5927 C441.541946,141.5997 441.820946,125.6577 441.838946,124.6827 C441.838946,124.4043 441.727946,124.1373 441.529946,123.9402 C441.334946,123.7434 441.067946,123.6327 440.788946,123.6327 C440.509946,123.6327 440.242946,123.7434 440.047946,123.9402 C439.849946,124.1373 439.738946,124.4043 439.738946,124.6827 C439.543946,131.6787 439.267946,147.6177 439.249946,148.5927 C439.249946,148.8711 439.360946,149.1384 439.558946,149.3352 C439.753946,149.532 440.020946,149.6427 440.299946,149.6427 C440.578946,149.6427 440.845946,149.532 441.043946,149.3352 C441.238946,149.1384 441.349946,148.8711 441.349946,148.5927 L441.349946,148.5927 Z" id="Path"></path>
            <path d="M299.254946,172.9143 L316.864946,174.4563 C318.208946,174.5733 318.202946,172.4733 316.864946,172.3563 L299.254946,170.8173 C297.901946,170.6973 297.916946,172.7973 299.254946,172.9143 Z" id="Path"></path>
            <g id="Group">
                <path d="M307.390946,245.6373 C306.829946,237.3783 304.009946,229.4343 299.233946,222.6723 C291.607946,213.0987 279.181946,209.1987 267.367946,208.5297 C260.340746,208.2861 253.305746,208.602 246.328946,209.4747 C225.118946,211.6527 201.556946,215.4357 200.890946,215.7177 C197.089946,216.0477 161.656946,223.1373 153.790946,225.6183 C144.203246,228.6243 135.624746,234.2043 128.989646,241.7493 C122.354546,249.2943 117.917546,258.5163 116.161946,268.4103 C113.986646,279.7863 112.498946,291.2853 111.706946,302.8413 C95.0545456,298.1673 78.0322456,294.9273 60.8269456,293.1573 C60.5044456,293.1633 60.1975456,293.2953 59.9698456,293.5233 C59.7418456,293.7513 59.6104456,294.0573 59.6029456,294.3813 C58.2697456,319.4613 58.1938456,344.5923 59.3749456,369.6813 C59.3803456,370.0023 59.5108456,370.3113 59.7391456,370.5393 C59.9677456,370.7673 60.2758456,370.8993 60.5989456,370.9053 C73.8139456,370.9893 152.473946,370.3683 158.761946,370.2543 C163.501946,370.2933 168.188546,369.2493 172.465946,367.2063 C174.453446,366.1593 176.149346,364.6353 177.400946,362.7693 C177.839246,362.0253 178.184846,361.2303 178.429946,360.4053 C182.558546,345.5703 185.642846,330.4623 187.660946,315.1983 C210.160946,313.3083 257.038946,308.0403 258.430946,307.9533 C259.139546,308.8023 259.910846,309.5943 260.737946,310.3293 C258.817946,323.7063 257.326946,337.1463 255.370946,350.5293 C254.967746,352.2663 254.766446,354.0453 254.770946,355.8303 C254.806646,356.9553 255.196346,358.0383 255.884246,358.9293 C256.571846,359.8203 257.522846,360.4713 258.601946,360.7893 C261.043946,361.5693 305.971946,370.0143 308.509946,370.4643 C310.657946,371.0433 312.937946,370.8963 314.995946,370.0503 C315.886946,369.4773 316.618946,368.6853 317.113946,367.7493 C317.611946,366.8133 317.860946,365.7663 317.836946,364.7073 C317.809946,363.6483 317.512946,362.6133 316.972946,361.7013 C316.432946,360.7893 315.667946,360.0303 314.749946,359.5023 L333.973946,359.6793 C335.119946,359.8773 336.289946,359.8473 337.423946,359.5893 C338.557946,359.3313 339.625946,358.8513 340.573946,358.1793 C340.981946,357.6723 341.278946,357.0843 341.440946,356.4543 C341.602946,355.8273 341.626946,355.1673 341.512946,354.5283 C341.398946,353.8893 341.149946,353.2803 340.780946,352.7433 C340.411946,352.2093 339.931946,351.7593 339.373946,351.4263 C337.471946,350.4063 335.353946,349.8483 333.196946,349.7973 L322.996946,348.5973 C328.744946,348.0993 331.318946,348.3543 333.100946,346.0053 C333.460946,345.4083 333.610946,344.7063 333.526946,344.0133 C333.439946,343.3233 333.121946,342.6783 332.626946,342.1893 C331.498946,341.2293 330.085946,340.6683 328.606946,340.5933 C323.350946,340.0113 318.055946,339.8943 312.781946,340.2453 C313.288946,339.8943 313.672946,339.3963 313.879946,338.8173 C314.089946,338.2383 314.113946,337.6083 313.948946,337.0173 C313.090946,333.5433 308.995946,334.8783 306.526946,335.2503 C303.580946,335.6883 300.613946,336.1863 297.637946,336.4293 C298.369946,331.3533 299.101946,326.2833 299.830946,321.2133 C318.130946,323.2443 336.628946,322.6923 354.775946,319.5693 C355.870946,319.3833 362.716946,318.1803 364.357946,317.7033 C368.485946,316.5033 373.279946,313.6353 374.494946,309.2163 C375.709946,304.7973 372.238946,300.6183 368.494946,298.7163 C371.728946,297.9393 374.605946,296.0913 376.657946,293.4723 C379.933946,288.7023 377.317946,281.3163 368.671946,278.7903 C374.143946,275.9703 377.782946,270.5253 375.457946,264.7983 C372.997946,259.2873 366.013946,258.1473 360.736946,257.2983 C357.151946,256.7343 353.536946,256.1793 349.936946,255.9153 C350.029946,251.8443 349.816946,247.7733 349.303946,243.7353 C349.120946,240.3633 348.088946,237.0903 346.303946,234.2253 C345.361946,232.9143 343.978946,231.9933 342.409946,231.6273 C340.840946,231.2583 339.190946,231.4743 337.768946,232.2333 C336.175946,233.2803 334.864946,234.7023 333.952946,236.3763 C333.040946,238.0533 332.557946,239.9253 332.542946,241.8333 C332.074946,246.4413 332.167946,251.0883 332.827946,255.6723 C324.253946,259.1613 315.778946,262.8723 307.534946,267.0723 C308.248946,259.9413 308.200946,252.7563 307.390946,245.6373 Z M199.897946,308.8533 C199.897946,309.7533 199.855946,310.7163 199.870946,311.6523 C195.451946,312.0663 191.035946,312.5793 186.604946,312.8523 C186.284846,312.8673 185.981846,312.9993 185.755646,313.2273 C185.529146,313.4523 185.395346,313.7553 185.380946,314.0763 C183.919946,325.0383 181.909946,335.9403 179.473946,346.7283 C178.468646,351.7233 177.096146,356.6343 175.366946,361.4283 C172.267946,366.0453 166.315946,367.2693 160.774946,367.6863 C151.795946,368.3613 62.1319456,368.4633 61.7989456,368.460363 C60.6064456,344.2233 60.6655456,319.9413 61.9759456,295.7103 C79.0702456,297.5343 95.9749456,300.8343 112.501946,305.5683 C112.683446,305.6133 112.873646,305.6193 113.057546,305.5833 C113.241446,305.5443 113.414546,305.4663 113.563946,305.3523 C113.713046,305.2383 113.834546,305.0913 113.919446,304.9263 C114.004046,304.7583 114.049646,304.5723 114.052946,304.3863 C114.618146,293.8773 115.865546,283.4193 117.787946,273.0753 C118.474346,268.6623 119.527946,264.3123 120.937946,260.0763 C123.559346,252.8703 127.729046,246.3243 133.153346,240.9033 C138.577646,235.4853 145.124546,231.3183 152.332946,228.7023 C162.808946,225.2613 188.905946,220.2693 199.909946,218.3643 L199.897946,308.8533 Z M202.543946,217.9083 C216.049946,215.6175 229.616846,213.7347 243.244946,212.2587 C256.165946,210.8697 269.779946,209.3577 282.280946,213.8727 C288.232946,215.9118 293.500946,219.5613 297.502946,224.4153 C305.527946,234.6783 306.433946,253.9893 305.140946,266.9013 C305.095946,267.4053 305.017946,267.9033 304.966946,268.4013 C298.822946,271.6053 292.846946,275.1273 287.062946,278.9493 C285.781946,270.9363 284.103146,262.9923 282.028946,255.1503 C285.061946,251.6103 286.777946,247.1313 286.876946,242.4693 C286.975946,237.8103 285.454946,233.2593 282.574946,229.5963 C278.532446,223.9263 272.765546,219.7173 266.134946,217.5957 C259.386746,215.6814 252.333446,215.0847 245.359946,215.8377 C226.591946,217.6377 216.235946,221.7573 202.519946,223.8003 C202.519946,218.2023 202.567946,218.9883 202.543946,217.9083 L202.543946,217.9083 Z M202.519946,226.2393 C224.530946,223.0263 259.747946,208.6767 278.053946,227.8473 C281.210246,231.0933 283.368746,235.1763 284.272946,239.6133 C284.818646,244.0083 283.738946,248.4513 281.236946,252.1083 C279.090746,244.2543 276.590846,236.5083 273.736946,228.8703 C273.187946,227.4093 270.820946,228.0423 271.375946,229.5213 C275.161346,239.6433 278.327246,249.9873 280.855946,260.4933 C272.701946,264.9933 275.656946,263.2113 248.917946,277.1613 C247.210946,270.2613 238.264946,234.2043 237.943946,232.9023 C237.857546,232.5873 237.650246,232.3233 237.367946,232.1613 C237.085346,232.0023 236.750846,231.9603 236.437946,232.0473 C236.124746,232.1343 235.858646,232.3413 235.698446,232.6233 C235.537946,232.9053 235.496546,233.2383 235.582946,233.5533 C236.506946,237.2853 245.023946,271.6263 245.536946,273.6963 C231.745046,279.2403 217.279046,282.9303 202.516946,284.6703 L202.519946,226.2393 Z M202.519946,311.4063 L202.519946,287.1243 C217.492646,285.4503 232.165946,281.7363 246.130946,276.0813 L246.904946,279.2103 L246.922946,279.2463 L246.922946,279.2973 C249.154946,288.2973 251.236946,297.9963 256.681946,305.6973 C229.867946,308.6163 203.581946,311.3043 202.519946,311.4063 L202.519946,311.4063 Z M308.719946,337.3743 C309.463946,337.1823 310.225946,337.0803 310.993946,337.0743 C311.101946,337.0803 311.203946,337.1133 311.296946,337.1703 C311.386946,337.2243 311.461946,337.3053 311.515946,337.3983 C312.049946,338.2083 311.089946,338.5143 310.387946,338.7513 L302.374946,341.4513 C302.062946,341.5383 301.795946,341.7453 301.633946,342.0273 C301.474946,342.3093 301.432946,342.6423 301.519946,342.9573 C301.606946,343.2693 301.813946,343.5363 302.095946,343.6953 C302.377946,343.8573 302.713946,343.8993 303.025946,343.8123 C310.099946,342.6213 317.287946,342.2433 324.448946,342.6843 C325.279946,342.7353 331.585946,342.6843 331.123946,344.5413 C330.922946,345.3513 329.356946,345.5613 328.702946,345.6423 C327.202946,345.8313 329.332946,345.5853 311.125946,347.1873 C310.801946,347.1873 310.489946,347.3163 310.258946,347.5443 C310.030946,347.7753 309.901946,348.0873 309.901946,348.4113 C309.901946,348.7353 310.030946,349.0473 310.258946,349.2753 C310.489946,349.5063 310.801946,349.6353 311.125946,349.6353 L332.038946,352.1043 C334.168946,352.1043 336.268946,352.5963 338.179946,353.5413 C339.316946,354.2763 340.552946,357.0273 336.340946,357.2223 C335.704946,357.2523 306.127946,356.9673 305.827946,356.9643 C304.225946,356.9643 304.285946,359.2683 305.827946,359.4123 C309.208946,359.7273 314.581946,360.3363 315.379946,364.5123 C315.466946,364.9263 315.469946,365.3553 315.388946,365.7723 C315.304946,366.1893 315.139946,366.5853 314.896946,366.9363 C314.656946,367.2873 314.347946,367.5843 313.987946,367.8123 C313.630946,368.0403 313.228946,368.1903 312.808946,368.2593 C310.858946,368.4393 308.893946,368.2503 307.015946,367.6983 C256.276946,358.1193 259.432946,358.7823 258.115946,357.7623 C257.776646,357.3993 257.523746,356.9643 257.375846,356.4903 C257.227646,356.0163 257.188346,355.5153 257.260946,355.0263 C257.383946,353.4903 257.620946,351.9633 257.860946,350.4423 C259.060946,343.2813 262.186946,317.7063 262.960946,312.1383 C270.736946,317.7693 281.086946,318.8643 290.470946,320.1183 C292.789946,320.4183 295.114946,320.7033 297.439946,320.9583 C296.800946,325.3983 295.219946,336.3933 295.066946,337.4583 C294.988946,337.7763 295.039946,338.1123 295.207946,338.3943 C295.375946,338.6733 295.648946,338.8773 295.966946,338.9583 C300.235946,338.6463 304.486946,338.1183 308.701946,337.3743 L308.719946,337.3743 Z M334.519946,257.6283 C334.822946,257.5293 335.080946,257.3223 335.236946,257.0433 C335.395946,256.7673 335.443946,256.4403 335.374946,256.1283 C334.798946,252.2433 334.621946,248.3103 334.840946,244.3923 C335.017946,241.1673 335.320946,237.2673 338.005946,235.0563 C338.461946,234.6303 339.004946,234.3093 339.595946,234.1173 C340.189946,233.9223 340.816946,233.8593 341.434946,233.9343 C342.052946,234.0093 342.649946,234.2163 343.177946,234.5433 C343.708946,234.8733 344.161946,235.3113 344.503946,235.8333 C345.976946,238.2783 346.804946,241.0593 346.903946,243.9153 C347.458946,248.2713 347.659946,252.6663 347.503946,257.0583 C347.512946,257.3793 347.644946,257.6883 347.872946,257.9163 C348.100946,258.1413 348.406946,258.2733 348.730946,258.2823 C354.709946,258.7173 360.646946,259.6113 366.490946,260.9583 C368.812946,261.5193 370.915946,262.7643 372.520946,264.5373 C373.306946,265.6173 373.744946,266.9073 373.780946,268.2423 C373.813946,269.5773 373.444946,270.8913 372.718946,272.0103 C370.687946,274.8903 367.789946,277.0443 364.444946,278.1573 C364.213946,278.2923 364.030946,278.5023 363.931946,278.7483 C363.829946,278.9973 363.811946,279.2733 363.880946,279.5343 C363.952946,279.7923 364.105946,280.0203 364.318946,280.1853 C364.531946,280.3473 364.792946,280.4373 365.062946,280.4373 C367.738946,280.7583 370.294946,281.7423 372.496946,283.2993 C373.273946,283.7763 373.942946,284.4153 374.452946,285.1713 C374.965946,285.9273 375.310946,286.7853 375.466946,287.6823 C375.622946,288.5823 375.583946,289.5063 375.355946,290.3913 C375.127946,291.2733 374.713946,292.0983 374.143946,292.8123 C371.296946,295.2633 367.813946,296.8563 364.099946,297.4083 C363.847946,297.4863 363.628946,297.6423 363.469946,297.8553 C363.313946,298.0683 363.229946,298.3233 363.229946,298.5873 C363.229946,298.8513 363.313946,299.1093 363.469946,299.3223 C363.628946,299.5323 363.847946,299.6913 364.099946,299.7693 C368.035946,300.4443 372.358946,303.5493 372.316946,307.8273 C371.905946,311.7483 367.336946,314.2293 364.030946,315.2493 C362.515946,315.6783 360.973946,316.0113 359.416946,316.2483 C349.288946,318.2463 339.016946,319.4433 328.699946,319.8333 C311.260946,320.2623 293.827946,318.7743 276.715946,315.3933 C271.464146,314.4663 266.558546,312.1443 262.513946,308.6703 C254.542946,301.6713 252.127946,290.1213 249.541946,279.6153 C254.941946,276.8043 260.296946,273.8973 265.741946,271.1673 C271.018946,268.5213 276.259946,265.8063 281.437946,262.9743 C282.832946,269.0463 284.041946,275.1603 285.010946,281.3163 C285.061946,281.4963 285.151946,281.6613 285.277946,281.8023 C285.403946,281.9433 285.556946,282.0513 285.730946,282.1233 C285.904946,282.1923 286.093946,282.2223 286.279946,282.2103 C286.465946,282.1983 286.648946,282.1413 286.810946,282.0483 C301.798946,272.2443 317.785946,264.0603 334.501946,257.6373 L334.519946,257.6283 Z" id="Shape"></path>
                <path d="M164.419646,351.6213 L157.966646,356.2323 C156.694646,357.1323 157.915646,359.2653 159.202646,358.3473 L165.655646,353.7363 C166.927646,352.8273 165.706646,350.7033 164.419646,351.6213 Z" id="Path"></path>
                <path d="M347.554946,281.5923 L352.213946,280.9923 C352.534946,280.9833 352.840946,280.8513 353.068946,280.6233 C353.296946,280.3953 353.428946,280.0893 353.437946,279.7683 C353.437946,279.6063 353.407946,279.4473 353.344946,279.2973 C353.284946,279.1503 353.194946,279.0153 353.080946,278.9013 C352.966946,278.7873 352.831946,278.6973 352.681946,278.6343 C352.534946,278.5743 352.375946,278.5413 352.213946,278.5443 L347.554946,279.1443 C347.233946,279.1533 346.927946,279.2853 346.699946,279.5133 C346.471946,279.7383 346.339946,280.0443 346.330946,280.3683 C346.330946,280.6923 346.459946,281.0043 346.687946,281.2323 C346.918946,281.4633 347.230946,281.5923 347.554946,281.5923 L347.554946,281.5923 Z" id="Path"></path>
                <path d="M347.284946,300.7083 L351.361946,300.1083 C351.673946,300.0213 351.937946,299.8143 352.096946,299.5323 C352.258946,299.2533 352.300946,298.9203 352.219946,298.6083 C352.126946,298.2993 351.919946,298.0413 351.640946,297.8793 C351.361946,297.7203 351.031946,297.6753 350.719946,297.7503 L346.639946,298.3503 C346.327946,298.4373 346.063946,298.6443 345.904946,298.9263 C345.745946,299.2053 345.700946,299.5383 345.784946,299.8503 C345.877946,300.1593 346.084946,300.4203 346.363946,300.5793 C346.642946,300.7383 346.972946,300.7863 347.284946,300.7083 L347.284946,300.7083 Z" id="Path"></path>
                <path d="M269.116946,303.4173 C268.883846,303.1953 268.573646,303.0693 268.251446,303.0693 C267.929246,303.0693 267.619346,303.1953 267.385946,303.4173 C267.156146,303.6483 267.027146,303.9573 267.027146,304.2843 C267.027146,304.6083 267.156146,304.9203 267.385946,305.1513 L270.301946,307.4823 C270.535646,307.7043 270.845246,307.8273 271.167446,307.8273 C271.489646,307.8273 271.799246,307.7043 272.032946,307.4823 C272.146646,307.3683 272.236646,307.2333 272.298146,307.0833 C272.359946,306.9363 272.391446,306.7773 272.391446,306.6153 C272.391446,306.4563 272.359946,306.2973 272.298146,306.1473 C272.236646,306.0003 272.146646,305.8653 272.032946,305.7513 L269.116946,303.4173 Z" id="Path"></path>
                <path d="M53.4439456,301.8663 L53.3839456,301.8663 C53.1601456,301.8333 52.9321456,301.8693 52.7287456,301.9683 C52.5253456,302.0673 52.3555456,302.2233 52.2409456,302.4183 L6.01985557,375.9333 C5.89277557,376.1673 5.84471557,376.4343 5.88281557,376.6983 C5.92094557,376.9623 6.04319557,377.2053 6.23135557,377.3943 C6.41951557,377.5833 6.66353557,377.7063 6.92705557,377.7453 C7.19060557,377.7843 7.45955557,377.7363 7.69385557,377.6103 C20.6704456,369.6393 31.6402456,358.7883 39.7552456,345.9033 C47.8702456,333.0153 52.9129456,318.4353 54.4939456,303.2883 C54.5412797,303.1323 54.5533456,302.9673 54.5290456,302.8053 C54.5044456,302.6433 54.4441456,302.4903 54.3523456,302.3553 C54.2605456,302.2203 54.1396456,302.1063 53.9983456,302.0253 C53.8573456,301.9443 53.6995456,301.8933 53.5369456,301.8813 C53.5063456,301.8723 53.4751456,301.8663 53.4439456,301.8663 Z M11.0748556,372.4893 C11.6298556,371.6103 50.4589456,309.9153 51.3499456,308.5353 C49.2562456,321.3453 44.6128456,333.6093 37.6948456,344.5923 C30.7768456,355.5783 21.7249456,365.0643 11.0748556,372.4893 L11.0748556,372.4893 Z" id="Shape"></path>
                <path d="M316.627946,163.0947 C308.770946,159.1347 298.741946,163.1487 294.031946,170.0637 C291.430946,174.3483 289.627946,179.067 288.703946,183.9927 C288.661946,184.1739 288.661946,184.362 288.700946,184.5435 C288.739946,184.7253 288.817946,184.896 288.931946,185.0439 C289.042946,185.1921 289.186946,185.3133 289.351946,185.3997 C289.516946,185.4861 289.696946,185.5353 289.882946,185.5437 L294.427946,185.9277 C293.914946,187.6482 293.791946,189.4605 294.061946,191.2347 C294.604946,193.95 296.185946,196.3464 298.468946,197.9145 C300.751946,199.4826 303.556946,200.0994 306.286946,199.6335 C309.013946,199.1676 311.455946,197.6559 313.087946,195.4194 C314.722946,193.1829 315.418946,190.3977 315.031946,187.6557 L320.587946,188.1207 C320.854946,188.1201 321.115946,188.0319 321.328946,187.8693 C321.541946,187.707 321.697946,187.479 321.769946,187.2207 C323.272946,182.7954 323.920946,178.1241 323.674946,173.4567 C323.413946,171.2922 322.636946,169.2216 321.409946,167.4189 C320.185946,165.6159 318.544946,164.1333 316.627946,163.0947 L316.627946,163.0947 Z M312.337946,191.5947 C311.803946,193.2198 310.780946,194.64 309.409946,195.66 C308.035946,196.68 306.382946,197.2503 304.672946,197.292 C302.962946,197.3337 301.282946,196.845 299.860946,195.8931 C298.441946,194.9412 297.349946,193.5729 296.737946,191.9757 C296.161946,190.0668 296.212946,188.0235 296.887946,186.1467 L312.487946,187.4577 C312.814946,188.8197 312.760946,190.245 312.337946,191.5797 L312.337946,191.5947 Z M319.657946,185.5947 L291.421946,183.2247 C292.174946,179.763 293.362946,176.4111 294.961946,173.2497 C296.677946,169.8357 299.521946,167.1189 303.010946,165.5574 C306.496946,163.9959 310.417946,163.6857 314.107946,164.6787 C315.883946,165.3243 317.458946,166.4196 318.682946,167.8572 C319.909946,169.2948 320.740946,171.0258 321.094946,172.8807 C321.610946,177.1728 321.118946,181.5264 319.657946,185.5947 L319.657946,185.5947 Z" id="Shape"></path>
                <path d="M332.437946,188.6493 C334.009946,188.7693 334.003946,186.3183 332.437946,186.1983 L325.537946,185.6703 C323.965946,185.5503 323.971946,188.0013 325.537946,188.1183 L332.437946,188.6493 Z" id="Path"></path>
                <path d="M315.622946,179.4117 L298.012946,177.8697 C296.443946,177.7347 296.452946,180.1827 298.012946,180.3177 L315.622946,181.8597 C317.191946,181.9977 317.182946,179.5467 315.622946,179.4117 Z" id="Path"></path>
                <path d="M0.000857400667,383.0373 C0.0130155707,383.3463 0.141145571,383.6403 0.360415571,383.8593 C0.579715571,384.0783 0.873925571,384.2073 1.18385557,384.2193 L378.865946,384.2193 C395.977946,384.4953 412.999946,381.6753 429.106946,375.8913 C436.168946,373.1403 442.789946,369.3693 448.753946,364.6953 C450.610946,363.9843 452.467946,363.2763 454.318946,362.5473 C454.561946,362.4753 454.786946,362.3493 454.975946,362.1813 C455.164946,362.0103 455.311946,361.8003 455.407946,361.5663 C455.578946,361.1523 457.225946,357.1233 457.225946,357.1233 C467.854946,346.7583 478.489946,335.9253 481.753946,322.6923 C483.817946,313.3743 484.981946,303.8823 485.224946,294.3453 L513.145946,290.9223 C513.745946,290.8473 514.432946,290.4213 514.373979,289.6983 C512.383946,267.3393 512.797946,269.0313 512.395946,268.5093 C511.798946,267.9333 511.129946,267.4443 510.403946,267.0483 C506.251946,264.1203 495.679946,256.1403 493.957946,254.8203 C493.798946,254.7303 493.624946,254.6793 493.441946,254.6643 C493.261946,254.6493 493.078946,254.6733 492.910946,254.7363 C492.739946,254.7963 492.583946,254.8953 492.454946,255.0213 C492.322946,255.1473 492.223946,255.3003 492.157946,255.4713 C489.889946,258.9603 487.543946,262.5453 485.278946,266.0343 L485.278946,235.2663 C494.911946,237.8733 502.819946,240.1233 503.380946,240.1563 C503.347946,240.1563 503.314946,240.1293 503.281946,240.1173 C503.464946,240.1743 503.656946,240.1923 503.845946,240.1623 C504.034946,240.1323 504.214946,240.0603 504.370946,239.9463 C504.526946,239.8353 504.652946,239.6883 504.742946,239.5203 C504.829946,239.3493 504.877946,239.1603 504.880946,238.9713 C504.880946,238.9713 512.044946,153.5481 512.050946,153.4971 C512.047946,153.1731 511.918946,152.8632 511.690946,152.6343 C511.459946,152.4051 511.150946,152.2755 510.826946,152.2731 L485.260946,153.5751 C484.906946,140.6346 480.748946,128.0853 473.299946,117.4971 C459.547946,99.2409 439.378946,86.8851 416.866946,82.9251 C410.122946,82.0203 403.321946,81.5973 396.517946,81.6591 C379.207946,81.1671 7.27385557,81.9591 7.04885557,81.9591 C6.88781557,81.9645 6.72944557,82.0017 6.58280557,82.0683 C6.43616557,82.1352 6.30416557,82.2303 6.19433557,82.3482 C6.08450557,82.4661 5.99906557,82.6044 5.94287557,82.7553 C5.88665557,82.9065 5.86082557,83.067 5.86685557,83.2281 C5.87150557,83.5401 5.99750557,83.838 6.21818557,84.0588 C6.43886557,84.2793 6.73679557,84.4053 7.04885557,84.4101 C10.5468556,84.4431 395.905946,84.0771 403.765946,84.3231 C410.803946,84.4194 417.805946,85.3428 424.627946,87.0741 C454.669946,95.5461 482.275946,120.8961 482.812946,153.6981 L473.695946,154.1631 C473.059946,154.0611 475.840946,152.8971 432.655946,181.1631 C432.301946,181.3635 431.995946,181.6365 431.755946,181.9641 C431.572946,182.2851 417.010946,214.7811 416.857946,215.1171 C416.767946,215.28 416.713946,215.4612 416.704946,215.6472 C416.692946,215.8332 416.722946,216.0195 416.791946,216.192 C416.863946,216.3648 416.971946,216.5196 417.109946,216.645 C417.247946,216.7704 417.409946,216.8634 417.589946,216.9171 L482.833946,234.5853 L482.833946,269.7963 C471.925946,286.5963 468.067946,292.2303 466.954946,294.3963 C466.165946,295.9233 467.095946,296.5443 467.761946,296.4753 C472.774946,295.9533 477.766946,295.2513 482.761946,294.6393 C482.533946,303.2943 481.531946,311.9133 479.761946,320.3913 C478.933946,324.3813 477.505946,328.2243 475.528946,331.7913 C471.055946,338.9343 465.700946,345.4833 459.589946,351.2913 C461.560946,346.4733 462.484946,344.3223 462.889946,343.2723 C463.525946,341.6343 463.048946,341.4513 461.830946,341.0133 C458.803946,339.9273 448.474946,337.1823 412.672946,326.9793 C412.444946,326.9223 412.207946,326.9313 411.985946,327.0033 C411.763946,327.0753 411.565946,327.2073 411.412946,327.3843 C411.262946,327.5613 411.163946,327.7773 411.127946,328.0083 C411.091946,328.2393 411.121946,328.4763 411.211946,328.6923 C412.054946,332.3733 420.763946,369.8883 421.672946,373.6923 C421.906946,374.6853 422.665946,374.6583 423.436946,374.4183 C424.936946,373.9563 428.611946,372.4533 438.478946,368.6493 C422.806946,377.8353 398.977946,381.7203 380.662946,381.7713 C374.986946,381.7713 1.41185557,381.7713 1.16285557,381.7713 C0.841315571,381.7863 0.538705571,381.9273 0.321175571,382.1643 C0.103615571,382.4013 -0.0111644293,382.7133 0.000857400667,383.0373 L0.000857400667,383.0373 Z M509.497946,154.7901 L503.446946,226.9473 C502.927946,222.6303 496.507946,168.9501 496.171946,166.2261 L507.361946,158.7261 C508.666946,157.8531 507.439946,155.7261 506.125946,156.6261 L495.043946,164.0361 L478.543946,156.3651 L509.497946,154.7901 Z M502.156946,236.6373 C485.788946,226.7373 457.897946,211.9131 440.896946,203.1921 L493.906946,167.7321 C494.101946,169.3731 501.901946,234.3843 502.156946,236.6373 Z M473.656946,156.7851 L492.664946,165.6171 C492.664946,165.6171 444.394946,197.9091 439.474946,201.1971 C437.905946,195.7341 434.437946,183.6441 434.272946,183.0591 C434.302946,183.0501 470.965946,158.6361 473.662946,156.7941 L473.656946,156.7851 Z M419.638946,214.8981 L432.589946,186.0711 C434.038946,191.1261 437.341946,202.6371 437.341946,202.6371 L423.496946,211.8981 C422.194946,212.7711 423.418946,214.8981 424.732946,213.9981 L438.574946,204.7401 C434.860946,202.8081 471.319946,221.4393 495.367946,235.4433 C460.996946,226.1373 420.016946,215.0031 419.638946,214.8981 Z M475.951946,293.0373 C482.326946,290.2683 500.653946,282.3243 503.440946,281.1183 C503.719946,280.9533 503.923946,280.6833 504.004946,280.3713 C504.088946,280.0563 504.043946,279.7233 503.881946,279.4443 C503.713946,279.1683 503.443946,278.9673 503.131946,278.8863 C502.822946,278.8053 502.489946,278.8443 502.207946,279.0033 C491.794946,283.4973 481.396946,288.0063 471.007946,292.5363 L493.042946,258.6033 C495.121946,264.2763 497.875946,270.9693 500.461946,277.1523 C500.554946,277.4583 500.764946,277.7163 501.040946,277.8753 C501.319946,278.0343 501.649946,278.0823 501.961946,278.0073 C502.273946,277.9203 502.537946,277.7133 502.696946,277.4313 C502.858946,277.1523 502.900946,276.8193 502.813946,276.5073 C500.176946,270.2073 498.106946,265.1073 495.949946,259.4073 C500.320946,262.7283 505.882946,266.9073 510.265946,269.9373 C510.721946,276.1833 511.276946,282.4203 511.831946,288.6573 L475.951946,293.0373 Z M414.361946,331.3803 C417.292946,333.7803 443.794946,355.5693 444.829946,356.4213 L423.655946,371.3343 C422.077946,364.7373 414.361946,331.3833 414.361946,331.3833 L414.361946,331.3803 Z M431.659946,368.6793 L447.457946,357.5523 C447.616946,357.4533 447.751946,357.3243 447.853946,357.1683 C447.955946,357.0123 448.021946,356.8353 448.045946,356.6493 C448.069946,356.4663 448.051946,356.2773 447.991946,356.1003 C447.934946,355.9233 447.835946,355.7613 447.706946,355.6293 L417.679946,330.9513 L459.607946,342.8973 C457.144946,345.2793 454.681946,347.6643 452.218946,350.0523 C451.084946,351.1533 452.818946,352.8843 453.949946,351.7863 L458.650946,347.2353 C456.280946,353.0223 455.650946,354.5493 453.283946,360.3423 C424.336946,371.4903 449.617946,361.7613 431.659946,368.6823 L431.659946,368.6793 Z" id="Shape"></path>
                <path d="M463.615946,321.5343 C463.882946,321.5313 464.140946,321.4413 464.353946,321.2793 C464.566946,321.1173 464.722946,320.8923 464.797946,320.6343 C464.797946,320.6343 466.324946,310.7163 466.480946,309.6483 C466.594946,308.8443 466.276946,308.5293 465.850946,307.9563 C454.345946,292.4193 451.531946,288.6033 451.273946,288.3183 C451.174946,288.1773 451.048946,288.0603 450.898946,287.9733 C450.748946,287.8893 450.580946,287.8413 450.409946,287.8293 C450.238946,287.8173 450.064946,287.8473 449.905946,287.9133 C449.746946,287.9793 449.605946,288.0783 449.491946,288.2073 C448.291946,289.4373 443.341946,295.2003 419.557946,322.6713 C419.437946,322.8093 419.347946,322.9713 419.293946,323.1453 C419.239946,323.3223 419.221946,323.5053 419.242946,323.6883 C419.266946,323.8713 419.323946,324.0453 419.416946,324.2043 C419.509946,324.3603 419.635946,324.4983 419.785946,324.6033 C420.961946,325.2303 431.866946,323.9343 463.615946,321.5343 Z M449.932946,291.3363 L457.180946,309.3363 C457.273946,309.6423 457.483946,309.9033 457.759946,310.0623 C458.038946,310.2213 458.368946,310.2663 458.680946,310.1913 C458.992946,310.1043 459.256946,309.9003 459.418946,309.6183 C459.577946,309.3363 459.619946,309.0033 459.535946,308.6913 L454.987946,297.3963 L464.023946,309.5913 C463.531946,312.7923 463.042946,315.9843 462.553946,319.1733 C451.897946,319.9803 441.253946,320.9163 430.588946,321.6723 L456.523946,313.6293 C458.023946,313.1643 457.384946,310.7973 455.872946,311.2683 L424.144946,321.1083 L449.932946,291.3363 Z" id="Shape"></path>
                <path d="M392.401946,164.9055 C392.407946,165.2283 392.539946,165.5355 392.770946,165.7635 C392.998946,165.9915 393.304946,166.1226 393.628946,166.1295 L421.549946,169.4445 C421.873946,169.443 422.182946,169.3134 422.413946,169.0842 C422.641946,168.855 422.770946,168.5448 422.773946,168.2205 C422.767946,167.898 422.635946,167.5902 422.407946,167.3619 C422.179946,167.1336 421.870946,167.0028 421.549946,166.9965 L393.628946,163.6815 C393.304946,163.6839 392.992946,163.8135 392.764946,164.0424 C392.533946,164.2713 392.404946,164.5815 392.401946,164.9055 L392.401946,164.9055 Z" id="Path"></path>
                <path d="M429.001946,157.971 C429.139946,157.89 429.262946,157.7826 429.358946,157.6545 C429.457946,157.5267 429.526946,157.3809 429.568946,157.2255 C429.610946,157.0698 429.619946,156.9078 429.598946,156.7485 C429.577946,156.5895 429.523946,156.4359 429.442946,156.297 L402.742946,121.221 C402.574946,120.9465 402.304946,120.7473 401.992946,120.6654 C401.680946,120.5832 401.350946,120.623972 401.068946,120.78 C400.930946,120.8613 400.807946,120.969 400.711946,121.0974 C400.612946,121.2255 400.540946,121.3719 400.501946,121.5276 C400.459946,121.6833 400.450946,121.8456 400.474946,122.0052 C400.495946,122.1648 400.549946,122.3181 400.630946,122.457 L427.330946,157.533 C427.498946,157.8063 427.768946,158.004 428.077946,158.0856 C428.389946,158.1672 428.719946,158.1261 429.001946,157.971 Z" id="Path"></path>
                <path d="M441.526946,148.5948 C441.667946,141.5988 441.994946,125.6628 442.015946,124.6848 C442.000946,124.3704 441.862946,124.0737 441.634946,123.8568 C441.406946,123.6396 441.103946,123.5184 440.788946,123.5184 C440.473946,123.5184 440.170946,123.6396 439.942946,123.8568 C439.714946,124.0737 439.579946,124.3704 439.564946,124.6848 C439.564946,124.6848 439.096946,147.6198 439.075946,148.5948 C439.090946,148.9095 439.225946,149.2059 439.453946,149.4231 C439.681946,149.64 439.984946,149.7612 440.299946,149.7612 C440.614946,149.7612 440.917946,149.64 441.145946,149.4231 C441.373946,149.2059 441.511946,148.9095 441.526946,148.5948 L441.526946,148.5948 Z" id="Path"></path>
                <path d="M279.949946,91.8426 C265.549946,130.7556 238.471946,142.6086 208.897946,133.0386 C197.878946,129.2319 187.801946,123.111 179.344946,115.0866 C171.260246,107.6976 164.155346,99.3033 158.203946,90.1086 C158.107046,89.9499 157.975346,89.8149 157.819346,89.7138 C157.663346,89.6127 157.486646,89.5479 157.302146,89.5239 C157.117646,89.4999 156.930146,89.5179 156.753446,89.5758 C156.576746,89.634 156.415346,89.7309 156.280946,89.8596 C138.280946,107.8296 122.527946,121.3866 99.2329456,130.5666 C85.8418456,135.6384 71.4046456,137.3214 57.2059456,135.4656 C46.9819456,134.8722 37.1344456,131.3973 28.8019456,125.4426 C20.7829456,119.2056 15.0019456,110.4036 8.12600557,101.3196 C7.18700557,100.0776 5.06000557,101.2986 6.02600557,102.5556 C11.8850056,110.3346 17.4019456,118.7346 24.7459456,125.2446 C32.4292456,131.6679 41.7571456,135.8124 51.6739456,137.2086 C65.8783456,139.5072 80.4118456,138.6999 94.2739456,134.8416 C119.173946,126.7416 138.649946,111.3366 156.973946,92.6406 C168.943946,110.1036 184.552946,126.3276 204.604946,134.1096 C216.305846,138.8712 229.217546,139.7904 241.474946,136.7346 C251.834846,133.6695 260.992646,127.4742 267.691946,118.9986 C273.997946,111.0348 278.935346,102.0774 282.301946,92.4936 C282.856946,91.0146 280.501946,90.3756 279.949946,91.8426 Z" id="Path"></path>
                <path d="M316.864946,172.1841 L299.254946,170.6421 C297.685946,170.5071 297.694946,172.9551 299.254946,173.0931 L316.864946,174.6321 C318.433946,174.7701 318.424946,172.3191 316.864946,172.1841 Z" id="Path"></path>
                <path d="M134.017946,143.1828 C139.588946,146.3538 150.058946,145.6008 160.732946,145.7208 C165.211346,145.8696 169.690946,145.4667 174.070946,144.5208 C176.029346,144.3063 177.844046,143.3898 179.179046,141.9411 C180.514346,140.4924 181.279646,138.6093 181.333946,136.6398 C181.243946,128.2758 170.566946,127.8468 164.443946,127.6398 C159.247946,127.4598 154.024946,127.6188 148.822946,127.5918 C144.587846,127.515 140.362346,128.0268 136.267946,129.1128 C134.789246,129.4767 133.443446,130.251 132.385646,131.3466 C131.327846,132.4422 130.600946,133.8144 130.288946,135.3048 C130.012346,136.8429 130.222946,138.4287 130.891646,139.8411 C131.560046,141.2535 132.653246,142.4217 134.017946,143.1828 L134.017946,143.1828 Z M135.835946,131.9058 C142.534946,129.3168 147.280946,130.2288 160.435946,130.0068 C164.915546,129.8742 169.394846,130.2822 173.776946,131.2218 C176.593946,132.0258 178.834946,133.5648 178.876946,136.6398 C178.845146,137.8092 178.434746,138.9366 177.706946,139.8528 C176.979446,140.7687 175.973846,141.4236 174.841946,141.7188 C171.235046,142.7088 167.512346,143.2131 163.771946,143.2188 C149.746946,143.2548 143.671946,143.6148 137.713946,142.0608 C136.506446,141.9054 135.375746,141.384 134.473346,140.5668 C133.571246,139.7493 132.941246,138.675 132.667946,137.4888 C132.476546,136.3362 132.686846,135.1527 133.263446,134.1363 C133.840046,133.1202 134.748146,132.3327 135.835946,131.9058 L135.835946,131.9058 Z" id="Shape"></path>
                <path d="M297.412946,102.3519 C297.049946,100.8723 296.272946,99.5256 295.177946,98.4672 C294.082946,97.4088 292.708946,96.6819 291.217946,96.3699 C289.678946,96.0936 288.091946,96.3048 286.681946,96.9741 C285.268946,97.6431 284.100146,98.7366 283.339646,100.1019 C280.219646,105.5919 280.939646,115.3419 280.801646,126.8169 C280.651646,131.2956 281.054546,135.7752 282.001646,140.1549 C282.214946,142.1136 283.131146,143.9286 284.580146,145.2636 C286.027946,146.5983 287.911946,147.3627 289.882946,147.4149 C298.249946,147.3279 298.675946,136.6479 298.882946,130.5279 C299.062946,125.3289 298.903946,120.1059 298.930946,114.9069 C299.008946,110.6718 298.498946,106.4463 297.412946,102.3519 L297.412946,102.3519 Z M295.312946,139.8729 C294.508946,142.6899 292.969946,144.9339 289.894946,144.9729 C288.721946,144.9438 287.590946,144.534 286.672946,143.8056 C285.754946,143.0769 285.097946,142.0695 284.803646,140.9349 C282.985646,134.3349 283.348646,131.5749 283.270646,115.4619 C283.163846,111.5403 283.567346,107.6217 284.470646,103.8039 C284.626046,102.5967 285.145946,101.4657 285.964946,100.5636 C286.780946,99.6615 287.854946,99.0312 289.042946,98.7579 C290.194946,98.5671 291.376946,98.7774 292.393946,99.3534 C293.407946,99.9294 294.193946,100.8366 294.622946,101.9229 C297.208946,108.6099 296.305946,113.3889 296.524946,126.5229 C296.653946,131.0061 296.242946,135.4884 295.300946,139.8729 L295.312946,139.8729 Z" id="Shape"></path>
                <path d="M144.436946,14.2128 L162.775946,35.3598 C163.810946,36.5598 165.535946,34.8138 164.506946,33.6258 C158.394746,26.5776 152.282846,19.5297 146.170946,12.4818 C145.135946,11.2908 143.401946,13.0278 144.436946,14.2128 Z" id="Path"></path>
                <path d="M178.384946,21.5913 C172.262846,14.5533 166.150046,7.5045 160.045946,0.4443 C159.010946,-0.7557 157.285946,0.9903 158.314946,2.1783 L176.653946,23.3343 C177.685946,24.5163 179.401946,22.7793 178.384946,21.5913 Z" id="Path"></path>
                <path d="M318.274946,35.4504 C318.505946,35.679 318.814946,35.8077 319.138946,35.8077 C319.465946,35.8077 319.774946,35.679 320.005946,35.4504 L337.282946,13.4274 C337.504946,13.1937 337.627946,12.8838 337.627946,12.5619 C337.627946,12.2397 337.504946,11.9298 337.282946,11.6964 C337.168946,11.5827 337.033946,11.4924 336.886946,11.4309 C336.736946,11.3694 336.577946,11.3379 336.415946,11.3379 C336.256946,11.3379 336.097946,11.3694 335.947946,11.4309 C335.800946,11.4924 335.665946,11.5827 335.551946,11.6964 L318.274946,33.7164 C318.052946,33.9501 317.926946,34.2606 317.926946,34.5834 C317.926946,34.9062 318.052946,35.2167 318.274946,35.4504 L318.274946,35.4504 Z" id="Path"></path>
                <path d="M321.100946,0.3585 C315.340946,7.6965 309.580946,15.0363 303.823946,22.3785 C303.601946,22.6125 303.478946,22.9227 303.478946,23.2455 C303.478946,23.568 303.601946,23.8782 303.823946,24.1125 C304.054946,24.3405 304.363946,24.4686 304.687946,24.4686 C305.011946,24.4686 305.323946,24.3405 305.554946,24.1125 L322.831946,2.0895 C323.053946,1.8561 323.176946,1.5462 323.176946,1.224 C323.176946,0.9015 323.053946,0.5916 322.831946,0.3585 C322.717946,0.2448 322.582946,0.1545 322.435946,0.093 C322.285946,0.0315 322.126946,-2.13162821e-14 321.964946,-2.13162821e-14 C321.805946,-2.13162821e-14 321.646946,0.0315 321.496946,0.093 C321.349946,0.1545 321.214946,0.2448 321.100946,0.3585 L321.100946,0.3585 Z" id="Path"></path>
                <path d="M474.655946,30.5955 L502.204946,25.6515 C503.752946,25.3725 503.104946,23.0115 501.553946,23.2905 L474.001946,28.2345 C472.456946,28.5135 473.101946,30.8715 474.655946,30.5955 Z" id="Path"></path>
                <path d="M498.301946,5.2107 L470.752946,10.1577 C469.204946,10.4337 469.852946,12.7947 471.403946,12.5187 L498.952946,7.5717 C500.509946,7.2957 499.852946,4.9347 498.301946,5.2107 Z" id="Path"></path>
                <path d="M88.5229456,401.3643 L78.8299456,427.6233 C78.2809456,429.1053 80.6479456,429.7413 81.1909456,428.2743 L90.8839456,402.0183 C91.4299456,400.5363 89.0659456,399.8973 88.5229456,401.3643 Z" id="Path"></path>
                <path d="M105.754946,407.7303 L96.0589456,433.9893 C95.5129456,435.4683 97.8799456,436.1073 98.4199456,434.6403 L108.115946,408.3813 C108.661946,406.9023 106.294946,406.2633 105.754946,407.7303 Z" id="Path"></path>
                <path d="M258.715646,401.2383 C258.483146,401.0133 258.172346,400.8873 257.848646,400.8873 C257.525246,400.8873 257.214446,401.0133 256.981646,401.2383 L235.081646,418.6653 C234.853046,418.8933 234.724346,419.2053 234.724346,419.5293 C234.724346,419.8533 234.853046,420.1653 235.081646,420.3963 C235.314146,420.6183 235.624346,420.7443 235.947146,420.7443 C236.269946,420.7443 236.580146,420.6183 236.812646,420.3963 L258.712646,402.9693 C258.941246,402.7383 259.069646,402.4263 259.070248,402.1023 C259.070846,401.7783 258.943346,401.4663 258.715646,401.2383 L258.715646,401.2383 Z" id="Path"></path>
                <path d="M248.245946,434.7663 L270.145946,417.3423 C270.373946,417.1113 270.502046,416.8023 270.502046,416.4783 C270.502046,416.1543 270.373946,415.8423 270.145946,415.6113 C269.913446,415.3863 269.603246,415.2633 269.280446,415.2633 C268.957646,415.2633 268.647446,415.3863 268.414946,415.6113 L246.514946,433.0353 C246.401246,433.1493 246.311246,433.2843 246.249746,433.4313 C246.188246,433.5813 246.156446,433.7403 246.156446,433.9023 C246.156446,434.0613 246.188246,434.2203 246.249746,434.3703 C246.311246,434.5173 246.401246,434.6523 246.514946,434.7663 C246.746846,434.9913 247.057346,435.1173 247.380446,435.1173 C247.703846,435.1173 248.014046,434.9913 248.245946,434.7663 Z" id="Path"></path>
                <path d="M430.909946,405.2343 C430.816946,404.9373 430.615946,404.6883 430.345946,404.5353 C430.075946,404.3823 429.757946,404.3373 429.454946,404.4093 L402.364946,411.4413 C402.052946,411.5283 401.785946,411.7353 401.626946,412.0173 C401.464946,412.2993 401.422946,412.6353 401.509946,412.9473 C401.596946,413.2623 401.803946,413.5263 402.085946,413.6883 C402.367946,413.8473 402.703946,413.8893 403.015946,413.8023 L430.105946,406.7703 C430.258946,406.7223 430.402946,406.6443 430.525946,406.5423 C430.648946,406.4403 430.750946,406.3113 430.825946,406.1703 C430.900946,406.0263 430.945946,405.8703 430.960946,405.7113 C430.975946,405.5493 430.957946,405.3873 430.909946,405.2343 Z" id="Path"></path>
                <path d="M407.629946,431.5863 L434.719946,424.5543 C434.875946,424.5123 435.019946,424.4403 435.145946,424.3413 C435.274946,424.2423 435.379946,424.1193 435.460946,423.9813 C435.538946,423.8403 435.589946,423.6873 435.610946,423.5283 C435.628946,423.3663 435.619946,423.2043 435.574946,423.0513 C435.532946,422.8953 435.460946,422.7513 435.361946,422.6223 C435.262946,422.4963 435.139946,422.3913 435.001946,422.3103 C434.860946,422.2323 434.707946,422.1813 434.548946,422.1603 C434.389946,422.1393 434.227946,422.1513 434.071946,422.1933 L406.978946,429.2253 C406.822946,429.2673 406.678946,429.3423 406.552946,429.4413 C406.423946,429.5403 406.318946,429.6633 406.237946,429.8013 C406.159946,429.9423 406.108946,430.0953 406.087946,430.2543 C406.069946,430.4163 406.081946,430.5783 406.123946,430.7313 C406.165946,430.8873 406.237946,431.0313 406.336946,431.1603 C406.435946,431.2863 406.558946,431.3913 406.699946,431.4723 C406.840946,431.5503 406.993946,431.6013 407.152946,431.6223 C407.311946,431.6403 407.473946,431.6283 407.629946,431.5863 Z" id="Path"></path>
                <path d="M543.700946,146.3346 C546.631946,137.4747 549.565946,128.6175 552.496946,119.7636 C552.991946,118.2636 550.627946,117.6216 550.135946,119.1126 C547.201946,127.9686 544.267946,136.8255 541.336946,145.6836 C540.841946,147.1716 543.205946,147.8136 543.700946,146.3346 Z" id="Path"></path>
                <path d="M567.571946,124.8723 C564.640946,133.7304 561.706946,142.5873 558.775946,151.4433 C558.277946,152.9433 560.641946,153.5853 561.136946,152.0943 L569.932946,125.5233 C570.430946,124.0233 568.066946,123.3813 567.571946,124.8723 Z" id="Path"></path>
                <path d="M531.658946,336.0993 L549.997946,357.2433 C551.029946,358.4433 552.757946,356.6973 551.728946,355.5123 C545.614946,348.4683 539.503946,341.4183 533.392946,334.3653 C532.357946,333.1743 530.629946,334.9143 531.658946,336.0993 Z" id="Path"></path>
                <path d="M547.267946,322.3323 C546.232946,321.1323 544.507946,322.8783 545.536946,324.0633 L563.872946,345.2103 C564.907946,346.4103 566.635946,344.6643 565.606946,343.4793 L547.267946,322.3323 Z" id="Path"></path>
                <path d="M294.775946,340.9503 C294.220946,345.6363 293.431946,350.2923 292.405946,354.8973 C292.063946,356.4333 294.424946,357.0873 294.766946,355.5483 C295.477946,352.3443 296.035946,349.1133 296.524946,345.8703 L296.575946,345.8703 L300.358946,345.2463 C301.909946,344.9913 301.258946,342.6303 299.707946,342.8853 L296.881946,343.3503 C296.989946,342.5493 297.130946,341.7513 297.223946,340.9503 C297.220946,340.6263 297.091946,340.3173 296.863946,340.0863 C296.632946,339.8583 296.323946,339.7293 295.999946,339.7263 C295.675946,339.7323 295.369946,339.8643 295.141946,340.0923 C294.913946,340.3203 294.781946,340.6293 294.775946,340.9503 L294.775946,340.9503 Z" id="Path"></path>
                <path d="M302.668946,351.5013 L306.751946,351.5013 C307.066946,351.4863 307.363946,351.3513 307.579946,351.1233 C307.795946,350.8953 307.918946,350.5923 307.918946,350.2773 C307.918946,349.9623 307.795946,349.6593 307.579946,349.4313 C307.363946,349.2033 307.066946,349.0683 306.751946,349.0503 L302.668946,349.0503 C302.353946,349.0683 302.056946,349.2033 301.840946,349.4313 C301.624946,349.6593 301.501946,349.9623 301.501946,350.2773 C301.501946,350.5923 301.624946,350.8953 301.840946,351.1233 C302.056946,351.3513 302.353946,351.4863 302.668946,351.5013 Z" id="Path"></path>
                <path d="M282.112946,282.9213 L274.612946,288.9513 C274.499246,289.0653 274.408946,289.2003 274.347446,289.3503 C274.286246,289.5003 274.254746,289.6593 274.254746,289.8183 C274.254746,289.9803 274.286846,290.1393 274.348346,290.2893 C274.410146,290.4363 274.500446,290.5713 274.614446,290.6853 C274.728146,290.7993 274.863446,290.8893 275.011946,290.9493 C275.160746,291.0123 275.320046,291.0423 275.480846,291.0423 C275.641646,291.0423 275.800946,291.0123 275.949746,290.9493 C276.098246,290.8893 276.233246,290.7963 276.346946,290.6823 C278.850746,288.6843 281.350946,286.6743 283.846946,284.6553 C284.075846,284.4273 284.204246,284.1153 284.204246,283.7883 C284.204246,283.4643 284.075846,283.1523 283.846946,282.9213 C283.614446,282.6963 283.303646,282.5703 282.979946,282.5703 C282.655946,282.5703 282.345146,282.6963 282.112946,282.9213 L282.112946,282.9213 Z" id="Path"></path>
                <path d="M143.059946,335.8083 C116.367146,334.5363 89.6176456,335.1963 63.0199456,337.7823 C61.4659456,337.9293 61.4509456,340.3803 63.0199456,340.2303 C89.9698456,337.6443 117.070646,336.9993 144.112946,338.3043 C146.038946,338.4483 144.685946,337.0893 148.597946,316.4973 C152.005946,298.5333 156.118946,278.6283 170.218946,267.7443 C174.916946,263.9763 180.665846,261.7533 186.676946,261.3813 C188.245946,261.3183 188.254946,258.8673 186.676946,258.9333 C175.237946,259.3983 165.337946,266.8683 159.226946,276.1743 C152.026946,287.1423 149.272946,300.4743 146.761946,313.1433 C145.273946,320.6553 144.039746,328.2093 143.059946,335.8083 Z" id="Path"></path>
            </g>
        </g>
    </g>
</svg>