<?xml version="1.0" encoding="UTF-8"?>
<svg width="600px" height="600px" viewBox="0 0 600 600" version="1.1" xmlns="http://www.w3.org/2000/svg" xmlns:xlink="http://www.w3.org/1999/xlink">
    <title>06</title>
    <g id="06" stroke="none" stroke-width="1" fill="none" fill-rule="evenodd">
        <g id="streamlinehq-data-cloud-development-600" transform="translate(15.000000, 106.000000)" fill="#303030" fill-rule="nonzero">
            <path d="M531.19188,80.2646667 L531.19188,107.984667 C531.20688,108.262467 531.32688,108.524067 531.52788,108.715467 C531.73188,108.906867 531.99888,109.013667 532.27488,109.013667 C532.55388,109.013667 532.82088,108.906867 533.02488,108.715467 C533.22588,108.524067 533.34588,108.262467 533.36088,107.984667 L533.36088,80.2646667 C533.34588,79.9868667 533.22588,79.7252667 533.02488,79.5338667 C532.82088,79.3424667 532.55388,79.2356667 532.27488,79.2356667 C531.99888,79.2356667 531.73188,79.3424667 531.52788,79.5338667 C531.32688,79.7252667 531.20688,79.9868667 531.19188,80.2646667 L531.19188,80.2646667 Z" id="Path"></path>
            <path d="M559.23588,90.7346667 C551.87388,97.8527667 544.63188,105.095667 537.50988,112.463667 C537.32688,112.670667 537.23088,112.940067 537.23688,113.216667 C537.24588,113.492967 537.35988,113.755767 537.55488,113.951367 C537.74988,114.146967 538.01388,114.260667 538.28988,114.269067 C538.56588,114.277467 538.83588,114.179967 539.04288,113.996667 C546.40488,106.874667 553.64688,99.6317667 560.77188,92.2676667 C560.96088,92.0612667 561.06288,91.7897667 561.05688,91.5095667 C561.05088,91.2293667 560.93688,90.9623667 560.73888,90.7646667 C560.54088,90.5666667 560.27388,90.4529667 559.99488,90.4473419 C559.71288,90.4418667 559.44288,90.5447667 559.23588,90.7346667 L559.23588,90.7346667 Z" id="Path"></path>
            <path d="M568.98888,118.139667 L545.01288,118.139667 C544.73388,118.154367 544.47288,118.274967 544.28088,118.476867 C544.09188,118.678467 543.98388,118.946067 543.98388,119.224167 C543.98388,119.502267 544.09188,119.769867 544.28088,119.971767 C544.47288,120.173367 544.73388,120.293967 545.01288,120.308667 L568.98888,120.308667 C569.26788,120.293967 569.52888,120.173367 569.72088,119.971767 C569.90988,119.769867 570.01788,119.502267 570.01788,119.224167 C570.01788,118.946067 569.90988,118.678467 569.72088,118.476867 C569.52888,118.274967 569.26788,118.154367 568.98888,118.139667 Z" id="Path"></path>
            <path d="M34.04988,161.594667 L1.083,161.594667 C0.79575,161.594667 0.52029,161.708667 0.31719,161.911767 C0.11409,162.114867 3.55271368e-15,162.390567 3.55271368e-15,162.677667 C3.55271368e-15,162.964767 0.11409,163.240467 0.31719,163.443567 C0.52029,163.646667 0.79575,163.760667 1.083,163.760667 L34.04988,163.760667 C34.33728,163.760667 34.61268,163.646667 34.81578,163.443567 C35.01888,163.240467 35.13288,162.964767 35.13288,162.677667 C35.13288,162.390567 35.01888,162.114867 34.81578,161.911767 C34.61268,161.708667 34.33728,161.594667 34.04988,161.594667 L34.04988,161.594667 Z" id="Path"></path>
            <path d="M35.52888,155.951667 C35.73588,156.134967 36.00528,156.232467 36.28158,156.224067 C36.55818,156.215667 36.82098,156.101967 37.01658,155.906367 C37.21218,155.710767 37.32588,155.447967 37.33428,155.171667 C37.34268,154.895067 37.24518,154.625667 37.06188,154.418667 C30.92778,148.070667 24.68598,141.832767 18.33588,135.704667 C18.12888,135.521367 17.85948,135.423867 17.58288,135.432267 C17.30658,135.440667 17.04378,135.554367 16.84818,135.749967 C16.65258,135.945567 16.53888,136.208367 16.53048,136.484967 C16.52208,136.761267 16.61958,137.030667 16.80288,137.237667 C22.93698,143.575767 29.17878,149.813667 35.52888,155.951667 Z" id="Path"></path>
            <path d="M36.27888,169.403367 L18.29688,187.385367 C18.11358,187.592667 18.01638,187.861767 18.02478,188.138367 C18.03318,188.414667 18.14658,188.677467 18.34218,188.873067 C18.53778,189.068667 18.80058,189.182367 19.07718,189.190767 C19.35378,189.199167 19.62288,189.101667 19.82988,188.918367 L37.81188,170.936367 C37.99548,170.729367 38.09268,170.459967 38.08428,170.183667 C38.07588,169.907067 37.96248,169.644267 37.76688,169.448667 C37.57128,169.253067 37.30848,169.139367 37.03188,169.130967 C36.75528,169.122567 36.48618,169.220067 36.27888,169.403367 L36.27888,169.403367 Z" id="Path"></path>
            <path d="M260.77518,278.942667 C257.44578,283.865667 253.51548,288.353667 249.07518,292.304667 C248.03418,293.234667 249.57018,294.764667 250.60818,293.837667 C255.17718,289.754667 259.21968,285.119667 262.64118,280.037667 C263.43618,278.876667 261.55218,277.790667 260.77518,278.942667 Z" id="Path"></path>
            <path d="M264.33588,282.974667 C263.09988,288.974667 261.86268,294.974667 260.62488,300.974667 C260.34288,302.336667 262.42488,302.918667 262.72488,301.553667 C263.96088,295.553667 265.19778,289.553667 266.43588,283.553667 C266.70288,282.191667 264.61188,281.609667 264.33588,282.974667 Z" id="Path"></path>
            <path d="M255.22818,278.537667 C249.29958,281.531667 243.15918,284.084667 236.85618,286.178667 C235.53918,286.616667 236.10318,288.713667 237.43218,288.278667 C243.91608,286.124667 250.23318,283.496667 256.33218,280.418667 C257.56818,279.782667 256.47318,277.904667 255.22818,278.537667 Z" id="Path"></path>
            <path d="M260.91318,55.7966667 C261.15528,55.6454667 261.33048,55.4072667 261.40248,55.1312667 C261.47448,54.8549667 261.43788,54.5615667 261.30018,54.3116667 C261.22848,54.1886667 261.13338,54.0809667 261.01998,53.9948667 C260.90658,53.9087667 260.77728,53.8457667 260.63958,53.8097667 C260.50188,53.7740667 260.35848,53.7656667 260.21748,53.7851667 C260.07648,53.8049667 259.94088,53.8523667 259.81818,53.9246667 C250.72158,60.8978667 243.16338,69.6752667 237.61818,79.7066667 C236.94318,80.9276667 238.81818,82.0226667 239.49018,80.7986667 C244.84128,71.0837667 252.13338,62.5733667 260.91318,55.7966667 L260.91318,55.7966667 Z" id="Path"></path>
            <path d="M254.64018,50.3726667 C254.88378,50.2229667 255.06078,49.9853667 255.13458,49.7090667 C255.20808,49.4327667 255.17298,49.1387667 255.03618,48.8876667 C254.96448,48.7646667 254.86938,48.6569667 254.75598,48.5708667 C254.64258,48.4847667 254.51328,48.4217667 254.37558,48.3860667 C254.23788,48.3500667 254.09448,48.3416667 253.95348,48.3611667 C253.81248,48.3809667 253.67658,48.4283667 253.55418,48.5006667 C244.45668,55.4732667 236.89848,64.2506667 231.35418,74.2826667 C230.67918,75.5036667 232.55418,76.5986667 233.22618,75.3746667 C238.57458,65.6606667 245.86368,57.1505667 254.64018,50.3726667 L254.64018,50.3726667 Z" id="Path"></path>
            <path d="M456.86988,186.488667 C451.82988,185.390667 450.05688,193.715667 446.69688,192.788667 C445.16988,192.371667 444.37188,190.352667 443.54388,189.173667 C443.06388,188.328567 442.38288,187.613367 441.56088,187.090767 C440.74188,186.567867 439.80588,186.253167 438.83688,186.173667 C432.86688,186.602667 431.48388,191.924667 427.73688,193.994667 C422.78988,196.715667 419.63688,188.318667 414.10488,189.140667 C413.50788,189.198267 412.92888,189.381867 412.40688,189.679167 C411.88488,189.976467 411.43188,190.380567 411.07788,190.865367 C410.72088,191.350167 410.47488,191.904267 410.34888,192.491667 C410.22288,193.079067 410.22288,193.686267 410.34888,194.273667 C410.77788,195.596667 412.87188,195.029667 412.44888,193.697667 C411.97488,191.735667 414.63588,190.616667 416.55288,191.684667 C418.71588,192.674667 420.26988,194.597667 422.32488,195.770667 C423.27588,196.325667 424.34688,196.634667 425.44788,196.673667 C426.54588,196.712667 427.63788,196.475667 428.62488,195.986667 C430.47888,194.867667 432.10188,193.403367 433.40688,191.675667 C434.03388,190.769367 434.84688,190.004367 435.78588,189.430467 C436.72788,188.856267 437.78088,188.485767 438.87288,188.342667 C440.62188,188.411667 441.57288,190.022667 442.41588,191.342667 C443.15688,192.845667 444.37788,194.059467 445.88388,194.792667 C446.57088,195.023667 447.30288,195.074667 448.01388,194.945667 C448.72488,194.819667 449.39388,194.513667 449.95488,194.057667 C451.20588,192.995967 452.31288,191.779167 453.25488,190.436667 C453.99888,189.554667 455.01888,188.285667 456.32088,188.567667 C457.65288,188.873667 458.23488,186.785667 456.86988,186.488667 Z" id="Path"></path>
            <path d="M307.11588,237.752667 C307.16688,239.714667 307.08888,243.251667 304.98888,244.262667 C304.38888,244.484667 303.72888,244.487667 303.12588,244.274667 C302.52288,244.058667 302.01288,243.638667 301.68888,243.086667 C300.78588,241.496667 300.39888,239.666667 300.57588,237.848667 C300.57588,237.560667 300.46188,237.284667 300.25788,237.083667 C300.05688,236.879667 299.78088,236.765667 299.49288,236.765667 C299.20488,236.765667 298.93188,236.879667 298.72788,237.083667 C298.52388,237.284667 298.40988,237.560667 298.40988,237.848667 C298.22088,240.191667 298.80288,242.531667 300.06588,244.514667 C300.62388,245.342667 301.42788,245.975667 302.36388,246.323667 C303.29988,246.674667 304.31988,246.722667 305.28588,246.464667 C308.81088,245.498667 309.38088,240.836667 309.28788,237.764667 C309.27288,237.485667 309.15288,237.224667 308.95188,237.032667 C308.74788,236.843667 308.48088,236.735667 308.20488,236.735667 C307.92588,236.735667 307.65888,236.843667 307.45488,237.032667 C307.25388,237.224667 307.13388,237.485667 307.11888,237.764667 L307.11588,237.752667 Z" id="Path"></path>
            <path d="M101.83488,132.317667 C98.67288,135.377667 95.61288,138.539667 92.50188,141.650667 L90.06018,138.149667 C89.26818,137.012667 87.38718,138.095667 88.18818,139.244667 C91.14618,143.486667 91.15188,143.675667 91.66788,143.831667 C91.82268,144.056367 92.06058,144.210567 92.32878,144.260067 C92.59728,144.309567 92.87418,144.250467 93.09918,144.095667 C93.30918,143.951667 102.09918,135.173667 103.36818,133.850667 C103.55148,133.643667 103.64868,133.374267 103.64028,133.097667 C103.63188,132.821367 103.51848,132.558567 103.32288,132.362967 C103.12728,132.167367 102.86448,132.053667 102.58788,132.045267 C102.31128,132.036867 102.04218,132.134367 101.83488,132.317667 L101.83488,132.317667 Z" id="Path"></path>
            <path d="M311.07888,234.383667 L313.57488,234.383667 C313.85388,234.368667 314.11488,234.248667 314.30688,234.047667 C314.49588,233.843667 314.60388,233.576667 314.60388,233.297667 C314.60388,233.021667 314.49588,232.754667 314.30688,232.550667 C314.11488,232.349667 313.85388,232.229667 313.57488,232.214667 L311.07888,232.214667 C310.79988,232.229667 310.53888,232.349667 310.34688,232.550667 C310.15788,232.754667 310.04988,233.021667 310.04988,233.297667 C310.04988,233.576667 310.15788,233.843667 310.34688,234.047667 C310.53888,234.248667 310.79988,234.368667 311.07888,234.383667 L311.07888,234.383667 Z" id="Path"></path>
            <path d="M296.06388,232.214667 L293.56788,232.214667 C293.28888,232.229667 293.02788,232.349667 292.83588,232.550667 C292.64688,232.754667 292.53888,233.021667 292.53888,233.297667 C292.53888,233.576667 292.64688,233.843667 292.83588,234.047667 C293.02788,234.248667 293.28888,234.368667 293.56788,234.383667 L296.06388,234.383667 C296.34288,234.368667 296.60388,234.248667 296.79588,234.047667 C296.98488,233.843667 297.09288,233.576667 297.09288,233.297667 C297.09288,233.021667 296.98488,232.754667 296.79588,232.550667 C296.60388,232.349667 296.34288,232.229667 296.06388,232.214667 L296.06388,232.214667 Z" id="Path"></path>
            <path d="M281.24988,90.0023667 L281.24988,74.6453667 C281.23518,74.3675667 281.11458,74.1062667 280.91298,73.9145667 C280.71108,73.7231667 280.44348,73.6166667 280.16538,73.6166667 C279.88728,73.6166667 279.61968,73.7231667 279.41808,73.9145667 C279.21618,74.1062667 279.09558,74.3675667 279.08088,74.6453667 L279.08088,90.0023667 C279.09558,90.2801667 279.21618,90.5417667 279.41808,90.7331667 C279.61968,90.9245667 279.88728,91.0313667 280.16538,91.0313667 C280.44348,91.0313667 280.71108,90.9245667 280.91298,90.7331667 C281.11458,90.5417667 281.23518,90.2801667 281.24988,90.0023667 L281.24988,90.0023667 Z" id="Path"></path>
            <path d="M279.45588,95.2466667 L279.45588,97.8716667 C279.47058,98.1494667 279.59118,98.4110667 279.79308,98.6024667 C279.99468,98.7938667 280.26228,98.9006667 280.54038,98.9006667 C280.81848,98.9006667 281.08608,98.7938667 281.28798,98.6024667 C281.48958,98.4110667 281.61018,98.1494667 281.62488,97.8716667 L281.62488,95.2466667 C281.61018,94.9688667 281.48958,94.7072667 281.28798,94.5158667 C281.08608,94.3244667 280.81848,94.2176667 280.54038,94.2176667 C280.26228,94.2176667 279.99468,94.3244667 279.79308,94.5158667 C279.59118,94.7072667 279.47058,94.9688667 279.45588,95.2466667 L279.45588,95.2466667 Z" id="Path"></path>
            <path d="M314.41488,293.504667 L334.64988,293.504667 L334.64988,291.335667 L314.41488,291.335667 C314.13588,291.350667 313.87488,291.470667 313.68288,291.671667 C313.49388,291.875667 313.38588,292.142667 313.38588,292.418667 C313.38588,292.697667 313.49388,292.964667 313.68288,293.168667 C313.87488,293.369667 314.13588,293.489667 314.41488,293.504667 Z" id="Path"></path>
            <path d="M314.41488,284.759667 L334.64988,284.759667 L334.64988,282.590667 L314.41488,282.590667 C314.13588,282.605667 313.87488,282.725667 313.68288,282.926667 C313.49388,283.130667 313.38588,283.397667 313.38588,283.676667 C313.38588,283.952667 313.49388,284.219667 313.68288,284.423667 C313.87488,284.624667 314.13588,284.744667 314.41488,284.759667 Z" id="Path"></path>
            <g id="Group" transform="translate(0.000000, 0.000000)">
                <path d="M127.39188,120.371667 C127.40178,120.646167 127.51518,120.906867 127.70928,121.101267 C127.90368,121.295667 128.16438,121.409067 128.43888,121.418667 L154.41288,121.418667 C154.69068,121.403967 154.95228,121.283367 155.14368,121.081767 C155.33508,120.879867 155.44188,120.612267 155.44188,120.334167 C155.44188,120.056067 155.33508,119.788467 155.14368,119.586867 C154.95228,119.384967 154.69068,119.264367 154.41288,119.249667 L128.43588,119.249667 C128.29368,119.254767 128.15388,119.287767 128.02428,119.346867 C127.89498,119.405967 127.77828,119.489967 127.68138,119.594367 C127.58448,119.698467 127.50888,119.820867 127.45938,119.954067 C127.40958,120.087567 127.38678,120.229467 127.39188,120.371667 L127.39188,120.371667 Z" id="Path"></path>
                <path d="M153.95688,111.305967 C153.94788,111.031467 153.83508,110.770767 153.64128,110.576367 C153.44748,110.382267 153.18708,110.268567 152.91288,110.258967 L126.93588,110.258967 C126.65808,110.273367 126.39648,110.393967 126.20508,110.595867 C126.01368,110.797767 125.90688,111.065367 125.90688,111.343467 C125.90688,111.621567 126.01368,111.889167 126.20508,112.090767 C126.39648,112.292667 126.65808,112.413267 126.93588,112.427967 L152.90988,112.427967 C153.05238,112.423167 153.19248,112.390467 153.32238,112.331667 C153.45228,112.272567 153.56928,112.188567 153.66648,112.084167 C153.76368,111.980067 153.83958,111.857667 153.88938,111.724167 C153.93918,111.590367 153.96198,111.448467 153.95688,111.305967 Z" id="Path"></path>
                <path d="M150.95988,103.232667 C150.95088,102.957867 150.83778,102.696867 150.64338,102.502467 C150.44898,102.308067 150.18768,102.194667 149.91288,102.185667 L123.93588,102.185667 C123.65808,102.200367 123.39648,102.320967 123.20508,102.522867 C123.01368,102.724467 122.90688,102.992067 122.90688,103.270167 C122.90688,103.548267 123.01368,103.815867 123.20508,104.017767 C123.39648,104.219367 123.65808,104.340267 123.93588,104.354667 L149.90688,104.354667 C150.19518,104.345367 150.46818,104.222067 150.66558,104.011467 C150.86298,103.801167 150.96888,103.520967 150.95988,103.232667 L150.95988,103.232667 Z" id="Path"></path>
                <path d="M313.36788,33.1046667 C313.37688,33.3791667 313.49088,33.6401667 313.68588,33.8339667 C313.88088,34.0280667 314.14188,34.1405667 314.41488,34.1486667 L340.38588,34.1486667 C340.52688,34.1486667 340.66788,34.1207667 340.79988,34.0661667 C340.93188,34.0118667 341.05188,33.9320667 341.15088,33.8315667 C341.25288,33.7310667 341.33088,33.6116667 341.38788,33.4802667 C341.44188,33.3488667 341.46888,33.2078667 341.46888,33.0656667 C341.46888,32.9234667 341.44188,32.7827667 341.38788,32.6513667 C341.33088,32.5199667 341.25288,32.4005667 341.15088,32.3000667 C341.05188,32.1992667 340.93188,32.1194667 340.79988,32.0651667 C340.66788,32.0108667 340.52688,31.9826667 340.38588,31.9826667 L314.41488,31.9826667 C314.12688,31.9928667 313.85688,32.1167667 313.65888,32.3270667 C313.46388,32.5373667 313.35888,32.8172667 313.36788,33.1046667 Z" id="Path"></path>
                <path d="M311.86788,24.1046667 C311.87688,24.3794667 311.99088,24.6401667 312.18588,24.8342667 C312.38088,25.0286667 312.64188,25.1420667 312.91488,25.1516667 L338.88588,25.1516667 C339.16488,25.1372667 339.42588,25.0163667 339.61788,24.8147667 C339.80688,24.6128667 339.91488,24.3452667 339.91488,24.0671667 C339.91488,23.7890667 339.80688,23.5214667 339.61788,23.3198667 C339.42588,23.1179667 339.16488,22.9973667 338.88588,22.9826667 L312.91488,22.9826667 C312.62688,22.9928667 312.35688,23.1167667 312.15888,23.3270667 C311.96388,23.5373667 311.85888,23.8172667 311.86788,24.1046667 L311.86788,24.1046667 Z" id="Path"></path>
                <path d="M308.87088,16.0379667 C308.87988,16.3118667 308.99388,16.5722667 309.18588,16.7660667 C309.38088,16.9598667 309.64188,17.0729667 309.91488,17.0819667 L335.88888,17.0819667 C336.16188,17.0615667 336.41688,16.9385667 336.60288,16.7375667 C336.79188,16.5368667 336.89388,16.2728667 336.89388,15.9989667 C336.89388,15.7247667 336.79188,15.4607667 336.60288,15.2600667 C336.41688,15.0590667 336.16188,14.9360667 335.88888,14.9159667 L309.91488,14.9159667 C309.77388,14.9204667 309.63288,14.9531667 309.50388,15.0122667 C309.37188,15.0713667 309.25488,15.1553667 309.15888,15.2594667 C309.06288,15.3638667 308.98788,15.4862667 308.93688,15.6197667 C308.88888,15.7535667 308.86488,15.8954667 308.87088,16.0379667 L308.87088,16.0379667 Z" id="Path"></path>
                <path d="M302.41788,9.79796667 L328.38888,9.79796667 C328.64088,9.75146667 328.87188,9.61766667 329.03688,9.41996667 C329.20188,9.22196667 329.29188,8.97266667 329.29188,8.71496667 C329.29188,8.45726667 329.20188,8.20796667 329.03688,8.00996667 C328.87188,7.81196667 328.64088,7.67816667 328.38888,7.63196667 L302.41788,7.63196667 C302.12988,7.63196667 301.85388,7.74596667 301.65288,7.94906667 C301.44888,8.15216667 301.33488,8.42756667 301.33488,8.71496667 C301.33488,9.00206667 301.44888,9.27746667 301.65288,9.48086667 C301.85388,9.68396667 302.12988,9.79796667 302.41788,9.79796667 L302.41788,9.79796667 Z" id="Path"></path>
                <path d="M538.875431,159.875667 C538.875431,156.038667 538.11588,152.239467 536.64588,148.695267 C535.17588,145.151067 533.01888,141.931767 530.30388,139.220967 C527.58888,136.510167 524.36388,134.361267 520.81788,132.897267 C517.27188,131.433267 513.47088,130.682967 509.63388,130.688667 L448.43388,130.688667 C443.73588,130.751967 439.12488,131.948667 434.98788,134.177667 C434.98788,134.177667 434.98788,49.6376667 434.88588,48.5846667 C434.40288,43.7591667 432.14388,39.2852667 428.54688,36.0317667 C424.95288,32.7785667 420.27588,30.9782667 415.42488,30.9806667 L359.56788,30.9806667 C358.26888,22.3676667 353.92488,14.5061667 347.32188,8.82566667 C340.71888,3.14516667 332.29488,0.0230666667 323.58588,0.0266666667 C323.28588,-0.0333333333 325.08588,0.0266666667 263.48988,0.0266666667 C255.53568,-0.246033333 247.71078,2.09246667 241.21038,6.68426667 C234.70998,11.2763667 229.89108,17.8697667 227.48988,25.4576667 C226.03368,30.5384667 225.45168,35.8298667 225.76788,41.1056667 L225.76788,122.585667 L172.23588,122.585667 C172.41528,119.579067 172.27038,116.561667 171.80388,113.585667 C170.69868,107.393967 167.44548,101.790267 162.61698,97.7600667 C157.78848,93.7298667 151.69338,91.5311667 145.40388,91.5506667 C100.87188,91.4156667 88.72488,91.4456667 85.34388,91.5086667 C69.24888,91.8086667 59.05488,102.413667 57.56988,115.253667 C57.30588,118.040667 57.47688,112.187667 57.3863828,182.849667 C57.34698,189.410667 59.70978,195.758667 64.02948,200.696667 C68.34918,205.634667 74.32698,208.820667 80.83488,209.654667 C84.16788,210.080667 91.94988,208.994667 99.82188,215.450667 C102.39888,217.574667 104.52078,220.193667 106.06068,223.157667 C107.60028,226.118667 108.52638,229.361667 108.78288,232.691667 C108.88188,234.119667 108.48288,230.627667 108.84588,278.816667 C108.84888,279.101667 108.96408,279.377667 109.16658,279.578667 C109.36878,279.782667 109.64268,279.896667 109.92888,279.899667 L171.12888,279.899667 C171.41448,279.893667 171.68748,279.779667 171.88938,279.578667 C172.09158,279.374667 172.20708,279.101667 172.21188,278.816667 C172.21188,278.816667 172.21188,235.016667 172.21188,234.116667 C172.11018,227.072667 169.24038,220.352667 164.22318,215.411667 C159.20598,210.467667 152.44458,207.695667 145.40088,207.698667 C142.16568,207.698667 138.96168,207.062667 135.97248,205.826667 C132.98298,204.590667 130.26648,202.775667 127.97778,200.489667 C125.68938,198.203667 123.87378,195.488667 122.63448,192.498867 C121.39548,189.510267 120.75708,186.306867 120.75588,183.071667 C120.75588,183.029667 120.75588,181.586667 120.75588,180.716667 C123.86088,182.308467 127.29018,183.165567 130.77888,183.221667 C130.91988,183.257667 188.10888,183.068667 188.25588,183.068667 C188.25588,237.299667 188.07888,232.043667 188.59488,236.369667 C189.43218,240.872667 191.80908,244.943667 195.31848,247.886667 C198.82788,250.829667 203.25138,252.458667 207.83088,252.497667 C208.13088,252.593667 206.30388,252.545667 250.48488,252.545667 C258.69588,266.249667 276.21888,276.545667 296.65188,278.075667 C296.65188,278.075667 296.60688,289.949667 296.65188,294.755667 C296.69688,299.918667 298.70688,304.868667 302.27388,308.600667 C305.84088,312.329667 310.69788,314.561667 315.85188,314.837667 C316.15188,314.837667 377.91288,314.930667 378.28788,314.783667 C380.97588,314.750667 383.63088,314.174667 386.09088,313.088667 C388.55088,312.005667 390.76788,310.436667 392.60688,308.474667 C394.44588,306.515667 395.87088,304.202667 396.79488,301.679667 C397.72188,299.153667 398.12688,296.468667 397.98888,293.783667 L397.98888,233.849667 C398.24388,233.849667 457.95888,233.849667 458.19888,233.765667 C464.66688,233.609667 470.83788,231.011667 475.46988,226.493667 L475.46988,348.731667 C475.47288,349.019667 475.58688,349.292667 475.79088,349.496667 C475.99188,349.697667 476.26488,349.817667 476.55288,349.817667 L537.75288,349.817667 C538.03788,349.811667 538.31088,349.697667 538.51488,349.493667 C538.71588,349.292667 538.83288,349.016667 538.83588,348.731667 C538.83588,348.731667 538.88088,162.527667 538.875431,159.875667 Z M335.86788,4.47566667 C341.45088,6.64676667 346.37388,10.2335667 350.15388,14.8832667 C353.93088,19.5329667 356.43288,25.0856667 357.41688,30.9956667 L354.21288,30.9956667 C349.77888,31.0010667 345.47988,32.5094667 342.01488,35.2748667 C338.54988,38.0402667 336.12288,41.8991667 335.13588,46.2206667 C334.43988,49.4276667 334.64688,47.9936667 334.64688,93.0746667 L314.41488,93.0746667 C314.12688,93.0746667 313.85088,93.1889667 313.64988,93.3920667 C313.44588,93.5951667 313.33188,93.8705667 313.33188,94.1576667 C313.33188,94.4450667 313.44588,94.7204667 313.64988,94.9235667 C313.85088,95.1266667 314.12688,95.2406667 314.41488,95.2406667 L334.64688,95.2406667 L334.64688,101.147667 L314.41488,101.147667 C314.13588,101.162367 313.87488,101.282967 313.68288,101.484867 C313.49388,101.686467 313.38588,101.954067 313.38588,102.232167 C313.38588,102.510267 313.49388,102.777867 313.68288,102.979767 C313.87488,103.181367 314.13588,103.302267 314.41488,103.316667 L334.64688,103.316667 L334.64688,110.138667 L314.41488,110.138667 C314.13588,110.153367 313.87488,110.273967 313.68288,110.475867 C313.49388,110.677467 313.38588,110.945067 313.38588,111.223167 C313.38588,111.501267 313.49388,111.768867 313.68288,111.970767 C313.87488,112.172367 314.13588,112.293267 314.41488,112.307667 L334.64688,112.307667 L334.64688,118.880667 L314.41488,118.880667 C314.12688,118.880667 313.85088,118.994967 313.64988,119.198067 C313.44588,119.401167 313.33188,119.676567 313.33188,119.963667 C313.33188,120.251067 313.44588,120.526467 313.64988,120.729567 C313.85088,120.932667 314.12688,121.046667 314.41488,121.046667 L334.64688,121.046667 L334.64688,149.201667 L314.41488,149.201667 C314.13588,149.216367 313.87488,149.336967 313.68288,149.538867 C313.49388,149.740467 313.38588,150.008067 313.38588,150.286167 C313.38588,150.564267 313.49388,150.831867 313.68288,151.033767 C313.87488,151.235367 314.13588,151.356267 314.41488,151.370667 L334.64688,151.370667 L334.64688,157.274667 L314.41488,157.274667 C314.13588,157.289367 313.87488,157.409967 313.68288,157.611867 C313.49388,157.813467 313.38588,158.081067 313.38588,158.359167 C313.38588,158.637267 313.49388,158.904867 313.68288,159.106767 C313.87488,159.308367 314.13588,159.429267 314.41488,159.443667 L334.64688,159.443667 L334.64688,166.268667 L314.41488,166.268667 C314.12688,166.268667 313.85088,166.382967 313.64988,166.586067 C313.44588,166.789167 313.33188,167.064567 313.33188,167.351667 C313.33188,167.639067 313.44588,167.914467 313.64988,168.117567 C313.85088,168.320667 314.12688,168.434667 314.41488,168.434667 L334.64688,168.434667 L334.64688,194.864667 C323.61288,189.167967 311.25288,186.543267 298.85688,187.265667 C298.85688,23.3696667 299.03688,35.7926667 298.43988,31.0856667 C297.43788,24.5816667 294.70488,18.4670667 290.52288,13.3838667 C286.34388,8.30066667 280.87368,4.43606667 274.68588,2.19566667 C324.85488,2.18066667 328.26288,1.55966667 335.86788,4.46066667 L335.86788,4.47566667 Z M289.40388,32.1836667 C289.90788,28.2620667 291.09888,24.4601667 292.92288,20.9516667 C295.46988,26.0867667 296.75988,31.7534667 296.68788,37.4846667 L296.68788,75.6086667 C295.81788,74.1086667 290.78088,65.4686667 289.13388,62.6426667 C289.13388,34.3046667 289.05888,35.5376667 289.40388,32.1686667 L289.40388,32.1836667 Z M296.68788,79.9046667 L296.68788,109.034667 C261.94188,109.034667 247.18788,109.055667 245.98788,109.001667 C246.84588,107.531667 279.64488,51.2696667 279.83388,50.9756667 L296.68788,79.9046667 Z M289.13388,111.203667 L296.68788,111.203667 C296.68788,180.299667 296.58588,186.902667 296.75088,187.382667 C294.19488,187.589367 291.65388,187.929867 289.13388,188.402667 L289.13388,111.203667 Z M145.43388,209.852667 C151.69548,209.867667 157.71828,212.255667 162.28488,216.542667 C166.85148,220.826667 169.62108,226.682667 170.03388,232.931667 C170.17488,235.331667 170.01288,277.403667 170.03388,277.712667 L111.03588,277.712667 L111.03588,235.703667 C111.18858,232.118667 110.62128,228.539667 109.36788,225.176667 C108.11418,221.813667 106.19988,218.735667 103.73718,216.125667 C101.27478,213.515667 98.31408,211.424667 95.03028,209.978667 C91.74648,208.529667 88.20618,207.755667 84.61788,207.698667 C81.34398,207.752667 78.09258,207.152667 75.05298,205.934667 C72.01368,204.719667 69.24738,202.907667 66.91578,200.609667 C64.58448,198.308667 62.73468,195.569667 61.47438,192.547767 C60.21438,189.525867 59.56908,186.282867 59.57688,183.008667 C59.57688,181.148667 59.42988,121.046667 59.60388,117.176667 C59.90058,110.965167 62.53608,105.095967 66.98118,100.747167 C71.42598,96.3983667 77.35158,93.8915667 83.56818,93.7307667 C89.78448,93.5696667 95.83188,95.7659667 100.49598,99.8789667 C105.16008,103.991967 108.09588,109.716867 108.71388,115.904667 L73.01388,115.904667 C72.72798,115.909467 72.45528,116.024967 72.25308,116.227167 C72.05118,116.429067 71.93538,116.702067 71.93088,116.987667 L71.93088,157.787667 C71.93538,158.073567 72.05118,158.346267 72.25308,158.548467 C72.45528,158.750667 72.72798,158.866167 73.01388,158.870667 L108.86688,158.870667 C108.79668,160.900467 108.90498,162.932067 109.19088,164.942667 C109.69218,167.874567 110.78748,170.672967 112.40928,173.166267 C114.03138,175.659567 116.14578,177.795267 118.62288,179.441667 L118.62288,182.660667 C118.56948,186.213867 119.22348,189.742467 120.54648,193.040367 C121.86948,196.337667 123.83538,199.340667 126.32958,201.872667 C128.82378,204.404667 131.79648,206.414667 135.07458,207.785667 C138.35298,209.156667 141.87108,209.861667 145.42488,209.861667 L145.43388,209.852667 Z M108.83388,118.070667 C108.87888,120.221667 108.86388,114.257667 108.86388,156.692667 L74.09088,156.692667 L74.09088,118.079667 L108.83388,118.070667 Z M131.01888,181.070766 C128.36028,181.079067 125.72688,180.555267 123.27408,179.530167 C120.82098,178.505067 118.59798,176.999367 116.73588,175.102167 C114.87378,173.204667 113.41008,170.953767 112.43118,168.482067 C111.45228,166.010367 110.97768,163.367667 111.03588,160.709667 C111.03588,160.709667 111.05388,118.277667 111.01788,117.338667 C110.83248,112.253667 109.19778,107.327667 106.30638,103.140567 C103.41498,98.9531667 99.38748,95.6795667 94.69788,93.7045731 L145.42488,93.7045731 C150.86058,93.6896667 156.14748,95.4779667 160.45788,98.7896667 C164.76828,102.101067 167.85858,106.748667 169.24488,112.004667 C170.05518,115.479567 170.32848,119.058267 170.05488,122.615667 C166.38198,122.732067 162.81348,123.864567 159.74538,125.887167 C156.67758,127.909767 154.23048,130.743267 152.67588,134.072667 L128.43588,134.072667 C128.14848,134.072667 127.87308,134.186967 127.66998,134.390067 C127.46688,134.593167 127.35288,134.868567 127.35288,135.155667 C127.35288,135.443067 127.46688,135.718467 127.66998,135.921567 C127.87308,136.124667 128.14848,136.238667 128.43588,136.238667 L151.83588,136.238667 C151.20288,138.144567 150.87108,140.137467 150.85188,142.145667 L128.43588,142.145667 C128.15808,142.160367 127.89648,142.280967 127.70508,142.482867 C127.51368,142.684467 127.40688,142.952067 127.40688,143.230167 C127.40688,143.508267 127.51368,143.775867 127.70508,143.977767 C127.89648,144.179367 128.15808,144.300267 128.43588,144.314667 L150.81888,144.314667 C150.81888,144.437667 150.81888,160.112667 150.81888,161.183667 C150.82128,166.442967 148.73898,171.488667 145.02828,175.215867 C141.31758,178.942767 136.28118,181.046967 131.02188,181.067667 L131.01888,181.070766 Z M188.28888,142.805667 L188.28888,180.968667 L140.47188,180.968667 C144.32118,179.116767 147.55158,176.189967 149.77338,172.541667 C151.99488,168.893367 153.11238,164.679567 152.99088,160.409667 C152.81988,143.174667 152.65188,140.279667 154.02588,136.409667 C155.44668,132.466167 158.22378,129.156567 161.86098,127.072767 C165.49818,124.989267 169.75818,124.267467 173.87868,125.036667 C177.99918,125.805567 181.71168,128.015667 184.35228,131.270967 C186.99288,134.526567 188.38938,138.615267 188.29188,142.805667 L188.28888,142.805667 Z M208.23588,250.371018 C205.85898,250.385667 203.50368,249.920667 201.31068,249.002667 C199.11798,248.084667 197.13258,246.734667 195.47388,245.033667 C193.81518,243.329667 192.51708,241.310667 191.65728,239.093667 C190.79748,236.879667 190.39338,234.512667 190.46988,232.136667 L190.46988,143.753667 C190.71018,139.876467 189.81378,136.013067 187.89048,132.637767 C185.96748,129.262467 183.10098,126.521667 179.64288,124.751667 L225.77088,124.733667 L225.77088,135.734667 L204.32088,135.734667 C204.03348,135.734667 203.75808,135.848967 203.55498,136.052067 C203.35188,136.255167 203.23788,136.530567 203.23788,136.817667 C203.23788,137.105067 203.35188,137.380467 203.55498,137.583567 C203.75808,137.786667 204.03348,137.900667 204.32088,137.900667 L225.77088,137.900667 L225.77088,144.725667 L205.82088,144.725667 C205.53348,144.725667 205.25808,144.839967 205.05498,145.043067 C204.85188,145.246167 204.73788,145.521567 204.73788,145.808667 C204.73788,146.096067 204.85188,146.371467 205.05498,146.574567 C205.25808,146.777667 205.53348,146.891667 205.82088,146.891667 L225.77088,146.891667 L225.77088,159.539667 L205.82088,159.539667 C205.54308,159.554367 205.28148,159.674967 205.09008,159.876867 C204.89868,160.078467 204.79188,160.346067 204.79188,160.624167 C204.79188,160.902267 204.89868,161.169867 205.09008,161.371767 C205.28148,161.573367 205.54308,161.694267 205.82088,161.708667 L225.77088,161.708667 L225.77088,167.612667 L205.82088,167.612667 C205.54308,167.627367 205.28148,167.747967 205.09008,167.949867 C204.89868,168.151467 204.79188,168.419067 204.79188,168.697167 C204.79188,168.975267 204.89868,169.242867 205.09008,169.444767 C205.28148,169.646367 205.54308,169.767267 205.82088,169.781667 L225.77088,169.781667 L225.77088,222.881667 L205.82088,222.881667 C205.53348,222.881667 205.25808,222.995667 205.05498,223.199667 C204.85188,223.400667 204.73788,223.676667 204.73788,223.964667 C204.73788,224.252667 204.85188,224.528667 205.05498,224.729667 C205.25808,224.933667 205.53348,225.047667 205.82088,225.047667 L225.77088,225.047667 L225.77088,231.620667 L205.82088,231.620667 C205.54308,231.635667 205.28148,231.755667 205.09008,231.956667 C204.89868,232.160667 204.79188,232.427667 204.79188,232.706667 C204.79188,232.982667 204.89868,233.249667 205.09008,233.453667 C205.28148,233.654667 205.54308,233.774667 205.82088,233.789667 L225.69888,233.789667 C225.46608,238.265667 223.52478,242.477667 220.27518,245.564667 C217.02588,248.648667 212.71668,250.371018 208.23588,250.371018 L208.23588,250.371018 Z M217.00488,250.370667 C220.41948,248.663667 223.26828,246.008667 225.20838,242.720667 C227.14848,239.435667 228.09708,235.655667 227.93988,231.842667 C227.93988,231.842667 227.93988,39.6146667 227.93988,36.6266667 C227.82588,2.53166667 273.20388,-11.3253333 291.68088,18.6956667 C288.60288,24.2252667 286.98288,30.4478667 286.97688,36.7766667 C286.97688,41.5196667 286.97688,58.9166667 286.97688,58.9166667 C286.13388,57.4616667 283.49388,52.9376667 280.76088,48.2426667 C280.66308,48.0818667 280.52568,47.9489667 280.36188,47.8568667 C280.19778,47.7644667 280.01298,47.7158667 279.82488,47.7158667 C279.63678,47.7158667 279.45168,47.7644667 279.28788,47.8568667 C279.12378,47.9489667 278.98638,48.0818667 278.88888,48.2426667 L243.14688,109.580667 C243.05388,109.745967 243.00528,109.932567 243.00618,110.122167 C243.00678,110.312067 243.05688,110.498067 243.15108,110.662767 C243.24558,110.827167 243.38088,110.964267 243.54438,111.060867 C243.70758,111.157167 243.89328,111.209667 244.08288,111.212667 L286.98288,111.212667 L286.98288,188.822667 C276.13668,191.048667 266.10468,196.193667 257.96988,203.705667 C251.49348,209.381667 247.11408,217.070667 245.53608,225.533667 C243.95808,233.999667 245.27328,242.750667 249.26988,250.376667 L217.00488,250.370667 Z M247.08588,236.144667 C245.00088,215.990667 261.12288,199.349667 279.59088,193.160667 C288.55488,190.001967 298.07988,188.738967 307.55688,189.452367 C317.03688,190.165467 326.26488,192.839067 334.65588,197.303667 L334.65588,268.133667 C299.15688,287.759667 250.53588,269.480667 247.07688,236.150667 L247.08588,236.144667 Z M300.90288,303.104667 C298.01088,297.638667 298.85688,290.504667 298.85688,284.480667 L298.85688,278.204667 C311.25288,278.948667 323.61888,276.326667 334.64688,270.614667 L334.64688,282.614667 L314.41488,282.614667 C314.13588,282.629667 313.87488,282.749667 313.68288,282.950667 C313.49388,283.154667 313.38588,283.421667 313.38588,283.700667 C313.38588,283.976667 313.49388,284.243667 313.68288,284.447667 C313.87488,284.648667 314.13588,284.768667 314.41488,284.783667 L334.64688,284.783667 L334.64688,291.356667 L314.41488,291.356667 C314.13588,291.371667 313.87488,291.491667 313.68288,291.692667 C313.49388,291.896667 313.38588,292.163667 313.38588,292.442667 C313.38588,292.718667 313.49388,292.985667 313.68288,293.189667 C313.87488,293.390667 314.13588,293.510667 314.41488,293.525667 L334.64688,293.525667 C334.64688,293.810667 334.64688,294.092667 334.64688,294.377667 C334.68288,296.951667 334.17588,299.504667 333.15888,301.871667 C332.13888,304.235667 330.63588,306.359667 328.73988,308.102667 C326.70888,309.923667 324.29088,311.258667 321.66888,312.005667 C319.04388,312.752667 316.28388,312.887667 313.59888,312.407667 C310.91388,311.924667 308.37588,310.835667 306.17688,309.224667 C303.97488,307.613667 302.17188,305.519667 300.90288,303.104667 L300.90288,303.104667 Z M395.53488,298.181667 C394.70388,302.399667 392.39088,306.179667 389.01288,308.840667 C385.63488,311.498667 381.41988,312.863667 377.12388,312.683667 L325.70688,312.683667 C329.24388,310.922667 332.18088,308.159667 334.15488,304.736667 C336.12888,301.313667 337.05288,297.386667 336.80688,293.444667 L336.80688,51.0656667 C336.76188,48.6662667 337.20288,46.2821667 338.09988,44.0567667 C338.99988,41.8313667 340.33788,39.8102667 342.03588,38.1146667 C344.18688,36.0194667 346.84188,34.5149667 349.74288,33.7478667 C352.64688,32.9804667 355.69788,32.9759667 358.60188,33.7352667 C361.50588,34.4942667 364.16688,35.9909667 366.32088,38.0801667 C368.47788,40.1693667 370.05888,42.7802667 370.90788,45.6596667 C371.91588,49.2596667 372.37788,35.5526667 371.60388,208.391667 C371.52288,214.955667 374.01288,221.288667 378.54588,226.034667 C383.07588,230.783667 389.28888,233.567667 395.84688,233.792667 L395.84688,285.872667 C396.12888,289.976667 396.02688,294.098667 395.53488,298.184667 L395.53488,298.181667 Z M373.77888,208.742667 C373.77888,207.911667 373.77888,51.5006667 373.77888,50.5766667 C373.77288,46.9667667 372.76788,43.4288667 370.88088,40.3529667 C368.99088,37.2767667 366.28788,34.7822667 363.07188,33.1436667 L415.41888,33.1436667 C417.74388,33.1514667 420.04188,33.6227667 422.18088,34.5302667 C424.31988,35.4377667 426.25788,36.7631667 427.87788,38.4287667 C429.49788,40.0940667 430.76988,42.0662667 431.61888,44.2295667 C432.46788,46.3928667 432.87588,48.7037667 432.81888,51.0266667 L432.81888,135.461667 C427.57488,138.851067 423.55788,143.833167 421.35888,149.675667 C419.78388,154.810467 419.17488,160.191867 419.55888,165.548667 C416.42988,165.548667 413.29788,165.548667 410.16888,165.548667 C404.65188,165.539067 399.31788,167.541567 395.16888,171.180867 C391.02288,174.820167 388.34388,179.846667 387.63588,185.319267 C386.92488,190.791867 388.23588,196.334667 391.31988,200.909667 C394.40688,205.487667 399.05088,208.781667 404.39088,210.176667 C409.35888,211.025667 414.41088,211.268667 419.43888,210.905667 C418.89288,216.764667 416.10588,222.188667 411.66288,226.049667 C407.21988,229.910667 401.45988,231.908667 395.58288,231.629667 C389.70288,231.350667 384.15588,228.818667 380.09688,224.555667 C376.03788,220.292667 373.77888,214.631667 373.78788,208.745667 L373.77888,208.742667 Z M475.50288,223.232667 C473.40588,225.788667 470.78088,227.858667 467.81088,229.310667 C464.84088,230.759667 461.59188,231.551667 458.28888,231.632667 C456.71988,231.659667 467.87388,231.632667 406.73088,231.632667 C410.84088,229.823667 414.38688,226.943667 417.00288,223.295667 C419.61888,219.647667 421.20888,215.366667 421.60488,210.893667 L475.50288,210.893667 L475.50288,223.232667 Z M475.50288,208.733667 L410.34888,208.733667 C405.16488,208.799667 400.14888,206.897667 396.30888,203.414667 C392.47188,199.934667 390.09288,195.125667 389.65188,189.961467 C389.21388,184.796367 390.74388,179.656467 393.93888,175.574967 C397.13688,171.493467 401.75688,168.773067 406.87788,167.960667 C409.57788,167.606667 404.45988,167.714667 475.50288,167.714667 L475.50288,208.733667 Z M475.50288,165.533667 L421.72788,165.533667 C421.72788,161.333667 421.63788,159.833667 421.88688,156.716667 C422.64888,150.023067 425.89188,143.858367 430.97988,139.442367 C436.06788,135.026667 442.62888,132.680967 449.36388,132.869367 C456.09588,133.058067 462.51588,135.767067 467.34888,140.460567 C472.18188,145.154367 475.07688,151.490967 475.46088,158.216667 C475.58988,160.652667 475.50288,163.112667 475.50288,165.542667 L475.50288,165.533667 Z M536.68188,347.633667 L477.66888,347.633667 C477.66888,347.633667 477.66888,162.470667 477.66888,159.833667 C477.64188,154.052667 475.91088,148.407867 472.69188,143.605767 C469.47288,138.803367 464.90988,135.056367 459.57288,132.833041 L509.63388,132.833041 C516.58488,132.786267 523.28688,135.432867 528.32988,140.218467 C533.37288,145.004067 536.36688,151.556667 536.68188,158.501667 C536.76288,160.469667 536.53188,344.258667 536.68188,347.648667 L536.68188,347.633667 Z" id="Shape"></path>
                <path d="M520.53588,304.694667 L494.56488,304.694667 C494.27688,304.694667 494.00088,304.808667 493.79988,305.012667 C493.59588,305.216667 493.48188,305.489667 493.48188,305.777667 C493.48188,306.065667 493.59588,306.341667 493.79988,306.542667 C494.00088,306.746667 494.27688,306.860667 494.56488,306.860667 L520.53588,306.860667 C520.82388,306.860667 521.09988,306.746667 521.30088,306.542667 C521.50488,306.341667 521.61888,306.065667 521.61888,305.777667 C521.61888,305.489667 521.50488,305.216667 521.30088,305.012667 C521.09988,304.808667 520.82388,304.694667 520.53588,304.694667 Z" id="Path"></path>
                <path d="M520.53588,295.952667 L494.56488,295.952667 C494.28588,295.967667 494.02488,296.087667 493.83288,296.288667 C493.64388,296.492667 493.53588,296.759667 493.53588,297.038667 C493.53588,297.314667 493.64388,297.581667 493.83288,297.785667 C494.02488,297.986667 494.28588,298.106667 494.56488,298.121667 L520.53588,298.121667 C520.81488,298.106667 521.07588,297.986667 521.26788,297.785667 C521.45688,297.581667 521.56488,297.314667 521.56488,297.038667 C521.56488,296.759667 521.45688,296.492667 521.26788,296.288667 C521.07588,296.087667 520.81488,295.967667 520.53588,295.952667 L520.53588,295.952667 Z" id="Path"></path>
                <path d="M520.53588,179.153667 L494.56488,179.153667 C494.28588,179.168367 494.02488,179.288967 493.83288,179.490867 C493.64388,179.692467 493.53588,179.960067 493.53588,180.238167 C493.53588,180.516267 493.64388,180.783867 493.83288,180.985767 C494.02488,181.187367 494.28588,181.308267 494.56488,181.322667 L520.53588,181.322667 C520.81488,181.308267 521.07588,181.187367 521.26788,180.985767 C521.45688,180.783867 521.56488,180.516267 521.56488,180.238167 C521.56488,179.960067 521.45688,179.692467 521.26788,179.490867 C521.07588,179.288967 520.81488,179.168367 520.53588,179.153667 Z" id="Path"></path>
                <path d="M520.53588,171.080667 L494.56488,171.080667 C494.28588,171.095367 494.02488,171.215967 493.83288,171.417567 C493.64388,171.619467 493.53588,171.887067 493.53588,172.165167 C493.53588,172.443267 493.64388,172.710867 493.83288,172.912467 C494.02488,173.114367 494.28588,173.234967 494.56488,173.249667 L520.53588,173.249667 C520.81488,173.234967 521.07588,173.114367 521.26788,172.912467 C521.45688,172.710867 521.56488,172.443267 521.56488,172.165167 C521.56488,171.887067 521.45688,171.619467 521.26788,171.417567 C521.07588,171.215967 520.81488,171.095367 520.53588,171.080667 Z" id="Path"></path>
                <path d="M520.53588,162.341667 L494.56488,162.341667 C494.27688,162.341667 494.00088,162.455967 493.79988,162.659067 C493.59588,162.862167 493.48188,163.137567 493.48188,163.424667 C493.48188,163.712067 493.59588,163.987467 493.79988,164.190567 C494.00088,164.393667 494.27688,164.507667 494.56488,164.507667 L520.53588,164.507667 C520.82388,164.507667 521.09988,164.393667 521.30088,164.190567 C521.50488,163.987467 521.61888,163.712067 521.61888,163.424667 C521.61888,163.137567 521.50488,162.862167 521.30088,162.659067 C521.09988,162.455967 520.82388,162.341667 520.53588,162.341667 L520.53588,162.341667 Z" id="Path"></path>
                <path d="M520.53588,153.350967 L494.56488,153.350967 C494.27688,153.350967 494.00088,153.464967 493.79988,153.668067 C493.59588,153.871167 493.48188,154.146567 493.48188,154.433967 C493.48188,154.721067 493.59588,154.996467 493.79988,155.199567 C494.00088,155.402667 494.27688,155.516967 494.56488,155.516967 L520.53588,155.516967 C520.82388,155.516967 521.09988,155.402667 521.30088,155.199567 C521.50488,154.996467 521.61888,154.721067 521.61888,154.433967 C521.61888,154.146567 521.50488,153.871167 521.30088,153.668067 C521.09988,153.464967 520.82388,153.350967 520.53588,153.350967 L520.53588,153.350967 Z" id="Path"></path>
                <path d="M154.92288,261.767667 L128.94888,261.767667 C128.67108,261.782667 128.40978,261.902667 128.21808,262.103667 C128.02668,262.307667 127.92018,262.574667 127.92018,262.850667 C127.92018,263.129667 128.02668,263.396667 128.21808,263.600667 C128.40978,263.801667 128.67108,263.921667 128.94888,263.936667 L154.92288,263.936667 C155.20068,263.921667 155.46228,263.801667 155.65368,263.600667 C155.84508,263.396667 155.95188,263.129667 155.95188,262.850667 C155.95188,262.574667 155.84508,262.307667 155.65368,262.103667 C155.46228,261.902667 155.20068,261.782667 154.92288,261.767667 L154.92288,261.767667 Z" id="Path"></path>
                <path d="M127.90188,254.804667 C127.91148,255.080667 128.02488,255.338667 128.21928,255.533667 C128.41368,255.728667 128.67438,255.842667 128.94888,255.851667 L154.92288,255.851667 C155.20068,255.836667 155.46228,255.716667 155.65368,255.515667 C155.84508,255.311667 155.95188,255.044667 155.95188,254.768667 C155.95188,254.489667 155.84508,254.222667 155.65368,254.018667 C155.46228,253.817667 155.20068,253.697667 154.92288,253.682667 L128.94888,253.682667 C128.66148,253.694667 128.39028,253.817667 128.19408,254.027667 C127.99788,254.237667 127.89288,254.516667 127.90188,254.804667 L127.90188,254.804667 Z" id="Path"></path>
                <path d="M123.40488,222.935667 C123.41388,223.208667 123.52668,223.469667 123.72048,223.664667 C123.91428,223.859667 124.17468,223.973667 124.44888,223.982667 L150.42288,223.982667 C150.71028,223.982667 150.98568,223.868667 151.18878,223.664667 C151.39188,223.463667 151.50588,223.187667 151.50588,222.899667 C151.50588,222.611667 151.39188,222.335667 151.18878,222.134667 C150.98568,221.930667 150.71028,221.816667 150.42288,221.816667 L124.44888,221.816667 C124.30698,221.822667 124.16718,221.852667 124.03758,221.912667 C123.90828,221.972667 123.79158,222.056667 123.69468,222.158667 C123.59748,222.263667 123.52218,222.386667 123.47238,222.518667 C123.42258,222.650667 123.39978,222.794667 123.40488,222.935667 L123.40488,222.935667 Z" id="Path"></path>
                <path d="M115.90488,215.651667 C115.91448,215.927667 116.02788,216.185667 116.22228,216.380667 C116.41668,216.575667 116.67738,216.689667 116.95188,216.698667 L142.92588,216.698667 C143.20368,216.683667 143.46528,216.563667 143.65668,216.362667 C143.84808,216.158667 143.95488,215.891667 143.95488,215.615667 C143.95488,215.336667 143.84808,215.069667 143.65668,214.865667 C143.46528,214.664667 143.20368,214.544667 142.92588,214.529667 L116.95188,214.529667 C116.66448,214.538667 116.39268,214.664667 116.19618,214.874667 C115.99998,215.084667 115.89528,215.363667 115.90488,215.651667 Z" id="Path"></path>
                <path d="M520.53588,242.882667 L494.56488,242.882667 C494.28588,242.897667 494.02488,243.017667 493.83288,243.218667 C493.64388,243.422667 493.53588,243.689667 493.53588,243.968667 C493.53588,244.244667 493.64388,244.511667 493.83288,244.715667 C494.02488,244.916667 494.28588,245.036667 494.56488,245.051667 L520.53588,245.051667 C520.81488,245.036667 521.07588,244.916667 521.26788,244.715667 C521.45688,244.511667 521.56488,244.244667 521.56488,243.968667 C521.56488,243.689667 521.45688,243.422667 521.26788,243.218667 C521.07588,243.017667 520.81488,242.897667 520.53588,242.882667 L520.53588,242.882667 Z" id="Path"></path>
                <path d="M520.53588,233.891667 L494.56488,233.891667 C494.28588,233.906667 494.02488,234.026667 493.83288,234.227667 C493.64388,234.431667 493.53588,234.698667 493.53588,234.977667 C493.53588,235.253667 493.64388,235.520667 493.83288,235.724667 C494.02488,235.925667 494.28588,236.045667 494.56488,236.060667 L520.53588,236.060667 C520.81488,236.045667 521.07588,235.925667 521.26788,235.724667 C521.45688,235.520667 521.56488,235.253667 521.56488,234.977667 C521.56488,234.698667 521.45688,234.431667 521.26788,234.227667 C521.07588,234.026667 520.81488,233.906667 520.53588,233.891667 L520.53588,233.891667 Z" id="Path"></path>
                <path d="M520.53588,217.076667 L494.56488,217.076667 C494.28588,217.091667 494.02488,217.211667 493.83288,217.412667 C493.64388,217.616667 493.53588,217.883667 493.53588,218.162667 C493.53588,218.438667 493.64388,218.705667 493.83288,218.909667 C494.02488,219.110667 494.28588,219.230667 494.56488,219.245667 L520.53588,219.245667 C520.81488,219.230667 521.07588,219.110667 521.26788,218.909667 C521.45688,218.705667 521.56488,218.438667 521.56488,218.162667 C521.56488,217.883667 521.45688,217.616667 521.26788,217.412667 C521.07588,217.211667 520.81488,217.091667 520.53588,217.076667 L520.53588,217.076667 Z" id="Path"></path>
                <path d="M520.53588,208.088667 L494.56488,208.088667 C494.27688,208.088667 494.00088,208.202667 493.79988,208.406667 C493.59588,208.607667 493.48188,208.883667 493.48188,209.171667 C493.48188,209.459667 493.59588,209.735667 493.79988,209.936667 C494.00088,210.140667 494.27688,210.254667 494.56488,210.254667 L520.53588,210.254667 C520.82388,210.254667 521.09988,210.140667 521.30088,209.936667 C521.50488,209.735667 521.61888,209.459667 521.61888,209.171667 C521.61888,208.883667 521.50488,208.607667 521.30088,208.406667 C521.09988,208.202667 520.82388,208.088667 520.53588,208.088667 L520.53588,208.088667 Z" id="Path"></path>
                <path d="M517.08588,144.404667 C517.07688,144.130467 516.96288,143.869767 516.77088,143.675367 C516.57588,143.480967 516.31488,143.367567 516.04188,143.357667 L490.06788,143.357667 C489.77988,143.357667 489.50388,143.471967 489.30288,143.675067 C489.09888,143.878167 488.98488,144.153567 488.98488,144.440667 C488.98488,144.728067 489.09888,145.003467 489.30288,145.206567 C489.50388,145.409667 489.77988,145.523667 490.06788,145.523667 L516.03588,145.523667 C516.17988,145.519767 516.31788,145.487667 516.44988,145.429167 C516.57888,145.370967 516.69588,145.287267 516.79488,145.183167 C516.89088,145.079067 516.96888,144.956667 517.01688,144.823167 C517.06788,144.689667 517.09188,144.547467 517.08588,144.404667 L517.08588,144.404667 Z" id="Path"></path>
                <path d="M509.58888,136.904667 C509.57988,136.629867 509.46588,136.368867 509.27388,136.174467 C509.07888,135.980067 508.81788,135.866667 508.54188,135.857667 L482.57088,135.857667 C482.29188,135.872367 482.03088,135.992967 481.83888,136.194867 C481.64988,136.396467 481.54188,136.664067 481.54188,136.942167 C481.54188,137.220267 481.64988,137.487867 481.83888,137.689767 C482.03088,137.891367 482.29188,138.012267 482.57088,138.026667 L508.53588,138.026667 C508.67988,138.022467 508.82088,137.990067 508.94988,137.931267 C509.07888,137.872467 509.19888,137.788767 509.29488,137.684367 C509.39388,137.580267 509.46888,137.457567 509.51988,137.323767 C509.57088,137.189967 509.59488,137.047767 509.58888,136.904667 L509.58888,136.904667 Z" id="Path"></path>
                <path d="M391.67088,159.572667 L417.63588,159.572667 C417.91488,159.558267 418.17588,159.437367 418.36788,159.235767 C418.55688,159.033867 418.66488,158.766267 418.66488,158.488167 C418.66488,158.210067 418.55688,157.942467 418.36788,157.740867 C418.17588,157.538967 417.91488,157.418367 417.63588,157.403667 L391.66188,157.403667 C391.38288,157.418367 391.12188,157.538967 390.92988,157.740867 C390.74088,157.942467 390.63288,158.210067 390.63288,158.488167 C390.63288,158.766267 390.74088,159.033867 390.92988,159.235767 C391.12188,159.437367 391.38288,159.558267 391.66188,159.572667 L391.67088,159.572667 Z" id="Path"></path>
                <path d="M391.67088,150.581967 L417.63588,150.581967 C417.91488,150.567267 418.17588,150.446667 418.36788,150.244767 C418.55688,150.043167 418.66488,149.775567 418.66488,149.497467 C418.66488,149.219367 418.55688,148.951767 418.36788,148.749867 C418.17588,148.548267 417.91488,148.427667 417.63588,148.412967 L391.66188,148.412967 C391.38288,148.427667 391.12188,148.548267 390.92988,148.749867 C390.74088,148.951767 390.63288,149.219367 390.63288,149.497467 C390.63288,149.775567 390.74088,150.043167 390.92988,150.244767 C391.12188,150.446667 391.38288,150.567267 391.66188,150.581967 L391.67088,150.581967 Z" id="Path"></path>
                <path d="M391.67088,142.508667 L417.63588,142.508667 C417.91488,142.494267 418.17588,142.373667 418.36788,142.171767 C418.55688,141.969867 418.66488,141.702567 418.66488,141.424167 C418.66488,141.146067 418.55688,140.878467 418.36788,140.676867 C418.17588,140.474967 417.91488,140.354367 417.63588,140.339667 L391.66188,140.339667 C391.38288,140.354367 391.12188,140.474967 390.92988,140.676867 C390.74088,140.878467 390.63288,141.146067 390.63288,141.424167 C390.63288,141.702567 390.74088,141.969867 390.92988,142.171767 C391.12188,142.373667 391.38288,142.494267 391.66188,142.508667 L391.67088,142.508667 Z" id="Path"></path>
                <path d="M391.67088,120.269967 L417.63588,120.269967 C417.92388,120.269967 418.19988,120.155667 418.40088,119.952567 C418.60488,119.749467 418.71888,119.474067 418.71888,119.186967 C418.71888,118.899567 418.60488,118.624167 418.40088,118.421067 C418.19988,118.217967 417.92388,118.103967 417.63588,118.103967 L391.66188,118.103967 C391.37388,118.103967 391.09788,118.217967 390.89688,118.421067 C390.69288,118.624167 390.57888,118.899567 390.57888,119.186967 C390.57888,119.474067 390.69288,119.749467 390.89688,119.952567 C391.09788,120.155667 391.37388,120.269967 391.66188,120.269967 L391.67088,120.269967 Z" id="Path"></path>
                <path d="M391.67088,111.278667 L417.63588,111.278667 C417.92388,111.278667 418.19988,111.164667 418.40088,110.961567 C418.60488,110.758467 418.71888,110.482767 418.71888,110.195667 C418.71888,109.908267 418.60488,109.632867 418.40088,109.429767 C418.19988,109.226667 417.92388,109.112667 417.63588,109.112667 L391.66188,109.112667 C391.37388,109.112667 391.09788,109.226667 390.89688,109.429767 C390.69288,109.632867 390.57888,109.908267 390.57888,110.195667 C390.57888,110.482767 390.69288,110.758467 390.89688,110.961567 C391.09788,111.164667 391.37388,111.278667 391.66188,111.278667 L391.67088,111.278667 Z" id="Path"></path>
                <path d="M391.67088,78.8276667 L417.63588,78.8276667 C417.91488,78.8129667 418.17588,78.6923667 418.36788,78.4904667 C418.55688,78.2888667 418.66488,78.0212667 418.66488,77.7431667 C418.66488,77.4650667 418.55688,77.1974667 418.36788,76.9955667 C418.17588,76.7939667 417.91488,76.6733667 417.63588,76.6586667 L391.66188,76.6586667 C391.38288,76.6733667 391.12188,76.7939667 390.92988,76.9955667 C390.74088,77.1974667 390.63288,77.4650667 390.63288,77.7431667 C390.63288,78.0212667 390.74088,78.2888667 390.92988,78.4904667 C391.12188,78.6923667 391.38288,78.8129667 391.66188,78.8276667 L391.67088,78.8276667 Z" id="Path"></path>
                <path d="M391.67088,69.8366667 L417.63588,69.8366667 C417.91488,69.8222667 418.17588,69.7016667 418.36788,69.4997667 C418.55688,69.2978667 418.66488,69.0305667 418.66488,68.7521667 C418.66488,68.4740667 418.55688,68.2064667 418.36788,68.0048667 C418.17588,67.8029667 417.91488,67.6823667 417.63588,67.6676667 L391.66188,67.6676667 C391.38288,67.6823667 391.12188,67.8029667 390.92988,68.0048667 C390.74088,68.2064667 390.63288,68.4740667 390.63288,68.7521667 C390.63288,69.0305667 390.74088,69.2978667 390.92988,69.4997667 C391.12188,69.7016667 391.38288,69.8222667 391.66188,69.8366667 L391.67088,69.8366667 Z" id="Path"></path>
                <path d="M109.96788,291.257667 L170.15688,291.257667 C170.43468,291.242667 170.69628,291.122667 170.88768,290.921667 C171.07908,290.717667 171.18588,290.450667 171.18588,290.174667 C171.18588,289.895667 171.07908,289.628667 170.88768,289.424667 C170.69628,289.223667 170.43468,289.103667 170.15688,289.088667 L109.96788,289.088667 C109.69008,289.103667 109.42848,289.223667 109.23708,289.424667 C109.04568,289.628667 108.93888,289.895667 108.93888,290.174667 C108.93888,290.450667 109.04568,290.717667 109.23708,290.921667 C109.42848,291.122667 109.69008,291.242667 109.96788,291.257667 Z" id="Path"></path>
                <path d="M109.96788,298.619667 L170.15688,298.619667 C170.43468,298.604667 170.69628,298.484667 170.88768,298.283667 C171.07908,298.079667 171.18588,297.812667 171.18588,297.536667 C171.18588,297.257667 171.07908,296.990667 170.88768,296.786667 C170.69628,296.585667 170.43468,296.465667 170.15688,296.450667 L109.96788,296.450667 C109.69008,296.465667 109.42848,296.585667 109.23708,296.786667 C109.04568,296.990667 108.93888,297.257667 108.93888,297.536667 C108.93888,297.812667 109.04568,298.079667 109.23708,298.283667 C109.42848,298.484667 109.69008,298.604667 109.96788,298.619667 Z" id="Path"></path>
                <path d="M537.63588,386.228667 L477.45888,386.228667 C477.17988,386.243667 476.91888,386.363667 476.72688,386.564667 C476.53788,386.768667 476.42988,387.035667 476.42988,387.314667 C476.42988,387.590667 476.53788,387.857667 476.72688,388.061667 C476.91888,388.262667 477.17988,388.382667 477.45888,388.397667 L537.63588,388.397667 C537.91488,388.382667 538.17588,388.262667 538.36788,388.061667 C538.55688,387.857667 538.66488,387.590667 538.66488,387.314667 C538.66488,387.035667 538.55688,386.768667 538.36788,386.564667 C538.17588,386.363667 537.91488,386.243667 537.63588,386.228667 Z" id="Path"></path>
                <path d="M537.63588,378.104667 L477.45888,378.104667 C477.17988,378.119667 476.91888,378.239667 476.72688,378.440667 C476.53788,378.644667 476.42988,378.911667 476.42988,379.190667 C476.42988,379.466667 476.53788,379.733667 476.72688,379.937667 C476.91888,380.138667 477.17988,380.258667 477.45888,380.273667 L537.63588,380.273667 C537.91488,380.258667 538.17588,380.138667 538.36788,379.937667 C538.55688,379.733667 538.66488,379.466667 538.66488,379.190667 C538.66488,378.911667 538.55688,378.644667 538.36788,378.440667 C538.17588,378.239667 537.91488,378.119667 537.63588,378.104667 L537.63588,378.104667 Z" id="Path"></path>
                <path d="M170.15718,305.138667 L109.96818,305.138667 C108.94818,305.138667 108.42318,306.677667 109.42218,307.157667 C112.86618,308.813667 138.28818,321.134667 139.48818,321.614667 C140.50218,322.022667 141.88818,321.014667 142.80918,320.570667 C155.54118,314.444667 163.80918,310.280667 170.57118,307.223667 C170.80038,307.124667 170.98908,306.953667 171.10578,306.731667 C171.22218,306.512667 171.25908,306.257667 171.21048,306.014667 C171.16218,305.768667 171.03078,305.549667 170.83908,305.387667 C170.64708,305.228667 170.40648,305.141667 170.15718,305.138667 Z M140.06418,319.493667 L114.71718,307.304667 L165.41718,307.304667 L140.06418,319.493667 Z" id="Shape"></path>
                <path d="M538.26288,369.806667 C537.75588,369.539667 509.16288,355.733667 508.12788,355.316667 C507.09288,354.899667 505.71288,355.916667 504.80688,356.360667 C504.39888,356.555667 491.30688,362.888667 476.90688,369.773667 C475.90788,370.253667 476.43288,371.792667 477.45288,371.792667 L537.63588,371.792667 C537.86688,371.801667 538.09188,371.729667 538.27488,371.585667 C538.45788,371.444667 538.58388,371.243667 538.63188,371.018667 C538.74288,370.808667 538.76688,370.562667 538.69788,370.337667 C538.62888,370.109667 538.47288,369.920667 538.26288,369.806667 L538.26288,369.806667 Z M482.20788,369.626667 L507.55188,357.440667 L532.89888,369.626667 L482.20788,369.626667 Z" id="Shape"></path>
                <path d="M532.31688,109.031967 C532.58988,109.021467 532.85088,108.907767 533.04588,108.713367 C533.23788,108.519267 533.35188,108.258867 533.36088,107.984967 L533.36088,80.2649667 C533.36088,79.9775667 533.24688,79.7021667 533.04288,79.4990667 C532.84188,79.2959667 532.56588,79.1819667 532.27788,79.1819667 C531.98988,79.1819667 531.71388,79.2959667 531.51288,79.4990667 C531.30888,79.7021667 531.19488,79.9775667 531.19488,80.2649667 L531.19488,107.984967 C531.20088,108.127467 531.23088,108.267567 531.29088,108.397467 C531.35088,108.527067 531.43488,108.644067 531.53688,108.741267 C531.64188,108.838767 531.76488,108.914367 531.89988,108.964167 C532.03188,109.013967 532.17288,109.037067 532.31688,109.031967 L532.31688,109.031967 Z" id="Path"></path>
                <path d="M560.71188,90.7346667 C560.51088,90.5456667 560.24688,90.4403667 559.97088,90.4403667 C559.69488,90.4403667 559.43088,90.5456667 559.22988,90.7346667 C551.86488,97.8506667 544.62288,105.093567 537.50388,112.463667 C537.32088,112.670667 537.22188,112.940067 537.23088,113.216367 C537.23988,113.492967 537.35388,113.755767 537.54888,113.951367 C537.74388,114.146967 538.00788,114.260667 538.28388,114.269067 C538.55988,114.277467 538.82988,114.179967 539.03688,113.996667 L560.76288,92.2676667 C560.86188,92.1635667 560.93688,92.0414667 560.98788,91.9082667 C561.03588,91.7747667 561.05988,91.6328667 561.05688,91.4903667 C561.05088,91.3481667 561.01788,91.2080667 560.95788,91.0781667 C560.90088,90.9485667 560.81688,90.8318667 560.71188,90.7346667 L560.71188,90.7346667 Z" id="Path"></path>
                <path d="M568.98888,118.139667 L545.01288,118.139667 C544.73388,118.154367 544.47288,118.274967 544.28088,118.476867 C544.09188,118.678467 543.98388,118.946067 543.98388,119.224167 C543.98388,119.502267 544.09188,119.769867 544.28088,119.971767 C544.47288,120.173367 544.73388,120.293967 545.01288,120.308667 L568.98888,120.308667 C569.26788,120.293967 569.52888,120.173367 569.72088,119.971767 C569.90988,119.769867 570.01788,119.502267 570.01788,119.224167 C570.01788,118.946067 569.90988,118.678467 569.72088,118.476867 C569.52888,118.274967 569.26788,118.154367 568.98888,118.139667 Z" id="Path"></path>
                <path d="M35.09388,162.638667 C35.08488,162.364767 34.97208,162.104367 34.77828,161.910567 C34.58448,161.716467 34.32408,161.603667 34.04988,161.594667 L1.083,161.594667 C0.79575,161.594667 0.52029,161.708667 0.31719,161.911767 C0.11409,162.114867 5.32907052e-15,162.390567 5.32907052e-15,162.677667 C5.32907052e-15,162.964767 0.11409,163.240467 0.31719,163.443567 C0.52029,163.646667 0.79575,163.760667 1.083,163.760667 L34.04988,163.760667 C34.19238,163.755567 34.33218,163.722567 34.46148,163.663467 C34.59108,163.604367 34.70748,163.520367 34.80468,163.415967 C34.90158,163.311867 34.97688,163.189467 35.02668,163.056267 C35.07618,162.922767 35.09928,162.780867 35.09388,162.638667 L35.09388,162.638667 Z" id="Path"></path>
                <path d="M35.52888,155.951667 C35.73498,156.141567 36.00648,156.244467 36.28638,156.239269 C36.56658,156.233367 36.83388,156.119667 37.03218,155.921967 C37.23048,155.723967 37.34448,155.456967 37.35078,155.176767 C37.35678,154.896867 37.25448,154.625067 37.06488,154.418667 C30.93288,148.064667 24.68988,141.826767 18.33588,135.704667 C18.12888,135.521367 17.85948,135.423867 17.58288,135.432267 C17.30658,135.440667 17.04378,135.554367 16.84818,135.749967 C16.65258,135.945567 16.53888,136.208367 16.53048,136.484967 C16.52208,136.761267 16.61958,137.030667 16.80288,137.237667 C22.93698,143.575767 29.17878,149.813667 35.52888,155.951667 Z" id="Path"></path>
                <path d="M36.27888,169.403667 L18.29688,187.382667 C18.11358,187.589967 18.01638,187.859067 18.02478,188.135667 C18.03318,188.412267 18.14658,188.675067 18.34218,188.870667 C18.53778,189.066267 18.80058,189.179667 19.07718,189.188067 C19.35378,189.196467 19.62288,189.099267 19.82988,188.915667 L37.81188,170.936667 C37.99548,170.729667 38.09268,170.460567 38.08428,170.183967 C38.07588,169.907367 37.96248,169.644567 37.76688,169.448967 C37.57128,169.253367 37.30848,169.139967 37.03188,169.131567 C36.75528,169.123167 36.48618,169.220367 36.27888,169.403667 L36.27888,169.403667 Z" id="Path"></path>
                <path d="M260.94588,278.723667 L249.08088,292.304667 C248.18088,293.351667 249.68088,294.890667 250.61688,293.837667 L262.47888,280.256667 C263.39088,279.209667 261.86388,277.670667 260.94588,278.723667 Z" id="Path"></path>
                <path d="M264.33588,282.977667 C263.09988,288.977667 261.86268,294.977667 260.62488,300.977667 C260.34288,302.339667 262.42488,302.921667 262.72488,301.553667 C263.96088,295.553667 265.19778,289.553667 266.43588,283.553667 C266.70288,282.191667 264.61488,281.609667 264.33588,282.977667 Z" id="Path"></path>
                <path d="M255.48888,278.429667 L236.85588,286.178667 C235.58688,286.706667 236.14488,288.806667 237.43488,288.278667 L256.06488,280.529667 C257.33388,280.004667 256.77588,277.904667 255.48888,278.429667 Z" id="Path"></path>
                <path d="M237.63618,79.7069667 C236.96118,80.9279667 238.83618,82.0229667 239.50818,80.7989667 C244.88718,71.1071667 252.17028,62.6027667 260.91918,55.7969667 C261.16128,55.6457667 261.33648,55.4078667 261.40848,55.1315667 C261.48048,54.8552667 261.44388,54.5618667 261.30618,54.3119667 C261.23448,54.1889667 261.13938,54.0812667 261.02598,53.9951667 C260.91258,53.9090667 260.78328,53.8463667 260.64558,53.8103667 C260.50788,53.7743667 260.36448,53.7659667 260.22348,53.7854667 C260.08248,53.8052667 259.94688,53.8526667 259.82418,53.9249667 C250.73388,60.9017667 243.18048,69.6785667 237.63618,79.7069667 L237.63618,79.7069667 Z" id="Path"></path>
                <path d="M233.22888,75.3746667 C238.60938,65.6837667 245.89218,57.1799667 254.63988,50.3726667 C254.88408,50.2235667 255.06168,49.9859667 255.13518,49.7093667 C255.20898,49.4327667 255.17358,49.1384667 255.03588,48.8876667 C254.96418,48.7646667 254.86908,48.6569667 254.75568,48.5708667 C254.64228,48.4847667 254.51298,48.4217667 254.37528,48.3860667 C254.23758,48.3500667 254.09418,48.3416667 253.95318,48.3611667 C253.81218,48.3809667 253.67658,48.4283667 253.55388,48.5006667 C244.45878,55.4756667 236.90118,64.2527667 231.35388,74.2826667 C230.68188,75.5036667 232.55388,76.6046667 233.22888,75.3746667 Z" id="Path"></path>
                <path d="M414.08988,189.152667 C413.49288,189.210267 412.91388,189.393867 412.39188,189.691167 C411.86988,189.988167 411.41688,190.392567 411.06288,190.877367 C410.70588,191.361867 410.45988,191.916267 410.33388,192.503667 C410.20788,193.091067 410.20788,193.698267 410.33388,194.285667 C410.37288,194.423667 410.43588,194.552667 410.52288,194.666667 C410.61288,194.777667 410.72088,194.873667 410.84388,194.942667 C410.96988,195.014667 411.10488,195.059667 411.24888,195.077667 C411.38988,195.095667 411.53388,195.086667 411.67188,195.047667 C411.80988,195.008667 411.93888,194.945667 412.05288,194.858667 C412.16388,194.768667 412.25988,194.660667 412.32888,194.537667 C412.40088,194.411667 412.44588,194.276667 412.46388,194.133267 C412.48188,193.991367 412.47288,193.847367 412.43388,193.709667 C411.98688,191.672667 414.67788,190.658667 416.53788,191.696667 C418.44288,192.620667 419.48688,193.994667 422.30988,195.782667 C423.25788,196.343667 424.33188,196.658667 425.43288,196.697667 C426.53388,196.733667 427.62588,196.493667 428.60988,195.998667 C433.89888,192.800667 434.09388,188.723667 438.85488,188.354667 C440.55888,188.495667 441.43188,189.761667 442.40088,191.354667 C443.86788,194.336667 447.22488,196.322667 449.93988,194.072667 C451.18788,193.009167 452.29788,191.791467 453.23988,190.448667 C453.98088,189.566667 455.00388,188.297667 456.30588,188.579667 C457.66488,188.879667 458.24688,186.779667 456.88188,186.479667 C453.49488,185.855667 452.04288,188.702667 449.85288,191.168667 C449.06988,192.068667 448.01088,193.148667 446.70888,192.791667 C443.84388,192.008667 444.11388,186.608667 438.84888,186.191667 C437.23488,186.390267 435.68688,186.942567 434.30988,187.809267 C432.93588,188.675667 431.76888,189.835167 430.89288,191.204667 C427.36488,195.404667 424.97688,195.389667 421.44588,192.554667 C420.52188,191.508267 419.39088,190.665567 418.12488,190.079967 C416.85888,189.494367 415.48488,189.178467 414.08988,189.152667 L414.08988,189.152667 Z" id="Path"></path>
                <path d="M305.28288,246.464667 C308.80788,245.498667 309.36288,240.836667 309.28488,237.764667 C309.26988,237.485667 309.14988,237.224667 308.94888,237.032667 C308.74488,236.843667 308.47788,236.735667 308.20188,236.735667 C307.92288,236.735667 307.65588,236.843667 307.45188,237.032667 C307.25088,237.224667 307.13088,237.485667 307.11588,237.764667 C307.16688,239.729667 307.08588,243.266667 304.98888,244.274667 C304.38888,244.493667 303.72888,244.496667 303.12588,244.283667 C302.52288,244.067667 302.01588,243.647667 301.68888,243.098667 C300.79488,241.505667 300.40488,239.678667 300.57288,237.860667 C300.57288,237.572667 300.45888,237.296667 300.25488,237.095667 C300.05388,236.891667 299.77788,236.777667 299.48988,236.777667 C299.20188,236.777667 298.92588,236.891667 298.72488,237.095667 C298.52088,237.296667 298.40688,237.572667 298.40688,237.860667 C298.21788,240.203667 298.79988,242.543667 300.06588,244.526667 C300.62688,245.351667 301.43088,245.981667 302.36388,246.329667 C303.29988,246.677667 304.31988,246.722667 305.28288,246.464667 Z" id="Path"></path>
                <path d="M91.66788,143.828667 C91.74438,143.940267 91.84218,144.035367 91.95528,144.109167 C92.06868,144.182967 92.19528,144.233967 92.32818,144.258567 C92.46108,144.283467 92.59758,144.281667 92.72988,144.253767 C92.86218,144.225867 92.98758,144.172167 93.09918,144.095667 C93.41718,143.876667 101.73018,135.545667 103.36818,133.850667 C103.55148,133.643667 103.64868,133.374267 103.64028,133.097667 C103.63188,132.821367 103.51848,132.558567 103.32288,132.362967 C103.12728,132.167367 102.86448,132.053667 102.58788,132.045267 C102.31128,132.036867 102.04218,132.134367 101.83488,132.317667 L92.50188,141.650667 L90.06018,138.149667 C89.26818,137.012667 87.38718,138.095667 88.18818,139.244667 C91.41318,143.867667 91.19688,143.690667 91.66788,143.828667 Z" id="Path"></path>
                <path d="M311.07888,234.383667 L313.57488,234.383667 C313.85388,234.368667 314.11488,234.248667 314.30688,234.047667 C314.49588,233.843667 314.60388,233.576667 314.60388,233.300667 C314.60388,233.021667 314.49588,232.754667 314.30688,232.550667 C314.11488,232.349667 313.85388,232.229667 313.57488,232.214667 L311.07888,232.214667 C310.79988,232.229667 310.53888,232.349667 310.34688,232.550667 C310.15788,232.754667 310.04988,233.021667 310.04988,233.300667 C310.04988,233.576667 310.15788,233.843667 310.34688,234.047667 C310.53888,234.248667 310.79988,234.368667 311.07888,234.383667 L311.07888,234.383667 Z" id="Path"></path>
                <path d="M296.06688,232.214667 L293.56788,232.214667 C293.28888,232.229667 293.02788,232.349667 292.83588,232.550667 C292.64688,232.754667 292.53888,233.021667 292.53888,233.300667 C292.53888,233.576667 292.64688,233.843667 292.83588,234.047667 C293.02788,234.248667 293.28888,234.368667 293.56788,234.383667 L296.06688,234.383667 C296.34588,234.368667 296.60688,234.248667 296.79888,234.047667 C296.98788,233.843667 297.09588,233.576667 297.09588,233.300667 C297.09588,233.021667 296.98788,232.754667 296.79888,232.550667 C296.60688,232.349667 296.34588,232.229667 296.06688,232.214667 L296.06688,232.214667 Z" id="Path"></path>
                <path d="M281.24988,90.0029667 L281.24988,74.6459667 C281.23518,74.3681667 281.11458,74.1065667 280.91298,73.9151667 C280.71108,73.7237667 280.44348,73.6169667 280.16538,73.6169667 C279.88728,73.6169667 279.61968,73.7237667 279.41808,73.9151667 C279.21618,74.1065667 279.09558,74.3681667 279.08088,74.6459667 L279.08088,90.0029667 C279.09558,90.2804667 279.21618,90.5420667 279.41808,90.7334667 C279.61968,90.9251667 279.88728,91.0316667 280.16538,91.0316667 C280.44348,91.0316667 280.71108,90.9251667 280.91298,90.7334667 C281.11458,90.5420667 281.23518,90.2804667 281.24988,90.0029667 L281.24988,90.0029667 Z" id="Path"></path>
                <path d="M280.50288,94.2026667 C280.22838,94.2122667 279.96768,94.3256667 279.77328,94.5200667 C279.57918,94.7141667 279.46548,94.9748667 279.45588,95.2496667 L279.45588,97.8716667 C279.47058,98.1494667 279.59118,98.4110667 279.79308,98.6024667 C279.99468,98.7938667 280.26228,98.9006667 280.54038,98.9006667 C280.81848,98.9006667 281.08608,98.7938667 281.28798,98.6024667 C281.48958,98.4110667 281.61018,98.1494667 281.62488,97.8716667 L281.62488,95.2496667 C281.61468,94.9619667 281.49078,94.6901667 281.28048,94.4939667 C281.07018,94.2977667 280.79058,94.1927667 280.50288,94.2026667 L280.50288,94.2026667 Z" id="Path"></path>
            </g>
        </g>
    </g>
</svg>