<svg width="106" height="36" viewBox="0 0 106 36" xmlns="http://www.w3.org/2000/svg">
    <g fill="none" fill-rule="evenodd">
        <path d="M0 0h106v36H0z"/>
        <path d="m56.318 13.512-1.539 10.714h-.03L53.4 13.512h-3.834l-1.352 10.714h-.03l-1.538-10.714h-2.34l1.91 12.405h3.825l1.412-10.692h.03L52.88 25.92h3.828l1.95-12.401h-2.334s-.007-.035-.007-.008m40.67-.353a2.934 2.934 0 0 0-2.752 1.63 2.535 2.535 0 0 0-.807-1.138 2.45 2.45 0 0 0-1.574-.492 2.713 2.713 0 0 0-1.544.436 2.523 2.523 0 0 0-.869 1.064v-1.147h-2.278V25.91h2.278v-8.475a2.476 2.476 0 0 1 .436-1.52c.274-.368.716-.572 1.172-.544a1.24 1.24 0 0 1 1 .435c.268.335.407.757.386 1.186v8.91h2.284V17.58a2.637 2.637 0 0 1 .433-1.69 1.401 1.401 0 0 1 1.136-.518 1.2 1.2 0 0 1 1.06.435c.248.375.37.82.351 1.268v8.817h2.295v-9.425a3.566 3.566 0 0 0-.75-2.379 2.839 2.839 0 0 0-2.257-.929m-28.71 8.402-3.95 2.296h.026c-.17.11-.368.17-.569.174a1.124 1.124 0 0 1-1.099-1.1 1.073 1.073 0 0 1 .56-.957l5.033-2.89v2.477zm2.192 1.295v-9.284h-9.375v2.174h7.184v.782l-6.133 3.516a3.282 3.282 0 0 0-1.66 2.86 3.159 3.159 0 0 0 1 2.37c.63.587 1.46.918 2.32.924a3.207 3.207 0 0 0 1.64-.433l3.042-1.779 2.547 2.204h.023l1.442-1.612-.022.018-2.008-1.74zm10.119-9.71a3.911 3.911 0 0 0-3.251 1.583l-1.452-1.331-1.43 1.597 2.061 1.867v6.826h-2.05v2.142h7.392v-2.142h-3.126v-6.32a2.003 2.003 0 0 1 1.738-2.027 1.932 1.932 0 0 1 2.117 1.922v.714h2.143v-.714a3.943 3.943 0 0 0-1.243-2.907 3.961 3.961 0 0 0-2.899-1.21m-39.232 6.747a2.873 2.873 0 0 0-1.026-.626 6.615 6.615 0 0 0-1.182-.435 20.205 20.205 0 0 0-1.34-.317 6.714 6.714 0 0 1-2.12-.713 1.243 1.243 0 0 1-.656-1.074 1.22 1.22 0 0 1 .588-1.126 2.558 2.558 0 0 1 1.91-.329 3.75 3.75 0 0 1 1.68.915c.099.084 1.09 1 1.072 1.022l1.43-1.622s-.685-.694-1.012-.98a5.65 5.65 0 0 0-2.742-1.408 5.303 5.303 0 0 0-3.143.476c-.258.132-.501.29-.726.475a3.292 3.292 0 0 0-1.252 2.65c0 1.131.356 1.934 1.088 2.46a7.53 7.53 0 0 0 2.924 1.189c.826.145 1.633.387 2.403.716.42.135.701.528.691.97.02.53-.25 1.03-.704 1.304a3.633 3.633 0 0 1-3.58 0c-.444-.29-.86-.62-1.239-.987-.31-.261-.602-.544-.9-.823l-1.391 1.674s.679.635.739.687a6.788 6.788 0 0 0 3.22 1.83c.451.094.914.14 1.374.139a5.406 5.406 0 0 0 3.412-1.065 3.552 3.552 0 0 0 1.42-2.969 2.655 2.655 0 0 0-.286-1.165 2.363 2.363 0 0 0-.652-.868M5.854 17.619l5.856 3.29v6.559l-5.856 3.286L0 27.468v-6.559l5.854-3.29zm13.4 0 5.857 3.29v6.559l-5.856 3.286-5.855-3.286v-6.559l5.855-3.29zM12.51 6.167l2.243 1.339v3.863l.77.43 2.85 1.6v2.612l-5.853 3.286-5.855-3.286V9.453l5.845-3.286zm6.847-.917L22.476 7v3.504l-3.095 1.734-.025-.013-3.1-1.738V7.013l.005-.025 3.095-1.738z" fill="#242424"/>
    </g>
</svg>
