<?xml version="1.0" encoding="UTF-8" standalone="no"?>
<svg
   viewBox="0 0 100 100"
   version="1.1"
	xmlns="http://www.w3.org/2000/svg"
	xmlns:svg="http://www.w3.org/2000/svg">
	<defs>
		<style>.cls-2{fill:#242424;}</style>
	</defs>
	<g
     transform="matrix(1.7857143,0,0,1.7834849,-39.285715,-38.523274)">
		<polygon
       class="cls-2"
       points="34.94,77.67 47.89,70.41 47.89,55.91 34.94,48.64 22,55.91 22,70.41 "
       />
		<polygon
       class="cls-2"
       points="65.06,48.64 52.11,55.91 52.11,70.41 65.06,77.67 78,70.41 78,55.91 "
       />
		<polygon
       class="cls-2"
       points="36.97,30.58 36.97,45.08 49.92,52.35 62.86,45.08 62.86,40.14 56.34,36.48 54.41,35.4 54.41,33.19 54.41,26.01 49.9,23.32 "
       />
		<polygon
       class="cls-2"
       points="65.03,37.03 65.09,37.06 71.93,33.22 71.93,25.48 65.03,21.6 58.19,25.44 58.18,25.5 58.19,33.19 "
        />
	</g>
</svg>
